<svg version="1.1" xmlns="http://www.w3.org/2000/svg" xmlns:xlink="http://www.w3.org/1999/xlink" width="289.67912" height="184.02121" viewBox="0,0,289.67912,184.02121"><defs><radialGradient cx="133.44066" cy="173.10047" r="86.81903" gradientUnits="userSpaceOnUse" id="color-1"><stop offset="0" stop-color="#7ef2ff"/><stop offset="1" stop-color="#ffffff"/></radialGradient><radialGradient cx="325.11116" cy="175.41733" r="86.81902" gradientUnits="userSpaceOnUse" id="color-2"><stop offset="0" stop-color="#7ef2ff"/><stop offset="1" stop-color="#ffffff"/></radialGradient></defs><g transform="translate(-83.3616,-82.02675)"><g data-paper-data="{&quot;isPaintingLayer&quot;:true}" fill-rule="nonzero" stroke="#00a4ff" stroke-width="7.5" stroke-linecap="butt" stroke-linejoin="miter" stroke-miterlimit="10" stroke-dasharray="" stroke-dashoffset="0" style="mix-blend-mode: normal"><path d="M90.12698,258.76958c0,0 19.08815,-30.0703 25.4392,-61.85259c5.29414,-26.49322 -2.23895,-53.94213 0.12905,-68.34212c3.09351,-18.81187 2.79646,-42.29342 2.79646,-42.29342l3.06645,0.38331c0,0 0.41611,29.80523 10.97198,62.65237c7.4101,23.0583 9.38859,48.54318 18.14408,68.61721c8.54435,19.58993 23.9446,34.00857 25.00718,37.45102c0.41357,1.33987 1.07296,4.53413 1.07296,4.53413z" fill="url(#color-1)"/><path d="M281.79747,261.08644c0,0 19.08815,-30.0703 25.4392,-61.8526c5.29413,-26.49322 -2.23895,-53.94213 0.12905,-68.34212c3.09351,-18.81187 2.79646,-42.29342 2.79646,-42.29342l3.06645,0.38331c0,0 0.41611,29.80523 10.97198,62.65237c7.4101,23.0583 9.38859,48.54318 18.14408,68.61721c8.54435,19.58993 23.9446,34.00857 25.00718,37.45103c0.41357,1.33986 1.07296,4.53413 1.07296,4.53413z" fill="url(#color-2)"/></g></g></svg>