<svg version="1.1" xmlns="http://www.w3.org/2000/svg" xmlns:xlink="http://www.w3.org/1999/xlink" width="144.7238" height="127.62958" viewBox="0,0,144.7238,127.62958"><g transform="translate(-169.1381,-118.47458)"><g data-paper-data="{&quot;isPaintingLayer&quot;:true}" fill-rule="nonzero" stroke="#000000" stroke-width="3" stroke-linecap="butt" stroke-linejoin="miter" stroke-miterlimit="10" stroke-dasharray="" stroke-dashoffset="0" style="mix-blend-mode: normal"><path d="M296.21429,180c0,33.15113 -25.16799,60.02542 -56.21429,60.02542c-31.04629,0 -56.21429,-26.8743 -56.21429,-60.02542c0,-33.15113 25.16799,-60.02542 56.21429,-60.02542c31.04629,0 56.21429,26.8743 56.21429,60.02542z" fill="#6693ff"/><path d="M287.16667,195.5248c0,23.52032 -21.11724,42.5873 -47.16667,42.5873c-26.04943,0 -47.16667,-19.06698 -47.16667,-42.5873c0,-23.52032 21.11724,-42.5873 47.16667,-42.5873c26.04943,0 47.16667,19.06698 47.16667,42.5873z" fill="#ffffff"/><path d="M198.15696,187.62815c-3.17525,13.81511 -11.63986,23.66058 -18.90625,21.99049c-7.26639,-1.6701 -10.58291,-14.22334 -7.40767,-28.03844c3.17525,-13.81511 11.63986,-23.66058 18.90625,-21.99049c7.26639,1.6701 10.58291,14.22334 7.40767,28.03844z" fill="#6693ff"/><path d="M292.25071,158.58971c7.26638,-1.6701 15.73101,8.17538 18.90625,21.99048c3.17525,13.8151 -0.14129,26.36835 -7.40767,28.03844c-7.26639,1.6701 -15.731,-8.17538 -18.90625,-21.99049c-3.17525,-13.8151 0.14129,-26.36834 7.40767,-28.03844z" data-paper-data="{&quot;index&quot;:null}" fill="#6693ff"/><path d="M241.5,235.10416c0,5.24671 -10.29745,9.5 -23,9.5c-12.70255,0 -23,-4.25329 -23,-9.5c0,-5.24671 10.29745,-9.5 23,-9.5c12.70255,0 23,4.25329 23,9.5z" fill="#ffd266"/><path d="M294.5,234.4375c0,5.2467 -10.29745,9.5 -23,9.5c-12.70255,0 -23,-4.2533 -23,-9.5c0,-5.2467 10.29745,-9.5 23,-9.5c12.70255,0 23,4.2533 23,9.5z" fill="#ffd266"/><path d="M263.16667,171.4375c0,5.2467 -10.29745,9.5 -23,9.5c-12.70255,0 -23,-4.2533 -23,-9.5c0,-5.2467 10.29745,-9.5 23,-9.5c12.70255,0 23,4.2533 23,9.5z" fill="#d6af56"/></g></g></svg>