<svg version="1.1" xmlns="http://www.w3.org/2000/svg" xmlns:xlink="http://www.w3.org/1999/xlink" width="152.87296" height="163.91397" viewBox="0,0,152.87296,163.91397"><g transform="translate(-162.20046,-84.25651)"><g data-paper-data="{&quot;isPaintingLayer&quot;:true}" fill-rule="nonzero" stroke-linejoin="miter" stroke-miterlimit="10" stroke-dasharray="" stroke-dashoffset="0" style="mix-blend-mode: normal"><path d="M193.197,206.96131l-6.7626,-17.5235c0,0 35.43183,1.97748 52.81144,1.73397c16.94249,-0.23738 50.18827,-3.17709 50.18827,-3.17709l-13.78531,14.84345l29.34865,22.96577l-124.63179,-0.11098z" fill="#ff7b7b" stroke="#9b4a4a" stroke-width="2.5" stroke-linecap="butt"/><path d="M241.5,235.10416c0,5.24671 -10.29745,9.5 -23,9.5c-12.70255,0 -23,-4.25329 -23,-9.5c0,-5.24671 10.29745,-9.5 23,-9.5c12.70255,0 23,4.25329 23,9.5z" fill="#ffd266" stroke="#000000" stroke-width="3" stroke-linecap="butt"/><path d="M294.5,234.4375c0,5.2467 -10.29745,9.5 -23,9.5c-12.70255,0 -23,-4.2533 -23,-9.5c0,-5.2467 10.29745,-9.5 23,-9.5c12.70255,0 23,4.2533 23,9.5z" fill="#ffd266" stroke="#000000" stroke-width="3" stroke-linecap="butt"/><path d="M286.79949,125.00015c0,2.98879 -20.58462,5.41167 -45.97704,5.41167c-25.39242,0 -45.97704,-2.42288 -45.97704,-5.41167c0,-2.98879 20.58462,-5.41167 45.97704,-5.41167c25.39242,0 45.97704,2.42288 45.97704,5.41167z" fill="#ffda80" stroke="#b79d5c" stroke-width="3" stroke-linecap="butt"/><path d="M216.3634,120.72364c0,0 0.43391,-9.04453 0.43391,-14.63073c0,-5.86335 -5.79303,-20.31283 -5.79303,-20.31283l52.5864,0.55466c0,0 -3.67488,11.2326 -3.67488,16.91711c0,5.77696 0.99532,17.47177 0.99532,17.47177z" fill="#ffda80" stroke="#b79d5c" stroke-width="3" stroke-linecap="butt"/><path d="M193.82808,201.62875c0,5.35135 -6.7443,9.68947 -15.06381,9.68947c-8.31951,0 -15.06381,-4.33812 -15.06381,-9.68947c0,-5.35135 6.7443,-9.68947 15.06381,-9.68947c8.31951,0 15.06381,4.33812 15.06381,9.68947z" fill="#fffffe" stroke="#9c9c9c" stroke-width="3" stroke-linecap="butt"/><path d="M309.08588,208.81674c0,5.46521 -6.7443,9.89563 -15.06381,9.89563c-8.31951,0 -15.06382,-4.43042 -15.06382,-9.89563c0,-5.46521 6.74431,-9.89563 15.06382,-9.89563c8.31951,0 15.06381,4.43042 15.06381,9.89563z" fill="#fffffe" stroke="#9c9c9c" stroke-width="3" stroke-linecap="butt"/><path d="M260.87992,132.96078l-6.33775,-10.37586l6.39905,-2.67961l6.33775,10.37586l-5.24651,-1.47809z" fill="#4c4c4c" stroke="#000000" stroke-width="2" stroke-linecap="butt"/><path d="M271.79734,204.69359l-13.94336,4.32934l-34.36043,0.41231l-23.40494,-4.32934" fill="none" stroke="#9b4a4a" stroke-width="2.5" stroke-linecap="round"/><path d="M167.43534,194.34259l2.06796,-6.71198l25.76678,5.44249l-2.06796,6.71198z" fill="#fffffe" stroke="#9c9c9c" stroke-width="3" stroke-linecap="butt"/><path d="M285.32152,201.6994l2.06796,-6.712l25.76678,5.44249l-2.06796,6.71198z" fill="#fffffe" stroke="#9c9c9c" stroke-width="3" stroke-linecap="butt"/><path d="M218.16618,124.38399v-5.4426h41.23252v5.4426z" fill="#4c4c4c" stroke="#000000" stroke-width="2" stroke-linecap="butt"/><path d="M243.79906,241.28179c0,2.45935 -11.10301,4.45303 -24.79927,4.45303c-13.69626,0 -24.79927,-1.99368 -24.79927,-4.45303c0,-2.45935 11.10301,-4.45303 24.79927,-4.45303c13.69626,0 24.79927,1.99368 24.79927,4.45303z" fill="#ff7b7b" stroke="#9b4a4a" stroke-width="2" stroke-linecap="butt"/><path d="M298.42011,243.8193c0.05033,2.4815 -10.92488,3.89399 -24.51384,3.15489c-13.58894,-0.7391 -24.64576,-3.34992 -24.69609,-5.83142c-0.05033,-2.4815 10.92488,-3.89399 24.51384,-3.15489c13.58894,0.7391 24.64576,3.34992 24.69609,5.83142z" fill="#ff7b7b" stroke="#9b4a4a" stroke-width="2" stroke-linecap="butt"/><path d="M267.72598,170.21801c-0.03381,5.80637 -11.45712,10.44704 -25.51468,10.3652c-14.05756,-0.08184 -25.42605,-4.85521 -25.39226,-10.66158c0.03381,-5.80637 11.45712,-10.44704 25.51468,-10.3652c14.05756,0.08184 25.42605,4.85521 25.39226,10.66158z" fill="#ff4b51" stroke="#000000" stroke-width="3" stroke-linecap="butt"/></g></g></svg>