<svg version="1.1" xmlns="http://www.w3.org/2000/svg" xmlns:xlink="http://www.w3.org/1999/xlink" width="62.375" height="48.75403" viewBox="0,0,62.375,48.75403"><g transform="translate(-209.125,-152.0605)"><g data-paper-data="{&quot;isPaintingLayer&quot;:true}" fill-rule="nonzero" stroke-linejoin="miter" stroke-miterlimit="10" stroke-dasharray="" stroke-dashoffset="0" style="mix-blend-mode: normal"><path d="M210.625,199.31453v-45.75403h59.375v45.75403z" fill="#00ff21" stroke="#000000" stroke-width="3" stroke-linecap="butt"/><text transform="translate(230.94177,196.78055) scale(0.12418,0.12418)" font-size="40" xml:space="preserve" fill="#000000" fill-rule="nonzero" stroke="none" stroke-width="1" stroke-linecap="butt" stroke-linejoin="miter" stroke-miterlimit="10" stroke-dasharray="" stroke-dashoffset="0" font-family="Sans Serif" font-weight="normal" text-anchor="start" style="mix-blend-mode: normal"><tspan x="0" dy="0">FIGHTER</tspan></text><path d="M254.48356,174.17555c0,7.72033 -5.86119,13.97889 -13.09134,13.97889c-7.23015,0 -13.09134,-6.25856 -13.09134,-13.97889c0,-7.72033 5.86119,-13.97889 13.09134,-13.97889c7.23015,0 13.09134,6.25856 13.09134,13.97889z" fill="#ffd5a2" stroke="#000000" stroke-width="3" stroke-linecap="butt"/><path d="M251.94745,169.15889l-3.75581,-2.5461l3.30296,-1.6119l1.99508,2.70444z" data-paper-data="{&quot;index&quot;:null}" fill="#000000" stroke="none" stroke-width="0" stroke-linecap="butt"/><path d="M229.19498,168.24468l0.81509,-4.01638l3.6679,0.28688l-2.50349,4.66188z" fill="#000000" stroke="none" stroke-width="0" stroke-linecap="butt"/><path d="M230.3366,181.74347l-1.21395,-11.76011l12.59469,7.58716l10.6979,-6.52496l0.91046,10.01506c0,0 -0.99308,1.39215 -2.53422,2.56352c-2.53288,1.92516 -6.41704,4.02839 -8.85144,4.10166c-2.39797,0.07218 -7.53829,-2.03994 -10.17664,-3.83626c-1.34848,-0.91811 -1.42681,-2.14608 -1.42681,-2.14608z" fill="#000000" stroke="#bd0000" stroke-width="4.5" stroke-linecap="butt"/><path d="M231.64769,175.95201c-0.73946,3.2173 -2.71072,5.51014 -4.40294,5.12121c-1.69222,-0.38894 -2.46458,-3.31237 -1.72512,-6.52967c0.73946,-3.2173 2.71072,-5.51014 4.40294,-5.12121c1.69222,0.38894 2.46458,3.31237 1.72512,6.52967z" fill="#ffd5a2" stroke="#000000" stroke-width="3" stroke-linecap="butt"/><path d="M246.96976,186.13893l-14.96272,-13.21707" data-paper-data="{&quot;index&quot;:null}" fill="none" stroke="#a17900" stroke-width="4.5" stroke-linecap="round"/><path d="M247.98631,178.86566l-1.25009,-0.19839l0.77062,-4.71097l1.25009,0.19839z" fill="#4f3d00" stroke="#a17900" stroke-width="4.5" stroke-linecap="butt"/><path d="M244.82944,185.75437l1.40986,-7.06129l1.76453,0.29134l-1.28028,7.16854l-1.53629,1.51621z" fill="#000000" stroke="#bd0000" stroke-width="4.5" stroke-linecap="butt"/><path d="M245.00085,178.43247l0.27398,-1.30197l4.44389,0.93515l-0.27398,1.30197z" fill="#4f3d00" stroke="#a17900" stroke-width="4.5" stroke-linecap="butt"/><path d="M232.13395,184.04878l-1.15109,-1.49642l21.25686,-0.07674l-1.49642,1.41968z" fill="#342800" stroke="#181200" stroke-width="4.5" stroke-linecap="butt"/><path d="M246.94081,170.83854c0,1.22187 -2.32136,3.24837 -5.27956,3.24837c-2.95821,0 -5.62489,-1.37422 -5.62489,-2.59608c0,-1.22187 2.62832,-0.63923 5.58652,-0.63923c2.95821,0 5.31793,-1.23493 5.31793,-0.01306z" fill="#ffffff" stroke="#000000" stroke-width="3" stroke-linecap="butt"/><path d="M241.44068,177.70772l0.50533,5.78827" fill="none" stroke="#bd0000" stroke-width="4.5" stroke-linecap="round"/><path d="M244.01324,183.47302c0,1.0529 -0.95639,1.90645 -2.13615,1.90645c-1.17976,0 -2.13615,-0.85355 -2.13615,-1.90645c0,-1.0529 0.95639,-1.90645 2.13615,-1.90645c1.17976,0 2.13615,0.85355 2.13615,1.90645z" fill="#4f3d00" stroke="#261d00" stroke-width="4.5" stroke-linecap="butt"/><path d="M241.57475,181.64704c0,-0.16077 0.13033,-0.2911 0.2911,-0.2911c0.16077,0 0.2911,0.13033 0.2911,0.2911c0,0.16077 -0.13033,0.2911 -0.2911,0.2911c-0.16077,0 -0.2911,-0.13033 -0.2911,-0.2911z" fill="#b6b6b6" stroke="none" stroke-width="0.5" stroke-linecap="butt"/><path d="M243.14743,182.27149c0,-0.16077 0.13033,-0.2911 0.2911,-0.2911c0.16077,0 0.2911,0.13033 0.2911,0.2911c0,0.16077 -0.13033,0.2911 -0.2911,0.2911c-0.16077,0 -0.2911,-0.13033 -0.2911,-0.2911z" fill="#b6b6b6" stroke="none" stroke-width="0.5" stroke-linecap="butt"/><path d="M243.67937,183.6129c0,-0.16077 0.13033,-0.2911 0.2911,-0.2911c0.16077,0 0.2911,0.13033 0.2911,0.2911c0,0.16077 -0.13033,0.2911 -0.2911,0.2911c-0.16077,0 -0.2911,-0.13033 -0.2911,-0.2911z" fill="#b6b6b6" stroke="none" stroke-width="0.5" stroke-linecap="butt"/><path d="M242.77739,185.09307c0,-0.16077 0.13033,-0.2911 0.2911,-0.2911c0.16077,0 0.2911,0.13033 0.2911,0.2911c0,0.16077 -0.13033,0.2911 -0.2911,0.2911c-0.16077,0 -0.2911,-0.13033 -0.2911,-0.2911z" fill="#b6b6b6" stroke="none" stroke-width="0.5" stroke-linecap="butt"/><path d="M241.69038,185.41686c0,-0.16077 0.13033,-0.2911 0.2911,-0.2911c0.16077,0 0.2911,0.13033 0.2911,0.2911c0,0.16077 -0.13033,0.2911 -0.2911,0.2911c-0.16077,0 -0.2911,-0.13033 -0.2911,-0.2911z" fill="#b6b6b6" stroke="none" stroke-width="0.5" stroke-linecap="butt"/><path d="M240.51087,185.09307c0,-0.16077 0.13033,-0.2911 0.2911,-0.2911c0.16077,0 0.2911,0.13033 0.2911,0.2911c0,0.16077 -0.13033,0.2911 -0.2911,0.2911c-0.16077,0 -0.2911,-0.13033 -0.2911,-0.2911z" fill="#b6b6b6" stroke="none" stroke-width="0.5" stroke-linecap="butt"/><path d="M239.65515,184.14484c0,-0.16077 0.13033,-0.2911 0.2911,-0.2911c0.16077,0 0.2911,0.13033 0.2911,0.2911c0,0.16077 -0.13033,0.2911 -0.2911,0.2911c-0.16077,0 -0.2911,-0.13033 -0.2911,-0.2911z" fill="#b6b6b6" stroke="none" stroke-width="0.5" stroke-linecap="butt"/><path d="M239.53951,182.84969c0,-0.16077 0.13033,-0.2911 0.2911,-0.2911c0.16077,0 0.2911,0.13033 0.2911,0.2911c0,0.16077 -0.13033,0.2911 -0.2911,0.2911c-0.16077,0 -0.2911,-0.13033 -0.2911,-0.2911z" fill="#b6b6b6" stroke="none" stroke-width="0.5" stroke-linecap="butt"/><path d="M240.32585,181.92458c0,-0.16077 0.13033,-0.2911 0.2911,-0.2911c0.16077,0 0.2911,0.13033 0.2911,0.2911c0,0.16077 -0.13033,0.2911 -0.2911,0.2911c-0.16077,0 -0.2911,-0.13033 -0.2911,-0.2911z" fill="#b6b6b6" stroke="none" stroke-width="0.5" stroke-linecap="butt"/><path d="M231.94407,185.54206c0.16077,0 -0.16077,0 0,0z" fill="#b6b6b6" stroke="none" stroke-width="0.5" stroke-linecap="butt"/><path d="M230.82037,187.17457c0,-0.16077 0,0.16077 0,0z" fill="#b6b6b6" stroke="none" stroke-width="0.5" stroke-linecap="butt"/><path d="M253.0868,185.63211c-0.16077,0 0.16077,0 0,0z" fill="#b6b6b6" stroke="none" stroke-width="0.5" stroke-linecap="butt"/><path d="M250.41354,188.88356c0,-0.16077 0,0.16077 0,0z" fill="#b6b6b6" stroke="none" stroke-width="0.5" stroke-linecap="butt"/><path d="M249.45575,188.82374c-0.16077,0 0.16077,0 0,0z" fill="#b6b6b6" stroke="none" stroke-width="0.5" stroke-linecap="butt"/><path d="M246.10224,188.75435c-0.16077,0 0.16077,0 0,0z" fill="#b6b6b6" stroke="none" stroke-width="0.5" stroke-linecap="butt"/><path d="M241.13956,188.03688c0,1.09096 -2.15958,1.97536 -4.82356,1.97536c-2.66398,0 -4.82356,-0.8844 -4.82356,-1.97536c0,-1.09096 2.15958,-1.97536 4.82356,-1.97536c2.66398,0 4.82356,0.8844 4.82356,1.97536z" fill="#000000" stroke="#bd0000" stroke-width="4.5" stroke-linecap="butt"/><path d="M253.19143,187.82313c0,1.09096 -2.15958,1.97536 -4.82356,1.97536c-2.66398,0 -4.82356,-0.8844 -4.82356,-1.97536c0,-1.09096 2.15958,-1.97536 4.82356,-1.97536c2.66398,0 4.82356,0.8844 4.82356,1.97536z" fill="#000000" stroke="#bd0000" stroke-width="4.5" stroke-linecap="butt"/><path d="M224.73429,177.57249l1.99523,-7.52048c0,0 2.10456,-0.89583 3.01123,-0.73292c0.60596,0.10888 1.9001,1.61542 1.9001,1.61542l-0.3837,6.9833z" fill="#ffffff" stroke="#000000" stroke-width="4.5" stroke-linecap="butt"/><path d="M230.78441,172.09027l-5.58919,4.93711" fill="none" stroke="#a17900" stroke-width="4.5" stroke-linecap="round"/><path d="M226.79251,171.73208v-1.95686c0,0 1.64245,-0.57555 2.45567,-0.57555c0.75573,0 2.26382,0.57555 2.26382,0.57555v1.95686z" fill="#191919" stroke="#000000" stroke-width="4.5" stroke-linecap="butt"/><path d="M224.44999,177.95892v-0.69865h6.24126v0.69865z" fill="#342800" stroke="#181200" stroke-width="2.5" stroke-linecap="butt"/><path d="M225.33495,174.83829v-0.7918h5.9618v0.7918z" fill="#342800" stroke="#181200" stroke-width="2.5" stroke-linecap="butt"/><path d="M253.88932,170.12099c1.69222,-0.38894 3.66348,1.90391 4.40294,5.12121c0.73946,3.2173 -0.0329,6.14073 -1.72512,6.52967c-1.69222,0.38894 -3.66348,-1.90391 -4.40294,-5.12121c-0.73946,-3.2173 0.0329,-6.14073 1.72512,-6.52967z" data-paper-data="{&quot;index&quot;:null}" fill="#ffd5a2" stroke="#000000" stroke-width="3" stroke-linecap="butt"/><path d="M252.55473,178.61647l-0.3837,-6.9833c0,0 1.29415,-1.50654 1.9001,-1.61542c0.90667,-0.16292 3.01123,0.73292 3.01123,0.73292l1.99523,7.52048z" data-paper-data="{&quot;index&quot;:null}" fill="#ffffff" stroke="#000000" stroke-width="4.5" stroke-linecap="butt"/><path d="M258.61667,177.72603l-5.58919,-4.93711" data-paper-data="{&quot;index&quot;:null}" fill="none" stroke="#a17900" stroke-width="4.5" stroke-linecap="round"/><path d="M252.29989,172.43073v-1.95686c0,0 1.50809,-0.57555 2.26382,-0.57555c0.81321,0 2.45567,0.57555 2.45567,0.57555v1.95686z" data-paper-data="{&quot;index&quot;:null}" fill="#191919" stroke="#000000" stroke-width="4.5" stroke-linecap="butt"/><path d="M253.12064,178.65757v-0.69865h6.24126v0.69865z" data-paper-data="{&quot;index&quot;:null}" fill="#342800" stroke="#181200" stroke-width="2.5" stroke-linecap="butt"/><path d="M252.51514,175.53694v-0.7918h5.9618v0.7918z" data-paper-data="{&quot;index&quot;:null}" fill="#342800" stroke="#181200" stroke-width="2.5" stroke-linecap="butt"/><path d="M235.18617,166.00818c-0.24972,-0.00657 -0.85879,0.11907 -1.04243,-0.10604c-0.16075,-0.19704 -0.16688,-0.63225 -0.42114,-0.6361c-1.3502,-0.02045 -2.59548,0.71337 -3.94451,0.00888c-0.57612,-0.30086 -1.08263,-1.67461 -0.56855,-2.21104c0.59957,-0.62564 1.10534,-0.49359 1.90673,-0.46577c0.26051,0.00905 0.70483,0.26626 0.89257,0.15014c0.1362,-0.08425 -0.27921,-0.1832 -0.35402,-0.3248c-0.10165,-0.19238 -0.21628,-0.74534 -0.2807,-0.9953c-0.31437,-1.21975 -0.164,-2.40623 1.08124,-3.00738c0.59865,-0.28901 1.683,-0.32863 2.21796,0.12991c0.20292,0.17393 0.29406,0.47833 0.40273,0.72398c0.02762,0.06244 0.02782,0.21013 0.09074,0.18363c0.36245,-0.15269 -0.85144,-1.71575 0.09901,-2.25886c0.25407,-0.14518 0.74748,-0.34288 1.01891,-0.27789c0.03852,0.00922 0.50893,0.28018 0.57116,0.22433c0.34033,-0.30542 0.35534,-0.36465 0.83615,-0.27129c0.3367,0.06538 1.1158,0.4553 1.3945,0.39208c0.57132,-0.12959 1.04591,-0.41767 1.63618,-0.54884c0.72538,-0.16119 1.04751,0.26471 1.59793,0.28844c1.0257,0.04422 2.14811,-0.07488 3.18873,-0.05556c0.44764,0.00831 0.89865,0.05346 1.34317,0c0.4078,-0.04905 0.8415,-0.42237 1.20888,-0.23869c0.31725,0.15862 0.22875,0.89781 0.58335,0.88992c0.55256,-0.01229 0.72212,-0.49619 1.39325,-0.11269c0.76614,0.43779 0.36282,1.50579 0.41632,1.55451c0.41618,0.3789 1.25232,1.1926 1.35723,1.84467c0.06203,0.38555 -0.04704,0.94019 0.03129,1.24291c0.03674,0.14199 0.47276,0.08645 0.58221,0.8161c0.11954,0.79694 -0.32735,1.32283 -0.76321,1.89594c-0.0812,0.10677 0.06272,1.24822 -0.06862,1.69541c-0.66579,2.26686 -3.10023,2.26505 -5.02111,1.80283c-1.39054,-0.3346 -1.5267,-1.65836 -2.24594,-2.10615c-0.22618,-0.14081 -0.33549,0.4405 -0.57691,0.5532c-0.54471,0.25427 -1.04082,0.203 -1.54304,-0.22597c-0.12936,-0.11049 -0.5393,-1.16999 -0.65994,-1.44245c-0.03173,-0.07166 -0.39204,-1.07926 -0.41605,-1.04333c-0.05136,0.07687 0.03285,0.96975 -0.05378,1.29786c-0.23509,0.89044 -0.41074,1.82441 -0.84755,2.64343c-0.31253,0.586 -2.22244,0.48886 -2.59191,0.46019c-0.20265,-0.01572 -0.44564,-0.02204 -0.58584,-0.16922c-0.37947,-0.39837 -0.4142,-0.48078 -0.52851,-0.99519c-0.03874,-0.17433 0.36151,-0.19187 0.131,-0.46577c-0.20327,-0.24153 -0.65797,0.01486 -0.93793,-0.131c-0.2987,-0.15563 -0.27124,-0.47466 -0.41918,-0.73357z" fill="#000000" stroke="none" stroke-width="0.5" stroke-linecap="butt"/><path d="M239.23487,168.62839c0,1.63898 -1.54589,1.15756 -3.45284,1.15756c-1.90695,0 -3.45284,0.48142 -3.45284,-1.15756c0,-1.63898 1.54589,-2.96763 3.45284,-2.96763c1.90695,0 3.45284,1.32865 3.45284,2.96763z" fill="#750000" stroke="#000000" stroke-width="3" stroke-linecap="butt"/><path d="M236.11337,167.19587c0,-0.39804 0.39818,-0.72071 0.88937,-0.72071c0.49118,0 0.88937,0.32267 0.88937,0.72071c0,0.39804 -0.39818,0.72071 -0.88937,0.72071c-0.49118,0 -0.88937,-0.32267 -0.88937,-0.72071z" fill="#ffffff" stroke="none" stroke-width="0.5" stroke-linecap="butt"/><path d="M250.29681,168.45373c0,1.63898 -1.54589,1.15756 -3.45284,1.15756c-1.90695,0 -3.45284,0.48142 -3.45284,-1.15756c0,-1.63898 1.54589,-2.96763 3.45284,-2.96763c1.90695,0 3.45284,1.32865 3.45284,2.96763z" data-paper-data="{&quot;index&quot;:null}" fill="#750000" stroke="#000000" stroke-width="3" stroke-linecap="butt"/><path d="M247.1753,167.0212c0,-0.39804 0.39818,-0.72071 0.88937,-0.72071c0.49118,0 0.88937,0.32267 0.88937,0.72071c0,0.39804 -0.39818,0.72071 -0.88937,0.72071c-0.49118,0 -0.88937,-0.32267 -0.88937,-0.72071z" data-paper-data="{&quot;index&quot;:null}" fill="#ffffff" stroke="none" stroke-width="0.5" stroke-linecap="butt"/></g></g></svg>