<svg version="1.1" xmlns="http://www.w3.org/2000/svg" xmlns:xlink="http://www.w3.org/1999/xlink" width="177.81654" height="163.72802" viewBox="0,0,177.81654,163.72802"><g transform="translate(-152.70485,-102.89178)"><g data-paper-data="{&quot;isPaintingLayer&quot;:true}" fill-rule="nonzero" stroke-linejoin="miter" stroke-miterlimit="10" stroke-dasharray="" stroke-dashoffset="0" style="mix-blend-mode: normal"><path d="M290.51259,263.9664c-3.89426,3.51603 -13.95197,-1.27673 -22.46449,-10.70497c-8.51252,-9.42824 -12.25636,-19.92166 -8.3621,-23.43769c3.89426,-3.51603 13.95197,1.27673 22.46449,10.70497c8.51252,9.42824 12.25636,19.92166 8.3621,23.43769z" fill="#ff7b7b" stroke="#9b4a4a" stroke-width="3" stroke-linecap="butt"/><path d="M228.84771,230.395c3.81511,3.60179 -0.1612,14.00933 -8.88132,23.2459c-8.72013,9.23657 -18.88192,13.80447 -22.69703,10.20267c-3.81511,-3.60179 0.1612,-14.00933 8.88132,-23.2459c8.72013,-9.23657 18.88192,-13.80447 22.69703,-10.20267z" fill="#ff7b7b" stroke="#9b4a4a" stroke-width="3" stroke-linecap="butt"/><path d="M288.57428,143.63542c0,2.98879 -20.58462,5.41167 -45.97704,5.41167c-25.39242,0 -45.97704,-2.42288 -45.97704,-5.41167c0,-2.98879 20.58462,-5.41167 45.97704,-5.41167c25.39242,0 45.97704,2.42288 45.97704,5.41167z" fill="#ffda80" stroke="#b79d5c" stroke-width="3" stroke-linecap="butt"/><path d="M218.13819,139.35891c0,0 0.43391,-9.04453 0.43391,-14.63073c0,-5.86335 -5.79303,-20.31283 -5.79303,-20.31283l52.5864,0.55466c0,0 -3.67488,11.2326 -3.67488,16.91711c0,5.77696 0.99532,17.47177 0.99532,17.47177z" fill="#ffda80" stroke="#b79d5c" stroke-width="3" stroke-linecap="butt"/><path d="M320.33955,196.32726c4.65084,2.64701 5.08506,10.65427 0.96987,17.88473c-4.11519,7.23046 -11.22144,10.94608 -15.87229,8.29907c-4.65084,-2.64701 -5.08505,-10.65426 -0.96987,-17.88473c4.11519,-7.23046 11.22144,-10.94608 15.87228,-8.29907z" fill="#fffffe" stroke="#9c9c9c" stroke-width="3" stroke-linecap="butt"/><path d="M300.95219,215.66106l-4.81045,-5.1173l17.4754,-19.70173l4.81045,5.1173z" fill="#fffffe" stroke="#9c9c9c" stroke-width="3" stroke-linecap="butt"/><path d="M219.94097,143.01927v-5.4426h41.23252v5.4426z" fill="#4c4c4c" stroke="#000000" stroke-width="2" stroke-linecap="butt"/><path d="M185.07168,209.0319l-8.56022,-17.5235c0,0 44.85025,1.97748 66.84968,1.73397c21.44611,-0.23738 52.28889,-2.88129 52.28889,-2.88129l-1.4766,14.54765l32.41728,22.96577l-157.76117,-0.11098z" fill="#ff7b7b" stroke="#9b4a4a" stroke-width="2.5" stroke-linecap="butt"/><path d="M284.56541,206.76418l-17.64976,4.32934l-43.49405,0.41231l-29.6264,-4.32934" fill="none" stroke="#9b4a4a" stroke-width="2.5" stroke-linecap="round"/><path d="M183.93334,210.94338c-0.97641,5.26152 -8.39901,8.29626 -16.57887,6.77829c-8.17986,-1.51796 -14.01941,-7.01383 -13.04301,-12.27535c0.97641,-5.26152 8.39901,-8.29626 16.57887,-6.77829c8.17986,1.51796 14.01941,7.01382 13.043,12.27534z" fill="#fffffe" stroke="#9c9c9c" stroke-width="3" stroke-linecap="butt"/><path d="M159.31306,198.96394l3.25791,-6.22199l24.34122,10.05251l-3.25791,6.22199z" fill="#fffffe" stroke="#9c9c9c" stroke-width="3" stroke-linecap="butt"/></g></g></svg>