<svg version="1.1" xmlns="http://www.w3.org/2000/svg" xmlns:xlink="http://www.w3.org/1999/xlink" width="52.33333" height="47.35784" viewBox="0,0,52.33333,47.35784"><g transform="translate(-213.83333,-156.32108)"><g data-paper-data="{&quot;isPaintingLayer&quot;:true}" fill-rule="nonzero" stroke-linecap="butt" stroke-linejoin="miter" stroke-miterlimit="10" stroke-dasharray="" stroke-dashoffset="0" style="mix-blend-mode: normal"><path d="M264.16667,180c0,11.97294 -10.81979,21.67892 -24.16667,21.67892c-13.34688,0 -24.16667,-9.70598 -24.16667,-21.67892c0,-11.97294 10.81979,-21.67892 24.16667,-21.67892c13.34688,0 24.16667,9.70598 24.16667,21.67892z" fill="#ff80dc" stroke="#bd00ff" stroke-width="4"/><text transform="translate(231.66667,193.06104) scale(0.12834,0.12834)" font-size="40" xml:space="preserve" fill="#e800a7" fill-rule="nonzero" stroke="none" stroke-width="1" stroke-linecap="butt" stroke-linejoin="miter" stroke-miterlimit="10" stroke-dasharray="" stroke-dashoffset="0" font-family="Sans Serif" font-weight="normal" text-anchor="start" style="mix-blend-mode: normal"><tspan x="0" dy="0">KAWAII</tspan><tspan x="0" dy="46.15px">  COIN</tspan></text><path d="M250.75,178.30208c0,5.89104 -4.70101,10.66667 -10.5,10.66667c-5.79899,0 -10.5,-4.77563 -10.5,-10.66667c0,-5.89104 4.70101,-10.66667 10.5,-10.66667c5.79899,0 10.5,4.77563 10.5,10.66667z" fill="#ffa5e5" stroke="#bd00ff" stroke-width="1.5"/><text transform="translate(234.28,185.76875) scale(0.5,0.5)" font-size="40" xml:space="preserve" fill="#e800a7" fill-rule="nonzero" stroke="none" stroke-width="1" stroke-linecap="butt" stroke-linejoin="miter" stroke-miterlimit="10" stroke-dasharray="" stroke-dashoffset="0" font-family="Sans Serif" font-weight="normal" text-anchor="start" style="mix-blend-mode: normal"><tspan x="0" dy="0">1</tspan></text></g></g></svg>