<svg version="1.1" xmlns="http://www.w3.org/2000/svg" xmlns:xlink="http://www.w3.org/1999/xlink" width="184.74464" height="118.33095" viewBox="0,0,184.74464,118.33095"><g transform="translate(-148.44375,-127.4375)"><g data-paper-data="{&quot;isPaintingLayer&quot;:true}" fill-rule="nonzero" stroke-linecap="butt" stroke-linejoin="miter" stroke-miterlimit="10" stroke-dasharray="" stroke-dashoffset="0" style="mix-blend-mode: normal"><path d="M227.83333,146.27083c0,9.57294 -7.3873,17.33333 -16.5,17.33333c-9.1127,0 -16.5,-7.7604 -16.5,-17.33333c0,-9.57294 7.3873,-17.33333 16.5,-17.33333c9.1127,0 16.5,7.7604 16.5,17.33333z" fill="#171717" stroke="#000000" stroke-width="3"/><path d="M212.91667,138.18194c0,-2.32486 1.90279,-4.20952 4.25,-4.20952c2.34721,0 4.25,1.88467 4.25,4.20952c0,2.32486 -1.90279,4.20952 -4.25,4.20952c-2.34721,0 -4.25,-1.88467 -4.25,-4.20952z" fill="#ffffff" stroke="none" stroke-width="0.5"/><path d="M288.5,147.60417c0,9.57294 -7.3873,17.33333 -16.5,17.33333c-9.1127,0 -16.5,-7.76039 -16.5,-17.33333c0,-9.57294 7.3873,-17.33334 16.5,-17.33334c9.1127,0 16.5,7.7604 16.5,17.33334z" fill="#171717" stroke="#000000" stroke-width="3"/><path d="M273.58333,139.51528c0,-2.32486 1.90279,-4.20953 4.25,-4.20953c2.34721,0 4.25,1.88467 4.25,4.20953c0,2.32486 -1.90279,4.20952 -4.25,4.20952c-2.34721,0 -4.25,-1.88467 -4.25,-4.20952z" fill="#ffffff" stroke="none" stroke-width="0.5"/><path d="M282.39868,175.28348c2.2452,-7.10976 15.02325,-9.41293 28.54057,-5.14426c13.51731,4.26866 22.65517,13.49271 20.40996,20.60246c-2.24521,7.10976 -15.02325,9.41291 -28.54058,5.14425c-13.51731,-4.26866 -22.65516,-13.4927 -20.40996,-20.60246z" data-paper-data="{&quot;index&quot;:null}" fill="#6693ff" stroke="#000000" stroke-width="3"/><path d="M178.68293,194.03255c-13.31654,4.85894 -26.1835,3.1199 -28.73918,-3.88425c-2.55568,-7.00416 6.16773,-16.62108 19.48426,-21.48002c13.31654,-4.85894 26.1835,-3.1199 28.73918,3.88425c2.55568,7.00416 -6.16773,16.62108 -19.48426,21.48002z" fill="#6693ff" stroke="#000000" stroke-width="3"/><path d="M296.21429,190.35296c0,27.43336 -25.16799,49.67249 -56.21429,49.67249c-31.04629,0 -56.21429,-22.23913 -56.21429,-49.67249c0,-27.43336 24.2806,-57.65904 55.3269,-57.65904c31.04629,0 57.10168,30.22568 57.10168,57.65904z" fill="#6693ff" stroke="#000000" stroke-width="3"/><path d="M237.83329,234.14487c-0.00928,5.2467 -10.31424,9.48176 -23.01677,9.45929c-12.70253,-0.02248 -22.99244,-4.29397 -22.98315,-9.54068c0.00928,-5.2467 10.31424,-9.48176 23.01677,-9.45929c12.70253,0.02248 22.99244,4.29397 22.98315,9.54068z" fill="#ffd266" stroke="#000000" stroke-width="3"/><path d="M297.16087,234.25465c0.11775,5.24537 -10.08164,9.72872 -22.78099,10.0138c-12.69935,0.28508 -23.08967,-3.73603 -23.20742,-8.9814c-0.11775,-5.24537 10.08164,-9.72872 22.78099,-10.0138c12.69935,-0.28508 23.08967,3.73603 23.20742,8.9814z" fill="#ffd266" stroke="#000000" stroke-width="3"/></g></g></svg>