<svg version="1.1" xmlns="http://www.w3.org/2000/svg" xmlns:xlink="http://www.w3.org/1999/xlink" width="1199.26802" height="559.04927" viewBox="0,0,1199.26802,559.04927"><defs><linearGradient x1="225.00001" y1="-104.73432" x2="225.00001" y2="345.2657" gradientUnits="userSpaceOnUse" id="color-1"><stop offset="0" stop-color="#000000"/><stop offset="1" stop-color="#000000" stop-opacity="0"/></linearGradient><radialGradient cx="238.50001" cy="307.9063" r="99.75" gradientUnits="userSpaceOnUse" id="color-2"><stop offset="0" stop-color="#3e3e3e"/><stop offset="1" stop-color="#3e3e3e" stop-opacity="0"/></radialGradient><radialGradient cx="239.50001" cy="305.9063" r="99.75" gradientUnits="userSpaceOnUse" id="color-3"><stop offset="0" stop-color="#3e3e3e"/><stop offset="1" stop-color="#3e3e3e" stop-opacity="0"/></radialGradient><linearGradient x1="-516.75674" y1="314.85364" x2="-516.75674" y2="319.35813" gradientUnits="userSpaceOnUse" id="color-4"><stop offset="0" stop-color="#1a1a1a" stop-opacity="0"/><stop offset="1" stop-color="#1a1a1a"/></linearGradient><linearGradient x1="237.50001" y1="-65.18747" x2="237.50001" y2="294.81255" gradientUnits="userSpaceOnUse" id="color-5"><stop offset="0" stop-color="#fbff00"/><stop offset="1" stop-color="#fbff00" stop-opacity="0"/></linearGradient></defs><g transform="translate(525.01501,104.7343)"><g data-paper-data="{&quot;isPaintingLayer&quot;:true}" fill-rule="nonzero" stroke-linejoin="miter" stroke-miterlimit="10" stroke-dasharray="" stroke-dashoffset="0" style="mix-blend-mode: normal"><path d="M-221.49699,450.56497v-545.73437h892v545.73437z" fill="#ffffff" stroke="#000000" stroke-width="7.5" stroke-linecap="butt"/><path d="M-125.5,436.81253v-146h761v146z" fill="#ff0000" stroke="#8b0000" stroke-width="10.5" stroke-linecap="butt"/><text transform="translate(-139.5,302.81253) scale(0.5,0.5)" font-size="40" xml:space="preserve" fill="#ffd617" fill-rule="nonzero" stroke="none" stroke-width="1" stroke-linecap="butt" stroke-linejoin="miter" stroke-miterlimit="10" stroke-dasharray="" stroke-dashoffset="0" font-family="Sans Serif" font-weight="normal" text-anchor="start" style="mix-blend-mode: normal"><tspan x="0" dy="0">...............................................................................................................................................</tspan></text><path d="M-186.49999,345.2657v-450h823v450z" data-paper-data="{&quot;index&quot;:null}" fill="url(#color-1)" stroke="#000000" stroke-width="0" stroke-linecap="butt"/><path d="M238.50001,344.4063c-55.0904,0 -99.75,-16.34161 -99.75,-36.5c0,-20.15839 44.6596,-36.5 99.75,-36.5c55.0904,0 99.75,16.34161 99.75,36.5c0,20.15839 -44.6596,36.5 -99.75,36.5z" data-paper-data="{&quot;index&quot;:null}" fill="url(#color-2)" stroke="#000000" stroke-width="0" stroke-linecap="butt"/><path d="M156.5,271.81255l56,-334h57l51,334c0,0 -51.33634,26 -80,26c-25.67274,0 -84,-26 -84,-26z" fill="#ffffff" stroke="none" stroke-width="0" stroke-linecap="butt"/><path d="M239.50001,342.4063c-55.0904,0 -99.75,-16.34161 -99.75,-36.5c0,-20.15839 44.6596,-36.5 99.75,-36.5c55.0904,0 99.75,16.34161 99.75,36.5c0,20.15839 -44.6596,36.5 -99.75,36.5z" data-paper-data="{&quot;index&quot;:null}" fill="url(#color-3)" stroke="#000000" stroke-width="0" stroke-linecap="butt"/><path d="M323.50002,273.3703c0,5.68432 3.61762,14.35194 -3.47116,18.96261c-14.70735,9.56593 -50.16602,19.68371 -82.02884,19.68371c-29.6129,0 -64.70959,-7.90556 -80.05405,-16.37172c-9.12361,-5.03387 -5.44595,-15.75751 -5.44595,-22.2746c0,-17.47778 38.27965,-31.64632 85.5,-31.64632c47.22035,0 85.5,14.16854 85.5,31.64632z" fill="#ffffff" stroke="#000000" stroke-width="7.5" stroke-linecap="butt"/><path d="M315.16666,267.75149c0,14.00638 -34.62331,25.36078 -77.33333,25.36078c-42.71002,0 -77.33333,-11.35441 -77.33333,-25.36078c0,-14.00638 34.62331,-25.36078 77.33333,-25.36078c42.71002,0 77.33333,11.35441 77.33333,25.36078z" fill="#ffffff" stroke="#000000" stroke-width="7.5" stroke-linecap="butt"/><path d="M-516.75675,319.35813c-4.56091,0 -8.25826,-1.00837 -8.25826,-2.25225c0,-1.24388 3.69735,-2.25225 8.25826,-2.25225c4.56092,0 8.25826,1.00837 8.25826,2.25225c0,1.24388 -3.69735,2.25225 -8.25826,2.25225z" fill="url(#color-4)" stroke="none" stroke-width="0" stroke-linecap="butt"/><path d="M155.5,268.81255l56,-334h57l51,334c0,0 -51.33634,26 -80,26c-25.67275,0 -84,-26 -84,-26z" fill="url(#color-5)" stroke="none" stroke-width="0" stroke-linecap="butt"/><path d="M29.5,191.92366v-152h104v152z" fill="#ffffff" stroke="#a4a4a4" stroke-width="10.5" stroke-linecap="butt"/><path d="M113.14507,132.14024c0,19.05327 -14.46505,34.499 -32.30859,34.499c-17.84354,0 -32.30859,-15.44573 -32.30859,-34.499c0,-19.05327 14.46505,-34.499 32.30859,-34.499c17.84354,0 32.30859,15.44573 32.30859,34.499z" fill="#ff0000" stroke="#000000" stroke-width="3" stroke-linecap="butt"/><path d="M107.94505,141.06296c0,13.51806 -12.13692,24.47662 -27.10856,24.47662c-14.97164,0 -27.10856,-10.95855 -27.10856,-24.47662c0,-13.51806 12.13692,-24.47662 27.10856,-24.47662c14.97164,0 27.10856,10.95855 27.10856,24.47662z" fill="#ffffff" stroke="#000000" stroke-width="3" stroke-linecap="butt"/><path d="M38.95137,115.59986c3.34602,-7.4283 9.22583,-12.02342 13.13292,-10.26351c3.90709,1.75992 4.36193,9.20845 1.01591,16.63674c-3.34602,7.4283 -9.22583,12.02342 -13.13292,10.26351c-3.90709,-1.75992 -4.36193,-9.20845 -1.01591,-16.63674z" fill="#ff0000" stroke="#000000" stroke-width="3" stroke-linecap="butt"/><path d="M121.28702,125.30318c4.04026,1.42792 5.11474,8.81257 2.39991,16.49405c-2.71482,7.68148 -8.19091,12.75099 -12.23117,11.32306c-4.04026,-1.42793 -5.11474,-8.81256 -2.39991,-16.49405c2.71482,-7.68148 8.19091,-12.75099 12.23117,-11.32306z" data-paper-data="{&quot;index&quot;:null}" fill="#ff0000" stroke="#000000" stroke-width="3" stroke-linecap="butt"/><path d="M75.49859,166.41082c0,3.01549 -5.91835,5.46003 -13.21902,5.46003c-7.30066,0 -13.21902,-2.44454 -13.21902,-5.46003c0,-3.01549 5.91835,-5.46003 13.21902,-5.46003c7.30066,0 13.21902,2.44454 13.21902,5.46003z" fill="#ffd266" stroke="#000000" stroke-width="3" stroke-linecap="butt"/><path d="M115.86077,163.4319c0.63777,2.94727 -4.62969,6.58823 -11.7652,8.1323c-7.13551,1.54407 -13.437,0.40654 -14.07476,-2.54073c-0.63777,-2.94727 4.62969,-6.58823 11.7652,-8.1323c7.13551,-1.54407 13.437,-0.40654 14.07476,2.54073z" fill="#ffd266" stroke="#000000" stroke-width="3" stroke-linecap="butt"/><path d="M110.84339,101.07815c0,2.41625 -13.77882,4.375 -30.77586,4.375c-16.99704,0 -30.77586,-1.95875 -30.77586,-4.375c0,-2.41625 13.77882,-4.375 30.77586,-4.375c16.99704,0 30.77586,1.95875 30.77586,4.375z" fill="#ffda80" stroke="#b79d5c" stroke-width="3" stroke-linecap="butt"/><path d="M73.51448,110.29969c0.32072,4.58799 -2.95979,8.55477 -7.3272,8.86007c-4.36742,0.3053 -8.16788,-3.16651 -8.4886,-7.7545c-0.32071,-4.58799 2.95978,-8.55478 7.32719,-8.86007c4.36741,-0.3053 8.16789,3.16652 8.48861,7.7545z" fill="#171717" stroke="#000000" stroke-width="3" stroke-linecap="butt"/><path d="M66.09443,106.92269c-0.07789,-1.11423 0.77092,-2.08124 1.89585,-2.15987c1.12494,-0.07864 2.10003,0.76087 2.17791,1.8751c0.07789,1.11423 -0.77092,2.08123 -1.89585,2.15987c-1.12494,0.07864 -2.10003,-0.76087 -2.17791,-1.8751z" fill="#ffffff" stroke="none" stroke-width="0.5" stroke-linecap="butt"/><path d="M98.52953,107.3404c0.35675,0.71377 -2.88817,1.50831 -7.24772,1.77466c-4.35955,0.26635 -8.18287,-0.09636 -8.53963,-0.81013c-0.35675,-0.71377 2.88817,-1.50831 7.24772,-1.77466c4.35956,-0.26635 8.18287,0.09636 8.53963,0.81013z" fill="#171717" stroke="#000000" stroke-width="3" stroke-linecap="butt"/><path d="M91.01666,102.72414l-3.1,2.5" fill="none" stroke="#000000" stroke-width="2" stroke-linecap="round"/><path d="M95.31665,103.22414l-2.8,1.8" fill="none" stroke="#000000" stroke-width="2" stroke-linecap="round"/><path d="M97.31668,105.42415l4,-0.7" fill="none" stroke="#000000" stroke-width="2" stroke-linecap="round"/><path d="M64.48726,100.0122c0,0 0.29045,-7.31194 0.29045,-11.82803c0,-4.74015 -3.87771,-16.42166 -3.87771,-16.42166l35.2,0.44841c0,0 -2.45987,9.08086 -2.45987,13.67643c0,4.67031 0.66624,14.12484 0.66624,14.12484z" fill="#ffda80" stroke="#b79d5c" stroke-width="3" stroke-linecap="butt"/><path d="M58.61667,101.42414l4,0.6" fill="none" stroke="#000000" stroke-width="2" stroke-linecap="round"/><path d="M56.91668,103.72415l2.5,0.4" fill="none" stroke="#000000" stroke-width="2" stroke-linecap="round"/><path d="M67.81668,102.22414l-5,-3.3" fill="none" stroke="#000000" stroke-width="2" stroke-linecap="round"/><path d="M51.58333,147.96876l-4.33333,-14.16666c0,0 22.70395,1.59867 33.84043,1.40181c10.85638,-0.19191 32.15956,-2.56848 32.15956,-2.56848l-8.83333,12l18.80598,18.56639l-79.86136,-0.08972z" fill="#ff7b7b" stroke="#9b4a4a" stroke-width="2.5" stroke-linecap="butt"/><path d="M57.91668,111.13545c0,4.32623 -4.51446,7.83333 -10.08333,7.83333c-5.56887,0 -10.08333,-3.5071 -10.08333,-7.83333c0,-4.32623 4.51446,-7.83333 10.08333,-7.83333c5.56887,0 10.08333,3.5071 10.08333,7.83333z" fill="#fffffe" stroke="#9c9c9c" stroke-width="3" stroke-linecap="butt"/><path d="M123.58334,149.46876c0,4.41828 -4.51446,8 -10.08333,8c-5.56887,0 -10.08334,-3.58172 -10.08334,-8c0,-4.41828 4.51447,-8 10.08334,-8c5.56887,0 10.08333,3.58172 10.08333,8z" fill="#fffffe" stroke="#9c9c9c" stroke-width="3" stroke-linecap="butt"/><path d="M94.87949,100.33979l-4.24233,-8.38824l4.28336,-2.1663l4.24233,8.38824l-3.51188,-1.19494z" fill="#4c4c4c" stroke="#000000" stroke-width="2" stroke-linecap="butt"/><path d="M102.58333,146.13545l-9.33333,3.5l-23,0.33333l-15.66667,-3.5" fill="none" stroke="#9b4a4a" stroke-width="2.5" stroke-linecap="round"/><path d="M36.88405,118.8757l1.38424,-5.42622l17.24763,4.39991l-1.38424,5.42622z" fill="#fffffe" stroke="#9c9c9c" stroke-width="3" stroke-linecap="butt"/><path d="M106.88408,143.4757l1.38424,-5.42623l17.24763,4.39991l-1.38424,5.42622z" fill="#fffffe" stroke="#9c9c9c" stroke-width="3" stroke-linecap="butt"/><path d="M65.1,94.36253v-4.4h27.6v4.4z" fill="#4c4c4c" stroke="#000000" stroke-width="2" stroke-linecap="butt"/><path d="M78.7,169.96252c0,1.98823 -7.43207,3.6 -16.6,3.6c-9.16793,0 -16.6,-1.61177 -16.6,-3.6c0,-1.98823 7.43207,-3.6 16.6,-3.6c9.16793,0 16.6,1.61177 16.6,3.6z" fill="#ff7b7b" stroke="#9b4a4a" stroke-width="2" stroke-linecap="butt"/><path d="M121.5614,166.82684c0.39952,1.94767 -6.55708,5.02 -15.53801,6.86224c-8.98092,1.84224 -16.58528,1.75677 -16.9848,-0.1909c-0.39952,-1.94767 6.55708,-5.02 15.53801,-6.86224c8.98092,-1.84224 16.58528,-1.75677 16.9848,0.1909z" fill="#ff7b7b" stroke="#9b4a4a" stroke-width="2" stroke-linecap="butt"/><path d="M347.66946,270.52126v-152h104v152z" fill="#ffffff" stroke="#a4a4a4" stroke-width="10.5" stroke-linecap="butt"/><path d="M432.51888,212.37562c0,19.36736 -15.54207,35.06769 -34.71419,35.06769c-19.17212,0 -34.71419,-15.70034 -34.71419,-35.06769c0,-19.36736 15.54207,-35.06769 34.71419,-35.06769c19.17212,0 34.71419,15.70034 34.71419,35.06769z" fill="#6693ff" stroke="#000000" stroke-width="3" stroke-linecap="butt"/><path d="M426.9317,222.04604c0,13.37399 -13.0406,24.21574 -29.12699,24.21574c-16.08639,0 -29.12699,-10.84175 -29.12699,-24.21574c0,-13.37399 13.0406,-24.21574 29.12699,-24.21574c16.08639,0 29.12699,10.84175 29.12699,24.21574z" fill="#ffffff" stroke="#000000" stroke-width="3" stroke-linecap="butt"/><path d="M418.01705,233.03671l-8.54546,-0.09091" fill="none" stroke="#365488" stroke-width="3" stroke-linecap="round"/><path d="M378.75,240.13543l-14.33333,-18.5c0,0 21.56394,1.66667 33,1.66667c11.88034,0 37,-1.66667 37,-1.66667l-17.5,18.16667c0,0 -10.46513,5.6518 -16.33926,5.7319c-6.31602,0.08613 -21.8274,-5.39857 -21.8274,-5.39857z" fill="#5482d2" stroke="#365488" stroke-width="3" stroke-linecap="butt"/><path d="M361.23303,163.21094c5.95844,-6.41286 13.52305,-9.07091 16.89605,-5.93693c3.373,3.13398 1.27708,10.87323 -4.68135,17.28608c-5.95844,6.41286 -13.52305,9.07091 -16.89605,5.93693c-3.373,-3.13398 -1.27708,-10.87323 4.68135,-17.28608z" fill="#6693ff" stroke="#000000" stroke-width="3" stroke-linecap="butt"/><path d="M436.20266,210.70731c2.9225,3.5578 -0.19182,10.94629 -6.95604,16.50264c-6.76421,5.55636 -14.61685,7.1765 -17.53935,3.6187c-2.9225,-3.5578 0.19183,-10.94628 6.95604,-16.50264c6.76421,-5.55636 14.61685,-7.1765 17.53935,-3.6187z" data-paper-data="{&quot;index&quot;:null}" fill="#6693ff" stroke="#000000" stroke-width="3" stroke-linecap="butt"/><path d="M398.73101,245.40428c0,1.71049 -1.28979,6.50059 -5.18455,7.36843c-2.22515,0.49581 -6.16662,-2.50186 -9.01872,-2.50186c-7.84425,0 -14.20327,-2.17883 -14.20327,-4.86657c0,-2.68773 6.35902,-4.86657 14.20327,-4.86657c7.84425,0 14.20327,2.17883 14.20327,4.86657z" fill="#565656" stroke="#000000" stroke-width="3" stroke-linecap="butt"/><path d="M411.1109,215.92133c0,2.22749 -6.35902,4.03323 -14.20327,4.03323c-7.84425,0 -14.20327,-1.80574 -14.20327,-4.03323c0,-2.22749 6.35902,-4.03323 14.20327,-4.03323c7.84425,0 14.20327,1.80574 14.20327,4.03323z" fill="#d6af56" stroke="#000000" stroke-width="3" stroke-linecap="butt"/><path d="M384.41667,176.46876v-26h29.33333v26z" fill="#5482d2" stroke="#365488" stroke-width="3" stroke-linecap="butt"/><path d="M414.87379,192.24267c-3.7082,0 -6.71428,1.93055 -6.71428,1.62058c0,-0.30996 2.91518,-2.65215 6.62338,-2.65215c3.7082,0 6.80519,2.34218 6.80519,2.65215c0,0.30996 -3.00609,-1.62058 -6.71429,-1.62058z" fill="#171717" stroke="#000000" stroke-width="3" stroke-linecap="butt"/><path d="M375.25,182.8021v-7.66667h48.83333v7.66667z" fill="#5482d2" stroke="#365488" stroke-width="3" stroke-linecap="butt"/><path d="M384.41667,172.96876v-5h29.16667v5z" fill="#ffffff" stroke="#969696" stroke-width="3" stroke-linecap="butt"/><path d="M395.75,237.80208l-7.16667,-15.33333h19.16667l-4.5,15.66667z" fill="#ffffff" stroke="#bfbfbf" stroke-width="3" stroke-linecap="butt"/><path d="M398.0625,226.60157c0,-0.69036 0.55964,-1.25 1.25,-1.25c0.69036,0 1.25,0.55964 1.25,1.25c0,0.69036 -0.55964,1.25 -1.25,1.25c-0.69036,0 -1.25,-0.55964 -1.25,-1.25z" fill="#000000" stroke="none" stroke-width="0.5" stroke-linecap="butt"/><path d="M398.3125,230.97657c0,-0.69036 0.55964,-1.25 1.25,-1.25c0.69036,0 1.25,0.55964 1.25,1.25c0,0.69036 -0.55964,1.25 -1.25,1.25c-0.69036,0 -1.25,-0.55964 -1.25,-1.25z" fill="#000000" stroke="none" stroke-width="0.5" stroke-linecap="butt"/><path d="M398.5625,235.47657c0,-0.69036 0.55964,-1.25 1.25,-1.25c0.69036,0 1.25,0.55964 1.25,1.25c0,0.69036 -0.55964,1.25 -1.25,1.25c-0.69036,0 -1.25,-0.55964 -1.25,-1.25z" fill="#000000" stroke="none" stroke-width="0.5" stroke-linecap="butt"/><path d="M399.1875,224.01824v-1.125l5.5,-1.75v4.75z" data-paper-data="{&quot;index&quot;:null}" fill="#686868" stroke="#000000" stroke-width="1" stroke-linecap="butt"/><path d="M392.3125,225.97657v-4.75l5.5,1.75v1.125z" fill="#686868" stroke="#000000" stroke-width="1" stroke-linecap="butt"/><path d="M401.0625,223.53907c0,1.41523 -1.06332,2.5625 -2.375,2.5625c-1.31168,0 -2.375,-1.14727 -2.375,-2.5625c0,-1.41523 1.06332,-2.5625 2.375,-2.5625c1.31168,0 2.375,1.14727 2.375,2.5625z" fill="#686868" stroke="#000000" stroke-width="1" stroke-linecap="butt"/><path d="M377.83523,232.12762l8.54545,0.09091" fill="none" stroke="#365488" stroke-width="3" stroke-linecap="round"/><path d="M392.36927,192.129c0,5.86531 -5.01286,10.62007 -11.19654,10.62007c-6.18368,0 -11.19654,-4.75477 -11.19654,-10.62007c0,-5.86531 5.01286,-10.62007 11.19654,-10.62007c6.18368,0 11.19654,4.75477 11.19654,10.62007z" fill="#171717" stroke="#000000" stroke-width="3" stroke-linecap="butt"/><path d="M382.24715,187.17296c0,-1.42443 1.29119,-2.57916 2.88396,-2.57916c1.59277,0 2.88396,1.15473 2.88396,2.57916c0,1.42443 -1.29119,2.57916 -2.88396,2.57916c-1.59277,0 -2.88396,-1.15473 -2.88396,-2.57916z" fill="#ffffff" stroke="none" stroke-width="0.5" stroke-linecap="butt"/><path d="M420.52774,239.25199c7.84425,0 14.20327,2.17884 14.20327,4.86657c0,2.68774 -6.35902,4.86657 -14.20327,4.86657c-2.8521,0 -6.79357,2.99767 -9.01871,2.50186c-3.89476,-0.86784 -5.18455,-5.65794 -5.18455,-7.36843c0,-2.68774 6.35902,-4.86657 14.20327,-4.86657z" data-paper-data="{&quot;index&quot;:null}" fill="#565656" stroke="#000000" stroke-width="3" stroke-linecap="butt"/><path d="M5.5,41.76563v-21h78v21z" fill="#ffce00" stroke="#c37600" stroke-width="5.5" stroke-linecap="butt"/><path d="M327,116.26563v-21h78v21z" fill="#ffce00" stroke="#c37600" stroke-width="5.5" stroke-linecap="butt"/><text transform="translate(8,35.30004) scale(0.27709,0.27709)" font-size="40" xml:space="preserve" fill="#c37600" fill-rule="nonzero" stroke="none" stroke-width="1" stroke-linecap="butt" stroke-linejoin="miter" stroke-miterlimit="10" stroke-dasharray="" stroke-dashoffset="0" font-family="Sans Serif" font-weight="normal" text-anchor="start" style="mix-blend-mode: normal"><tspan x="0" dy="0">TOP POPULER</tspan></text><text transform="translate(328.5,110.30004) scale(0.27709,0.27709)" font-size="40" xml:space="preserve" fill="#c37600" fill-rule="nonzero" stroke="none" stroke-width="1" stroke-linecap="butt" stroke-linejoin="miter" stroke-miterlimit="10" stroke-dasharray="" stroke-dashoffset="0" font-family="Sans Serif" font-weight="normal" text-anchor="start" style="mix-blend-mode: normal"><tspan x="0" dy="0">TOP POPULER</tspan></text><path d="M92.96078,122.46307c0.62869,2.94922 -4.64995,6.57395 -11.79018,8.09605c-7.14023,1.5221 -13.43818,0.36518 -14.06688,-2.58404c-0.62869,-2.94922 4.64995,-6.57395 11.79018,-8.09605c7.14023,-1.5221 13.43818,-0.36518 14.06688,2.58404z" fill="#ff4b51" stroke="#000000" stroke-width="3" stroke-linecap="butt"/></g></g></svg>