<svg version="1.1" xmlns="http://www.w3.org/2000/svg" xmlns:xlink="http://www.w3.org/1999/xlink" width="121.78873" height="168.52182" viewBox="0,0,121.78873,168.52182"><g transform="translate(-177.73675,-79.57479)"><g data-paper-data="{&quot;isPaintingLayer&quot;:true}" fill-rule="nonzero" stroke-width="3" stroke-linejoin="miter" stroke-miterlimit="10" stroke-dasharray="" stroke-dashoffset="0" style="mix-blend-mode: normal"><path d="M229.5231,241.34862c-3.14184,4.202 -13.93585,1.44206 -24.1091,-6.16449c-10.17325,-7.60656 -15.87335,-17.17926 -12.7315,-21.38127c3.14184,-4.202 13.93585,-1.44206 24.1091,6.16449c10.17325,7.60656 15.87335,17.17926 12.7315,21.38127z" fill="#ffd266" stroke="#000000" stroke-linecap="butt"/><path d="M271.79999,216.43726l-14.00949,-0.14904" fill="none" stroke="#365488" stroke-linecap="round"/><path d="M204.49318,232.31026l-23.49816,-30.32903c0,0 35.35207,2.73235 54.10043,2.73235c19.47671,0 60.65806,-2.73235 60.65806,-2.73235l-28.68962,29.78257c0,0 -17.15661,9.2656 -26.7867,9.39692c-10.35453,0.1412 -35.78399,-8.85045 -35.78399,-8.85045z" fill="#5482d2" stroke="#365488" stroke-linecap="butt"/><path d="M231.54677,238.81809c-1.13438,2.5645 -6.24487,8.89082 -12.65974,7.609c-3.66494,-0.73234 -7.58628,-7.84062 -11.86237,-9.73209c-11.76072,-5.20221 -19.84969,-12.68611 -18.06721,-16.71578c1.78247,-4.02965 12.76139,-3.07912 24.52211,2.12309c11.76072,5.20221 19.84969,12.68611 18.06721,16.71578z" fill="#565656" stroke="#000000" stroke-linecap="butt"/><path d="M216.7153,123.69937v-42.62458h48.08927v42.62458z" fill="#5482d2" stroke="#365488" stroke-linecap="butt"/><path d="M201.68739,134.08229v-12.56879h80.0577v12.56879z" fill="#5482d2" stroke="#365488" stroke-linecap="butt"/><path d="M216.7153,117.96144v-8.19703h47.81604v8.19703z" fill="#ffffff" stroke="#969696" stroke-linecap="butt"/><path d="M273.46334,215.85278c12.47298,-3.13085 23.45396,-2.20437 24.52671,2.06933c1.07275,4.27372 -8.16897,10.27629 -20.64195,13.40714c-4.53506,1.13835 -9.60587,7.47803 -13.34191,7.57777c-6.53936,0.17457 -10.50209,-6.92729 -11.18479,-9.6471c-1.07275,-4.27372 8.16897,-10.27629 20.64195,-13.40714z" data-paper-data="{&quot;index&quot;:null}" fill="#565656" stroke="#000000" stroke-linecap="butt"/></g></g></svg>