<svg version="1.1" xmlns="http://www.w3.org/2000/svg" xmlns:xlink="http://www.w3.org/1999/xlink" width="153.24052" height="145.45799" viewBox="0,0,153.24052,145.45799"><g transform="translate(-165.58569,-101.7949)"><g data-paper-data="{&quot;isPaintingLayer&quot;:true}" fill-rule="nonzero" stroke-linejoin="miter" stroke-miterlimit="10" stroke-dasharray="" stroke-dashoffset="0" style="mix-blend-mode: normal"><path d="M296.21429,177.00001c0,33.15113 -25.16799,60.02542 -56.21429,60.02542c-31.04629,0 -56.21429,-26.8743 -56.21429,-60.02542c0,-33.15113 25.16799,-60.02542 56.21429,-60.02542c31.04629,0 56.21429,26.8743 56.21429,60.02542z" fill="#ffd5a2" stroke="#000000" stroke-width="3" stroke-linecap="butt"/><path d="M285.32423,155.45846l-16.12747,-10.93296l14.18293,-6.92149l8.56687,11.61287z" data-paper-data="{&quot;index&quot;:null}" fill="#000000" stroke="none" stroke-width="0" stroke-linecap="butt"/><path d="M187.625,151.53284l3.5,-17.24638l15.75,1.23188l-10.75,20.01812z" fill="#000000" stroke="none" stroke-width="0" stroke-linecap="butt"/><path d="M192.52712,209.49671l-5.21269,-50.49797l54.08169,32.57933l45.93686,-28.01823l3.90952,43.00472c0,0 -4.26431,5.97789 -10.88196,11.00776c-10.87618,8.26666 -27.55479,17.29792 -38.00815,17.61257c-10.29689,0.30994 -32.36946,-8.75953 -43.69857,-16.47291c-5.79039,-3.94236 -6.12671,-9.21528 -6.12671,-9.21528z" fill="#000000" stroke="#bd0000" stroke-width="4.5" stroke-linecap="butt"/><path d="M198.15696,184.62816c-3.17525,13.81511 -11.63986,23.66058 -18.90625,21.99049c-7.26639,-1.6701 -10.58291,-14.22334 -7.40767,-28.03844c3.17525,-13.81511 11.63986,-23.66058 18.90625,-21.99049c7.26639,1.6701 10.58291,14.22334 7.40767,28.03844z" fill="#ffd5a2" stroke="#000000" stroke-width="3" stroke-linecap="butt"/><path d="M199.7,171.61666l64.25,56.75417" data-paper-data="{&quot;index&quot;:null}" fill="none" stroke="#a17900" stroke-width="4.5" stroke-linecap="round"/><path d="M268.31508,197.1394l-5.36789,-0.85189l3.30903,-20.22894l5.36789,0.85189z" fill="#4f3d00" stroke="#a17900" stroke-width="4.5" stroke-linecap="butt"/><path d="M254.75947,226.71957l6.05395,-30.32122l7.57691,1.25102l-5.49752,30.78174l-6.59683,6.5106z" fill="#000000" stroke="#bd0000" stroke-width="4.5" stroke-linecap="butt"/><path d="M255.49547,195.27927l1.17647,-5.59067l19.08207,4.01552l-1.17647,5.59067z" fill="#4f3d00" stroke="#a17900" stroke-width="4.5" stroke-linecap="butt"/><path d="M200.24494,219.39574l-4.9428,-6.42565l91.2771,-0.32952l-6.42564,6.09613z" fill="#342800" stroke="#181200" stroke-width="4.5" stroke-linecap="butt"/><path d="M263.82571,162.6709c0,5.2467 -9.96793,13.94852 -22.67048,13.94852c-12.70255,0 -24.15332,-5.9009 -24.15332,-11.1476c0,-5.2467 11.28601,-2.74484 23.98856,-2.74484c12.70255,0 22.83524,-5.30279 22.83524,-0.05609z" fill="#ffffff" stroke="#000000" stroke-width="3" stroke-linecap="butt"/><path d="M242.37797,217.02204l-2.16987,-24.85486" fill="none" stroke="#bd0000" stroke-width="4.5" stroke-linecap="round"/><path d="M251.2547,216.92341c0,4.52118 -4.10673,8.18632 -9.17263,8.18632c-5.0659,0 -9.17263,-3.66514 -9.17263,-8.18632c0,-4.52118 4.10673,-8.18632 9.17263,-8.18632c5.0659,0 9.17263,3.66514 9.17263,8.18632z" fill="#4f3d00" stroke="#261d00" stroke-width="4.5" stroke-linecap="butt"/><path d="M240.78378,209.08267c0,-0.69036 0.55964,-1.25 1.25,-1.25c0.69036,0 1.25,0.55964 1.25,1.25c0,0.69036 -0.55964,1.25 -1.25,1.25c-0.69036,0 -1.25,-0.55964 -1.25,-1.25z" fill="#b6b6b6" stroke="none" stroke-width="0.5" stroke-linecap="butt"/><path d="M247.5369,211.76405c0,-0.69036 0.55964,-1.25 1.25,-1.25c0.69036,0 1.25,0.55964 1.25,1.25c0,0.69036 -0.55964,1.25 -1.25,1.25c-0.69036,0 -1.25,-0.55964 -1.25,-1.25z" fill="#b6b6b6" stroke="none" stroke-width="0.5" stroke-linecap="butt"/><path d="M249.82104,217.52405c0,-0.69036 0.55964,-1.25 1.25,-1.25c0.69036,0 1.25,0.55964 1.25,1.25c0,0.69036 -0.55964,1.25 -1.25,1.25c-0.69036,0 -1.25,-0.55964 -1.25,-1.25z" fill="#b6b6b6" stroke="none" stroke-width="0.5" stroke-linecap="butt"/><path d="M245.94793,223.87993c0,-0.69036 0.55964,-1.25 1.25,-1.25c0.69036,0 1.25,0.55964 1.25,1.25c0,0.69036 -0.55964,1.25 -1.25,1.25c-0.69036,0 -1.25,-0.55964 -1.25,-1.25z" fill="#b6b6b6" stroke="none" stroke-width="0.5" stroke-linecap="butt"/><path d="M241.28033,225.27028c0,-0.69036 0.55964,-1.25 1.25,-1.25c0.69036,0 1.25,0.55964 1.25,1.25c0,0.69036 -0.55964,1.25 -1.25,1.25c-0.69036,0 -1.25,-0.55964 -1.25,-1.25z" fill="#b6b6b6" stroke="none" stroke-width="0.5" stroke-linecap="butt"/><path d="M236.2155,223.87993c0,-0.69036 0.55964,-1.25 1.25,-1.25c0.69036,0 1.25,0.55964 1.25,1.25c0,0.69036 -0.55964,1.25 -1.25,1.25c-0.69036,0 -1.25,-0.55964 -1.25,-1.25z" fill="#b6b6b6" stroke="none" stroke-width="0.5" stroke-linecap="butt"/><path d="M232.54101,219.8082c0,-0.69036 0.55964,-1.25 1.25,-1.25c0.69036,0 1.25,0.55964 1.25,1.25c0,0.69036 -0.55964,1.25 -1.25,1.25c-0.69036,0 -1.25,-0.55964 -1.25,-1.25z" fill="#b6b6b6" stroke="none" stroke-width="0.5" stroke-linecap="butt"/><path d="M232.04446,214.24682c0,-0.69036 0.55964,-1.25 1.25,-1.25c0.69036,0 1.25,0.55964 1.25,1.25c0,0.69036 -0.55964,1.25 -1.25,1.25c-0.69036,0 -1.25,-0.55964 -1.25,-1.25z" fill="#b6b6b6" stroke="none" stroke-width="0.5" stroke-linecap="butt"/><path d="M235.42102,210.2744c0,-0.69036 0.55964,-1.25 1.25,-1.25c0.69036,0 1.25,0.55964 1.25,1.25c0,0.69036 -0.55964,1.25 -1.25,1.25c-0.69036,0 -1.25,-0.55964 -1.25,-1.25z" fill="#b6b6b6" stroke="none" stroke-width="0.5" stroke-linecap="butt"/><path d="M199.42959,225.80787c-0.69036,0 0.69036,0 0,0z" fill="#b6b6b6" stroke="none" stroke-width="0.5" stroke-linecap="butt"/><path d="" fill="#b6b6b6" stroke="none" stroke-width="0.5" stroke-linecap="butt"/><path d="" fill="#b6b6b6" stroke="none" stroke-width="0.5" stroke-linecap="butt"/><path d="M194.60441,232.81788c0,-0.69036 0,0.69036 0,0z" fill="#b6b6b6" stroke="none" stroke-width="0.5" stroke-linecap="butt"/><path d="M290.21661,226.19458c0.69036,0 -0.69036,0 0,0z" fill="#b6b6b6" stroke="none" stroke-width="0.5" stroke-linecap="butt"/><path d="" fill="#b6b6b6" stroke="none" stroke-width="0.5" stroke-linecap="butt"/><path d="" fill="#b6b6b6" stroke="none" stroke-width="0.5" stroke-linecap="butt"/><path d="" fill="#b6b6b6" stroke="none" stroke-width="0.5" stroke-linecap="butt"/><path d="M278.73763,240.15632c0,-0.69036 0,0.69036 0,0z" fill="#b6b6b6" stroke="none" stroke-width="0.5" stroke-linecap="butt"/><path d="M274.62487,239.89943c0.69036,0 -0.69036,0 0,0z" fill="#b6b6b6" stroke="none" stroke-width="0.5" stroke-linecap="butt"/><path d="" fill="#b6b6b6" stroke="none" stroke-width="0.5" stroke-linecap="butt"/><path d="M260.22485,239.6015c-0.69036,0 0.69036,0 0,0z" fill="#b6b6b6" stroke="none" stroke-width="0.5" stroke-linecap="butt"/><path d="M238.91507,236.52067c0,4.6846 -9.27325,8.48222 -20.71239,8.48222c-11.43913,0 -20.71239,-3.79762 -20.71239,-8.48222c0,-4.6846 9.27325,-8.48222 20.71239,-8.48222c11.43913,0 20.71239,3.79762 20.71239,8.48222z" fill="#000000" stroke="#bd0000" stroke-width="4.5" stroke-linecap="butt"/><path d="M290.66588,235.60284c0,4.6846 -9.27325,8.48221 -20.71238,8.48221c-11.43913,0 -20.71238,-3.79762 -20.71238,-8.48221c0,-4.6846 9.27325,-8.48221 20.71238,-8.48221c11.43914,0 20.71238,3.79762 20.71238,8.48221z" fill="#000000" stroke="#bd0000" stroke-width="4.5" stroke-linecap="butt"/><path d="M168.47078,191.58653l8.56753,-32.29298c0,0 9.03699,-3.84672 12.93023,-3.14715c2.60198,0.46754 8.15906,6.93663 8.15906,6.93663l-1.6476,29.98634z" fill="#ffffff" stroke="#000000" stroke-width="4.5" stroke-linecap="butt"/><path d="M194.45,168.04583l-24,21.2" fill="none" stroke="#a17900" stroke-width="4.5" stroke-linecap="round"/><path d="M177.30878,166.50775v-8.40277c0,0 7.05271,-2.4714 10.54465,-2.4714c3.24512,0 9.72085,2.4714 9.72085,2.4714v8.40277z" fill="#191919" stroke="#000000" stroke-width="4.5" stroke-linecap="butt"/><path d="M167.25,193.24584v-3h26.8v3z" fill="#342800" stroke="#181200" stroke-width="2.5" stroke-linecap="butt"/><path d="M171.05,179.84583v-3.4h25.6v3.4z" fill="#342800" stroke="#181200" stroke-width="2.5" stroke-linecap="butt"/><path d="M293.66261,159.58971c7.26639,-1.67009 15.731,8.17538 18.90625,21.99049c3.17524,13.8151 -0.14128,26.36834 -7.40767,28.03844c-7.26639,1.67009 -15.731,-8.17538 -18.90625,-21.99049c-3.17524,-13.8151 0.14128,-26.36834 7.40767,-28.03844z" data-paper-data="{&quot;index&quot;:null}" fill="#ffd5a2" stroke="#000000" stroke-width="3" stroke-linecap="butt"/><path d="M287.9319,196.06937l-1.6476,-29.98634c0,0 5.55708,-6.46909 8.15906,-6.93663c3.89324,-0.69957 12.93023,3.14715 12.93023,3.14715l8.56753,32.29298z" data-paper-data="{&quot;index&quot;:null}" fill="#ffffff" stroke="#000000" stroke-width="4.5" stroke-linecap="butt"/><path d="M289.9619,171.04584l24,21.2" data-paper-data="{&quot;index&quot;:null}" fill="none" stroke="#a17900" stroke-width="4.5" stroke-linecap="round"/><path d="M286.83762,169.50776v-8.40277c0,0 6.47573,-2.4714 9.72085,-2.4714c3.49194,0 10.54465,2.4714 10.54465,2.4714v8.40277z" data-paper-data="{&quot;index&quot;:null}" fill="#191919" stroke="#000000" stroke-width="4.5" stroke-linecap="butt"/><path d="M290.3619,196.24584v-3h26.8v3z" data-paper-data="{&quot;index&quot;:null}" fill="#342800" stroke="#181200" stroke-width="2.5" stroke-linecap="butt"/><path d="M287.7619,182.84584v-3.4h25.6v3.4z" data-paper-data="{&quot;index&quot;:null}" fill="#342800" stroke="#181200" stroke-width="2.5" stroke-linecap="butt"/><path d="M213.35119,141.9293c-1.07229,-0.02822 -3.68763,0.51128 -4.47619,-0.45534c-0.69024,-0.8461 -0.71657,-2.71488 -1.80838,-2.73142c-5.79778,-0.08783 -11.14501,3.06323 -16.93777,0.03815c-2.47388,-1.2919 -4.64882,-7.19078 -2.44135,-9.49423c2.57455,-2.68649 4.74632,-2.11948 8.1875,-2c1.11865,0.03884 3.02655,1.14334 3.83268,0.6447c0.58484,-0.36176 -1.19892,-0.78668 -1.52018,-1.3947c-0.43648,-0.82607 -0.92871,-3.20049 -1.20534,-4.27381c-1.34989,-5.23761 -0.70421,-10.33235 4.64284,-12.91369c2.57062,-1.24099 7.22683,-1.41113 9.52393,0.55782c0.87133,0.74686 1.26269,2.05396 1.72931,3.10877c0.11861,0.26811 0.11947,0.90232 0.38965,0.7885c1.55638,-0.65567 -3.65608,-7.36745 0.42513,-9.69957c1.09097,-0.62341 3.20967,-1.47235 4.37522,-1.19324c0.16542,0.03961 2.18533,1.20311 2.45258,0.96327c1.46138,-1.31149 1.52584,-1.56579 3.59043,-1.1649c1.44578,0.28073 4.79125,1.95505 5.988,1.68358c2.45326,-0.55648 4.49116,-1.79348 7.02576,-2.35673c3.11477,-0.69217 4.49801,1.13668 6.86154,1.23857c4.40438,0.18988 9.22398,-0.32152 13.69243,-0.23857c1.92219,0.03568 3.8588,0.22956 5.76756,0c1.75109,-0.2106 3.61341,-1.81368 5.19092,-1.02492c1.36226,0.68113 0.98225,3.85519 2.50492,3.82132c2.37268,-0.05278 3.1008,-2.13065 5.98262,-0.4839c3.28981,1.87989 1.55794,6.46589 1.78769,6.67506c1.78709,1.627 5.37749,5.12103 5.82795,7.92102c0.26634,1.65554 -0.20199,4.03717 0.13436,5.33707c0.15777,0.60972 2.03003,0.37122 2.5,3.50434c0.51331,3.42207 -1.40565,5.68023 -3.27721,8.14117c-0.34868,0.45848 0.26933,5.35987 -0.29465,7.28009c-2.8589,9.73389 -13.31242,9.72612 -21.56067,7.74135c-5.97097,-1.43679 -6.55565,-7.12102 -9.64406,-9.04383c-0.9712,-0.60466 -1.4406,1.89153 -2.47726,2.37544c-2.33897,1.09183 -4.46929,0.87169 -6.62584,-0.9703c-0.55547,-0.47445 -2.31576,-5.02394 -2.8338,-6.19387c-0.13624,-0.30769 -1.68343,-4.63436 -1.78652,-4.48006c-0.22053,0.33009 0.14104,4.16413 -0.23093,5.57302c-1.00947,3.82357 -1.76372,7.83402 -3.63939,11.3509c-1.34201,2.51627 -9.54318,2.09916 -11.12968,1.97607c-0.87019,-0.06751 -1.91358,-0.09466 -2.51558,-0.72664c-1.62945,-1.7106 -1.77858,-2.06447 -2.26944,-4.27336c-0.16635,-0.74857 1.55233,-0.82389 0.5625,-2c-0.87284,-1.03711 -2.82533,0.06383 -4.02748,-0.5625c-1.28264,-0.66827 -1.16469,-2.03821 -1.79997,-3.14996z" fill="#000000" stroke="none" stroke-width="0.5" stroke-linecap="butt"/><path d="M230.73636,153.18051c0,7.03778 -6.63805,4.97055 -14.82651,4.97055c-8.18846,0 -14.82652,2.06722 -14.82652,-4.97055c0,-7.03778 6.63806,-12.74302 14.82652,-12.74302c8.18846,0 14.82651,5.70525 14.82651,12.74302z" fill="#750000" stroke="#000000" stroke-width="3" stroke-linecap="butt"/><path d="M217.3326,147.02923c0,-1.70918 1.7098,-3.09473 3.81895,-3.09473c2.10915,0 3.81895,1.38556 3.81895,3.09473c0,1.70918 -1.7098,3.09473 -3.81895,3.09473c-2.10915,0 -3.81895,-1.38556 -3.81895,-3.09473z" fill="#ffffff" stroke="none" stroke-width="0.5" stroke-linecap="butt"/><path d="M278.23636,152.43052c0,7.03778 -6.63805,4.97055 -14.82651,4.97055c-8.18846,0 -14.82652,2.06722 -14.82652,-4.97055c0,-7.03778 6.63806,-12.74302 14.82652,-12.74302c8.18846,0 14.82651,5.70525 14.82651,12.74302z" data-paper-data="{&quot;index&quot;:null}" fill="#750000" stroke="#000000" stroke-width="3" stroke-linecap="butt"/><path d="M264.83259,146.27923c0,-1.70918 1.7098,-3.09473 3.81895,-3.09473c2.10915,0 3.81895,1.38556 3.81895,3.09473c0,1.70918 -1.7098,3.09473 -3.81895,3.09473c-2.10915,0 -3.81895,-1.38556 -3.81895,-3.09473z" data-paper-data="{&quot;index&quot;:null}" fill="#ffffff" stroke="none" stroke-width="0.5" stroke-linecap="butt"/></g></g></svg>