<svg version="1.1" xmlns="http://www.w3.org/2000/svg" xmlns:xlink="http://www.w3.org/1999/xlink" width="122.17575" height="171.38879" viewBox="0,0,122.17575,171.38879"><g transform="translate(-180.66889,-79.57478)"><g data-paper-data="{&quot;isPaintingLayer&quot;:true}" fill-rule="nonzero" stroke-linejoin="miter" stroke-miterlimit="10" stroke-dasharray="" stroke-dashoffset="0" style="mix-blend-mode: normal"><path d="M272.09634,216.89376l-14.05674,-0.14954" fill="none" stroke="#365488" stroke-width="3" stroke-linecap="round"/><path d="M207.50456,228.5707l-23.57741,-30.43131c0,0 35.47129,2.74156 54.28288,2.74156c19.54239,0 60.86263,-2.74156 60.86263,-2.74156l-28.78638,29.88301c0,0 -17.21447,9.29685 -26.87704,9.42861c-10.38945,0.14168 -35.90467,-8.8803 -35.90467,-8.8803z" fill="#5482d2" stroke="#365488" stroke-width="3" stroke-linecap="butt"/><path d="M236.98426,237.34298c0,2.81365 -2.12162,10.69305 -8.52825,12.1206c-3.66023,0.81557 -10.14369,-4.1154 -14.83521,-4.1154c-12.90329,0 -23.36347,-3.58404 -23.36347,-8.0052c0,-4.42114 10.46018,-8.0052 23.36347,-8.0052c12.90329,0 23.36347,3.58404 23.36347,8.0052z" fill="#565656" stroke="#000000" stroke-width="3" stroke-linecap="butt"/><path d="M216.82587,123.84311v-42.76833h48.25145v42.76833z" fill="#5482d2" stroke="#365488" stroke-width="3" stroke-linecap="butt"/><path d="M201.74728,134.26105v-12.61118h80.32769v12.61118z" fill="#5482d2" stroke="#365488" stroke-width="3" stroke-linecap="butt"/><path d="M216.82587,118.08583v-8.22467h47.9773v8.22467z" fill="#ffffff" stroke="#969696" stroke-width="3" stroke-linecap="butt"/><path d="M235.46847,224.73249l-11.78871,-25.22235h31.52794l-7.40221,25.77067z" fill="#ffffff" stroke="#bfbfbf" stroke-width="3" stroke-linecap="butt"/><path d="M239.27239,206.30837c0,-1.1356 0.92057,-2.05617 2.05617,-2.05617c1.1356,0 2.05617,0.92057 2.05617,2.05617c0,1.1356 -0.92057,2.05617 -2.05617,2.05617c-1.1356,0 -2.05617,-0.92057 -2.05617,-2.05617z" fill="#000000" stroke="none" stroke-width="0.5" stroke-linecap="butt"/><path d="M239.68362,213.50496c0,-1.1356 0.92057,-2.05617 2.05617,-2.05617c1.1356,0 2.05617,0.92057 2.05617,2.05617c0,1.1356 -0.92057,2.05617 -2.05617,2.05617c-1.1356,0 -2.05617,-0.92057 -2.05617,-2.05617z" fill="#000000" stroke="none" stroke-width="0.5" stroke-linecap="butt"/><path d="M240.09485,220.90717c0,-1.1356 0.92057,-2.05617 2.05617,-2.05617c1.1356,0 2.05617,0.92057 2.05617,2.05617c0,1.1356 -0.92057,2.05617 -2.05617,2.05617c-1.1356,0 -2.05617,-0.92057 -2.05617,-2.05617z" fill="#000000" stroke="none" stroke-width="0.5" stroke-linecap="butt"/><path d="M241.12294,202.05896v-1.85055l9.04715,-2.87864v7.81344z" data-paper-data="{&quot;index&quot;:null}" fill="#686868" stroke="#000000" stroke-width="1" stroke-linecap="butt"/><path d="M229.81401,205.28029v-7.81344l9.04715,2.87864v1.85055z" fill="#686868" stroke="#000000" stroke-width="1" stroke-linecap="butt"/><path d="M244.2072,201.27075c0,2.32796 -1.74909,4.21515 -3.90672,4.21515c-2.15763,0 -3.90672,-1.88718 -3.90672,-4.21515c0,-2.32796 1.74909,-4.21515 3.90672,-4.21515c2.15763,0 3.90672,1.88718 3.90672,4.21515z" fill="#686868" stroke="#000000" stroke-width="1" stroke-linecap="butt"/><path d="M205.99983,215.39836l14.05672,0.14954" fill="none" stroke="#365488" stroke-width="3" stroke-linecap="round"/><path d="M277.4825,228.03333c12.90329,0 23.36347,3.58406 23.36347,8.0052c0,4.42116 -10.46018,8.0052 -23.36347,8.0052c-4.69152,0 -11.17499,4.93097 -14.8352,4.1154c-6.40663,-1.42754 -8.52825,-9.30695 -8.52825,-12.1206c0,-4.42116 10.46018,-8.0052 23.36347,-8.0052z" data-paper-data="{&quot;index&quot;:null}" fill="#565656" stroke="#000000" stroke-width="3" stroke-linecap="butt"/><path d="M273.33994,217.18237l-14.05672,-0.14954" fill="none" stroke="#365488" stroke-width="3" stroke-linecap="round"/></g></g></svg>