<svg version="1.1" xmlns="http://www.w3.org/2000/svg" xmlns:xlink="http://www.w3.org/1999/xlink" width="750.46697" height="364.32432" viewBox="0,0,750.46697,364.32432"><g transform="translate(5.3964,4.41441)"><g data-paper-data="{&quot;isPaintingLayer&quot;:true}" fill-rule="nonzero" stroke-linecap="butt" stroke-linejoin="miter" stroke-miterlimit="10" stroke-dasharray="" stroke-dashoffset="0" style="mix-blend-mode: normal"><path d="M-5.3964,359.90991v-364.32432h508.81081v364.32432z" fill="#ffffff" stroke="none" stroke-width="NaN"/><path d="M741.07057,98.29899v-5h4v5z" fill="#ffffff" stroke="none" stroke-width="0"/><path d="M327.32807,192.64014c0,52.56596 -39.90753,95.17908 -89.13597,95.17908c-49.22843,0 -89.13597,-42.61313 -89.13597,-95.17908c0,-52.56596 39.90753,-95.17908 89.13597,-95.17908c49.22843,0 89.13597,42.61313 89.13597,95.17908z" fill="#6693ff" stroke="#000000" stroke-width="3"/><path d="M312.98175,217.25698c0,37.2949 -33.48447,67.52839 -74.78965,67.52839c-41.30518,0 -74.78965,-30.23348 -74.78965,-67.52839c0,-37.2949 33.48447,-67.52839 74.78965,-67.52839c41.30518,0 74.78965,30.23348 74.78965,67.52839z" fill="#ffffff" stroke="#000000" stroke-width="3"/><path d="M234.56456,263.49932c0,8.31943 -16.32811,15.06364 -36.46986,15.06364c-20.14175,0 -36.46986,-6.74421 -36.46986,-15.06364c0,-8.31943 16.32811,-15.06364 36.46986,-15.06364c20.14175,0 36.46986,6.74421 36.46986,15.06364z" fill="#ffd266" stroke="#000000" stroke-width="3"/><path d="M326.43861,301.40551c-3.63773,7.48194 -21.27116,6.40766 -39.38536,-2.39949c-18.1142,-8.80715 -29.84968,-22.01209 -26.21194,-29.49403c3.63773,-7.48194 21.27116,-6.40766 39.38536,2.39949c18.1142,8.80715 29.84968,22.01209 26.21194,29.49403z" fill="#ffd266" stroke="#000000" stroke-width="3"/><path d="M273.92624,150.54353c0,8.31941 -16.32811,15.06364 -36.46986,15.06364c-20.14175,0 -36.46986,-6.74423 -36.46986,-15.06364c0,-8.31941 16.32811,-15.06364 36.46986,-15.06364c20.14175,0 36.46986,6.74423 36.46986,15.06364z" fill="#d6af56" stroke="#000000" stroke-width="3"/><path d="M157.95488,137.63975c-3.53405,22.19746 -15.86365,38.68518 -27.53893,36.82637c-11.67528,-1.85882 -18.27506,-21.36028 -14.74101,-43.55773c3.53406,-22.19747 15.86363,-38.68518 27.53892,-36.82638c11.67528,1.85882 18.27506,21.36028 14.74102,43.55773z" fill="#6693ff" stroke="#000000" stroke-width="3"/><path d="M355.73116,262.85175c-11.37645,3.21616 -25.55583,-11.71068 -31.67048,-33.33998c-6.11467,-21.62931 -1.84912,-41.77056 9.52733,-44.9867c11.37647,-3.21616 25.55582,11.71067 31.67048,33.33999c6.11467,21.62932 1.84911,41.77056 -9.52733,44.98671z" data-paper-data="{&quot;index&quot;:null}" fill="#6693ff" stroke="#000000" stroke-width="3"/><path d="M217.41666,107.45601c0,14.09349 -10.87575,25.51851 -24.29167,25.51851c-13.41592,0 -24.29167,-11.42503 -24.29167,-25.51851c0,-14.0935 10.87575,-25.51851 24.29167,-25.51851c13.41592,0 24.29167,11.42503 24.29167,25.51851z" fill="#171717" stroke="#000000" stroke-width="3"/><path d="M195.45603,95.54736c0,-3.42271 2.80133,-6.19735 6.25694,-6.19735c3.45561,0 6.25694,2.77465 6.25694,6.19735c0,3.42271 -2.80133,6.19735 -6.25694,6.19735c-3.45561,0 -6.25694,-2.77465 -6.25694,-6.19735z" fill="#ffffff" stroke="none" stroke-width="0.5"/><path d="M306.73148,109.41898c0,14.09349 -10.87575,25.51851 -24.29167,25.51851c-13.41592,0 -24.29167,-11.42502 -24.29167,-25.51851c0,-14.0935 10.87575,-25.51853 24.29167,-25.51853c13.41592,0 24.29167,11.42503 24.29167,25.51853z" fill="#171717" stroke="#000000" stroke-width="3"/><path d="M284.77083,97.51034c0,-3.42271 2.80133,-6.19736 6.25694,-6.19736c3.45561,0 6.25694,2.77465 6.25694,6.19736c0,3.42271 -2.80133,6.19735 -6.25694,6.19735c-3.45561,0 -6.25694,-2.77465 -6.25694,-6.19735z" fill="#ffffff" stroke="none" stroke-width="0.5"/></g></g></svg>