<svg version="1.1" xmlns="http://www.w3.org/2000/svg" xmlns:xlink="http://www.w3.org/1999/xlink" width="259.4489" height="200.17113" viewBox="0,0,259.4489,200.17113"><defs><radialGradient cx="133.44066" cy="171.18394" r="86.81902" gradientUnits="userSpaceOnUse" id="color-1"><stop offset="0" stop-color="#7ef2ff"/><stop offset="1" stop-color="#ffffff"/></radialGradient><radialGradient cx="224.68473" cy="172.73418" r="86.81903" gradientUnits="userSpaceOnUse" id="color-2"><stop offset="0" stop-color="#7ef2ff"/><stop offset="1" stop-color="#ffffff"/></radialGradient><radialGradient cx="188.28758" cy="183.10047" r="86.81903" gradientUnits="userSpaceOnUse" id="color-3"><stop offset="0" stop-color="#7ef2ff"/><stop offset="1" stop-color="#ffffff"/></radialGradient><radialGradient cx="271.4822" cy="172.38489" r="86.81903" gradientUnits="userSpaceOnUse" id="color-4"><stop offset="0" stop-color="#7ef2ff"/><stop offset="1" stop-color="#ffffff"/></radialGradient><radialGradient cx="294.88093" cy="189.65071" r="86.81903" gradientUnits="userSpaceOnUse" id="color-5"><stop offset="0" stop-color="#7ef2ff"/><stop offset="1" stop-color="#ffffff"/></radialGradient><radialGradient cx="244.30142" cy="180.46835" r="86.81902" gradientUnits="userSpaceOnUse" id="color-6"><stop offset="0" stop-color="#7ef2ff"/><stop offset="1" stop-color="#ffffff"/></radialGradient></defs><g transform="translate(-83.3616,-80.11021)"><g data-paper-data="{&quot;isPaintingLayer&quot;:true}" fill-rule="nonzero" stroke="#00a4ff" stroke-width="7.5" stroke-linecap="butt" stroke-linejoin="miter" stroke-miterlimit="10" stroke-dasharray="" stroke-dashoffset="0" style="mix-blend-mode: normal"><path d="M90.12698,256.85305c0,0 19.08815,-30.0703 25.4392,-61.85259c5.29414,-26.49322 -2.23895,-53.94213 0.12905,-68.34212c3.09351,-18.81187 2.79646,-42.29342 2.79646,-42.29342l3.06645,0.38331c0,0 0.41611,29.80523 10.97198,62.65237c7.4101,23.0583 9.38859,48.54318 18.14408,68.61721c8.54435,19.58993 23.9446,34.00857 25.00718,37.45103c0.41358,1.33986 1.07296,4.53413 1.07296,4.53413z" fill="url(#color-1)"/><path d="M181.37105,258.40329c0,0 19.08815,-30.0703 25.4392,-61.85259c5.29414,-26.49322 -2.23895,-53.94213 0.12905,-68.34212c3.09351,-18.81187 2.79646,-42.29342 2.79646,-42.29342l3.06645,0.38331c0,0 0.41611,29.80523 10.97198,62.65237c7.4101,23.0583 9.38859,48.54318 18.14408,68.61721c8.54435,19.58993 23.9446,34.00857 25.00718,37.45102c0.41358,1.33986 1.07296,4.53413 1.07296,4.53413z" fill="url(#color-2)"/><path d="M144.97389,268.76958c0,0 19.08815,-30.0703 25.4392,-61.8526c5.29414,-26.49322 -2.23895,-53.94213 0.12905,-68.34212c3.09351,-18.81187 2.79646,-42.29342 2.79646,-42.29342l3.06645,0.38331c0,0 0.41611,29.80523 10.97198,62.65237c7.41009,23.0583 9.38859,48.54318 18.14408,68.61721c8.54435,19.58993 23.9446,34.00857 25.00718,37.45103c0.41357,1.33986 1.07296,4.53413 1.07296,4.53413z" fill="url(#color-3)"/><path d="M228.16851,258.054c0,0 19.08815,-30.0703 25.4392,-61.85259c5.29414,-26.49322 -2.23895,-53.94213 0.12905,-68.34212c3.09351,-18.81188 2.79646,-42.29342 2.79646,-42.29342l3.06646,0.38331c0,0 0.41611,29.80523 10.97198,62.65237c7.41009,23.0583 9.38859,48.54318 18.14408,68.61721c8.54435,19.58993 23.9446,34.00857 25.00718,37.45102c0.41357,1.33987 1.07296,4.53413 1.07296,4.53413z" fill="url(#color-4)"/><path d="M251.56725,275.31982c0,0 19.08815,-30.0703 25.4392,-61.85259c5.29414,-26.49322 -2.23895,-53.94213 0.12905,-68.34212c3.09351,-18.81188 2.79647,-42.29342 2.79647,-42.29342l3.06645,0.38331c0,0 0.41611,29.80523 10.97198,62.65237c7.41009,23.0583 9.38859,48.54318 18.14408,68.61721c8.54435,19.58993 23.9446,34.00857 25.00718,37.45102c0.41357,1.33986 1.07296,4.53413 1.07296,4.53413z" fill="url(#color-5)"/><path d="M200.98774,266.13746c0,0 19.08815,-30.0703 25.4392,-61.85259c5.29414,-26.49322 -2.23895,-53.94213 0.12905,-68.34212c3.09351,-18.81188 2.79646,-42.29342 2.79646,-42.29342l3.06645,0.38331c0,0 0.41611,29.80523 10.97198,62.65237c7.41009,23.0583 9.38859,48.54318 18.14408,68.61721c8.54435,19.58993 23.9446,34.00857 25.00718,37.45103c0.41358,1.33986 1.07296,4.53413 1.07296,4.53413z" fill="url(#color-6)"/></g></g></svg>