<svg version="1.1" xmlns="http://www.w3.org/2000/svg" xmlns:xlink="http://www.w3.org/1999/xlink" width="912.003" height="626.42427" viewBox="0,0,912.003,626.42427"><defs><radialGradient cx="-16.5" cy="174.03761" r="103.85664" gradientUnits="userSpaceOnUse" id="color-1"><stop offset="0" stop-color="#7ef2ff"/><stop offset="1" stop-color="#ffffff"/></radialGradient><radialGradient cx="84.54084" cy="191.03761" r="55.83231" gradientUnits="userSpaceOnUse" id="color-2"><stop offset="0" stop-color="#7ef2ff"/><stop offset="1" stop-color="#ffffff"/></radialGradient><radialGradient cx="164" cy="132.10398" r="144.94736" gradientUnits="userSpaceOnUse" id="color-3"><stop offset="0" stop-color="#7ef2ff"/><stop offset="1" stop-color="#ffffff"/></radialGradient><radialGradient cx="319.5" cy="158.03761" r="103.85665" gradientUnits="userSpaceOnUse" id="color-4"><stop offset="0" stop-color="#7ef2ff"/><stop offset="1" stop-color="#ffffff"/></radialGradient><radialGradient cx="428" cy="176.07522" r="120.89426" gradientUnits="userSpaceOnUse" id="color-5"><stop offset="0" stop-color="#7ef2ff"/><stop offset="1" stop-color="#ffffff"/></radialGradient><radialGradient cx="521.5" cy="205.03761" r="103.85665" gradientUnits="userSpaceOnUse" id="color-6"><stop offset="0" stop-color="#7ef2ff"/><stop offset="1" stop-color="#ffffff"/></radialGradient></defs><g transform="translate(209.75,78.84375)"><g data-paper-data="{&quot;isPaintingLayer&quot;:true}" fill-rule="nonzero" stroke-width="7.5" stroke-linecap="butt" stroke-linejoin="miter" stroke-miterlimit="10" stroke-dasharray="" stroke-dashoffset="0" style="mix-blend-mode: normal"><path d="M-206,435.09375v-510.1875h892v510.1875z" fill="#a0e8ff" stroke="#000000"/><path d="M-193.497,543.83052v-289h892v289z" fill="#ffffff" stroke="#000000"/><path d="M-68.31369,276.51867c0,0 22.83406,-35.97138 30.43146,-73.99072c6.33308,-31.69232 -2.67833,-64.52787 0.15438,-81.75377c3.70059,-22.50358 3.34525,-50.5932 3.34525,-50.5932l3.66823,0.45853c0,0 0.49777,35.65429 13.12514,74.94746c8.86427,27.58333 11.23103,58.06943 21.70474,82.08285c10.22112,23.43431 28.64356,40.68251 29.91466,44.80053c0.49474,1.6028 1.28352,5.42392 1.28352,5.42392z" fill="url(#color-1)" stroke="#00a4ff"/><path d="M56.68631,257.00874c0,0 12.27537,-23.15621 16.35965,-47.63076c3.4046,-20.40161 -1.43984,-41.53915 0.08299,-52.62815c1.9894,-14.48644 1.79837,-32.56885 1.79837,-32.56885l1.972,0.29517c0,0 0.2676,22.95208 7.05595,48.24665c4.76534,17.75648 6.03769,37.3816 11.66825,52.83998c5.49477,15.0856 15.39849,26.18895 16.08183,28.83988c0.26597,1.03179 0.69001,3.49159 0.69001,3.49159z" fill="url(#color-2)" stroke="#00a4ff"/><path d="M91.68631,264.25319c0,0 31.86832,-46.38506 42.47162,-95.41095c8.83875,-40.86722 -3.73801,-83.20862 0.21545,-105.42139c5.16472,-29.01833 4.66879,-65.23987 4.66879,-65.23987l5.11956,0.59127c0,0 0.69471,45.97616 18.31808,96.64466c12.3714,35.56866 15.67458,74.88046 30.29218,105.84573c14.26508,30.21852 39.97633,52.46005 41.75035,57.77023c0.69048,2.06681 1.79134,6.99414 1.79134,6.99414z" fill="url(#color-3)" stroke="#00a4ff"/><path d="M267.68631,260.51867c0,0 22.83406,-35.97138 30.43146,-73.99072c6.33308,-31.69233 -2.67833,-64.52787 0.15438,-81.75377c3.70059,-22.50358 3.34524,-50.5932 3.34524,-50.5932l3.66823,0.45853c0,0 0.49777,35.65429 13.12514,74.94746c8.86427,27.58333 11.23104,58.06943 21.70474,82.08284c10.22112,23.43432 28.64355,40.68251 29.91466,44.80053c0.49474,1.6028 1.28352,5.42392 1.28352,5.42392z" fill="url(#color-4)" stroke="#00a4ff"/><path d="M367.68631,295.36823c0,0 26.57997,-41.87247 35.42372,-86.12885c7.37201,-36.89143 -3.11771,-75.11363 0.1797,-95.16542c4.30767,-26.19527 3.89403,-58.89298 3.89403,-58.89298l4.27,0.53375c0,0 0.57943,41.50335 15.27831,87.24254c10.31844,32.10835 13.07348,67.59568 25.26539,95.54848c11.89788,27.2787 33.34251,47.35645 34.82214,52.15003c0.5759,1.86574 1.49408,6.31371 1.49408,6.31371z" fill="url(#color-5)" stroke="#00a4ff"/><path d="M469.68631,307.51867c0,0 22.83406,-35.97138 30.43146,-73.99072c6.33308,-31.69233 -2.67833,-64.52787 0.15438,-81.75377c3.70059,-22.50358 3.34524,-50.5932 3.34524,-50.5932l3.66823,0.45853c0,0 0.49777,35.65429 13.12514,74.94746c8.86426,27.58333 11.23103,58.06943 21.70474,82.08285c10.22112,23.43431 28.64355,40.68251 29.91466,44.80053c0.49474,1.6028 1.28352,5.42392 1.28352,5.42392z" fill="url(#color-6)" stroke="#00a4ff"/></g></g></svg>