<svg version="1.1" xmlns="http://www.w3.org/2000/svg" xmlns:xlink="http://www.w3.org/1999/xlink" width="259.20287" height="156.32821" viewBox="0,0,259.20287,156.32821"><g transform="translate(-109.90776,-107.14348)"><g data-paper-data="{&quot;isPaintingLayer&quot;:true}" fill-rule="nonzero" stroke-linecap="butt" stroke-linejoin="miter" stroke-miterlimit="10" stroke-dasharray="" stroke-dashoffset="0" style="mix-blend-mode: normal"><path d="M123.74215,125.51701l82.0518,48.97587l-10.06171,20.43352l-44.31686,-21.82215l-13.27255,-7.19498c0,0 -17.31059,-13.7665 -14.04388,-14.04127c3.14331,-0.26439 26.87474,13.01256 26.57813,10.56167c-0.23966,-1.98034 -32.83032,-18.72496 -37.26933,-22.38394c-5.95227,-4.90632 15.95216,3.29741 17.01296,2.69557c3.92794,-2.22848 -6.67857,-17.22428 -6.67857,-17.22428z" fill="#009cff" stroke="#0045ff" stroke-width="7"/><path d="M352.76209,129.14821c1.5615,0.54034 14.23226,-4.0227 12.72412,-0.44905c-2.53046,5.99605 -20.68078,21.13186 -20.68078,21.13186l-11.74233,9.48926l-39.60801,29.51941c0,0 -3.77308,-1.22102 -6.09278,-4.3335c-2.2121,-2.96811 -7.51796,-13.92887 -7.51796,-13.92887c0,0 48.13778,-45.71611 55.37837,-51.11244c5.44055,-4.05479 -15.77037,21.59303 -15.77037,21.59303c0,0 40.46163,-30.81002 42.74822,-30.41058c2.92866,0.5116 -31.70022,32.08964 -26.36075,30.09093c5.8109,-2.17518 15.30342,-12.15022 16.92227,-11.59005z" data-paper-data="{&quot;index&quot;:null}" fill="#009cff" stroke="#0045ff" stroke-width="7"/><path d="M227.83333,146.27083c0,9.57294 -7.3873,17.33333 -16.5,17.33333c-9.1127,0 -16.5,-7.7604 -16.5,-17.33333c0,-9.57294 7.3873,-17.33333 16.5,-17.33333c9.1127,0 16.5,7.7604 16.5,17.33333z" fill="#171717" stroke="#000000" stroke-width="3"/><path d="M212.91667,138.18194c0,-2.32486 1.90279,-4.20952 4.25,-4.20952c2.34721,0 4.25,1.88467 4.25,4.20952c0,2.32486 -1.90279,4.20952 -4.25,4.20952c-2.34721,0 -4.25,-1.88467 -4.25,-4.20952z" fill="#ffffff" stroke="none" stroke-width="0.5"/><path d="M288.5,147.60417c0,9.57294 -7.3873,17.33333 -16.5,17.33333c-9.1127,0 -16.5,-7.76039 -16.5,-17.33333c0,-9.57294 7.3873,-17.33334 16.5,-17.33334c9.1127,0 16.5,7.7604 16.5,17.33334z" fill="#171717" stroke="#000000" stroke-width="3"/><path d="M273.58333,139.51528c0,-2.32486 1.90279,-4.20953 4.25,-4.20953c2.34721,0 4.25,1.88467 4.25,4.20953c0,2.32486 -1.90279,4.20952 -4.25,4.20952c-2.34721,0 -4.25,-1.88467 -4.25,-4.20952z" fill="#ffffff" stroke="none" stroke-width="0.5"/><path d="M296.21429,190.35296c0,27.43336 -25.16799,49.67249 -56.21429,49.67249c-31.04629,0 -56.21429,-22.23913 -56.21429,-49.67249c0,-27.43336 24.2806,-57.65904 55.3269,-57.65904c31.04629,0 57.10168,30.22568 57.10168,57.65904z" fill="#6693ff" stroke="#000000" stroke-width="3"/><path d="M229.5231,241.34862c-3.14184,4.202 -13.93585,1.44206 -24.1091,-6.16449c-10.17325,-7.60656 -15.87335,-17.17926 -12.7315,-21.38127c3.14184,-4.202 13.93585,-1.44206 24.1091,6.16449c10.17325,7.60656 15.87335,17.17926 12.7315,21.38127z" fill="#ffd266" stroke="#000000" stroke-width="3"/><path d="M294.81575,215.00371c2.31081,4.71041 -5.0608,13.06429 -16.46498,18.65889c-11.40418,5.5946 -22.52237,6.31137 -24.83318,1.60096c-2.31081,-4.71041 5.0608,-13.06429 16.46498,-18.65889c11.40418,-5.5946 22.52237,-6.31137 24.83318,-1.60096z" fill="#ffd266" stroke="#000000" stroke-width="3"/><path d="M287.16667,195.5248c0,23.52032 -21.11724,42.5873 -47.16667,42.5873c-26.04943,0 -47.16667,-19.06698 -47.16667,-42.5873c0,-23.52032 21.11724,-42.5873 47.16667,-42.5873c26.04943,0 47.16667,19.06698 47.16667,42.5873z" fill="#ffffff" stroke="#000000" stroke-width="3"/><path d="M263.16667,171.4375c0,5.2467 -10.29745,9.5 -23,9.5c-12.70255,0 -23,-4.2533 -23,-9.5c0,-5.2467 10.29745,-9.5 23,-9.5c12.70255,0 23,4.2533 23,9.5z" fill="#d6af56" stroke="#000000" stroke-width="3"/><path d="M186.31266,239.30751c0,0 -0.88739,-35.37381 -0.88739,-57.49637c0,-22.27674 1.47899,-60.81408 1.47899,-60.81408l97.31756,-2.37515l17.45209,116.81175z" fill="#009cff" stroke="#0045ff" stroke-width="7"/><path d="M226.68176,223.32917l10.67158,7.95598l-20.68555,27.74612c0,0 -30.04098,-15.01732 -31.7564,-16.29622c-1.83386,-1.3672 21.08482,8.34024 21.08482,8.34024c0,0 -6.27147,-2.89808 -2.99227,-5.39539c1.61622,-1.23085 -11.49829,-8.36715 -7.85923,-9.68476c3.93799,-1.42584 24.59818,2.93844 25.07882,0.80794c1.27464,-5.65001 -8.30992,-13.46061 -6.74043,-15.56581c2.44353,-3.27757 13.19864,2.09191 13.19864,2.09191z" fill="#ffd266" stroke="#c19f4d" stroke-width="7"/><path d="M284.6131,247.37359c0,0 14.12229,-8.11448 12.3792,-6.57749c-1.56586,1.38071 -22.36314,15.38096 -22.36314,15.38096l-22.88903,-25.95826l9.98395,-8.80347c0,0 0.57705,5.45922 4.64754,4.8701c2.49649,-0.36131 8.68526,-7.555 9.85585,-6.25506c3.06185,3.40017 -2.2319,15.01946 1.53806,16.73316c3.30869,1.50401 7.74134,-5.819 9.02555,-4.36259c2.93159,3.3247 -2.17798,14.97266 -2.17798,14.97266z" fill="#ffd266" stroke="#c19f4d" stroke-width="7"/></g></g></svg>