<svg version="1.1" xmlns="http://www.w3.org/2000/svg" xmlns:xlink="http://www.w3.org/1999/xlink" width="209.52242" height="140.25295" viewBox="0,0,209.52242,140.25295"><defs><radialGradient cx="205.11035" cy="129.88247" r="18.02632" gradientUnits="userSpaceOnUse" id="color-1"><stop offset="0" stop-color="#7ef2ff"/><stop offset="1" stop-color="#ffffff"/></radialGradient><radialGradient cx="273.49323" cy="130.81201" r="18.02632" gradientUnits="userSpaceOnUse" id="color-2"><stop offset="0" stop-color="#7ef2ff"/><stop offset="1" stop-color="#ffffff"/></radialGradient><radialGradient cx="174.8081" cy="178.51668" r="36.72533" gradientUnits="userSpaceOnUse" id="color-3"><stop offset="0" stop-color="#7ef2ff"/><stop offset="1" stop-color="#ffffff"/></radialGradient><radialGradient cx="307.02766" cy="186.45817" r="36.72533" gradientUnits="userSpaceOnUse" id="color-4"><stop offset="0" stop-color="#7ef2ff"/><stop offset="1" stop-color="#ffffff"/></radialGradient><radialGradient cx="240" cy="180" r="64.71284" gradientUnits="userSpaceOnUse" id="color-5"><stop offset="0" stop-color="#7ef2ff"/><stop offset="1" stop-color="#ffffff"/></radialGradient><radialGradient cx="210.10601" cy="235.5007" r="24.45116" gradientUnits="userSpaceOnUse" id="color-6"><stop offset="0" stop-color="#7ef2ff"/><stop offset="1" stop-color="#ffffff"/></radialGradient><radialGradient cx="277.61273" cy="233.88234" r="24.45116" gradientUnits="userSpaceOnUse" id="color-7"><stop offset="0" stop-color="#7ef2ff"/><stop offset="1" stop-color="#ffffff"/></radialGradient></defs><g transform="translate(-135.67943,-108.10615)"><g data-paper-data="{&quot;isPaintingLayer&quot;:true}" fill-rule="nonzero" stroke-linecap="butt" stroke-linejoin="miter" stroke-miterlimit="10" stroke-dasharray="" stroke-dashoffset="0" style="mix-blend-mode: normal"><path d="M222.26443,129.88247c0,9.95566 -7.68014,18.02632 -17.15408,18.02632c-9.47394,0 -17.15408,-8.07066 -17.15408,-18.02632c0,-9.95566 7.68014,-18.02632 17.15408,-18.02632c9.47394,0 17.15408,8.07066 17.15408,18.02632z" fill="url(#color-1)" stroke="#00a4ff" stroke-width="7.5"/><path d="M290.64731,130.81201c0,9.95566 -7.68014,18.02632 -17.15408,18.02632c-9.47394,0 -17.15408,-8.07066 -17.15408,-18.02632c0,-9.95566 7.68014,-18.02632 17.15408,-18.02632c9.47394,0 17.15408,8.07066 17.15408,18.02632z" fill="url(#color-2)" stroke="#00a4ff" stroke-width="7.5"/><path d="M139.65447,189.14551c-2.18463,-7.22539 11.7832,-17.84143 31.19801,-23.71158c19.41481,-5.87015 36.92461,-4.77149 39.10924,2.4539c2.18463,7.22539 -11.78319,17.84143 -31.198,23.71158c-19.41481,5.87015 -36.92462,4.77149 -39.10925,-2.4539z" fill="url(#color-3)" stroke="#00a4ff" stroke-width="7.5"/><path d="M312.16323,173.79204c18.79656,7.6212 31.73492,19.47023 28.89862,26.46553c-2.8363,6.99531 -20.3732,6.48793 -39.16976,-1.13327c-18.79656,-7.6212 -31.73492,-19.47022 -28.89862,-26.46553c2.8363,-6.99531 20.3732,-6.48793 39.16977,1.13326z" data-paper-data="{&quot;index&quot;:null}" fill="url(#color-4)" stroke="#00a4ff" stroke-width="7.5"/><path d="M227.83333,146.27083c0,9.57294 -7.3873,17.33333 -16.5,17.33333c-9.1127,0 -16.5,-7.7604 -16.5,-17.33333c0,-9.57294 7.3873,-17.33333 16.5,-17.33333c9.1127,0 16.5,7.7604 16.5,17.33333z" fill="#171717" stroke="#000000" stroke-width="3"/><path d="M212.91667,138.18194c0,-2.32486 1.90279,-4.20952 4.25,-4.20952c2.34721,0 4.25,1.88467 4.25,4.20952c0,2.32486 -1.90279,4.20952 -4.25,4.20952c-2.34721,0 -4.25,-1.88467 -4.25,-4.20952z" fill="#ffffff" stroke="none" stroke-width="0.5"/><path d="M288.5,147.60417c0,9.57294 -7.3873,17.33333 -16.5,17.33333c-9.1127,0 -16.5,-7.76039 -16.5,-17.33333c0,-9.57294 7.3873,-17.33334 16.5,-17.33334c9.1127,0 16.5,7.7604 16.5,17.33334z" fill="#171717" stroke="#000000" stroke-width="3"/><path d="M273.58333,139.51528c0,-2.32486 1.90279,-4.20953 4.25,-4.20953c2.34721,0 4.25,1.88467 4.25,4.20953c0,2.32486 -1.90279,4.20952 -4.25,4.20952c-2.34721,0 -4.25,-1.88467 -4.25,-4.20952z" fill="#ffffff" stroke="none" stroke-width="0.5"/><path d="M296.21429,190.35296c0,27.43336 -25.16799,49.67249 -56.21429,49.67249c-31.04629,0 -56.21429,-22.23913 -56.21429,-49.67249c0,-27.43336 24.2806,-57.65904 55.3269,-57.65904c31.04629,0 57.10168,30.22568 57.10168,57.65904z" fill="#6693ff" stroke="#000000" stroke-width="3"/><path d="M237.83329,234.14487c-0.00928,5.2467 -10.31424,9.48176 -23.01677,9.45929c-12.70253,-0.02248 -22.99244,-4.29397 -22.98315,-9.54068c0.00928,-5.2467 10.31424,-9.48176 23.01677,-9.45929c12.70253,0.02248 22.99244,4.29397 22.98315,9.54068z" fill="#ffd266" stroke="#000000" stroke-width="3"/><path d="M297.16087,234.25465c0.11775,5.24537 -10.08164,9.72872 -22.78099,10.0138c-12.69935,0.28508 -23.08967,-3.73603 -23.20742,-8.9814c-0.11775,-5.24537 10.08164,-9.72872 22.78099,-10.0138c12.69935,-0.28508 23.08967,3.73603 23.20742,8.9814z" fill="#ffd266" stroke="#000000" stroke-width="3"/><path d="M227.83333,146.27083c0,9.57294 -7.3873,17.33333 -16.5,17.33333c-9.1127,0 -16.5,-7.7604 -16.5,-17.33333c0,-9.57294 7.3873,-17.33333 16.5,-17.33333c9.1127,0 16.5,7.7604 16.5,17.33333z" fill="#171717" stroke="#000000" stroke-width="3"/><path d="M212.91667,138.18194c0,-2.32486 1.90279,-4.20952 4.25,-4.20952c2.34721,0 4.25,1.88467 4.25,4.20952c0,2.32486 -1.90279,4.20952 -4.25,4.20952c-2.34721,0 -4.25,-1.88467 -4.25,-4.20952z" fill="#ffffff" stroke="none" stroke-width="0.5"/><path d="M288.5,147.60417c0,9.57294 -7.3873,17.33333 -16.5,17.33333c-9.1127,0 -16.5,-7.76039 -16.5,-17.33333c0,-9.57294 7.3873,-17.33334 16.5,-17.33334c9.1127,0 16.5,7.7604 16.5,17.33334z" fill="#171717" stroke="#000000" stroke-width="3"/><path d="M273.58333,139.51528c0,-2.32486 1.90279,-4.20953 4.25,-4.20953c2.34721,0 4.25,1.88467 4.25,4.20953c0,2.32486 -1.90279,4.20952 -4.25,4.20952c-2.34721,0 -4.25,-1.88467 -4.25,-4.20952z" fill="#ffffff" stroke="none" stroke-width="0.5"/><path d="M296.21429,190.35296c0,27.43336 -25.16799,49.67249 -56.21429,49.67249c-31.04629,0 -56.21429,-22.23913 -56.21429,-49.67249c0,-27.43336 24.2806,-57.65904 55.3269,-57.65904c31.04629,0 57.10168,30.22568 57.10168,57.65904z" fill="#6693ff" stroke="#000000" stroke-width="3"/><path d="M229.5231,241.34862c-3.14184,4.202 -13.93585,1.44206 -24.1091,-6.16449c-10.17325,-7.60656 -15.87335,-17.17926 -12.7315,-21.38127c3.14184,-4.202 13.93585,-1.44206 24.1091,6.16449c10.17325,7.60656 15.87335,17.17926 12.7315,21.38127z" fill="#ffd266" stroke="#000000" stroke-width="3"/><path d="M296.21429,180c0,33.15113 -25.16799,60.02542 -56.21429,60.02542c-31.04629,0 -56.21429,-26.8743 -56.21429,-60.02542c0,-33.15113 25.16799,-60.02542 56.21429,-60.02542c31.04629,0 56.21429,26.8743 56.21429,60.02542z" fill="#6693ff" stroke="#000000" stroke-width="3"/><path d="M287.16667,195.5248c0,23.52032 -21.11724,42.5873 -47.16667,42.5873c-26.04943,0 -47.16667,-19.06698 -47.16667,-42.5873c0,-23.52032 21.11724,-42.5873 47.16667,-42.5873c26.04943,0 47.16667,19.06698 47.16667,42.5873z" fill="#ffffff" stroke="#000000" stroke-width="3"/><path d="M304.71284,180c0,33.3031 -28.97293,60.3006 -64.71284,60.3006c-35.73991,0 -64.71284,-26.9975 -64.71284,-60.3006c0,-33.3031 28.97293,-60.3006 64.71284,-60.3006c35.73991,0 64.71284,26.9975 64.71284,60.3006z" fill="url(#color-5)" stroke="#00a4ff" stroke-width="7.5"/><path d="M234.55349,235.92472c-0.08715,5.02488 -11.10331,8.9085 -24.60528,8.67432c-13.50197,-0.23418 -24.37683,-4.4975 -24.28968,-9.52238c0.08715,-5.02488 11.10331,-8.9085 24.60529,-8.67432c13.50197,0.23418 24.37682,4.4975 24.28967,9.52238z" fill="url(#color-6)" stroke="#00a4ff" stroke-width="7.5"/><path d="M302.03342,232.66213c0.2508,5.01937 -10.4794,9.63469 -23.96658,10.30859c-13.48718,0.6739 -24.62401,-2.84881 -24.87481,-7.86818c-0.2508,-5.01937 10.4794,-9.63468 23.96659,-10.30858c13.48718,-0.6739 24.624,2.8488 24.8748,7.86817z" fill="url(#color-7)" stroke="#00a4ff" stroke-width="7.5"/></g></g></svg>