<svg version="1.1" xmlns="http://www.w3.org/2000/svg" xmlns:xlink="http://www.w3.org/1999/xlink" width="783.5" height="540" viewBox="0,0,783.5,540"><defs><radialGradient cx="242" cy="160.0885" r="126.90752" gradientUnits="userSpaceOnUse" id="color-1"><stop offset="0" stop-color="#7ef2ff"/><stop offset="1" stop-color="#ffffff"/></radialGradient></defs><g transform="translate(109,90)"><g data-paper-data="{&quot;isPaintingLayer&quot;:true}" fill-rule="nonzero" stroke-linecap="butt" stroke-linejoin="miter" stroke-miterlimit="10" stroke-dasharray="" stroke-dashoffset="0" style="mix-blend-mode: normal"><path d="M-109,450v-540h698v540z" fill="#ffffff" stroke="none" stroke-width="NaN"/><path d="M670.5,111.8125v-5h4v5z" fill="#ffffff" stroke="none" stroke-width="0"/><text transform="translate(178.68018,346.34169) scale(1.39576,1.39576)" font-size="40" xml:space="preserve" fill="#000000" fill-rule="nonzero" stroke="none" stroke-width="1" stroke-linecap="butt" stroke-linejoin="miter" stroke-miterlimit="10" stroke-dasharray="" stroke-dashoffset="0" font-family="Sans Serif" font-weight="normal" text-anchor="start" style="mix-blend-mode: normal"><tspan x="0" dy="0">OPS!</tspan></text><path d="M178.68632,285.31513c0,0 27.90206,-43.9552 37.1857,-90.4129c7.73869,-38.72641 -3.27278,-78.84978 0.18864,-99.89895c4.52193,-27.49822 4.08773,-61.82231 4.08773,-61.82231l4.48238,0.5603c0,0 0.60824,43.56773 16.03826,91.58197c10.83169,33.70543 13.72375,70.9579 26.52208,100.30106c12.48969,28.63554 35.00097,49.71195 36.55419,54.74395c0.60454,1.95854 1.5684,6.62775 1.5684,6.62775z" fill="url(#color-1)" stroke="#00a4ff" stroke-width="7.5"/></g></g></svg>