<svg version="1.1" xmlns="http://www.w3.org/2000/svg" xmlns:xlink="http://www.w3.org/1999/xlink" width="159.45544" height="140.2676" viewBox="0,0,159.45544,140.2676"><g transform="translate(-162.15709,-127.4375)"><g data-paper-data="{&quot;isPaintingLayer&quot;:true}" fill-rule="nonzero" stroke-linecap="butt" stroke-linejoin="miter" stroke-miterlimit="10" stroke-dasharray="" stroke-dashoffset="0" style="mix-blend-mode: normal"><path d="M227.83333,146.27083c0,9.57294 -7.3873,17.33333 -16.5,17.33333c-9.1127,0 -16.5,-7.7604 -16.5,-17.33333c0,-9.57294 7.3873,-17.33333 16.5,-17.33333c9.1127,0 16.5,7.7604 16.5,17.33333z" fill="#171717" stroke="#000000" stroke-width="3"/><path d="M212.91667,138.18194c0,-2.32486 1.90279,-4.20952 4.25,-4.20952c2.34721,0 4.25,1.88467 4.25,4.20952c0,2.32486 -1.90279,4.20952 -4.25,4.20952c-2.34721,0 -4.25,-1.88467 -4.25,-4.20952z" fill="#ffffff" stroke="none" stroke-width="0.5"/><path d="M288.5,147.60417c0,9.57294 -7.3873,17.33333 -16.5,17.33333c-9.1127,0 -16.5,-7.76039 -16.5,-17.33333c0,-9.57294 7.3873,-17.33334 16.5,-17.33334c9.1127,0 16.5,7.7604 16.5,17.33334z" fill="#171717" stroke="#000000" stroke-width="3"/><path d="M273.58333,139.51528c0,-2.32486 1.90279,-4.20953 4.25,-4.20953c2.34721,0 4.25,1.88467 4.25,4.20953c0,2.32486 -1.90279,4.20952 -4.25,4.20952c-2.34721,0 -4.25,-1.88467 -4.25,-4.20952z" fill="#ffffff" stroke="none" stroke-width="0.5"/><path d="M286.67815,175.79996c6.06864,-4.33143 17.66407,1.51058 25.89912,13.0485c8.23504,11.5379 9.99126,24.40255 3.92262,28.73397c-6.06864,4.33142 -17.66406,-1.5106 -25.89912,-13.04851c-8.23504,-11.5379 -9.99126,-24.40254 -3.92262,-28.73397z" data-paper-data="{&quot;index&quot;:null}" fill="#6693ff" stroke="#000000" stroke-width="3"/><path d="M192.37101,197.28919c-6.29038,12.70318 -16.80618,20.319 -23.48772,17.01043c-6.68155,-3.30858 -6.99863,-16.28866 -0.70826,-28.99183c6.29038,-12.70318 16.80618,-20.319 23.48772,-17.01043c6.68155,3.30858 6.99863,16.28866 0.70826,28.99183z" fill="#6693ff" stroke="#000000" stroke-width="3"/><path d="M296.21429,190.35296c0,27.43336 -25.16799,49.67249 -56.21429,49.67249c-31.04629,0 -56.21429,-22.23913 -56.21429,-49.67249c0,-27.43336 24.2806,-57.65904 55.3269,-57.65904c31.04629,0 57.10168,30.22568 57.10168,57.65904z" fill="#6693ff" stroke="#000000" stroke-width="3"/><path d="M228.56105,229.74978c4.04273,3.34429 0.75634,13.98983 -7.34035,23.77749c-8.0967,9.78766 -17.93763,15.01106 -21.98037,11.66676c-4.04273,-3.34429 -0.75634,-13.98983 7.34035,-23.77749c8.0967,-9.78766 17.93763,-15.01106 21.98037,-11.66676z" fill="#ffd266" stroke="#000000" stroke-width="3"/><path d="M290.51259,263.9664c-3.89426,3.51603 -13.95197,-1.27673 -22.46449,-10.70497c-8.51252,-9.42824 -12.25636,-19.92166 -8.3621,-23.43769c3.89426,-3.51603 13.95197,1.27673 22.46449,10.70497c8.51252,9.42824 12.25636,19.92166 8.3621,23.43769z" fill="#ffd266" stroke="#000000" stroke-width="3"/></g></g></svg>