<svg version="1.1" xmlns="http://www.w3.org/2000/svg" xmlns:xlink="http://www.w3.org/1999/xlink" width="281.99464" height="157.19179" viewBox="0,0,281.99464,157.19179"><g transform="translate(-95.35776,-115.04753)"><g data-paper-data="{&quot;isPaintingLayer&quot;:true}" fill-rule="nonzero" stroke-linecap="butt" stroke-linejoin="miter" stroke-miterlimit="10" stroke-dasharray="" stroke-dashoffset="0" style="mix-blend-mode: normal"><path d="M227.83333,146.27083c0,9.57294 -7.3873,17.33333 -16.5,17.33333c-9.1127,0 -16.5,-7.7604 -16.5,-17.33333c0,-9.57294 7.3873,-17.33333 16.5,-17.33333c9.1127,0 16.5,7.7604 16.5,17.33333z" fill="#171717" stroke="#000000" stroke-width="3"/><path d="M212.91667,138.18194c0,-2.32486 1.90279,-4.20952 4.25,-4.20952c2.34721,0 4.25,1.88467 4.25,4.20952c0,2.32486 -1.90279,4.20952 -4.25,4.20952c-2.34721,0 -4.25,-1.88467 -4.25,-4.20952z" fill="#ffffff" stroke="none" stroke-width="0.5"/><path d="M288.5,147.60417c0,9.57294 -7.3873,17.33333 -16.5,17.33333c-9.1127,0 -16.5,-7.76039 -16.5,-17.33333c0,-9.57294 7.3873,-17.33334 16.5,-17.33334c9.1127,0 16.5,7.7604 16.5,17.33334z" fill="#171717" stroke="#000000" stroke-width="3"/><path d="M273.58333,139.51528c0,-2.32486 1.90279,-4.20953 4.25,-4.20953c2.34721,0 4.25,1.88467 4.25,4.20953c0,2.32486 -1.90279,4.20952 -4.25,4.20952c-2.34721,0 -4.25,-1.88467 -4.25,-4.20952z" fill="#ffffff" stroke="none" stroke-width="0.5"/><path d="M296.21429,190.35296c0,27.43336 -25.16799,49.67249 -56.21429,49.67249c-31.04629,0 -56.21429,-22.23913 -56.21429,-49.67249c0,-27.43336 24.2806,-57.65904 55.3269,-57.65904c31.04629,0 57.10168,30.22568 57.10168,57.65904z" fill="#6693ff" stroke="#000000" stroke-width="3"/><path d="M114.11733,185.31785l89.12828,-34.45699l9.89614,20.51421l-44.49187,21.46306l-13.84438,6.02176c0,0 -21.5084,5.1538 -19.71225,2.41141c1.7283,-2.6388 26.80689,-13.15176 24.69364,-14.4281c-1.70752,-1.03129 -34.97558,14.32351 -40.59249,15.56577c-7.53171,1.66575 12.42522,-10.53367 12.60471,-11.74003c0.66462,-4.46689 -17.68177,-5.35109 -17.68177,-5.35109z" fill="#009cff" stroke="#0045ff" stroke-width="7"/><path d="M353.26948,190.3142c0.44504,1.59128 11.41144,9.40842 7.61501,10.20375c-6.36986,1.33443 -29.14767,-4.96624 -29.14767,-4.96624l-14.48714,-4.24866l-46.8207,-15.74839c0,0 -1.14492,-3.79687 0.09262,-7.47614c1.18014,-3.50861 7.16862,-14.11184 7.16862,-14.11184c0,0 64.99206,13.53666 73.55118,16.41556c6.43129,2.16319 -26.73048,-0.66717 -26.73048,-0.66717c0,0 48.36771,15.71515 49.34148,17.82223c1.24721,2.69875 -44.43031,-7.7844 -39.74672,-4.53344c5.09711,3.53799 18.7024,5.66063 19.1638,7.31035z" data-paper-data="{&quot;index&quot;:null}" fill="#009cff" stroke="#0045ff" stroke-width="7"/><path d="M227.83333,146.27083c0,9.57294 -7.3873,17.33333 -16.5,17.33333c-9.1127,0 -16.5,-7.7604 -16.5,-17.33333c0,-9.57294 7.3873,-17.33333 16.5,-17.33333c9.1127,0 16.5,7.7604 16.5,17.33333z" fill="#171717" stroke="#000000" stroke-width="3"/><path d="M212.91667,138.18194c0,-2.32486 1.90279,-4.20952 4.25,-4.20952c2.34721,0 4.25,1.88467 4.25,4.20952c0,2.32486 -1.90279,4.20952 -4.25,4.20952c-2.34721,0 -4.25,-1.88467 -4.25,-4.20952z" fill="#ffffff" stroke="none" stroke-width="0.5"/><path d="M288.5,147.60417c0,9.57294 -7.3873,17.33333 -16.5,17.33333c-9.1127,0 -16.5,-7.76039 -16.5,-17.33333c0,-9.57294 7.3873,-17.33334 16.5,-17.33334c9.1127,0 16.5,7.7604 16.5,17.33334z" fill="#171717" stroke="#000000" stroke-width="3"/><path d="M273.58333,139.51528c0,-2.32486 1.90279,-4.20953 4.25,-4.20953c2.34721,0 4.25,1.88467 4.25,4.20953c0,2.32486 -1.90279,4.20952 -4.25,4.20952c-2.34721,0 -4.25,-1.88467 -4.25,-4.20952z" fill="#ffffff" stroke="none" stroke-width="0.5"/><path d="M296.21429,190.35296c0,27.43336 -25.16799,49.67249 -56.21429,49.67249c-31.04629,0 -56.21429,-22.23913 -56.21429,-49.67249c0,-27.43336 24.2806,-57.65904 55.3269,-57.65904c31.04629,0 57.10168,30.22568 57.10168,57.65904z" fill="#6693ff" stroke="#000000" stroke-width="3"/><path d="M294.81575,215.00371c2.31081,4.71041 -5.0608,13.06429 -16.46498,18.65889c-11.40418,5.5946 -22.52237,6.31137 -24.83318,1.60096c-2.31081,-4.71041 5.0608,-13.06429 16.46498,-18.65889c11.40418,-5.5946 22.52237,-6.31137 24.83318,-1.60096z" fill="#ffd266" stroke="#000000" stroke-width="3"/><path d="M287.16667,195.5248c0,23.52032 -21.11724,42.5873 -47.16667,42.5873c-26.04943,0 -47.16667,-19.06698 -47.16667,-42.5873c0,-23.52032 21.11724,-42.5873 47.16667,-42.5873c26.04943,0 47.16667,19.06698 47.16667,42.5873z" fill="#ffffff" stroke="#000000" stroke-width="3"/><path d="M263.16667,171.4375c0,5.2467 -10.29745,9.5 -23,9.5c-12.70255,0 -23,-4.2533 -23,-9.5c0,-5.2467 10.29745,-9.5 23,-9.5c12.70255,0 23,4.2533 23,9.5z" fill="#d6af56" stroke="#000000" stroke-width="3"/><path d="M186.31266,239.30751c0,0 -0.88739,-35.37381 -0.88739,-57.49637c0,-22.27674 1.47899,-60.81408 1.47899,-60.81408l97.31756,-2.37515l17.45209,116.81175z" fill="#009cff" stroke="#0045ff" stroke-width="7"/><path d="M225.70567,241.23845l5.58108,12.08437l-31.41936,14.5108c0,0 -19.23254,-27.53344 -20.12967,-29.47596c-0.95908,-2.07664 14.5486,17.3916 14.5486,17.3916c0,0 -4.12815,-5.53972 -0.05467,-6.16936c2.0077,-0.31032 -6.11134,-12.84023 -2.28461,-12.26143c4.14107,0.62634 20.21398,14.32132 21.6531,12.67846c3.8165,-4.35679 -0.8787,-15.79465 1.50521,-16.89563c3.71148,-1.71412 10.60032,8.13716 10.60032,8.13716z" fill="#ffd266" stroke="#c19f4d" stroke-width="7"/><path d="M302.66188,251.69467c0,0 13.38227,-9.28434 11.77598,-7.60488c-1.44297,1.50869 -20.97635,17.22432 -20.97635,17.22432l-25.01054,-23.92095l9.20036,-9.61944c0,0 1.03851,5.39051 5.04429,4.45787c2.4568,-0.57198 8.01239,-8.2652 9.28913,-7.06935c3.33951,3.12791 -0.94851,15.15473 2.95335,16.54212c3.42445,1.21762 7.21928,-6.45532 8.62251,-5.11321c3.20331,3.06376 -0.89874,15.10353 -0.89874,15.10353z" fill="#ffd266" stroke="#c19f4d" stroke-width="7"/></g></g></svg>