<svg version="1.1" xmlns="http://www.w3.org/2000/svg" xmlns:xlink="http://www.w3.org/1999/xlink" width="208.37245" height="152.43093" viewBox="0,0,208.37245,152.43093"><g transform="translate(-117.02556,-115.29491)"><g data-paper-data="{&quot;isPaintingLayer&quot;:true}" fill-rule="nonzero" stroke-linejoin="miter" stroke-miterlimit="10" stroke-dasharray="" stroke-dashoffset="0" style="mix-blend-mode: normal"><path d="M227.83333,146.27083c0,9.57294 -7.3873,17.33333 -16.5,17.33333c-9.1127,0 -16.5,-7.7604 -16.5,-17.33333c0,-9.57294 7.3873,-17.33333 16.5,-17.33333c9.1127,0 16.5,7.7604 16.5,17.33333z" fill="#171717" stroke="#000000" stroke-width="3" stroke-linecap="butt"/><path d="M212.91667,138.18194c0,-2.32486 1.90279,-4.20952 4.25,-4.20952c2.34721,0 4.25,1.88467 4.25,4.20952c0,2.32486 -1.90279,4.20952 -4.25,4.20952c-2.34721,0 -4.25,-1.88467 -4.25,-4.20952z" fill="#ffffff" stroke="none" stroke-width="0.5" stroke-linecap="butt"/><path d="M273.58333,139.51528c0,-2.32486 1.90279,-4.20953 4.25,-4.20953c2.34721,0 4.25,1.88467 4.25,4.20953c0,2.32486 -1.90279,4.20952 -4.25,4.20952c-2.34721,0 -4.25,-1.88467 -4.25,-4.20952z" fill="#ffffff" stroke="none" stroke-width="0.5" stroke-linecap="butt"/><path d="M286.67814,175.79996c6.06864,-4.33143 17.66407,1.51058 25.89912,13.0485c8.23504,11.5379 9.99126,24.40255 3.92262,28.73397c-6.06864,4.33142 -17.66406,-1.5106 -25.89912,-13.04851c-8.23504,-11.5379 -9.99126,-24.40254 -3.92262,-28.73397z" data-paper-data="{&quot;index&quot;:null}" fill="#6693ff" stroke="#000000" stroke-width="3" stroke-linecap="butt"/><path d="M192.37101,197.28919c-6.29038,12.70318 -16.80618,20.319 -23.48772,17.01043c-6.68155,-3.30858 -6.99863,-16.28866 -0.70826,-28.99183c6.29038,-12.70318 16.80618,-20.319 23.48772,-17.01043c6.68155,3.30858 6.99863,16.28866 0.70826,28.99183z" fill="#6693ff" stroke="#000000" stroke-width="3" stroke-linecap="butt"/><path d="M296.21429,190.35296c0,27.43336 -25.16799,49.67249 -56.21429,49.67249c-31.04629,0 -56.21429,-22.23913 -56.21429,-49.67249c0,-27.43336 24.2806,-57.65904 55.3269,-57.65904c31.04629,0 57.10168,30.22568 57.10168,57.65904z" fill="#6693ff" stroke="#000000" stroke-width="3" stroke-linecap="butt"/><path d="M228.56105,229.74978c4.04273,3.34429 0.75634,13.98983 -7.34035,23.77749c-8.0967,9.78766 -17.93763,15.01106 -21.98037,11.66676c-4.04273,-3.34429 -0.75634,-13.98983 7.34035,-23.77749c8.0967,-9.78766 17.93763,-15.01106 21.98037,-11.66676z" fill="#ffd266" stroke="#000000" stroke-width="3" stroke-linecap="butt"/><path d="M290.51259,263.96639c-3.89426,3.51603 -13.95197,-1.27673 -22.46449,-10.70497c-8.51252,-9.42824 -12.25636,-19.92166 -8.3621,-23.43769c3.89426,-3.51603 13.95197,1.27673 22.46449,10.70497c8.51252,9.42824 12.25636,19.92166 8.3621,23.43769z" fill="#ffd266" stroke="#000000" stroke-width="3" stroke-linecap="butt"/><path d="M228.33333,148.27083c0,9.57294 -7.3873,17.33333 -16.5,17.33333c-9.1127,0 -16.5,-7.7604 -16.5,-17.33333c0,-9.57294 7.3873,-17.33333 16.5,-17.33333c9.1127,0 16.5,7.7604 16.5,17.33333z" fill="#171717" stroke="#000000" stroke-width="3" stroke-linecap="butt"/><path d="M213.41667,140.18194c0,-2.32486 1.90279,-4.20952 4.25,-4.20952c2.34721,0 4.25,1.88467 4.25,4.20952c0,2.32486 -1.90279,4.20952 -4.25,4.20952c-2.34721,0 -4.25,-1.88467 -4.25,-4.20952z" fill="#ffffff" stroke="none" stroke-width="0.5" stroke-linecap="butt"/><path d="M274.08333,141.51528c0,-2.32486 1.90279,-4.20953 4.25,-4.20953c2.34721,0 4.25,1.88467 4.25,4.20953c0,2.32486 -1.90279,4.20952 -4.25,4.20952c-2.34721,0 -4.25,-1.88467 -4.25,-4.20952z" fill="#ffffff" stroke="none" stroke-width="0.5" stroke-linecap="butt"/><path d="M296.71429,192.35296c0,27.43336 -25.16799,49.67249 -56.21429,49.67249c-31.04629,0 -56.21429,-22.23913 -56.21429,-49.67249c0,-27.43336 24.2806,-57.65904 55.3269,-57.65904c31.04629,0 57.10168,30.22568 57.10168,57.65904z" fill="#6693ff" stroke="#000000" stroke-width="3" stroke-linecap="butt"/><path d="M228.33333,148.27083c0,9.57294 -7.3873,17.33333 -16.5,17.33333c-9.1127,0 -16.5,-7.7604 -16.5,-17.33333c0,-9.57294 7.3873,-17.33333 16.5,-17.33333c9.1127,0 16.5,7.7604 16.5,17.33333z" fill="#171717" stroke="#000000" stroke-width="3" stroke-linecap="butt"/><path d="M213.41667,140.18194c0,-2.32486 1.90279,-4.20952 4.25,-4.20952c2.34721,0 4.25,1.88467 4.25,4.20952c0,2.32486 -1.90279,4.20952 -4.25,4.20952c-2.34721,0 -4.25,-1.88467 -4.25,-4.20952z" fill="#ffffff" stroke="none" stroke-width="0.5" stroke-linecap="butt"/><path d="M274.08333,141.51528c0,-2.32486 1.90279,-4.20953 4.25,-4.20953c2.34721,0 4.25,1.88467 4.25,4.20953c0,2.32486 -1.90279,4.20952 -4.25,4.20952c-2.34721,0 -4.25,-1.88467 -4.25,-4.20952z" fill="#ffffff" stroke="none" stroke-width="0.5" stroke-linecap="butt"/><path d="M296.71429,192.35296c0,27.43336 -25.16799,49.67249 -56.21429,49.67249c-31.04629,0 -56.21429,-22.23913 -56.21429,-49.67249c0,-27.43336 24.2806,-57.65904 55.3269,-57.65904c31.04629,0 57.10168,30.22568 57.10168,57.65904z" fill="#6693ff" stroke="#000000" stroke-width="3" stroke-linecap="butt"/><path d="M230.0231,243.34862c-3.14184,4.202 -13.93585,1.44206 -24.1091,-6.16449c-10.17325,-7.60656 -15.87335,-17.17926 -12.7315,-21.38127c3.14184,-4.202 13.93585,-1.44206 24.1091,6.16449c10.17325,7.60656 15.87335,17.17926 12.7315,21.38127z" fill="#ffd266" stroke="#000000" stroke-width="3" stroke-linecap="butt"/><path d="M294.71429,190.50002c0,33.15113 -25.16799,60.02542 -56.21429,60.02542c-31.04629,0 -56.21429,-26.8743 -56.21429,-60.02542c0,-33.15113 25.16799,-60.02542 56.21429,-60.02542c31.04629,0 56.21429,26.8743 56.21429,60.02542z" fill="#ffd5a2" stroke="#000000" stroke-width="3" stroke-linecap="butt"/><path d="M191.02712,222.99672l-5.21269,-50.49797l54.08169,32.57933l45.93686,-28.01823l3.90952,43.00472c0,0 -4.26431,5.97789 -10.88196,11.00776c-10.87618,8.26666 -27.55479,17.29792 -38.00815,17.61257c-10.29689,0.30994 -32.36946,-8.75953 -43.69857,-16.47291c-5.79039,-3.94236 -6.12671,-9.21528 -6.12671,-9.21528z" fill="#000000" stroke="#bd0000" stroke-width="4.5" stroke-linecap="butt"/><path d="M279.95,184.61667l-64.25,56.75417" data-paper-data="{&quot;index&quot;:null}" fill="none" stroke="#a17900" stroke-width="4.5" stroke-linecap="round"/><path d="M198.74494,232.89575l-4.9428,-6.42565l91.2771,-0.32952l-6.42564,6.09613z" fill="#342800" stroke="#181200" stroke-width="4.5" stroke-linecap="butt"/><path d="M197.92959,239.30788c0.69036,0 -0.69036,0 0,0z" fill="#b6b6b6" stroke="none" stroke-width="0.5" stroke-linecap="butt"/><path d="M193.10441,246.31789c0,-0.69036 0,0.69036 0,0z" fill="#b6b6b6" stroke="none" stroke-width="0.5" stroke-linecap="butt"/><path d="M288.71661,239.69459c0.69036,0 -0.69036,0 0,0z" fill="#b6b6b6" stroke="none" stroke-width="0.5" stroke-linecap="butt"/><path d="M135.73763,153.15633c0,-0.69036 0,0.69036 0,0z" fill="#b6b6b6" stroke="none" stroke-width="0.5" stroke-linecap="butt"/><path d="M131.62487,152.89944c-0.69036,0 0.69036,0 0,0z" fill="#b6b6b6" stroke="none" stroke-width="0.5" stroke-linecap="butt"/><path d="M117.22485,152.60151c-0.69036,0 0.69036,0 0,0z" fill="#b6b6b6" stroke="none" stroke-width="0.5" stroke-linecap="butt"/><path d="M225.9973,233.57037c3.49445,3.11998 0.15122,12.56655 -7.46734,21.09953c-7.61855,8.53296 -16.62743,12.92106 -20.12188,9.80108c-3.49445,-3.11998 -0.15122,-12.56656 7.46734,-21.09953c7.61855,-8.53296 16.62743,-12.92106 20.12188,-9.80107z" fill="#000000" stroke="#bd0000" stroke-width="4.5" stroke-linecap="butt"/><path d="M293.20597,263.11588c-3.16938,3.44971 -12.56743,-0.0276 -20.99113,-7.76679c-8.4237,-7.73918 -12.68318,-16.80957 -9.5138,-20.25928c3.16938,-3.44971 12.56743,0.0276 20.99113,7.76679c8.42371,7.73919 12.68318,16.80957 9.5138,20.25928z" fill="#000000" stroke="#bd0000" stroke-width="4.5" stroke-linecap="butt"/><path d="M211.85119,155.42931c-1.07229,-0.02822 -3.68763,0.51128 -4.47619,-0.45534c-0.69024,-0.8461 -0.71657,-2.71488 -1.80838,-2.73142c-5.79778,-0.08783 -11.14501,3.06323 -16.93777,0.03815c-2.47388,-1.2919 -4.64882,-7.19078 -2.44135,-9.49423c2.57455,-2.68649 4.74632,-2.11948 8.1875,-2c1.11865,0.03884 3.02655,1.14334 3.83268,0.6447c0.58484,-0.36176 -1.19892,-0.78668 -1.52018,-1.3947c-0.43648,-0.82607 -0.92871,-3.20049 -1.20534,-4.27381c-1.34989,-5.23761 -0.70421,-10.33235 4.64284,-12.91369c2.57062,-1.24099 7.22683,-1.41113 9.52393,0.55782c0.87133,0.74686 1.26269,2.05396 1.72931,3.10877c0.11861,0.26811 0.11947,0.90232 0.38965,0.7885c1.55638,-0.65567 -3.65608,-7.36745 0.42513,-9.69957c1.09097,-0.62341 3.20967,-1.47235 4.37522,-1.19324c0.16542,0.03961 2.18533,1.20311 2.45258,0.96327c1.46138,-1.31149 1.52584,-1.56579 3.59043,-1.1649c1.44578,0.28073 4.79125,1.95505 5.988,1.68358c2.45326,-0.55648 4.49116,-1.79348 7.02576,-2.35673c3.11477,-0.69217 4.49801,1.13668 6.86154,1.23857c4.40438,0.18988 9.22398,-0.32152 13.69243,-0.23857c1.92219,0.03568 3.8588,0.22956 5.76756,0c1.75109,-0.2106 3.61341,-1.81368 5.19092,-1.02492c1.36226,0.68113 0.98225,3.85519 2.50492,3.82132c2.37268,-0.05278 3.1008,-2.13065 5.98262,-0.4839c3.28981,1.87989 1.55794,6.46589 1.78769,6.67506c1.78709,1.627 5.37749,5.12103 5.82795,7.92102c0.26634,1.65554 -0.20199,4.03717 0.13436,5.33707c0.15777,0.60972 2.03003,0.37122 2.5,3.50434c0.51331,3.42207 -1.40565,5.68023 -3.27721,8.14117c-0.34868,0.45848 0.26933,5.35987 -0.29465,7.28009c-2.8589,9.73389 -13.31242,9.72612 -21.56067,7.74135c-5.97097,-1.43679 -6.55565,-7.12102 -9.64406,-9.04383c-0.9712,-0.60466 -1.4406,1.89153 -2.47726,2.37544c-2.33897,1.09183 -4.46929,0.87169 -6.62584,-0.9703c-0.55547,-0.47445 -2.31576,-5.02394 -2.8338,-6.19387c-0.13624,-0.30769 -1.68343,-4.63436 -1.78652,-4.48006c-0.22053,0.33009 0.14104,4.16413 -0.23093,5.57302c-1.00947,3.82357 -1.76372,7.83402 -3.63939,11.3509c-1.34201,2.51627 -9.54318,2.09916 -11.12968,1.97607c-0.87019,-0.06751 -1.91358,-0.09466 -2.51558,-0.72664c-1.62945,-1.7106 -1.77858,-2.06447 -2.26944,-4.27336c-0.16635,-0.74857 1.55233,-0.82389 0.5625,-2c-0.87284,-1.03711 -2.82533,0.06383 -4.02748,-0.5625c-1.28264,-0.66827 -1.16469,-2.03821 -1.79997,-3.14996z" fill="#000000" stroke="none" stroke-width="0.5" stroke-linecap="butt"/><path d="M228.6,192.2625c0,0 -21.73272,-9.30116 -27.89754,-17.27917c-6.29896,-8.1516 -9.50246,-31.12083 -9.50246,-31.12083h94.2c0,0 -3.79496,23.86594 -10.11291,31.8978c-6.21365,7.89927 -27.48709,15.9022 -27.48709,15.9022z" fill="#000000" stroke="none" stroke-width="0" stroke-linecap="butt"/><g><path d="M291.98234,174.86573c6.6437,-3.38392 17.24496,4.11249 23.6786,16.74372c6.43363,12.63122 6.26334,25.61406 -0.38035,28.99798c-6.6437,3.38392 -17.24496,-4.11249 -23.6786,-16.74372c-6.43363,-12.63122 -6.26334,-25.61406 0.38035,-28.99798z" data-paper-data="{&quot;index&quot;:null}" fill="#ffd5a2" stroke="#000000" stroke-width="3" stroke-linecap="butt"/><path d="M295.27773,211.64544l-8.87693,-28.68964c0,0 3.82065,-7.6245 6.23132,-8.70964c3.60701,-1.62366 13.30745,-0.08553 13.30745,-0.08553l16.1498,29.24762z" data-paper-data="{&quot;index&quot;:null}" fill="#ffffff" stroke="#000000" stroke-width="4.5" stroke-linecap="butt"/><path d="M291.17305,186.87753l28.42813,14.74045" data-paper-data="{&quot;index&quot;:null}" fill="none" stroke="#a17900" stroke-width="4.5" stroke-linecap="round"/><path d="M287.76887,186.1438l-2.03962,-8.15147c0,0 5.68218,-3.96935 8.83025,-4.75704c3.38751,-0.8476 10.82918,-0.16202 10.82918,-0.16202l2.03961,8.15148z" data-paper-data="{&quot;index&quot;:null}" fill="#191919" stroke="#000000" stroke-width="4.5" stroke-linecap="butt"/><path d="M297.6779,211.2268l-0.72819,-2.91028l25.99851,-6.50518l0.72819,2.91028z" data-paper-data="{&quot;index&quot;:null}" fill="#342800" stroke="#181200" stroke-width="2.5" stroke-linecap="butt"/><path d="M291.90306,198.85864l-0.82528,-3.29832l24.8344,-6.2139l0.82529,3.29832z" data-paper-data="{&quot;index&quot;:null}" fill="#342800" stroke="#181200" stroke-width="2.5" stroke-linecap="butt"/></g><g><path d="M191.02473,200.91757c-7.19043,12.21627 -18.22824,19.05362 -24.6537,15.27165c-6.42545,-3.78198 -5.8053,-16.75111 1.38511,-28.96738c7.19043,-12.21627 18.22824,-19.05362 24.6537,-15.27165c6.42545,3.78198 5.8053,16.75111 -1.38511,28.96738z" fill="#ffd5a2" stroke="#000000" stroke-width="3" stroke-linecap="butt"/><path d="M160.62158,198.60756l17.89981,-28.21057c0,0 9.77607,-0.94492 13.27757,0.89524c2.34017,1.22984 5.68972,9.07271 5.68972,9.07271l-10.60646,28.09623z" fill="#ffffff" stroke="#000000" stroke-width="4.5" stroke-linecap="butt"/><path d="M192.48662,183.98895l-29.27252,12.98306" fill="none" stroke="#a17900" stroke-width="4.5" stroke-linecap="round"/><path d="M176.60552,177.35739l2.53191,-8.01224c0,0 7.46961,-0.23143 10.79926,0.82076c3.0943,0.97781 8.52438,5.28561 8.52438,5.28561l-2.53191,8.01224z" fill="#191919" stroke="#000000" stroke-width="4.5" stroke-linecap="butt"/><path d="M158.95755,199.82189l0.90395,-2.86057l25.55443,8.07533l-0.90395,2.86057z" fill="#342800" stroke="#181200" stroke-width="2.5" stroke-linecap="butt"/><path d="M166.61862,188.18969l1.02448,-3.24197l24.4102,7.71375l-1.02449,3.24199z" fill="#342800" stroke="#181200" stroke-width="2.5" stroke-linecap="butt"/></g></g></g></svg>