<svg version="1.1" xmlns="http://www.w3.org/2000/svg" xmlns:xlink="http://www.w3.org/1999/xlink" width="219.27218" height="138.46589" viewBox="0,0,219.27218,138.46589"><g transform="translate(-116.52556,-113.29492)"><g data-paper-data="{&quot;isPaintingLayer&quot;:true}" fill-rule="nonzero" stroke-linejoin="miter" stroke-miterlimit="10" stroke-dasharray="" stroke-dashoffset="0" style="mix-blend-mode: normal"><path d="M227.83333,146.27083c0,9.57294 -7.3873,17.33333 -16.5,17.33333c-9.1127,0 -16.5,-7.7604 -16.5,-17.33333c0,-9.57294 7.3873,-17.33333 16.5,-17.33333c9.1127,0 16.5,7.7604 16.5,17.33333z" fill="#171717" stroke="#000000" stroke-width="3" stroke-linecap="butt"/><path d="M212.91667,138.18194c0,-2.32486 1.90279,-4.20952 4.25,-4.20952c2.34721,0 4.25,1.88467 4.25,4.20952c0,2.32486 -1.90279,4.20952 -4.25,4.20952c-2.34721,0 -4.25,-1.88467 -4.25,-4.20952z" fill="#ffffff" stroke="none" stroke-width="0.5" stroke-linecap="butt"/><path d="M273.58333,139.51528c0,-2.32486 1.90279,-4.20953 4.25,-4.20953c2.34721,0 4.25,1.88467 4.25,4.20953c0,2.32486 -1.90279,4.20952 -4.25,4.20952c-2.34721,0 -4.25,-1.88467 -4.25,-4.20952z" fill="#ffffff" stroke="none" stroke-width="0.5" stroke-linecap="butt"/><path d="M282.39868,175.28348c2.2452,-7.10976 15.02325,-9.41293 28.54057,-5.14426c13.51731,4.26866 22.65517,13.49271 20.40996,20.60246c-2.24521,7.10976 -15.02325,9.41291 -28.54058,5.14425c-13.51731,-4.26866 -22.65516,-13.4927 -20.40996,-20.60246z" data-paper-data="{&quot;index&quot;:null}" fill="#6693ff" stroke="#000000" stroke-width="3" stroke-linecap="butt"/><path d="M296.21429,190.35296c0,27.43336 -25.16799,49.67249 -56.21429,49.67249c-31.04629,0 -56.21429,-22.23913 -56.21429,-49.67249c0,-27.43336 24.2806,-57.65904 55.3269,-57.65904c31.04629,0 57.10168,30.22568 57.10168,57.65904z" fill="#6693ff" stroke="#000000" stroke-width="3" stroke-linecap="butt"/><path d="M227.83333,146.27083c0,9.57294 -7.3873,17.33333 -16.5,17.33333c-9.1127,0 -16.5,-7.7604 -16.5,-17.33333c0,-9.57294 7.3873,-17.33333 16.5,-17.33333c9.1127,0 16.5,7.7604 16.5,17.33333z" fill="#171717" stroke="#000000" stroke-width="3" stroke-linecap="butt"/><path d="M212.91667,138.18194c0,-2.32486 1.90279,-4.20952 4.25,-4.20952c2.34721,0 4.25,1.88467 4.25,4.20952c0,2.32486 -1.90279,4.20952 -4.25,4.20952c-2.34721,0 -4.25,-1.88467 -4.25,-4.20952z" fill="#ffffff" stroke="none" stroke-width="0.5" stroke-linecap="butt"/><path d="M273.58333,139.51528c0,-2.32486 1.90279,-4.20953 4.25,-4.20953c2.34721,0 4.25,1.88467 4.25,4.20953c0,2.32486 -1.90279,4.20952 -4.25,4.20952c-2.34721,0 -4.25,-1.88467 -4.25,-4.20952z" fill="#ffffff" stroke="none" stroke-width="0.5" stroke-linecap="butt"/><path d="M296.21429,190.35296c0,27.43336 -25.16799,49.67249 -56.21429,49.67249c-31.04629,0 -56.21429,-22.23913 -56.21429,-49.67249c0,-27.43336 24.2806,-57.65904 55.3269,-57.65904c31.04629,0 57.10168,30.22568 57.10168,57.65904z" fill="#6693ff" stroke="#000000" stroke-width="3" stroke-linecap="butt"/><path d="M229.5231,241.34862c-3.14184,4.202 -13.93585,1.44206 -24.1091,-6.16449c-10.17325,-7.60656 -15.87335,-17.17926 -12.7315,-21.38127c3.14184,-4.202 13.93585,-1.44206 24.1091,6.16449c10.17325,7.60656 15.87335,17.17926 12.7315,21.38127z" fill="#ffd266" stroke="#000000" stroke-width="3" stroke-linecap="butt"/><path d="M294.21429,188.50002c0,33.15113 -25.16799,60.02542 -56.21429,60.02542c-31.04629,0 -56.21429,-26.8743 -56.21429,-60.02542c0,-33.15113 25.16799,-60.02542 56.21429,-60.02542c31.04629,0 56.21429,26.8743 56.21429,60.02542z" fill="#ffd5a2" stroke="#000000" stroke-width="3" stroke-linecap="butt"/><path d="M190.52712,220.99672l-5.21269,-50.49797l54.08169,32.57933l45.93686,-28.01823l3.90952,43.00472c0,0 -4.26431,5.97789 -10.88196,11.00776c-10.87618,8.26666 -27.55479,17.29792 -38.00815,17.61257c-10.29689,0.30994 -32.36946,-8.75953 -43.69857,-16.47291c-5.79039,-3.94236 -6.12671,-9.21528 -6.12671,-9.21528z" fill="#000000" stroke="#bd0000" stroke-width="4.5" stroke-linecap="butt"/><path d="M279.45,182.61667l-64.25,56.75417" data-paper-data="{&quot;index&quot;:null}" fill="none" stroke="#a17900" stroke-width="4.5" stroke-linecap="round"/><path d="M198.24494,230.89575l-4.9428,-6.42565l91.2771,-0.32952l-6.42564,6.09613z" fill="#342800" stroke="#181200" stroke-width="4.5" stroke-linecap="butt"/><path d="M197.42959,237.30788c0.69036,0 -0.69036,0 0,0z" fill="#b6b6b6" stroke="none" stroke-width="0.5" stroke-linecap="butt"/><path d="M192.60441,244.31789c0,-0.69036 0,0.69036 0,0z" fill="#b6b6b6" stroke="none" stroke-width="0.5" stroke-linecap="butt"/><path d="M288.21661,237.69459c0.69036,0 -0.69036,0 0,0z" fill="#b6b6b6" stroke="none" stroke-width="0.5" stroke-linecap="butt"/><path d="M135.23763,151.15633c0,-0.69036 0,0.69036 0,0z" fill="#b6b6b6" stroke="none" stroke-width="0.5" stroke-linecap="butt"/><path d="M131.12487,150.89944c-0.69036,0 0.69036,0 0,0z" fill="#b6b6b6" stroke="none" stroke-width="0.5" stroke-linecap="butt"/><path d="M116.72485,150.60151c-0.69036,0 0.69036,0 0,0z" fill="#b6b6b6" stroke="none" stroke-width="0.5" stroke-linecap="butt"/><path d="M228.41126,241.41799c-0.08986,4.68374 -9.43425,8.30278 -20.87129,8.08334c-11.43703,-0.21943 -20.63573,-4.19424 -20.54586,-8.87798c0.08986,-4.68374 9.43425,-8.30278 20.87129,-8.08334c11.43703,0.21943 20.63573,4.19424 20.54586,8.87798z" fill="#000000" stroke="#bd0000" stroke-width="4.5" stroke-linecap="butt"/><path d="M298.07075,232.61995c0.44848,4.66308 -8.41862,9.33102 -19.80521,10.42614c-11.38659,1.09512 -20.98081,-1.79728 -21.42929,-6.46036c-0.44848,-4.66308 8.41862,-9.33102 19.80521,-10.42614c11.3866,-1.09512 20.98081,1.79728 21.42929,6.46036z" fill="#000000" stroke="#bd0000" stroke-width="4.5" stroke-linecap="butt"/><path d="M211.35119,153.42931c-1.07229,-0.02822 -3.68763,0.51128 -4.47619,-0.45534c-0.69024,-0.8461 -0.71657,-2.71488 -1.80838,-2.73142c-5.79778,-0.08783 -11.14501,3.06323 -16.93777,0.03815c-2.47388,-1.2919 -4.64882,-7.19078 -2.44135,-9.49423c2.57455,-2.68649 4.74632,-2.11948 8.1875,-2c1.11865,0.03884 3.02655,1.14334 3.83268,0.6447c0.58484,-0.36176 -1.19892,-0.78668 -1.52018,-1.3947c-0.43648,-0.82607 -0.92871,-3.20049 -1.20534,-4.27381c-1.34989,-5.23761 -0.70421,-10.33235 4.64284,-12.91369c2.57062,-1.24099 7.22683,-1.41113 9.52393,0.55782c0.87133,0.74686 1.26269,2.05396 1.72931,3.10877c0.11861,0.26811 0.11947,0.90232 0.38965,0.7885c1.55638,-0.65567 -3.65608,-7.36745 0.42513,-9.69957c1.09097,-0.62341 3.20967,-1.47235 4.37522,-1.19324c0.16542,0.03961 2.18533,1.20311 2.45258,0.96327c1.46138,-1.31149 1.52584,-1.56579 3.59043,-1.1649c1.44578,0.28073 4.79125,1.95505 5.988,1.68358c2.45326,-0.55648 4.49116,-1.79348 7.02576,-2.35673c3.11477,-0.69217 4.49801,1.13668 6.86154,1.23857c4.40438,0.18988 9.22398,-0.32152 13.69243,-0.23857c1.92219,0.03568 3.8588,0.22956 5.76756,0c1.75109,-0.2106 3.61341,-1.81368 5.19092,-1.02492c1.36226,0.68113 0.98225,3.85519 2.50492,3.82132c2.37268,-0.05278 3.1008,-2.13065 5.98262,-0.4839c3.28981,1.87989 1.55794,6.46589 1.78769,6.67506c1.78709,1.627 5.37749,5.12103 5.82795,7.92102c0.26634,1.65554 -0.20199,4.03717 0.13436,5.33707c0.15777,0.60972 2.03003,0.37122 2.5,3.50434c0.51331,3.42207 -1.40565,5.68023 -3.27721,8.14117c-0.34868,0.45848 0.26933,5.35987 -0.29465,7.28009c-2.8589,9.73389 -13.31242,9.72612 -21.56067,7.74135c-5.97097,-1.43679 -6.55565,-7.12102 -9.64406,-9.04383c-0.9712,-0.60466 -1.4406,1.89153 -2.47726,2.37544c-2.33897,1.09183 -4.46929,0.87169 -6.62584,-0.9703c-0.55547,-0.47445 -2.31576,-5.02394 -2.8338,-6.19387c-0.13624,-0.30769 -1.68343,-4.63436 -1.78652,-4.48006c-0.22053,0.33009 0.14104,4.16413 -0.23093,5.57302c-1.00947,3.82357 -1.76372,7.83402 -3.63939,11.3509c-1.34201,2.51627 -9.54318,2.09916 -11.12968,1.97607c-0.87019,-0.06751 -1.91358,-0.09466 -2.51558,-0.72664c-1.62945,-1.7106 -1.77858,-2.06447 -2.26944,-4.27336c-0.16635,-0.74857 1.55233,-0.82389 0.5625,-2c-0.87284,-1.03711 -2.82533,0.06383 -4.02748,-0.5625c-1.28264,-0.66827 -1.16469,-2.03821 -1.79997,-3.14996z" fill="#000000" stroke="none" stroke-width="0.5" stroke-linecap="butt"/><path d="M228.1,190.2625c0,0 -21.73272,-9.30116 -27.89754,-17.27917c-6.29896,-8.1516 -9.50246,-31.12083 -9.50246,-31.12083h94.2c0,0 -3.79496,23.86594 -10.11291,31.8978c-6.21365,7.89927 -27.48709,15.9022 -27.48709,15.9022z" fill="#000000" stroke="none" stroke-width="0" stroke-linecap="butt"/><g><path d="M284.21735,177.94062c1.76539,-7.24383 14.36109,-10.39521 28.13331,-7.03881c13.77221,3.3564 23.50568,11.94958 21.7403,19.19341c-1.76539,7.24383 -14.36109,10.39521 -28.13331,7.03881c-13.77221,-3.3564 -23.50568,-11.94958 -21.7403,-19.19341z" data-paper-data="{&quot;index&quot;:null}" fill="#ffd5a2" stroke="#000000" stroke-width="3" stroke-linecap="butt"/><path d="M314.25467,199.42006l-27.5417,-11.97288c0,0 -3.29058,-7.86781 -2.54179,-10.40319c1.12039,-3.79361 8.61083,-10.14638 8.61083,-10.14638l32.70629,6.82186z" data-paper-data="{&quot;index&quot;:null}" fill="#ffffff" stroke="#000000" stroke-width="4.5" stroke-linecap="butt"/><path d="M292.79792,186.38527l29.71072,-11.94625" data-paper-data="{&quot;index&quot;:null}" fill="none" stroke="#a17900" stroke-width="4.5" stroke-linecap="round"/><path d="M290.02223,188.48821l-7.51072,-3.76771c0,0 0.69462,-6.89641 2.1497,-9.79702c1.56575,-3.12123 6.93714,-8.31706 6.93714,-8.31706l7.51072,3.76772z" data-paper-data="{&quot;index&quot;:null}" fill="#191919" stroke="#000000" stroke-width="4.5" stroke-linecap="butt"/><path d="M315.50199,197.32716l-2.68151,-1.34517l12.01685,-23.95486l2.68151,1.34517z" data-paper-data="{&quot;index&quot;:null}" fill="#342800" stroke="#181200" stroke-width="2.5" stroke-linecap="butt"/><path d="M302.35875,193.64272l-3.03905,-1.52453l11.47878,-22.88225l3.03905,1.52452z" data-paper-data="{&quot;index&quot;:null}" fill="#342800" stroke="#181200" stroke-width="2.5" stroke-linecap="butt"/></g><g><path d="M175.72806,199.25299c-13.06528,5.49891 -26.00142,4.38582 -28.89372,-2.48618c-2.89229,-6.872 5.35455,-16.90059 18.41981,-22.39951c13.06528,-5.49891 26.00142,-4.38582 28.89372,2.48618c2.89229,6.872 -5.35455,16.90059 -18.41981,22.39951z" fill="#ffd5a2" stroke="#000000" stroke-width="3" stroke-linecap="butt"/><path d="M152.72996,179.23362l31.20972,-11.92447c0,0 8.40346,5.08392 10.11153,8.65172c1.14156,2.38448 -0.85907,10.67469 -0.85907,10.67469l-25.2933,16.19086z" fill="#ffffff" stroke="#000000" stroke-width="4.5" stroke-linecap="butt"/><path d="M187.01579,186.5525l-31.22975,-7.08119" fill="none" stroke="#a17900" stroke-width="4.5" stroke-linecap="round"/><path d="M178.24433,171.74546l6.81782,-4.91161c0,0 6.12771,4.27782 8.16883,7.11111c1.89685,2.63302 3.67681,9.33187 3.67681,9.33187l-6.81782,4.91161z" fill="#191919" stroke="#000000" stroke-width="4.5" stroke-linecap="butt"/><path d="M150.67006,179.213l2.43413,-1.75357l15.6652,21.74492l-2.43413,1.75357z" fill="#342800" stroke="#181200" stroke-width="2.5" stroke-linecap="butt"/><path d="M163.76371,174.46364l2.75868,-1.98737l14.96377,20.77126l-2.75869,1.98738z" fill="#342800" stroke="#181200" stroke-width="2.5" stroke-linecap="butt"/></g></g></g></svg>