<svg version="1.1" xmlns="http://www.w3.org/2000/svg" xmlns:xlink="http://www.w3.org/1999/xlink" width="278.91254" height="214.84227" viewBox="0,0,278.91254,214.84227"><defs><radialGradient cx="215.989" cy="234.76532" r="24.45116" gradientUnits="userSpaceOnUse" id="color-1"><stop offset="0" stop-color="#7ef2ff"/><stop offset="1" stop-color="#ffffff"/></radialGradient></defs><g transform="translate(-23.65363,-61.9689)"><g data-paper-data="{&quot;isPaintingLayer&quot;:true}" fill-rule="nonzero" stroke-linejoin="miter" stroke-miterlimit="10" stroke-dasharray="" stroke-dashoffset="0" style="mix-blend-mode: normal"><path d="M241.50001,235.10416c0,5.24671 -10.29745,9.5 -23,9.5c-12.70255,0 -23,-4.25329 -23,-9.5c0,-5.24671 10.29745,-9.5 23,-9.5c12.70255,0 23,4.25329 23,9.5z" fill="#ffd266" stroke="#000000" stroke-width="3" stroke-linecap="butt"/><path d="M294.50001,234.4375c0,5.2467 -10.29745,9.5 -23,9.5c-12.70255,0 -23,-4.2533 -23,-9.5c0,-5.2467 10.29745,-9.5 23,-9.5c12.70255,0 23,4.2533 23,9.5z" fill="#ffd266" stroke="#000000" stroke-width="3" stroke-linecap="butt"/><path d="M240.44016,234.76532c0,5.02564 -10.94716,9.09972 -24.45116,9.09972c-13.504,0 -24.45116,-4.07409 -24.45116,-9.09972c0,-5.02564 10.94716,-9.09972 24.45116,-9.09972c13.504,0 24.45116,4.07409 24.45116,9.09972z" fill="url(#color-1)" stroke="#00a4ff" stroke-width="7.5" stroke-linecap="butt"/><path d="M219.7961,127.52574v-45.79231h44.58725v45.79231z" fill="#ff0000" stroke="#000000" stroke-width="7.5" stroke-linecap="butt"/><path d="M259.26184,122.10297l-35.85056,-0.60253" fill="none" stroke="#ff9400" stroke-width="7.5" stroke-linecap="round"/><path d="M239.37834,79.62458c0,0 -9.09253,-6.83826 -14.54503,-8.60664c-5.45251,-1.76838 -18.8954,-2.23891 -18.8954,-2.23891c0,0 13.20461,-8.95678 24.10121,-6.32657c10.8966,2.63022 19.58225,16.87085 19.58225,16.87085z" fill="#ff9400" stroke="#ff9400" stroke-width="0" stroke-linecap="butt"/><path d="M205.9379,224.46332c0,0 -20.08897,-6.60015 -17.86422,-19.94864c1.48226,-8.89356 10.33258,-30.96518 10.33258,-30.96518c0,0 24.02003,13.79623 41.59677,14.32249c15.76711,0.47207 38.53976,-10.10477 38.53976,-10.10477c0,0 4.91177,9.42841 7.48113,19.36152c1.3251,5.12283 2.02716,10.37991 1.11109,14.54711c-2.39412,10.89091 -13.41246,7.96723 -13.41246,7.96723c0,0 -12.4569,2.92291 -17.63356,4.13757c-4.07322,0.95575 -10.91728,2.56166 -10.91728,2.56166c0,0 -8.3638,-0.40056 -13.6129,-0.65195c-7.20124,-0.34488 -25.62091,-1.22704 -25.62091,-1.22704z" fill="#1f1f1f" stroke="#000000" stroke-width="4" stroke-linecap="butt"/><path d="M182.74048,247.35948l10.24302,-34.34423l90.68082,3.01265l15.66579,31.33158z" fill="#1f1f1f" stroke="#000000" stroke-width="4" stroke-linecap="butt"/><path d="M190.87464,217.53423v-9.64049h97.00739v9.64049z" fill="#ffc13e" stroke="#ff8800" stroke-width="4" stroke-linecap="butt"/><path d="M249.62135,212.86462c0,5.2411 -4.24875,9.48985 -9.48985,9.48985c-5.2411,0 -9.48985,-4.24875 -9.48985,-9.48985c0,-5.2411 4.24875,-9.48985 9.48985,-9.48985c5.2411,0 9.48985,4.24875 9.48985,9.48985z" fill="#3dc6ff" stroke="#ff8800" stroke-width="4" stroke-linecap="butt"/><path d="M225.21888,204.57982l-15.36453,-24.40248" fill="none" stroke="#353535" stroke-width="4" stroke-linecap="round"/><path d="M267.396,183.18999l-7.23036,21.38983" fill="none" stroke="#353535" stroke-width="4" stroke-linecap="round"/><path d="M217.98851,189.81783c0,2.32938 -2.29298,4.21771 -5.12151,4.21771c-2.82853,0 -5.12151,-1.88833 -5.12151,-4.21771c0,-2.32938 2.29298,-4.21771 5.12151,-4.21771c2.82853,0 5.12151,1.88833 5.12151,4.21771z" fill="none" stroke="#ff8800" stroke-width="4" stroke-linecap="butt"/><path d="M227.80875,201.74693c0,2.32938 -2.29298,4.21771 -5.12151,4.21771c-2.82853,0 -5.12151,-1.88833 -5.12151,-4.21771c0,-2.32938 2.29298,-4.21771 5.12151,-4.21771c2.82853,0 5.12151,1.88834 5.12151,4.21771z" fill="none" stroke="#ff8800" stroke-width="4" stroke-linecap="butt"/><path d="M270.16563,189.27355c0,2.32938 -2.29297,4.21771 -5.1215,4.21771c-2.82853,0 -5.12151,-1.88833 -5.12151,-4.21771c0,-2.32938 2.29298,-4.21771 5.12151,-4.21771c2.82853,0 5.1215,1.88834 5.1215,4.21771z" fill="none" stroke="#ff8800" stroke-width="4" stroke-linecap="butt"/><path d="M266.42894,202.10644c0,2.32938 -2.29298,4.21771 -5.12151,4.21771c-2.82853,0 -5.12151,-1.88833 -5.12151,-4.21771c0,-2.32938 2.29298,-4.21771 5.12151,-4.21771c2.82853,0 5.12151,1.88834 5.12151,4.21771z" fill="none" stroke="#ff8800" stroke-width="4" stroke-linecap="butt"/><path d="M197.50247,181.68367v-11.14681c0,0 30.22659,4.51898 44.28598,4.51898c14.91224,0 42.77966,-6.0253 42.77966,-6.0253v12.65314c0,0 -29.49897,4.21771 -43.98472,4.21771c-14.53596,0 -43.08092,-4.21771 -43.08092,-4.21771z" fill="#ff0000" stroke="#900000" stroke-width="7.5" stroke-linecap="butt"/><path d="M251.00617,179.30267c0,5.2411 -4.24875,9.48986 -9.48985,9.48986c-5.2411,0 -9.48985,-4.24876 -9.48985,-9.48986c0,-5.2411 4.24875,-9.48985 9.48985,-9.48985c5.2411,0 9.48985,4.24875 9.48985,9.48985z" fill="#3d54ff" stroke="#ff8800" stroke-width="4" stroke-linecap="butt"/><path d="M29.42501,274.75532l162.32063,-129.85651l5.33657,42.69255l-75.60139,86.27453z" fill="#ffc13e" stroke="#ff8800" stroke-width="4" stroke-linecap="butt"/></g></g></svg>