<svg version="1.1" xmlns="http://www.w3.org/2000/svg" xmlns:xlink="http://www.w3.org/1999/xlink" width="213.29271" height="234.00788" viewBox="0,0,213.29271,234.00788"><defs><radialGradient cx="210.106" cy="235.50071" r="24.45116" gradientUnits="userSpaceOnUse" id="color-1"><stop offset="0" stop-color="#7ef2ff"/><stop offset="1" stop-color="#ffffff"/></radialGradient><radialGradient cx="284.96645" cy="230.94086" r="24.45116" gradientUnits="userSpaceOnUse" id="color-2"><stop offset="0" stop-color="#7ef2ff"/><stop offset="1" stop-color="#ffffff"/></radialGradient><radialGradient cx="212.98095" cy="246.62884" r="26.22318" gradientUnits="userSpaceOnUse" id="color-3"><stop offset="0" stop-color="#7ef2ff"/><stop offset="1" stop-color="#ffffff"/></radialGradient></defs><g transform="translate(-134.86885,-67.34777)"><g data-paper-data="{&quot;isPaintingLayer&quot;:true}" fill-rule="nonzero" stroke-linejoin="miter" stroke-miterlimit="10" stroke-dasharray="" stroke-dashoffset="0" style="mix-blend-mode: normal"><path d="M229.5231,241.34864c-3.14184,4.202 -13.93585,1.44206 -24.1091,-6.16449c-10.17325,-7.60656 -15.87335,-17.17926 -12.7315,-21.38127c3.14184,-4.202 13.93585,-1.44206 24.1091,6.16449c10.17325,7.60656 15.87335,17.17926 12.7315,21.38127z" fill="#ffd266" stroke="#000000" stroke-width="3" stroke-linecap="butt"/><path d="M294.81575,215.00373c2.31081,4.71041 -5.0608,13.06429 -16.46498,18.65889c-11.40418,5.5946 -22.52237,6.31137 -24.83318,1.60096c-2.31081,-4.71041 5.0608,-13.06429 16.46498,-18.65889c11.40418,-5.5946 22.52237,-6.31137 24.83318,-1.60096z" fill="#ffd266" stroke="#000000" stroke-width="3" stroke-linecap="butt"/><path d="M232.11987,246.14256c-2.1873,4.52468 -13.8164,3.42814 -25.97433,-2.44919c-12.15792,-5.87733 -20.24071,-14.30983 -18.05341,-18.83451c2.1873,-4.52468 13.8164,-3.42814 25.97433,2.44919c12.15792,5.87733 20.24071,14.30983 18.05341,18.83451z" fill="url(#color-1)" stroke="#00a4ff" stroke-width="7.5" stroke-linecap="butt"/><path d="M306.14784,218.72578c2.51066,4.35357 -4.93727,13.35172 -16.63543,20.09793c-11.69816,6.74621 -23.21667,8.68582 -25.72734,4.33224c-2.51066,-4.35357 4.93727,-13.35172 16.63543,-20.09793c11.69816,-6.74621 23.21667,-8.68582 25.72734,-4.33224z" fill="url(#color-2)" stroke="#00a4ff" stroke-width="7.5" stroke-linecap="butt"/><path d="M240.34078,246.99223c0,5.62695 -11.04372,10.18848 -24.66685,10.18848c-13.62313,0 -24.66685,-4.56153 -24.66685,-10.18848c0,-5.62695 11.04372,-10.18848 24.66685,-10.18848c13.62313,0 24.66685,4.56153 24.66685,10.18848z" fill="#ffd266" stroke="#000000" stroke-width="3" stroke-linecap="butt"/><path d="M297.18179,246.27726c0,5.62694 -11.04372,10.18848 -24.66685,10.18848c-13.62313,0 -24.66685,-4.56154 -24.66685,-10.18848c0,-5.62694 11.04372,-10.18848 24.66685,-10.18848c13.62313,0 24.66685,4.56154 24.66685,10.18848z" fill="#ffd266" stroke="#000000" stroke-width="3" stroke-linecap="butt"/><path d="M239.20413,246.62884c0,5.38986 -11.74052,9.75919 -26.22318,9.75919c-14.48266,0 -26.22318,-4.36935 -26.22318,-9.75919c0,-5.38986 11.74052,-9.75919 26.22318,-9.75919c14.48266,0 26.22318,4.36935 26.22318,9.75919z" fill="url(#color-3)" stroke="#00a4ff" stroke-width="7.5" stroke-linecap="butt"/><path d="M217.06395,137.65564v-49.11096h47.81857v49.11096z" fill="#ff0000" stroke="#000000" stroke-width="7.5" stroke-linecap="butt"/><path d="M259.38984,131.83987l-38.44871,-0.6462" fill="none" stroke="#ff9400" stroke-width="7.5" stroke-linecap="round"/><path d="M238.06535,86.28299c0,0 -9.75148,-7.33385 -15.59914,-9.23038c-5.84766,-1.89654 -20.26478,-2.40116 -20.26478,-2.40116c0,0 14.16157,-9.6059 25.84787,-6.78507c11.6863,2.82083 21.00141,18.09352 21.00141,18.09352z" fill="#ff9400" stroke="#ff9400" stroke-width="0" stroke-linecap="butt"/><path d="M137.59993,298.91881l42.68466,-134.52134l121.5866,-0.86232l43.54697,135.81481z" fill="#ffc13e" stroke="#ff8800" stroke-width="4" stroke-linecap="butt"/><path d="M177.66919,170.04242v-11.14681c0,0 43.84795,4.51898 64.24308,4.51898c21.63231,0 62.05795,-6.0253 62.05795,-6.0253v12.65314c0,0 -42.79243,4.21771 -63.80606,4.21771c-21.08647,0 -62.49497,-4.21771 -62.49497,-4.21771z" fill="#ff0000" stroke="#900000" stroke-width="7.5" stroke-linecap="butt"/></g></g></svg>