<svg version="1.1" xmlns="http://www.w3.org/2000/svg" xmlns:xlink="http://www.w3.org/1999/xlink" width="71" height="56.04889" viewBox="0,0,71,56.04889"><g transform="translate(-200.5,-144.76563)"><g data-paper-data="{&quot;isPaintingLayer&quot;:true}" fill-rule="nonzero" stroke-linejoin="miter" stroke-miterlimit="10" stroke-dasharray="" stroke-dashoffset="0" style="mix-blend-mode: normal"><path d="M210.625,199.31452v-45.75403h59.375v45.75403z" fill="#00ff21" stroke="#000000" stroke-width="3" stroke-linecap="butt"/><text transform="translate(215.5375,196.98718) scale(0.15452,0.15452)" font-size="40" xml:space="preserve" fill="#000000" fill-rule="nonzero" stroke="none" stroke-width="1" stroke-linecap="butt" stroke-linejoin="miter" stroke-miterlimit="10" stroke-dasharray="" stroke-dashoffset="0" font-family="Sans Serif" font-weight="normal" text-anchor="start" style="mix-blend-mode: normal"><tspan x="0" dy="0">SUMMER QUEEIN</tspan></text><path d="M229.68031,181.3039l-1.27928,-3.31492c0,0 6.70263,0.37408 9.99033,0.32801c3.20501,-0.04491 9.4941,-0.60101 9.4941,-0.60101l-2.60776,2.80793l5.55188,4.34443l-23.57656,-0.02099z" fill="#ff7b7b" stroke="#9b4a4a" stroke-width="2.5" stroke-linecap="butt"/><path d="M238.81778,186.62767c0,0.99252 -1.94797,1.79711 -4.3509,1.79711c-2.40294,0 -4.3509,-0.80459 -4.3509,-1.79711c0,-0.99252 1.94797,-1.79711 4.3509,-1.79711c2.40294,0 4.3509,0.80459 4.3509,1.79711z" fill="#ffd266" stroke="#000000" stroke-width="3" stroke-linecap="butt"/><path d="M248.84377,186.50156c0,0.99252 -1.94797,1.79711 -4.3509,1.79711c-2.40294,0 -4.3509,-0.8046 -4.3509,-1.79711c0,-0.99252 1.94797,-1.79711 4.3509,-1.79711c2.40294,0 4.3509,0.8046 4.3509,1.79711z" fill="#ffd266" stroke="#000000" stroke-width="3" stroke-linecap="butt"/><path d="M247.38707,165.79933c0,0.56539 -3.89399,1.02372 -8.69746,1.02372c-4.80348,0 -8.69746,-0.45834 -8.69746,-1.02372c0,-0.56539 3.89399,-1.02372 8.69746,-1.02372c4.80348,0 8.69746,0.45834 8.69746,1.02372z" fill="#ffda80" stroke="#b79d5c" stroke-width="3" stroke-linecap="butt"/><path d="M234.06269,164.99034c0,0 0.08208,-1.71095 0.08208,-2.76769c0,-1.10917 -1.09587,-3.84257 -1.09587,-3.84257l9.94775,0.10492c0,0 -0.69518,2.12487 -0.69518,3.2002c0,1.09283 0.18828,3.30513 0.18828,3.30513z" fill="#ffda80" stroke="#b79d5c" stroke-width="3" stroke-linecap="butt"/><path d="M229.79969,180.29514c0,1.01231 -1.27582,1.83295 -2.84962,1.83295c-1.5738,0 -2.84962,-0.82064 -2.84962,-1.83295c0,-1.01231 1.27582,-1.83295 2.84962,-1.83295c1.5738,0 2.84962,0.82064 2.84962,1.83295z" fill="#fffffe" stroke="#9c9c9c" stroke-width="3" stroke-linecap="butt"/><path d="M251.60298,181.65489c0,1.03385 -1.27582,1.87195 -2.84962,1.87195c-1.5738,0 -2.84962,-0.8381 -2.84962,-1.87195c0,-1.03385 1.27582,-1.87195 2.84962,-1.87195c1.5738,0 2.84962,0.8381 2.84962,1.87195z" fill="#fffffe" stroke="#9c9c9c" stroke-width="3" stroke-linecap="butt"/><path d="M242.48387,167.30524l-1.19891,-1.9628l1.21051,-0.5069l1.19891,1.9628l-0.99248,-0.27961z" fill="#4c4c4c" stroke="#000000" stroke-width="2" stroke-linecap="butt"/><path d="M244.54912,180.87492l-2.63766,0.81898l-6.49995,0.078l-4.42751,-0.81898" fill="none" stroke="#9b4a4a" stroke-width="2.5" stroke-linecap="round"/><path d="M224.80699,178.91682l0.3912,-1.2697l4.87429,1.02955l-0.3912,1.2697z" fill="#fffffe" stroke="#9c9c9c" stroke-width="3" stroke-linecap="butt"/><path d="M247.10748,180.3085l0.3912,-1.26971l4.87429,1.02955l-0.3912,1.2697z" fill="#fffffe" stroke="#9c9c9c" stroke-width="3" stroke-linecap="butt"/><path d="M234.40372,165.68277v-1.02958h7.79994v1.02958z" fill="#4c4c4c" stroke="#000000" stroke-width="2" stroke-linecap="butt"/><path d="M239.25269,187.79629c0,0.46523 -2.10035,0.84238 -4.69127,0.84238c-2.59092,0 -4.69127,-0.37714 -4.69127,-0.84238c0,-0.46523 2.10035,-0.84238 4.69127,-0.84238c2.59092,0 4.69127,0.37714 4.69127,0.84238z" fill="#ff7b7b" stroke="#9b4a4a" stroke-width="2" stroke-linecap="butt"/><path d="M249.58534,188.27631c0.00952,0.46942 -2.06666,0.73662 -4.63728,0.59681c-2.57062,-0.13982 -4.66223,-0.6337 -4.67175,-1.10313c-0.00952,-0.46942 2.06666,-0.73662 4.63728,-0.59681c2.57062,0.13982 4.66223,0.6337 4.67175,1.10313z" fill="#ff7b7b" stroke="#9b4a4a" stroke-width="2" stroke-linecap="butt"/><path d="M201.5,155.45795v-9.69231h36v9.69231z" fill="#ffce00" stroke="#c37600" stroke-width="2" stroke-linecap="butt"/><text transform="translate(202.65385,153.08921) scale(0.12789,0.12789)" font-size="40" xml:space="preserve" fill="#c37600" fill-rule="nonzero" stroke="none" stroke-width="1" stroke-linecap="butt" stroke-linejoin="miter" stroke-miterlimit="10" stroke-dasharray="" stroke-dashoffset="0" font-family="Sans Serif" font-weight="normal" text-anchor="start" style="mix-blend-mode: normal"><tspan x="0" dy="0">TOP POPULER</tspan></text></g></g></svg>