<svg version="1.1" xmlns="http://www.w3.org/2000/svg" xmlns:xlink="http://www.w3.org/1999/xlink" width="121.78873" height="190.50446" viewBox="0,0,121.78873,190.50446"><g transform="translate(-179.03993,-79.57479)"><g data-paper-data="{&quot;isPaintingLayer&quot;:true}" fill-rule="nonzero" stroke-width="3" stroke-linejoin="miter" stroke-miterlimit="10" stroke-dasharray="" stroke-dashoffset="0" style="mix-blend-mode: normal"><path d="M271.79999,216.43726l-14.00949,-0.14904" fill="none" stroke="#365488" stroke-linecap="round"/><path d="M205.79636,232.31026l-23.49816,-30.32903c0,0 35.35207,2.73235 54.10043,2.73235c19.47671,0 60.65806,-2.73235 60.65806,-2.73235l-28.68962,29.78257c0,0 -17.15661,9.2656 -26.7867,9.39692c-10.35453,0.1412 -35.78399,-8.85045 -35.78399,-8.85045z" fill="#5482d2" stroke="#365488" stroke-linecap="butt"/><path d="M223.95945,228.15827c2.40884,1.43561 8.07209,7.2723 6.02538,13.48557c-1.16933,3.54975 -8.69894,6.58448 -11.09269,10.60101c-6.58366,11.04685 -14.98916,18.1734 -18.77424,15.91759c-3.78505,-2.25581 -1.51635,-13.03974 5.06731,-24.08659c6.58366,-11.04685 14.98916,-18.1734 18.77424,-15.91758z" fill="#565656" stroke="#000000" stroke-linecap="butt"/><path d="M216.7153,123.69937v-42.62458h48.08927v42.62458z" fill="#5482d2" stroke="#365488" stroke-linecap="butt"/><path d="M201.68739,134.08229v-12.56879h80.0577v12.56879z" fill="#5482d2" stroke="#365488" stroke-linecap="butt"/><path d="M216.7153,117.96144v-8.19703h47.81604v8.19703z" fill="#ffffff" stroke="#969696" stroke-linecap="butt"/><path d="M282.5649,242.48165c6.56484,11.05805 8.81517,21.84583 5.02628,24.09519c-3.78891,2.24937 -12.18226,-4.89149 -18.7471,-15.94954c-2.38692,-4.02061 -9.91134,-7.06817 -11.07462,-10.61989c-2.03612,-6.21675 3.63707,-12.04378 6.04835,-13.47529c3.78891,-2.24937 12.18225,4.89149 18.74709,15.94954z" data-paper-data="{&quot;index&quot;:null}" fill="#565656" stroke="#000000" stroke-linecap="butt"/></g></g></svg>