<svg version="1.1" xmlns="http://www.w3.org/2000/svg" xmlns:xlink="http://www.w3.org/1999/xlink" width="173.05767" height="237.38039" viewBox="0,0,173.05767,237.38039"><defs><radialGradient cx="277.61273" cy="233.88234" r="24.45116" gradientUnits="userSpaceOnUse" id="color-1"><stop offset="0" stop-color="#7ef2ff"/><stop offset="1" stop-color="#ffffff"/></radialGradient><radialGradient cx="210.10601" cy="235.5007" r="24.45116" gradientUnits="userSpaceOnUse" id="color-2"><stop offset="0" stop-color="#7ef2ff"/><stop offset="1" stop-color="#ffffff"/></radialGradient></defs><g transform="translate(-166.26299,-79.48458)"><g data-paper-data="{&quot;isPaintingLayer&quot;:true}" fill-rule="nonzero" stroke-linecap="butt" stroke-linejoin="miter" stroke-miterlimit="10" stroke-dasharray="" stroke-dashoffset="0" style="mix-blend-mode: normal"><path d="M237.83329,234.14487c-0.00928,5.2467 -10.31424,9.48176 -23.01677,9.45929c-12.70253,-0.02248 -22.99244,-4.29397 -22.98315,-9.54068c0.00928,-5.2467 10.31424,-9.48176 23.01677,-9.45929c12.70253,0.02248 22.99244,4.29397 22.98315,9.54068z" fill="#ffd266" stroke="#000000" stroke-width="3"/><path d="M297.16087,234.25465c0.11775,5.24537 -10.08164,9.72872 -22.78099,10.0138c-12.69935,0.28508 -23.08967,-3.73603 -23.20742,-8.9814c-0.11775,-5.24537 10.08164,-9.72872 22.78099,-10.0138c12.69935,-0.28508 23.08967,3.73603 23.20742,8.9814z" fill="#ffd266" stroke="#000000" stroke-width="3"/><path d="M229.5231,241.34862c-3.14184,4.202 -13.93585,1.44206 -24.1091,-6.16449c-10.17325,-7.60656 -15.87335,-17.17926 -12.7315,-21.38127c3.14184,-4.202 13.93585,-1.44206 24.1091,6.16449c10.17325,7.60656 15.87335,17.17926 12.7315,21.38127z" fill="#ffd266" stroke="#000000" stroke-width="3"/><path d="M302.03342,232.66213c0.2508,5.01937 -10.4794,9.63469 -23.96658,10.30859c-13.48718,0.6739 -24.62401,-2.84881 -24.87481,-7.86818c-0.2508,-5.01937 10.4794,-9.63468 23.96659,-10.30858c13.48718,-0.6739 24.624,2.8488 24.8748,7.86817z" fill="url(#color-1)" stroke="#00a4ff" stroke-width="7.5"/><path d="M229.52311,241.34863c-3.14184,4.202 -13.93585,1.44206 -24.1091,-6.16449c-10.17325,-7.60656 -15.87335,-17.17926 -12.7315,-21.38127c3.14184,-4.202 13.93585,-1.44206 24.1091,6.16449c10.17325,7.60656 15.87335,17.17926 12.7315,21.38127z" fill="#ffd266" stroke="#000000" stroke-width="3"/><path d="M294.81576,215.00372c2.31081,4.71041 -5.0608,13.06429 -16.46498,18.65889c-11.40418,5.5946 -22.52237,6.31137 -24.83318,1.60096c-2.31081,-4.71041 5.0608,-13.06429 16.46498,-18.65889c11.40418,-5.5946 22.52237,-6.31137 24.83318,-1.60096z" fill="#ffd266" stroke="#000000" stroke-width="3"/><path d="M232.11988,246.14255c-2.1873,4.52468 -13.8164,3.42814 -25.97433,-2.44919c-12.15792,-5.87733 -20.24071,-14.30983 -18.05341,-18.83451c2.1873,-4.52468 13.8164,-3.42814 25.97433,2.44919c12.15792,5.87733 20.24071,14.30983 18.05341,18.83451z" fill="url(#color-2)" stroke="#00a4ff" stroke-width="7.5"/><path d="M180.58747,232.79576c0,0 -10.34779,-19.47903 -10.34779,-27.16297c0,-8.82817 10.34779,-22.85138 10.34779,-22.85138c0,0 40.16244,6.46737 59.49982,6.46737c20.41448,0 59.93099,-6.46737 59.93099,-6.46737c0,0 5.60505,14.90531 5.60505,22.85138c0,8.66332 -5.60505,27.16297 -5.60505,27.16297c0,0 -37.545,6.89853 -58.20635,6.89853c-19.01144,0 -61.22446,-6.89853 -61.22446,-6.89853z" fill="#ff0000" stroke="#ffffff" stroke-width="7.5"/><path d="M334.94209,313.85349l-164.70241,-0.43116l35.60523,-124.33666l82.10094,2.3189l3.88042,10.77895z" fill="#ffffff" stroke="#505050" stroke-width="6"/><path d="M191.36642,140.09677v-21.98906l12.07243,-30.18107l15.62845,26.24858l21.34808,-26.0304l12.09633,22.13564l26.53958,-21.45952l14.14142,29.28678v21.98906z" fill="#ffc600" stroke="#ffaf00" stroke-width="7.5"/></g></g></svg>