<svg version="1.1" xmlns="http://www.w3.org/2000/svg" xmlns:xlink="http://www.w3.org/1999/xlink" width="202.98607" height="156.4958" viewBox="0,0,202.98607,156.4958"><g transform="translate(-139.3589,-115.04753)"><g data-paper-data="{&quot;isPaintingLayer&quot;:true}" fill-rule="nonzero" stroke-linecap="butt" stroke-linejoin="miter" stroke-miterlimit="10" stroke-dasharray="" stroke-dashoffset="0" style="mix-blend-mode: normal"><path d="M227.83333,146.27083c0,9.57294 -7.3873,17.33333 -16.5,17.33333c-9.1127,0 -16.5,-7.7604 -16.5,-17.33333c0,-9.57294 7.3873,-17.33333 16.5,-17.33333c9.1127,0 16.5,7.7604 16.5,17.33333z" fill="#171717" stroke="#000000" stroke-width="3"/><path d="M212.91667,138.18194c0,-2.32486 1.90279,-4.20952 4.25,-4.20952c2.34721,0 4.25,1.88467 4.25,4.20952c0,2.32486 -1.90279,4.20952 -4.25,4.20952c-2.34721,0 -4.25,-1.88467 -4.25,-4.20952z" fill="#ffffff" stroke="none" stroke-width="0.5"/><path d="M288.5,147.60417c0,9.57294 -7.3873,17.33333 -16.5,17.33333c-9.1127,0 -16.5,-7.76039 -16.5,-17.33333c0,-9.57294 7.3873,-17.33334 16.5,-17.33334c9.1127,0 16.5,7.7604 16.5,17.33334z" fill="#171717" stroke="#000000" stroke-width="3"/><path d="M273.58333,139.51528c0,-2.32486 1.90279,-4.20953 4.25,-4.20953c2.34721,0 4.25,1.88467 4.25,4.20953c0,2.32486 -1.90279,4.20952 -4.25,4.20952c-2.34721,0 -4.25,-1.88467 -4.25,-4.20952z" fill="#ffffff" stroke="none" stroke-width="0.5"/><path d="M296.21429,190.35296c0,27.43336 -25.16799,49.67249 -56.21429,49.67249c-31.04629,0 -56.21429,-22.23913 -56.21429,-49.67249c0,-27.43336 24.2806,-57.65904 55.3269,-57.65904c31.04629,0 57.10168,30.22568 57.10168,57.65904z" fill="#6693ff" stroke="#000000" stroke-width="3"/><path d="M227.83333,146.27083c0,9.57294 -7.3873,17.33333 -16.5,17.33333c-9.1127,0 -16.5,-7.7604 -16.5,-17.33333c0,-9.57294 7.3873,-17.33333 16.5,-17.33333c9.1127,0 16.5,7.7604 16.5,17.33333z" fill="#171717" stroke="#000000" stroke-width="3"/><path d="M212.91667,138.18194c0,-2.32486 1.90279,-4.20952 4.25,-4.20952c2.34721,0 4.25,1.88467 4.25,4.20952c0,2.32486 -1.90279,4.20952 -4.25,4.20952c-2.34721,0 -4.25,-1.88467 -4.25,-4.20952z" fill="#ffffff" stroke="none" stroke-width="0.5"/><path d="M288.5,147.60417c0,9.57294 -7.3873,17.33333 -16.5,17.33333c-9.1127,0 -16.5,-7.76039 -16.5,-17.33333c0,-9.57294 7.3873,-17.33334 16.5,-17.33334c9.1127,0 16.5,7.7604 16.5,17.33334z" fill="#171717" stroke="#000000" stroke-width="3"/><path d="M273.58333,139.51528c0,-2.32486 1.90279,-4.20953 4.25,-4.20953c2.34721,0 4.25,1.88467 4.25,4.20953c0,2.32486 -1.90279,4.20952 -4.25,4.20952c-2.34721,0 -4.25,-1.88467 -4.25,-4.20952z" fill="#ffffff" stroke="none" stroke-width="0.5"/><path d="M296.21429,190.35296c0,27.43336 -25.16799,49.67249 -56.21429,49.67249c-31.04629,0 -56.21429,-22.23913 -56.21429,-49.67249c0,-27.43336 24.2806,-57.65904 55.3269,-57.65904c31.04629,0 57.10168,30.22568 57.10168,57.65904z" fill="#6693ff" stroke="#000000" stroke-width="3"/><path d="M142.92951,227.7323l34.40224,-89.14944l21.84021,6.46313l-14.01743,47.36772l-4.84805,14.29772c0,0 -10.64248,19.38843 -11.46544,16.21516c-0.79189,-3.05339 8.28278,-28.68752 5.91729,-27.98092c-1.91133,0.57095 -12.90633,35.52296 -15.76235,40.51656c-3.82963,6.69593 0.55363,-16.27998 -0.21887,-17.22379c-2.86035,-3.49474 -15.8476,9.49384 -15.8476,9.49384z" fill="#009cff" stroke="#0045ff" stroke-width="7"/><path d="M325.50098,229.94326c-0.87431,1.40207 0.75428,14.77058 -2.39408,12.50492c-5.2825,-3.80146 -15.99916,-24.86518 -15.99916,-24.86518l-6.6379,-13.55974l-19.96393,-45.18443c0,0 2.03012,-3.4067 5.58081,-4.97551c3.38599,-1.49604 15.25271,-4.2294 15.25271,-4.2294c0,0 33.85602,57.10498 37.50555,65.36498c2.74224,6.20653 -17.54163,-20.18057 -17.54163,-20.18057c0,0 21.03219,46.30388 20.13387,48.44421c-1.15057,2.74135 -24.22965,-38.04699 -23.46941,-32.3966c0.82736,6.14925 8.43957,17.62373 7.53316,19.07731z" data-paper-data="{&quot;index&quot;:null}" fill="#009cff" stroke="#0045ff" stroke-width="7"/><path d="M227.83333,146.27083c0,9.57294 -7.3873,17.33333 -16.5,17.33333c-9.1127,0 -16.5,-7.7604 -16.5,-17.33333c0,-9.57294 7.3873,-17.33333 16.5,-17.33333c9.1127,0 16.5,7.7604 16.5,17.33333z" fill="#171717" stroke="#000000" stroke-width="3"/><path d="M212.91667,138.18194c0,-2.32486 1.90279,-4.20952 4.25,-4.20952c2.34721,0 4.25,1.88467 4.25,4.20952c0,2.32486 -1.90279,4.20952 -4.25,4.20952c-2.34721,0 -4.25,-1.88467 -4.25,-4.20952z" fill="#ffffff" stroke="none" stroke-width="0.5"/><path d="M288.5,147.60417c0,9.57294 -7.3873,17.33333 -16.5,17.33333c-9.1127,0 -16.5,-7.76039 -16.5,-17.33333c0,-9.57294 7.3873,-17.33334 16.5,-17.33334c9.1127,0 16.5,7.7604 16.5,17.33334z" fill="#171717" stroke="#000000" stroke-width="3"/><path d="M273.58333,139.51528c0,-2.32486 1.90279,-4.20953 4.25,-4.20953c2.34721,0 4.25,1.88467 4.25,4.20953c0,2.32486 -1.90279,4.20952 -4.25,4.20952c-2.34721,0 -4.25,-1.88467 -4.25,-4.20952z" fill="#ffffff" stroke="none" stroke-width="0.5"/><path d="M296.21429,190.35296c0,27.43336 -25.16799,49.67249 -56.21429,49.67249c-31.04629,0 -56.21429,-22.23913 -56.21429,-49.67249c0,-27.43336 24.2806,-57.65904 55.3269,-57.65904c31.04629,0 57.10168,30.22568 57.10168,57.65904z" fill="#6693ff" stroke="#000000" stroke-width="3"/><path d="M294.81575,215.00371c2.31081,4.71041 -5.0608,13.06429 -16.46498,18.65889c-11.40418,5.5946 -22.52237,6.31137 -24.83318,1.60096c-2.31081,-4.71041 5.0608,-13.06429 16.46498,-18.65889c11.40418,-5.5946 22.52237,-6.31137 24.83318,-1.60096z" fill="#ffd266" stroke="#000000" stroke-width="3"/><path d="M287.16667,195.5248c0,23.52032 -21.11724,42.5873 -47.16667,42.5873c-26.04943,0 -47.16667,-19.06698 -47.16667,-42.5873c0,-23.52032 21.11724,-42.5873 47.16667,-42.5873c26.04943,0 47.16667,19.06698 47.16667,42.5873z" fill="#ffffff" stroke="#000000" stroke-width="3"/><path d="M263.16667,171.4375c0,5.2467 -10.29745,9.5 -23,9.5c-12.70255,0 -23,-4.2533 -23,-9.5c0,-5.2467 10.29745,-9.5 23,-9.5c12.70255,0 23,4.2533 23,9.5z" fill="#d6af56" stroke="#000000" stroke-width="3"/><path d="M186.31266,239.30751c0,0 -0.88739,-35.37381 -0.88739,-57.49637c0,-22.27674 1.47899,-60.81408 1.47899,-60.81408l97.31756,-2.37515l17.45209,116.81175z" fill="#009cff" stroke="#0045ff" stroke-width="7"/><path d="M213.80214,230.75789l12.74932,3.82561l-9.9466,33.14822c0,0 -33.36572,-3.83531 -35.41512,-4.45026c-2.19091,-0.65741 22.66581,0.62465 22.66581,0.62465c0,0 -6.88449,-0.57798 -4.65736,-4.04635c1.09769,-1.70945 -13.6668,-3.92919 -10.69798,-6.41213c3.21269,-2.68689 24.11944,-5.6531 23.84231,-7.81948c-0.73494,-5.74519 -12.41308,-9.80603 -11.6584,-12.32111c1.17496,-3.91571 13.11801,-2.54913 13.11801,-2.54913z" fill="#ffd266" stroke="#c19f4d" stroke-width="7"/><path d="M294.23674,255.48727c0,0 13.79791,-8.65459 12.11556,-7.05133c-1.51129,1.44024 -21.75157,16.23434 -21.75157,16.23434l-23.87583,-25.05361l9.636,-9.18302c0,0 0.78774,5.43282 4.83241,4.68671c2.48065,-0.45758 8.38658,-7.88524 9.60657,-6.63155c3.19106,3.27921 -1.64936,15.09455 2.18406,16.66115c3.36438,1.37491 7.51049,-6.11405 8.85006,-4.70839c3.05797,3.20883 -1.59727,15.0457 -1.59727,15.0457z" fill="#ffd266" stroke="#c19f4d" stroke-width="7"/></g></g></svg>