<svg version="1.1" xmlns="http://www.w3.org/2000/svg" xmlns:xlink="http://www.w3.org/1999/xlink" width="151.5859" height="133.69395" viewBox="0,0,151.5859,133.69395"><defs><radialGradient cx="240" cy="180" r="64.71284" gradientUnits="userSpaceOnUse" id="color-1"><stop offset="0" stop-color="#7ef2ff"/><stop offset="1" stop-color="#ffffff"/></radialGradient><radialGradient cx="239.66854" cy="171.93616" r="28.12802" gradientUnits="userSpaceOnUse" id="color-2"><stop offset="0" stop-color="#7ef2ff"/><stop offset="1" stop-color="#ffffff"/></radialGradient><radialGradient cx="184.00026" cy="184.39966" r="36.72533" gradientUnits="userSpaceOnUse" id="color-3"><stop offset="0" stop-color="#7ef2ff"/><stop offset="1" stop-color="#ffffff"/></radialGradient><radialGradient cx="297.4678" cy="186.45817" r="36.72533" gradientUnits="userSpaceOnUse" id="color-4"><stop offset="0" stop-color="#7ef2ff"/><stop offset="1" stop-color="#ffffff"/></radialGradient><radialGradient cx="215.98899" cy="234.76532" r="24.45116" gradientUnits="userSpaceOnUse" id="color-5"><stop offset="0" stop-color="#7ef2ff"/><stop offset="1" stop-color="#ffffff"/></radialGradient><radialGradient cx="274.67123" cy="233.88233" r="24.45116" gradientUnits="userSpaceOnUse" id="color-6"><stop offset="0" stop-color="#7ef2ff"/><stop offset="1" stop-color="#ffffff"/></radialGradient><radialGradient cx="217.32173" cy="135.69741" r="18.02632" gradientUnits="userSpaceOnUse" id="color-7"><stop offset="0" stop-color="#7ef2ff"/><stop offset="1" stop-color="#ffffff"/></radialGradient><radialGradient cx="268.25977" cy="137.20845" r="18.02632" gradientUnits="userSpaceOnUse" id="color-8"><stop offset="0" stop-color="#7ef2ff"/><stop offset="1" stop-color="#ffffff"/></radialGradient></defs><g transform="translate(-164.94107,-113.92109)"><g data-paper-data="{&quot;isPaintingLayer&quot;:true}" fill-rule="nonzero" stroke-linecap="butt" stroke-linejoin="miter" stroke-miterlimit="10" stroke-dasharray="" stroke-dashoffset="0" style="mix-blend-mode: normal"><path d="M296.21429,180c0,33.15113 -25.16799,60.02542 -56.21429,60.02542c-31.04629,0 -56.21429,-26.8743 -56.21429,-60.02542c0,-33.15113 25.16799,-60.02542 56.21429,-60.02542c31.04629,0 56.21429,26.8743 56.21429,60.02542z" fill="#6693ff" stroke="#000000" stroke-width="3"/><path d="M287.16667,195.5248c0,23.52032 -21.11724,42.5873 -47.16667,42.5873c-26.04943,0 -47.16667,-19.06698 -47.16667,-42.5873c0,-23.52032 21.11724,-42.5873 47.16667,-42.5873c26.04943,0 47.16667,19.06698 47.16667,42.5873z" fill="#ffffff" stroke="#000000" stroke-width="3"/><path d="M304.71284,180c0,33.3031 -28.97293,60.3006 -64.71284,60.3006c-35.73991,0 -64.71284,-26.9975 -64.71284,-60.3006c0,-33.3031 28.97293,-60.3006 64.71284,-60.3006c35.73991,0 64.71284,26.9975 64.71284,60.3006z" fill="url(#color-1)" stroke="#00a4ff" stroke-width="7.5"/><path d="M198.15696,187.62815c-3.17525,13.81511 -11.63986,23.66058 -18.90625,21.99049c-7.26639,-1.6701 -10.58291,-14.22334 -7.40767,-28.03844c3.17525,-13.81511 11.63986,-23.66058 18.90625,-21.99049c7.26639,1.6701 10.58291,14.22334 7.40767,28.03844z" fill="#6693ff" stroke="#000000" stroke-width="3"/><path d="M292.25071,158.58971c7.26638,-1.6701 15.73101,8.17538 18.90625,21.99048c3.17525,13.8151 -0.14129,26.36835 -7.40767,28.03844c-7.26639,1.6701 -15.731,-8.17538 -18.90625,-21.99049c-3.17525,-13.8151 0.14129,-26.36834 7.40767,-28.03844z" data-paper-data="{&quot;index&quot;:null}" fill="#6693ff" stroke="#000000" stroke-width="3"/><path d="M241.5,235.10416c0,5.24671 -10.29745,9.5 -23,9.5c-12.70255,0 -23,-4.25329 -23,-9.5c0,-5.24671 10.29745,-9.5 23,-9.5c12.70255,0 23,4.25329 23,9.5z" fill="#ffd266" stroke="#000000" stroke-width="3"/><path d="M294.5,234.4375c0,5.2467 -10.29745,9.5 -23,9.5c-12.70255,0 -23,-4.2533 -23,-9.5c0,-5.2467 10.29745,-9.5 23,-9.5c12.70255,0 23,4.2533 23,9.5z" fill="#ffd266" stroke="#000000" stroke-width="3"/><path d="M263.16667,171.4375c0,5.2467 -10.29745,9.5 -23,9.5c-12.70255,0 -23,-4.2533 -23,-9.5c0,-5.2467 10.29745,-9.5 23,-9.5c12.70255,0 23,4.2533 23,9.5z" fill="#d6af56" stroke="#000000" stroke-width="3"/><path d="M267.79657,171.93616c0,5.78137 -12.59335,10.4681 -28.12802,10.4681c-15.53468,0 -28.12802,-4.68673 -28.12802,-10.4681c0,-5.78137 12.59335,-10.4681 28.12802,-10.4681c15.53468,0 28.12802,4.68673 28.12802,10.4681z" fill="url(#color-2)" stroke="#00a4ff" stroke-width="7.5"/><path d="M191.42411,148.43251c7.39261,1.52588 10.06173,18.8659 5.96165,38.73001c-4.10008,19.86411 -13.41675,34.73018 -20.80936,33.2043c-7.39261,-1.52588 -10.06173,-18.8659 -5.96165,-38.73001c4.10008,-19.86411 13.41675,-34.73018 20.80936,-33.2043z" fill="url(#color-3)" stroke="#00a4ff" stroke-width="7.5"/><path d="M310.8533,183.69532c4.10008,19.86411 1.43096,37.20413 -5.96165,38.73001c-7.39261,1.52588 -16.70928,-13.34018 -20.80935,-33.20429c-4.10008,-19.86411 -1.43096,-37.20413 5.96164,-38.73001c7.39261,-1.52588 16.70928,13.34019 20.80936,33.2043z" data-paper-data="{&quot;index&quot;:null}" fill="url(#color-4)" stroke="#00a4ff" stroke-width="7.5"/><path d="M240.44015,234.76532c0,5.02564 -10.94716,9.09972 -24.45116,9.09972c-13.504,0 -24.45116,-4.07409 -24.45116,-9.09972c0,-5.02564 10.94716,-9.09972 24.45116,-9.09972c13.504,0 24.45116,4.07409 24.45116,9.09972z" fill="url(#color-5)" stroke="#00a4ff" stroke-width="7.5"/><path d="M299.12239,233.88233c0,5.02563 -10.94715,9.09972 -24.45116,9.09972c-13.50401,0 -24.45116,-4.07408 -24.45116,-9.09972c0,-5.02563 10.94715,-9.09972 24.45116,-9.09972c13.50401,0 24.45116,4.07408 24.45116,9.09972z" fill="url(#color-6)" stroke="#00a4ff" stroke-width="7.5"/><path d="M234.47581,135.69741c0,9.95566 -7.68014,18.02632 -17.15408,18.02632c-9.47394,0 -17.15408,-8.07066 -17.15408,-18.02632c0,-9.95566 7.68014,-18.02632 17.15408,-18.02632c9.47394,0 17.15408,8.07066 17.15408,18.02632z" fill="url(#color-7)" stroke="#00a4ff" stroke-width="7.5"/><path d="M285.41385,137.20845c0,9.95566 -7.68014,18.02632 -17.15408,18.02632c-9.47394,0 -17.15408,-8.07066 -17.15408,-18.02632c0,-9.95566 7.68015,-18.02632 17.15408,-18.02632c9.47393,0 17.15408,8.07066 17.15408,18.02632z" fill="url(#color-8)" stroke="#00a4ff" stroke-width="7.5"/></g></g></svg>