<svg version="1.1" xmlns="http://www.w3.org/2000/svg" xmlns:xlink="http://www.w3.org/1999/xlink" width="121.78873" height="168.24842" viewBox="0,0,121.78873,168.24842"><g transform="translate(-179.03992,-79.57479)"><g data-paper-data="{&quot;isPaintingLayer&quot;:true}" fill-rule="nonzero" stroke-width="3" stroke-linejoin="miter" stroke-miterlimit="10" stroke-dasharray="" stroke-dashoffset="0" style="mix-blend-mode: normal"><path d="M271.79999,216.43726l-14.00949,-0.14904" fill="none" stroke="#365488" stroke-linecap="round"/><path d="M205.79635,232.31026l-23.49816,-30.32903c0,0 35.35207,2.73235 54.10043,2.73235c19.47671,0 60.65806,-2.73235 60.65806,-2.73235l-28.68962,29.78257c0,0 -17.15661,9.2656 -26.7867,9.39692c-10.35453,0.1412 -35.78399,-8.85045 -35.78399,-8.85045z" fill="#5482d2" stroke="#365488" stroke-linecap="butt"/><path d="M234.37227,234.0807c0.05441,2.80366 -1.9073,10.69613 -8.26359,12.2425c-3.63147,0.88346 -10.18728,-3.90463 -14.86215,-3.8139c-12.8575,0.24953 -23.34987,-3.11951 -23.43537,-7.52498c-0.0855,-4.40545 10.26825,-8.17907 23.12575,-8.4286c12.8575,-0.24953 23.34986,3.11951 23.43536,7.52498z" fill="#565656" stroke="#000000" stroke-linecap="butt"/><path d="M216.7153,123.69937v-42.62458h48.08927v42.62458z" fill="#5482d2" stroke="#365488" stroke-linecap="butt"/><path d="M201.68739,134.08229v-12.56879h80.0577v12.56879z" fill="#5482d2" stroke="#365488" stroke-linecap="butt"/><path d="M216.7153,117.96144v-8.19703h47.81604v8.19703z" fill="#ffffff" stroke="#969696" stroke-linecap="butt"/><path d="M276.77507,226.68607c12.70619,1.98253 22.4559,7.119 21.77662,11.4726c-0.67929,4.35362 -11.53036,6.27575 -24.23654,4.29322c-4.61985,-0.72083 -11.7619,3.13866 -15.2409,1.77317c-6.08943,-2.39008 -6.96801,-10.47511 -6.5357,-13.24577c0.67929,-4.35362 11.53035,-6.27576 24.23654,-4.29322z" data-paper-data="{&quot;index&quot;:null}" fill="#565656" stroke="#000000" stroke-linecap="butt"/></g></g></svg>