<svg version="1.1" xmlns="http://www.w3.org/2000/svg" xmlns:xlink="http://www.w3.org/1999/xlink" width="190.50495" height="144.94726" viewBox="0,0,190.50495,144.94726"><g transform="translate(-143.67596,-100.82119)"><g data-paper-data="{&quot;isPaintingLayer&quot;:true}" fill-rule="nonzero" stroke-linejoin="miter" stroke-miterlimit="10" stroke-dasharray="" stroke-dashoffset="0" style="mix-blend-mode: normal"><path d="M212.91668,138.18194c0,-2.32486 1.90279,-4.20952 4.25,-4.20952c2.34721,0 4.25,1.88467 4.25,4.20952c0,2.32486 -1.90279,4.20952 -4.25,4.20952c-2.34721,0 -4.25,-1.88467 -4.25,-4.20952z" fill="#ffffff" stroke="none" stroke-width="0.5" stroke-linecap="butt"/><path d="M237.8333,234.14487c-0.00928,5.2467 -10.31424,9.48176 -23.01677,9.45929c-12.70253,-0.02248 -22.99244,-4.29397 -22.98315,-9.54068c0.00928,-5.2467 10.31424,-9.48176 23.01677,-9.45929c12.70253,0.02248 22.99244,4.29397 22.98315,9.54068z" fill="#ff7b7b" stroke="#9b4a4a" stroke-width="3" stroke-linecap="butt"/><path d="M297.16088,234.25465c0.11775,5.24537 -10.08164,9.72872 -22.78099,10.0138c-12.69935,0.28508 -23.08967,-3.73603 -23.20742,-8.9814c-0.11775,-5.24537 10.08164,-9.72872 22.78099,-10.0138c12.69935,-0.28508 23.08967,3.73603 23.20742,8.9814z" fill="#ff7b7b" stroke="#9b4a4a" stroke-width="3" stroke-linecap="butt"/><path d="M290.05328,141.56483c0,2.98879 -20.58462,5.41167 -45.97704,5.41167c-25.39242,0 -45.97704,-2.42288 -45.97704,-5.41167c0,-2.98879 20.58462,-5.41167 45.97704,-5.41167c25.39242,0 45.97704,2.42288 45.97704,5.41167z" fill="#ffda80" stroke="#b79d5c" stroke-width="3" stroke-linecap="butt"/><path d="M219.61719,137.28832c0,0 0.43391,-9.04453 0.43391,-14.63073c0,-5.86335 -5.79303,-20.31283 -5.79303,-20.31283l52.5864,0.55466c0,0 -3.67488,11.2326 -3.67488,16.91711c0,5.77696 0.99532,17.47177 0.99532,17.47177z" fill="#ffda80" stroke="#b79d5c" stroke-width="3" stroke-linecap="butt"/><path d="M221.41997,140.94868v-5.4426h41.23252v5.4426z" fill="#4c4c4c" stroke="#000000" stroke-width="2" stroke-linecap="butt"/><path d="M186.55068,206.96131l-8.56022,-17.5235c0,0 44.85025,1.97748 66.84968,1.73397c21.44611,-0.23738 52.28889,-2.88129 52.28889,-2.88129l-1.4766,14.54765l32.41728,22.96577l-157.76117,-0.11098z" fill="#ff7b7b" stroke="#9b4a4a" stroke-width="2.5" stroke-linecap="butt"/><path d="M286.04441,204.69359l-17.64976,4.32934l-43.49405,0.41231l-29.6264,-4.32934" fill="none" stroke="#9b4a4a" stroke-width="2.5" stroke-linecap="round"/><path d="M167.57151,196.94509c-3.99247,3.56331 -11.71982,1.42024 -17.25955,-4.78667c-5.53972,-6.20691 -6.79403,-14.12724 -2.80156,-17.69055c3.99247,-3.56331 11.71982,-1.42024 17.25955,4.78667c5.53972,6.20691 6.79403,14.12724 2.80156,17.69055z" fill="#fffffe" stroke="#9c9c9c" stroke-width="3" stroke-linecap="butt"/><path d="M155.43331,172.4027l6.38458,-2.92647l13.0969,22.84773l-6.38458,2.92648z" fill="#fffffe" stroke="#9c9c9c" stroke-width="3" stroke-linecap="butt"/><path d="M323.58305,172.21991c5.34706,0.21419 9.41176,7.12671 9.07877,15.43956c-0.33299,8.31285 -4.93757,14.8781 -10.28463,14.66392c-5.34706,-0.21419 -9.41176,-7.12671 -9.07877,-15.43956c0.33299,-8.31285 4.93757,-14.8781 10.28463,-14.66392z" fill="#fffffe" stroke="#9c9c9c" stroke-width="3" stroke-linecap="butt"/><path d="M315.24636,198.29987l-6.62383,-2.33495l6.46944,-25.5283l6.62383,2.33496z" fill="#fffffe" stroke="#9c9c9c" stroke-width="3" stroke-linecap="butt"/></g></g></svg>