<svg version="1.1" xmlns="http://www.w3.org/2000/svg" xmlns:xlink="http://www.w3.org/1999/xlink" width="295.32839" height="174.30751" viewBox="0,0,295.32839,174.30751"><g transform="translate(-14.04494,-69.13678)"><g data-paper-data="{&quot;isPaintingLayer&quot;:true}" fill-rule="nonzero" stroke-linecap="butt" stroke-linejoin="miter" stroke-miterlimit="10" stroke-dasharray="" stroke-dashoffset="0" style="mix-blend-mode: normal"><path d="M191.36642,129.74897v-21.98906l12.07243,-30.18107l15.62845,26.24858l21.34808,-26.03041l12.09633,22.13563l26.53957,-21.45952l14.14142,29.28678v21.98906z" fill="#ffc600" stroke="#ffaf00" stroke-width="7.5"/><path d="M180.58747,232.79576c0,0 -10.3478,-19.47903 -10.3478,-27.16296c0,-8.82817 10.3478,-22.85138 10.3478,-22.85138c0,0 40.16245,6.46737 59.49982,6.46737c20.41448,0 59.93098,-6.46737 59.93098,-6.46737c0,0 5.60506,14.90532 5.60506,22.85138c0,8.66332 -5.60506,27.16296 -5.60506,27.16296c0,0 -37.54499,6.89853 -58.20635,6.89853c-19.01144,0 -61.22446,-6.89853 -61.22446,-6.89853z" fill="#ff0000" stroke="#ffffff" stroke-width="7.5"/><path d="M21.49011,136.64749l63.38025,-45.2716l108.22069,51.73898l-15.95285,23.28254z" fill="#ffffff" stroke="#505050" stroke-width="6"/></g></g></svg>