<svg version="1.1" xmlns="http://www.w3.org/2000/svg" xmlns:xlink="http://www.w3.org/1999/xlink" width="197.2243" height="143.99211" viewBox="0,0,197.2243,143.99211"><g transform="translate(-143.29623,-100.8212)"><g data-paper-data="{&quot;isPaintingLayer&quot;:true}" fill-rule="nonzero" stroke-linejoin="miter" stroke-miterlimit="10" stroke-dasharray="" stroke-dashoffset="0" style="mix-blend-mode: normal"><path d="M229.5231,241.34862c-3.14184,4.202 -13.93585,1.44206 -24.1091,-6.16449c-10.17325,-7.60656 -15.87335,-17.17926 -12.7315,-21.38127c3.14184,-4.202 13.93585,-1.44206 24.1091,6.16449c10.17325,7.60656 15.87335,17.17926 12.7315,21.38127z" fill="#ff7b7b" stroke="#9b4a4a" stroke-width="3" stroke-linecap="butt"/><path d="M294.81575,215.00371c2.31081,4.71041 -5.0608,13.06429 -16.46498,18.65889c-11.40418,5.5946 -22.52237,6.31137 -24.83318,1.60096c-2.31081,-4.71041 5.0608,-13.06429 16.46498,-18.65889c11.40418,-5.5946 22.52237,-6.31137 24.83318,-1.60096z" fill="#ff7b7b" stroke="#9b4a4a" stroke-width="3" stroke-linecap="butt"/><path d="M290.05327,141.56484c0,2.98879 -20.58462,5.41167 -45.97704,5.41167c-25.39242,0 -45.97704,-2.42288 -45.97704,-5.41167c0,-2.98879 20.58462,-5.41167 45.97704,-5.41167c25.39242,0 45.97704,2.42288 45.97704,5.41167z" fill="#ffda80" stroke="#b79d5c" stroke-width="3" stroke-linecap="butt"/><path d="M219.61718,137.28833c0,0 0.43391,-9.04453 0.43391,-14.63073c0,-5.86335 -5.79303,-20.31283 -5.79303,-20.31283l52.5864,0.55466c0,0 -3.67488,11.2326 -3.67488,16.91711c0,5.77696 0.99532,17.47177 0.99532,17.47177z" fill="#ffda80" stroke="#b79d5c" stroke-width="3" stroke-linecap="butt"/><path d="M221.41996,140.94868v-5.4426h41.23252v5.4426z" fill="#4c4c4c" stroke="#000000" stroke-width="2" stroke-linecap="butt"/><path d="M186.55067,206.96131l-8.56022,-17.5235c0,0 44.85025,1.97748 66.84968,1.73397c21.44611,-0.23738 52.28889,-2.88129 52.28889,-2.88129l-1.4766,14.54765l32.41728,22.96577l-157.76117,-0.11098z" fill="#ff7b7b" stroke="#9b4a4a" stroke-width="2.5" stroke-linecap="butt"/><path d="M286.0444,204.69359l-17.64976,4.32934l-43.49405,0.41231l-29.6264,-4.32934" fill="none" stroke="#9b4a4a" stroke-width="2.5" stroke-linecap="round"/><path d="M148.49649,168.765c-4.61953,-2.70127 -4.96,-10.71307 -0.76045,-17.89486c4.19954,-7.18179 11.34882,-10.81397 15.96835,-8.11271c4.61953,2.70127 4.96,10.71307 0.76045,17.89486c-4.19954,7.18179 -11.34882,10.81397 -15.96835,8.11271z" fill="#fffffe" stroke="#9c9c9c" stroke-width="3" stroke-linecap="butt"/><path d="M168.10884,149.65949l4.75022,5.17325l-17.70483,19.49581l-4.75022,-5.17325z" fill="#fffffe" stroke="#9c9c9c" stroke-width="3" stroke-linecap="butt"/><path d="M310.28078,142.48574c1.80328,-5.03837 9.61497,-6.85008 17.4479,-4.0466c7.83293,2.80349 12.72092,9.16056 10.91764,14.19892c-1.80328,5.03837 -9.61497,6.85008 -17.4479,4.0466c-7.83293,-2.80349 -12.72092,-9.16056 -10.91764,-14.19892z" fill="#fffffe" stroke="#9c9c9c" stroke-width="3" stroke-linecap="butt"/><path d="M332.67462,158.23951l-4.2088,5.62256l-22.42576,-13.80699l4.20879,-5.62256z" fill="#fffffe" stroke="#9c9c9c" stroke-width="3" stroke-linecap="butt"/></g></g></svg>