<svg version="1.1" xmlns="http://www.w3.org/2000/svg" xmlns:xlink="http://www.w3.org/1999/xlink" width="208.45322" height="144.57535" viewBox="0,0,208.45322,144.57535"><defs><radialGradient cx="205.11036" cy="129.88247" r="18.02632" gradientUnits="userSpaceOnUse" id="color-1"><stop offset="0" stop-color="#7ef2ff"/><stop offset="1" stop-color="#ffffff"/></radialGradient><radialGradient cx="273.49324" cy="130.81201" r="18.02632" gradientUnits="userSpaceOnUse" id="color-2"><stop offset="0" stop-color="#7ef2ff"/><stop offset="1" stop-color="#ffffff"/></radialGradient><radialGradient cx="312.91064" cy="162.19085" r="36.72533" gradientUnits="userSpaceOnUse" id="color-3"><stop offset="0" stop-color="#7ef2ff"/><stop offset="1" stop-color="#ffffff"/></radialGradient><radialGradient cx="172.60198" cy="167.48608" r="36.72533" gradientUnits="userSpaceOnUse" id="color-4"><stop offset="0" stop-color="#7ef2ff"/><stop offset="1" stop-color="#ffffff"/></radialGradient><radialGradient cx="240" cy="180" r="64.71284" gradientUnits="userSpaceOnUse" id="color-5"><stop offset="0" stop-color="#7ef2ff"/><stop offset="1" stop-color="#ffffff"/></radialGradient><radialGradient cx="210.106" cy="235.50069" r="24.45116" gradientUnits="userSpaceOnUse" id="color-6"><stop offset="0" stop-color="#7ef2ff"/><stop offset="1" stop-color="#ffffff"/></radialGradient><radialGradient cx="284.96645" cy="230.94084" r="24.45116" gradientUnits="userSpaceOnUse" id="color-7"><stop offset="0" stop-color="#7ef2ff"/><stop offset="1" stop-color="#ffffff"/></radialGradient></defs><g transform="translate(-140.19118,-108.10614)"><g data-paper-data="{&quot;isPaintingLayer&quot;:true}" fill-rule="nonzero" stroke-linecap="butt" stroke-linejoin="miter" stroke-miterlimit="10" stroke-dasharray="" stroke-dashoffset="0" style="mix-blend-mode: normal"><path d="M222.26444,129.88247c0,9.95566 -7.68014,18.02632 -17.15408,18.02632c-9.47394,0 -17.15408,-8.07066 -17.15408,-18.02632c0,-9.95566 7.68014,-18.02632 17.15408,-18.02632c9.47394,0 17.15408,8.07066 17.15408,18.02632z" fill="url(#color-1)" stroke="#00a4ff" stroke-width="7.5"/><path d="M290.64732,130.81201c0,9.95566 -7.68014,18.02632 -17.15408,18.02632c-9.47394,0 -17.15408,-8.07066 -17.15408,-18.02632c0,-9.95566 7.68014,-18.02632 17.15408,-18.02632c9.47394,0 17.15408,8.07066 17.15408,18.02632z" fill="url(#color-2)" stroke="#00a4ff" stroke-width="7.5"/><path d="M306.19331,150.2878c17.66414,-9.96853 34.99121,-12.72044 38.70109,-6.14657c3.70988,6.57387 -7.60228,19.98414 -25.26643,29.95266c-17.66414,9.96853 -34.99122,12.72044 -38.70109,6.14658c-3.70988,-6.57387 7.60229,-19.98414 25.26643,-29.95267z" data-paper-data="{&quot;index&quot;:null}" fill="url(#color-3)" stroke="#00a4ff" stroke-width="7.5"/><path d="M143.94118,144.52287c4.7198,-5.89087 21.37784,-0.38539 37.20676,12.29683c15.82892,12.68223 24.83463,27.7387 20.11483,33.62957c-4.7198,5.89087 -21.37784,0.3854 -37.20675,-12.29683c-15.82892,-12.68223 -24.83463,-27.73871 -20.11483,-33.62958z" fill="url(#color-4)" stroke="#00a4ff" stroke-width="7.5"/><path d="M227.83333,146.27083c0,9.57294 -7.3873,17.33333 -16.5,17.33333c-9.1127,0 -16.5,-7.7604 -16.5,-17.33333c0,-9.57294 7.3873,-17.33333 16.5,-17.33333c9.1127,0 16.5,7.7604 16.5,17.33333z" fill="#171717" stroke="#000000" stroke-width="3"/><path d="M212.91667,138.18194c0,-2.32486 1.90279,-4.20952 4.25,-4.20952c2.34721,0 4.25,1.88467 4.25,4.20952c0,2.32486 -1.90279,4.20952 -4.25,4.20952c-2.34721,0 -4.25,-1.88467 -4.25,-4.20952z" fill="#ffffff" stroke="none" stroke-width="0.5"/><path d="M288.5,147.60417c0,9.57294 -7.3873,17.33333 -16.5,17.33333c-9.1127,0 -16.5,-7.76039 -16.5,-17.33333c0,-9.57294 7.3873,-17.33334 16.5,-17.33334c9.1127,0 16.5,7.7604 16.5,17.33334z" fill="#171717" stroke="#000000" stroke-width="3"/><path d="M273.58333,139.51528c0,-2.32486 1.90279,-4.20953 4.25,-4.20953c2.34721,0 4.25,1.88467 4.25,4.20953c0,2.32486 -1.90279,4.20952 -4.25,4.20952c-2.34721,0 -4.25,-1.88467 -4.25,-4.20952z" fill="#ffffff" stroke="none" stroke-width="0.5"/><path d="M296.21429,190.35296c0,27.43336 -25.16799,49.67249 -56.21429,49.67249c-31.04629,0 -56.21429,-22.23913 -56.21429,-49.67249c0,-27.43336 24.2806,-57.65904 55.3269,-57.65904c31.04629,0 57.10168,30.22568 57.10168,57.65904z" fill="#6693ff" stroke="#000000" stroke-width="3"/><path d="M229.5231,241.34862c-3.14184,4.202 -13.93585,1.44206 -24.1091,-6.16449c-10.17325,-7.60656 -15.87335,-17.17926 -12.7315,-21.38127c3.14184,-4.202 13.93585,-1.44206 24.1091,6.16449c10.17325,7.60656 15.87335,17.17926 12.7315,21.38127z" fill="#ffd266" stroke="#000000" stroke-width="3"/><path d="M294.81575,215.00371c2.31081,4.71041 -5.0608,13.06429 -16.46498,18.65889c-11.40418,5.5946 -22.52237,6.31137 -24.83318,1.60096c-2.31081,-4.71041 5.0608,-13.06429 16.46498,-18.65889c11.40418,-5.5946 22.52237,-6.31137 24.83318,-1.60096z" fill="#ffd266" stroke="#000000" stroke-width="3"/><path d="M296.21429,180c0,33.15113 -25.16799,60.02542 -56.21429,60.02542c-31.04629,0 -56.21429,-26.8743 -56.21429,-60.02542c0,-33.15113 25.16799,-60.02542 56.21429,-60.02542c31.04629,0 56.21429,26.8743 56.21429,60.02542z" fill="#6693ff" stroke="#000000" stroke-width="3"/><path d="M287.16667,195.5248c0,23.52032 -21.11724,42.5873 -47.16667,42.5873c-26.04943,0 -47.16667,-19.06698 -47.16667,-42.5873c0,-23.52032 21.11724,-42.5873 47.16667,-42.5873c26.04943,0 47.16667,19.06698 47.16667,42.5873z" fill="#ffffff" stroke="#000000" stroke-width="3"/><path d="M304.71284,180c0,33.3031 -28.97293,60.3006 -64.71284,60.3006c-35.73991,0 -64.71284,-26.9975 -64.71284,-60.3006c0,-33.3031 28.97293,-60.3006 64.71284,-60.3006c35.73991,0 64.71284,26.9975 64.71284,60.3006z" fill="url(#color-5)" stroke="#00a4ff" stroke-width="7.5"/><path d="M232.11987,246.14254c-2.1873,4.52468 -13.8164,3.42814 -25.97433,-2.44919c-12.15792,-5.87733 -20.24071,-14.30983 -18.05341,-18.83451c2.1873,-4.52468 13.8164,-3.42814 25.97433,2.44919c12.15792,5.87733 20.24071,14.30983 18.05341,18.83451z" fill="url(#color-6)" stroke="#00a4ff" stroke-width="7.5"/><path d="M306.14784,218.72576c2.51066,4.35357 -4.93727,13.35172 -16.63543,20.09793c-11.69816,6.74621 -23.21667,8.68582 -25.72734,4.33224c-2.51066,-4.35357 4.93727,-13.35172 16.63543,-20.09793c11.69816,-6.74621 23.21667,-8.68582 25.72734,-4.33224z" fill="url(#color-7)" stroke="#00a4ff" stroke-width="7.5"/></g></g></svg>