<svg version="1.1" xmlns="http://www.w3.org/2000/svg" xmlns:xlink="http://www.w3.org/1999/xlink" width="217.39435" height="143.095" viewBox="0,0,217.39435,143.095"><g transform="translate(-116.52556,-113.29491)"><g data-paper-data="{&quot;isPaintingLayer&quot;:true}" fill-rule="nonzero" stroke-linejoin="miter" stroke-miterlimit="10" stroke-dasharray="" stroke-dashoffset="0" style="mix-blend-mode: normal"><path d="M227.83333,146.27083c0,9.57294 -7.3873,17.33333 -16.5,17.33333c-9.1127,0 -16.5,-7.7604 -16.5,-17.33333c0,-9.57294 7.3873,-17.33333 16.5,-17.33333c9.1127,0 16.5,7.7604 16.5,17.33333z" fill="#171717" stroke="#000000" stroke-width="3" stroke-linecap="butt"/><path d="M212.91667,138.18194c0,-2.32486 1.90279,-4.20952 4.25,-4.20952c2.34721,0 4.25,1.88467 4.25,4.20952c0,2.32486 -1.90279,4.20952 -4.25,4.20952c-2.34721,0 -4.25,-1.88467 -4.25,-4.20952z" fill="#ffffff" stroke="none" stroke-width="0.5" stroke-linecap="butt"/><path d="M273.58333,139.51528c0,-2.32486 1.90279,-4.20953 4.25,-4.20953c2.34721,0 4.25,1.88467 4.25,4.20953c0,2.32486 -1.90279,4.20952 -4.25,4.20952c-2.34721,0 -4.25,-1.88467 -4.25,-4.20952z" fill="#ffffff" stroke="none" stroke-width="0.5" stroke-linecap="butt"/><path d="M286.45146,177.33173c-3.59125,-6.53395 3.56796,-17.3658 15.99054,-24.1936c12.42257,-6.8278 25.40436,-7.066 28.9956,-0.53205c3.59125,6.53396 -3.56797,17.36579 -15.99055,24.1936c-12.42257,6.8278 -25.40435,7.066 -28.9956,0.53205z" data-paper-data="{&quot;index&quot;:null}" fill="#6693ff" stroke="#000000" stroke-width="3" stroke-linecap="butt"/><path d="M164.66722,178.4968c-11.91218,-7.68372 -18.29267,-18.99178 -14.25124,-25.25728c4.04144,-6.2655 16.97439,-5.1158 28.88656,2.56791c11.91218,7.68372 18.29267,18.99178 14.25124,25.25728c-4.04144,6.2655 -16.97439,5.1158 -28.88656,-2.56791z" fill="#6693ff" stroke="#000000" stroke-width="3" stroke-linecap="butt"/><path d="M296.21429,190.35296c0,27.43336 -25.16799,49.67249 -56.21429,49.67249c-31.04629,0 -56.21429,-22.23913 -56.21429,-49.67249c0,-27.43336 24.2806,-57.65904 55.3269,-57.65904c31.04629,0 57.10168,30.22568 57.10168,57.65904z" fill="#6693ff" stroke="#000000" stroke-width="3" stroke-linecap="butt"/><path d="M229.5231,241.34862c-3.14184,4.202 -13.93585,1.44206 -24.1091,-6.16449c-10.17325,-7.60656 -15.87335,-17.17926 -12.7315,-21.38127c3.14184,-4.202 13.93585,-1.44206 24.1091,6.16449c10.17325,7.60656 15.87335,17.17926 12.7315,21.38127z" fill="#ffd266" stroke="#000000" stroke-width="3" stroke-linecap="butt"/><path d="M294.21429,188.50002c0,33.15113 -25.16799,60.02542 -56.21429,60.02542c-31.04629,0 -56.21429,-26.8743 -56.21429,-60.02542c0,-33.15113 25.16799,-60.02542 56.21429,-60.02542c31.04629,0 56.21429,26.8743 56.21429,60.02542z" fill="#ffd5a2" stroke="#000000" stroke-width="3" stroke-linecap="butt"/><path d="M190.52712,220.99672l-5.21269,-50.49797l54.08169,32.57933l45.93686,-28.01823l3.90952,43.00472c0,0 -4.26431,5.97789 -10.88196,11.00776c-10.87618,8.26666 -27.55479,17.29792 -38.00815,17.61257c-10.29689,0.30994 -32.36946,-8.75953 -43.69857,-16.47291c-5.79039,-3.94236 -6.12671,-9.21528 -6.12671,-9.21528z" fill="#000000" stroke="#bd0000" stroke-width="4.5" stroke-linecap="butt"/><path d="M279.45,182.61667l-64.25,56.75417" data-paper-data="{&quot;index&quot;:null}" fill="none" stroke="#a17900" stroke-width="4.5" stroke-linecap="round"/><path d="M198.24494,230.89575l-4.9428,-6.42565l91.2771,-0.32952l-6.42564,6.09613z" fill="#342800" stroke="#181200" stroke-width="4.5" stroke-linecap="butt"/><path d="M197.42959,237.30788c0.69036,0 -0.69036,0 0,0z" fill="#b6b6b6" stroke="none" stroke-width="0.5" stroke-linecap="butt"/><path d="M192.60441,244.31789c0,-0.69036 0,0.69036 0,0z" fill="#b6b6b6" stroke="none" stroke-width="0.5" stroke-linecap="butt"/><path d="M288.21661,237.69459c0.69036,0 -0.69036,0 0,0z" fill="#b6b6b6" stroke="none" stroke-width="0.5" stroke-linecap="butt"/><path d="M135.23763,151.15633c0,-0.69036 0,0.69036 0,0z" fill="#b6b6b6" stroke="none" stroke-width="0.5" stroke-linecap="butt"/><path d="M131.12487,150.89944c0.69036,0 -0.69036,0 0,0z" fill="#b6b6b6" stroke="none" stroke-width="0.5" stroke-linecap="butt"/><path d="M116.72485,150.60151c-0.69036,0 0.69036,0 0,0z" fill="#b6b6b6" stroke="none" stroke-width="0.5" stroke-linecap="butt"/><path d="M232.31007,249.49017c-1.12397,4.54777 -11.03751,6.00954 -22.14252,3.26496c-11.105,-2.74458 -19.19623,-8.65619 -18.07226,-13.20395c1.12397,-4.54777 11.03751,-6.00954 22.14252,-3.26496c11.105,2.74458 19.19623,8.65619 18.07226,13.20395z" fill="#000000" stroke="#bd0000" stroke-width="4.5" stroke-linecap="butt"/><path d="M292.7286,231.35485c2.20474,4.13335 -4.19001,11.84841 -14.28306,17.23208c-10.09306,5.38367 -20.0624,6.39725 -22.26713,2.26391c-2.20474,-4.13335 4.19001,-11.84841 14.28306,-17.23208c10.09307,-5.38367 20.0624,-6.39725 22.26713,-2.26391z" fill="#000000" stroke="#bd0000" stroke-width="4.5" stroke-linecap="butt"/><path d="M211.35119,153.42931c-1.07229,-0.02822 -3.68763,0.51128 -4.47619,-0.45534c-0.69024,-0.8461 -0.71657,-2.71488 -1.80838,-2.73142c-5.79778,-0.08783 -11.14501,3.06323 -16.93777,0.03815c-2.47388,-1.2919 -4.64882,-7.19078 -2.44135,-9.49423c2.57455,-2.68649 4.74632,-2.11948 8.1875,-2c1.11865,0.03884 3.02655,1.14334 3.83268,0.6447c0.58484,-0.36176 -1.19892,-0.78668 -1.52018,-1.3947c-0.43648,-0.82607 -0.92871,-3.20049 -1.20534,-4.27381c-1.34989,-5.23761 -0.70421,-10.33235 4.64284,-12.91369c2.57062,-1.24099 7.22683,-1.41113 9.52393,0.55782c0.87133,0.74686 1.26269,2.05396 1.72931,3.10877c0.11861,0.26811 0.11947,0.90232 0.38965,0.7885c1.55638,-0.65567 -3.65608,-7.36745 0.42513,-9.69957c1.09097,-0.62341 3.20967,-1.47235 4.37522,-1.19324c0.16542,0.03961 2.18533,1.20311 2.45258,0.96327c1.46138,-1.31149 1.52584,-1.56579 3.59043,-1.1649c1.44578,0.28073 4.79125,1.95505 5.988,1.68358c2.45326,-0.55648 4.49116,-1.79348 7.02576,-2.35673c3.11477,-0.69217 4.49801,1.13668 6.86154,1.23857c4.40438,0.18988 9.22398,-0.32152 13.69243,-0.23857c1.92219,0.03568 3.8588,0.22956 5.76756,0c1.75109,-0.2106 3.61341,-1.81368 5.19092,-1.02492c1.36226,0.68113 0.98225,3.85519 2.50492,3.82132c2.37268,-0.05278 3.1008,-2.13065 5.98262,-0.4839c3.28981,1.87989 1.55794,6.46589 1.78769,6.67506c1.78709,1.627 5.37749,5.12103 5.82795,7.92102c0.26634,1.65554 -0.20199,4.03717 0.13436,5.33707c0.15777,0.60972 2.03003,0.37122 2.5,3.50434c0.51331,3.42207 -1.40565,5.68023 -3.27721,8.14117c-0.34868,0.45848 0.26933,5.35987 -0.29465,7.28009c-2.8589,9.73389 -13.31242,9.72612 -21.56067,7.74135c-5.97097,-1.43679 -6.55565,-7.12102 -9.64406,-9.04383c-0.9712,-0.60466 -1.4406,1.89153 -2.47726,2.37544c-2.33897,1.09183 -4.46929,0.87169 -6.62584,-0.9703c-0.55547,-0.47445 -2.31576,-5.02394 -2.8338,-6.19387c-0.13624,-0.30769 -1.68343,-4.63436 -1.78652,-4.48006c-0.22053,0.33009 0.14104,4.16413 -0.23093,5.57302c-1.00947,3.82357 -1.76372,7.83402 -3.63939,11.3509c-1.34201,2.51627 -9.54318,2.09916 -11.12968,1.97607c-0.87019,-0.06751 -1.91358,-0.09466 -2.51558,-0.72664c-1.62945,-1.7106 -1.77858,-2.06447 -2.26944,-4.27336c-0.16635,-0.74857 1.55233,-0.82389 0.5625,-2c-0.87284,-1.03711 -2.82533,0.06383 -4.02748,-0.5625c-1.28264,-0.66827 -1.16469,-2.03821 -1.79997,-3.14996z" fill="#000000" stroke="none" stroke-width="0.5" stroke-linecap="butt"/><path d="M228.1,190.2625c0,0 -21.73272,-9.30116 -27.89754,-17.27917c-6.29896,-8.1516 -9.50246,-31.12083 -9.50246,-31.12083h94.2c0,0 -3.79496,23.86593 -10.11291,31.89779c-6.21365,7.89927 -27.48709,15.90221 -27.48709,15.90221z" fill="#000000" stroke="none" stroke-width="0" stroke-linecap="butt"/><g><path d="M294.51595,180.48956c-5.4028,-5.13803 -1.86364,-17.63032 7.90495,-27.90232c9.76859,-10.27199 22.06743,-14.43391 27.47024,-9.29589c5.4028,5.13803 1.86364,17.63032 -7.90495,27.90232c-9.76859,10.27199 -22.06743,14.43391 -27.47024,9.29589z" data-paper-data="{&quot;index&quot;:null}" fill="#ffd5a2" stroke="#000000" stroke-width="3" stroke-linecap="butt"/><path d="M328.10016,165.1368l-24.09739,17.92236c0,0 -8.46155,-1.06418 -10.28738,-2.97605c-2.73193,-2.86064 -4.51121,-12.51976 -4.51121,-12.51976l22.20212,-24.96608z" data-paper-data="{&quot;index&quot;:null}" fill="#ffffff" stroke="#000000" stroke-width="4.5" stroke-linecap="butt"/><path d="M306.11189,177.25349l4.43468,-31.71393" data-paper-data="{&quot;index&quot;:null}" fill="none" stroke="#a17900" stroke-width="4.5" stroke-linecap="round"/><path d="M306.55341,180.70774l-7.00736,4.63718c0,0 -5.63471,-4.03646 -7.42557,-6.74267c-1.92707,-2.91205 -3.75822,-10.15742 -3.75822,-10.15742l7.00736,-4.63718z" data-paper-data="{&quot;index&quot;:null}" fill="#191919" stroke="#000000" stroke-width="4.5" stroke-linecap="butt"/><path d="M326.90629,163.01295l-2.5018,1.65559l-14.78995,-22.34944l2.5018,-1.65559z" data-paper-data="{&quot;index&quot;:null}" fill="#342800" stroke="#181200" stroke-width="2.5" stroke-linecap="butt"/><path d="M317.16642,172.57615l-2.83538,1.87634l-14.12771,-21.34872l2.83538,-1.87634z" data-paper-data="{&quot;index&quot;:null}" fill="#342800" stroke="#181200" stroke-width="2.5" stroke-linecap="butt"/></g><g><path d="M158.59534,175.52871c-10.51971,-9.50133 -14.99638,-21.68912 -9.99893,-27.22222c4.99745,-5.53309 17.57659,-2.3162 28.0963,7.18512c10.51971,9.50133 14.99638,21.68912 9.99893,27.22222c-4.99745,5.53309 -17.57659,2.3162 -28.0963,-7.18512z" fill="#ffd5a2" stroke="#000000" stroke-width="3" stroke-linecap="butt"/><path d="M166.97534,146.2121l24.03214,23.20981c0,0 -1.04137,9.76627 -3.54842,12.82592c-1.67553,2.04487 -10.03196,3.7479 -10.03196,3.7479l-25.38759,-16.04261z" fill="#ffffff" stroke="#000000" stroke-width="4.5" stroke-linecap="butt"/><path d="M174.88362,180.36679l-6.82782,-31.28611" fill="none" stroke="#a17900" stroke-width="4.5" stroke-linecap="round"/><path d="M184.5749,166.14476l7.33896,4.09222c0,0 -1.27621,7.36341 -2.97682,10.41326c-1.5804,2.83428 -6.89265,7.28657 -6.89265,7.28657l-7.33896,-4.09222z" fill="#191919" stroke="#000000" stroke-width="4.5" stroke-linecap="butt"/><path d="M166.12063,144.33777l2.62019,1.46103l-13.05182,23.40705l-2.62019,-1.46103z" fill="#342800" stroke="#181200" stroke-width="2.5" stroke-linecap="butt"/><path d="M175.97353,154.1826l2.96955,1.65583l-12.46741,22.35897l-2.96955,-1.65583z" fill="#342800" stroke="#181200" stroke-width="2.5" stroke-linecap="butt"/></g></g></g></svg>