<svg version="1.1" xmlns="http://www.w3.org/2000/svg" xmlns:xlink="http://www.w3.org/1999/xlink" width="96.66667" height="39" viewBox="0,0,96.66667,39"><g transform="translate(-193.33333,-127.4375)"><g data-paper-data="{&quot;isPaintingLayer&quot;:true}" fill-rule="nonzero" stroke-linecap="butt" stroke-linejoin="miter" stroke-miterlimit="10" stroke-dasharray="" stroke-dashoffset="0" style="mix-blend-mode: normal"><path d="M227.83333,146.27083c0,9.57294 -7.3873,17.33333 -16.5,17.33333c-9.1127,0 -16.5,-7.7604 -16.5,-17.33333c0,-9.57294 7.3873,-17.33333 16.5,-17.33333c9.1127,0 16.5,7.7604 16.5,17.33333z" fill="#171717" stroke="#000000" stroke-width="3"/><path d="M212.91667,138.18194c0,-2.32486 1.90279,-4.20952 4.25,-4.20952c2.34721,0 4.25,1.88467 4.25,4.20952c0,2.32486 -1.90279,4.20952 -4.25,4.20952c-2.34721,0 -4.25,-1.88467 -4.25,-4.20952z" fill="#ffffff" stroke="none" stroke-width="0.5"/><path d="M288.5,147.60417c0,9.57294 -7.3873,17.33333 -16.5,17.33333c-9.1127,0 -16.5,-7.76039 -16.5,-17.33333c0,-9.57294 7.3873,-17.33334 16.5,-17.33334c9.1127,0 16.5,7.7604 16.5,17.33334z" fill="#171717" stroke="#000000" stroke-width="3"/><path d="M273.58333,139.51528c0,-2.32486 1.90279,-4.20953 4.25,-4.20953c2.34721,0 4.25,1.88467 4.25,4.20953c0,2.32486 -1.90279,4.20952 -4.25,4.20952c-2.34721,0 -4.25,-1.88467 -4.25,-4.20952z" fill="#ffffff" stroke="none" stroke-width="0.5"/></g></g></svg>