<svg version="1.1" xmlns="http://www.w3.org/2000/svg" xmlns:xlink="http://www.w3.org/1999/xlink" width="71" height="56.04888" viewBox="0,0,71,56.04888"><g transform="translate(-200.5,-144.76565)"><g data-paper-data="{&quot;isPaintingLayer&quot;:true}" fill-rule="nonzero" stroke-linejoin="miter" stroke-miterlimit="10" stroke-dasharray="" stroke-dashoffset="0" style="mix-blend-mode: normal"><path d="M210.625,199.31453v-45.75403h59.375v45.75403z" fill="#00ff21" stroke="#000000" stroke-width="3" stroke-linecap="butt"/><path d="M201.5,155.45796v-9.69231h36v9.69231z" fill="#ffce00" stroke="#c37600" stroke-width="2" stroke-linecap="butt"/><text transform="translate(202.65385,153.08922) scale(0.12789,0.12789)" font-size="40" xml:space="preserve" fill="#c37600" fill-rule="nonzero" stroke="none" stroke-width="1" stroke-linecap="butt" stroke-linejoin="miter" stroke-miterlimit="10" stroke-dasharray="" stroke-dashoffset="0" font-family="Sans Serif" font-weight="normal" text-anchor="start" style="mix-blend-mode: normal"><tspan x="0" dy="0">TOP POPULER</tspan></text><path d="M245.64211,184.36483l-2.38795,-0.02541" fill="none" stroke="#365488" stroke-width="3" stroke-linecap="round"/><path d="M234.66929,186.3485l-4.00531,-5.16966c0,0 6.02584,0.46573 9.22155,0.46573c3.31985,0 10.33931,-0.46573 10.33931,-0.46573l-4.89021,5.07651c0,0 -2.92439,1.57934 -4.56586,1.60173c-1.76495,0.02407 -6.09946,-1.50858 -6.09946,-1.50858z" fill="#5482d2" stroke="#365488" stroke-width="3" stroke-linecap="butt"/><path d="M238.92003,188.32063c0,0.47798 -0.36042,1.81653 -1.44878,2.05904c-0.6218,0.13855 -1.7232,-0.69912 -2.5202,-0.69912c-2.192,0 -3.96898,-0.60885 -3.96898,-1.35992c0,-0.75106 1.77697,-1.35992 3.96898,-1.35992c2.192,0 3.96897,0.60886 3.96897,1.35992z" fill="#565656" stroke="#000000" stroke-width="3" stroke-linecap="butt"/><path d="M236.25279,168.55744v-7.26546h8.19693v7.26546z" fill="#5482d2" stroke="#365488" stroke-width="3" stroke-linecap="butt"/><path d="M233.69125,170.32723v-2.14238h13.64603v2.14238z" fill="#5482d2" stroke="#365488" stroke-width="3" stroke-linecap="butt"/><path d="M236.25279,167.57939v-1.3972h8.15036v1.3972z" fill="#ffffff" stroke="#969696" stroke-width="3" stroke-linecap="butt"/><path d="M239.41979,185.69647l-2.00266,-4.28476h5.35595l-1.25749,4.3779z" fill="#ffffff" stroke="#bfbfbf" stroke-width="3" stroke-linecap="butt"/><path d="M240.06599,182.56659c0,-0.19291 0.15639,-0.3493 0.3493,-0.3493c0.19291,0 0.3493,0.15639 0.3493,0.3493c0,0.19291 -0.15639,0.3493 -0.3493,0.3493c-0.19291,0 -0.3493,-0.15639 -0.3493,-0.3493z" fill="#000000" stroke="none" stroke-width="0.5" stroke-linecap="butt"/><path d="M240.13585,183.78914c0,-0.19291 0.15639,-0.3493 0.3493,-0.3493c0.19291,0 0.3493,0.15639 0.3493,0.3493c0,0.19291 -0.15639,0.3493 -0.3493,0.3493c-0.19291,0 -0.3493,-0.15639 -0.3493,-0.3493z" fill="#000000" stroke="none" stroke-width="0.5" stroke-linecap="butt"/><path d="M240.20571,185.04663c0,-0.19291 0.15639,-0.3493 0.3493,-0.3493c0.19291,0 0.3493,0.15639 0.3493,0.3493c0,0.19291 -0.15639,0.3493 -0.3493,0.3493c-0.19291,0 -0.3493,-0.15639 -0.3493,-0.3493z" fill="#000000" stroke="none" stroke-width="0.5" stroke-linecap="butt"/><path d="M240.38037,181.8447v-0.31437l1.53692,-0.48902v1.32734z" data-paper-data="{&quot;index&quot;:null}" fill="#686868" stroke="#000000" stroke-width="1" stroke-linecap="butt"/><path d="M238.45921,182.39194v-1.32735l1.53692,0.48902v0.31437z" fill="#686868" stroke="#000000" stroke-width="1" stroke-linecap="butt"/><path d="M240.90432,181.7108c0,0.39548 -0.29713,0.71606 -0.66367,0.71606c-0.36653,0 -0.66368,-0.32059 -0.66368,-0.71606c0,-0.39548 0.29714,-0.71607 0.66368,-0.71607c0.36653,0 0.66367,0.32059 0.66367,0.71607z" fill="#686868" stroke="#000000" stroke-width="1" stroke-linecap="butt"/><path d="M234.41367,184.11079l2.38795,0.0254" fill="none" stroke="#365488" stroke-width="3" stroke-linecap="round"/><path d="M247.17668,186.60142c2.192,0 3.96898,0.60886 3.96898,1.35992c0,0.75107 -1.77697,1.35992 -3.96898,1.35992c-0.797,0 -1.8984,0.83767 -2.5202,0.69912c-1.08836,-0.24251 -1.44878,-1.58106 -1.44878,-2.05904c0,-0.75107 1.77697,-1.35992 3.96898,-1.35992z" data-paper-data="{&quot;index&quot;:null}" fill="#565656" stroke="#000000" stroke-width="3" stroke-linecap="butt"/><path d="M245.85337,184.41386l-2.38795,-0.02541" fill="none" stroke="#365488" stroke-width="3" stroke-linecap="round"/><text transform="translate(214.24491,196.82727) scale(0.13572,0.13572)" font-size="40" xml:space="preserve" fill="#000000" fill-rule="nonzero" stroke="none" stroke-width="1" stroke-linecap="butt" stroke-linejoin="miter" stroke-miterlimit="10" stroke-dasharray="" stroke-dashoffset="0" font-family="Sans Serif" font-weight="normal" text-anchor="start" style="mix-blend-mode: normal"><tspan x="0" dy="0">RICH BUSSINES MAN</tspan></text></g></g></svg>