<svg version="1.1" xmlns="http://www.w3.org/2000/svg" xmlns:xlink="http://www.w3.org/1999/xlink" width="186.10878" height="158.5384" viewBox="0,0,186.10878,158.5384"><g transform="translate(-147.91148,-115.04753)"><g data-paper-data="{&quot;isPaintingLayer&quot;:true}" fill-rule="nonzero" stroke-linecap="butt" stroke-linejoin="miter" stroke-miterlimit="10" stroke-dasharray="" stroke-dashoffset="0" style="mix-blend-mode: normal"><path d="M287.16667,195.5248c0,23.52032 -21.11724,42.5873 -47.16667,42.5873c-26.04943,0 -47.16667,-19.06698 -47.16667,-42.5873c0,-23.52032 21.11724,-42.5873 47.16667,-42.5873c26.04943,0 47.16667,19.06698 47.16667,42.5873z" fill="#ffffff" stroke="#000000" stroke-width="3"/><path d="M198.15696,187.62815c-3.17525,13.81511 -11.63986,23.66058 -18.90625,21.99049c-7.26639,-1.6701 -10.58291,-14.22334 -7.40767,-28.03844c3.17525,-13.81511 11.63986,-23.66058 18.90625,-21.99049c7.26639,1.6701 10.58291,14.22334 7.40767,28.03844z" fill="#6693ff" stroke="#000000" stroke-width="3"/><path d="M292.25071,158.58971c7.26638,-1.6701 15.73101,8.17538 18.90625,21.99048c3.17525,13.8151 -0.14129,26.36835 -7.40767,28.03844c-7.26639,1.6701 -15.731,-8.17538 -18.90625,-21.99049c-3.17525,-13.8151 0.14129,-26.36834 7.40767,-28.03844z" data-paper-data="{&quot;index&quot;:null}" fill="#6693ff" stroke="#000000" stroke-width="3"/><path d="M241.5,235.10416c0,5.24671 -10.29745,9.5 -23,9.5c-12.70255,0 -23,-4.25329 -23,-9.5c0,-5.24671 10.29745,-9.5 23,-9.5c12.70255,0 23,4.25329 23,9.5z" fill="#ffd266" stroke="#000000" stroke-width="3"/><path d="M294.5,234.4375c0,5.2467 -10.29745,9.5 -23,9.5c-12.70255,0 -23,-4.2533 -23,-9.5c0,-5.2467 10.29745,-9.5 23,-9.5c12.70255,0 23,4.2533 23,9.5z" fill="#ffd266" stroke="#000000" stroke-width="3"/><path d="M263.16667,171.4375c0,5.2467 -10.29745,9.5 -23,9.5c-12.70255,0 -23,-4.2533 -23,-9.5c0,-5.2467 10.29745,-9.5 23,-9.5c12.70255,0 23,4.2533 23,9.5z" fill="#d6af56" stroke="#000000" stroke-width="3"/><path d="M186.31265,239.30751c0,0 -0.88739,-35.3738 -0.88739,-57.49637c0,-22.27674 1.47899,-60.81408 1.47899,-60.81408l97.31756,-2.37515l17.45209,116.81175z" fill="#009cff" stroke="#0045ff" stroke-width="7"/><path d="M153.79587,252.04224l7.69075,-95.24697h22.77645v49.39827l-0.5916,15.0857c0,0 -4.70327,21.61139 -6.39288,18.8021c-1.62578,-2.70318 -0.19816,-29.85864 -2.26591,-28.50984c-1.67076,1.08984 -2.29569,37.72511 -3.6173,43.32388c-1.77216,7.50739 -4.08881,-15.76788 -5.09736,-16.4537c-3.73446,-2.53943 -12.50216,13.60056 -12.50216,13.60056z" fill="#009cff" stroke="#0045ff" stroke-width="7"/><path d="M313.25042,234.86353c-1.26067,1.06816 -3.79177,14.29552 -6.09798,11.17675c-3.86949,-5.23287 -7.64282,-28.56288 -7.64282,-28.56288l-2.18059,-14.93899l-5.214,-49.12233c0,0 2.97337,-2.62414 6.83352,-3.03387c3.68109,-0.39072 15.8157,0.62981 15.8157,0.62981c0,0 14.80285,64.71541 15.75601,73.69528c0.71619,6.74744 -10.54201,-24.57295 -10.54201,-24.57295c0,0 5.88943,50.51451 4.38048,52.27834c-1.93266,2.25912 -11.45534,-43.62824 -12.45668,-38.01557c-1.08976,6.10822 2.65533,19.35902 1.34836,20.46641z" data-paper-data="{&quot;index&quot;:null}" fill="#009cff" stroke="#0045ff" stroke-width="7"/><path d="M198.46138,229.85739v-40.52433h93.17639v40.52433z" fill="#ffffff" stroke="#cccccc" stroke-width="7"/><path d="M201.71516,248.19687v-13.31091h34.60837c0,0 5.91596,33.06029 5.91596,35.19997c0,2.28742 -5.91596,-21.88906 -5.91596,-21.88906c0,0 1.42504,6.76014 -2.5371,5.6238c-1.95281,-0.56007 0.16448,14.21945 -3.06695,12.0895c-3.49687,-2.30492 -12.34663,-21.4771 -14.34196,-20.58903c-5.29157,2.35514 -5.82473,14.70766 -8.4506,14.70766c-4.08819,0 -6.21176,-11.83192 -6.21176,-11.83192z" fill="#ffd266" stroke="#c19f4d" stroke-width="7"/><path d="M255.81764,249.35149c0,0 -3.25378,15.95922 -3.25378,13.63528c0,-2.08764 3.25378,-26.94619 3.25378,-26.94619h34.60837v13.31091c0,0 -4.47637,-3.17776 -6.72662,0.26497c-1.3801,2.11147 -0.07751,11.51111 -1.82674,11.52938c-4.57535,0.04778 -9.78934,-11.60752 -13.56806,-9.91322c-3.31637,1.487 -0.75533,9.65499 -2.69706,9.65499c-4.43258,0 -9.7899,-11.53612 -9.7899,-11.53612z" fill="#ffd266" stroke="#c19f4d" stroke-width="7"/><path d="M214.9459,188.43024v-20.41006h53.06617v20.41006c0,0 -1.41568,15.67115 -6.09043,20.8951c-2.32436,2.59743 -6.43718,-15.11628 -9.76793,-15.9051c-2.74079,-0.6491 -4.9613,17.77201 -7.40134,18.43847c-2.73678,0.74752 -5.19202,-12.82345 -7.74969,-14.87054c-4.03688,-3.23102 -7.592,2.0908 -9.8489,2.0908c-5.2622,0 -12.20789,-10.64873 -12.20789,-10.64873z" fill="#ffd266" stroke="#c19f4d" stroke-width="7"/></g></g></svg>