<svg version="1.1" xmlns="http://www.w3.org/2000/svg" xmlns:xlink="http://www.w3.org/1999/xlink" width="171.92156" height="163.2719" viewBox="0,0,171.92156,163.2719"><defs><radialGradient cx="205.11036" cy="129.88247" r="18.02632" gradientUnits="userSpaceOnUse" id="color-1"><stop offset="0" stop-color="#7ef2ff"/><stop offset="1" stop-color="#ffffff"/></radialGradient><radialGradient cx="273.49323" cy="130.81201" r="18.02632" gradientUnits="userSpaceOnUse" id="color-2"><stop offset="0" stop-color="#7ef2ff"/><stop offset="1" stop-color="#ffffff"/></radialGradient><radialGradient cx="177.13408" cy="185.4946" r="36.72533" gradientUnits="userSpaceOnUse" id="color-3"><stop offset="0" stop-color="#7ef2ff"/><stop offset="1" stop-color="#ffffff"/></radialGradient><radialGradient cx="301.21272" cy="191.69162" r="36.72533" gradientUnits="userSpaceOnUse" id="color-4"><stop offset="0" stop-color="#7ef2ff"/><stop offset="1" stop-color="#ffffff"/></radialGradient><radialGradient cx="240" cy="180.58149" r="64.71284" gradientUnits="userSpaceOnUse" id="color-5"><stop offset="0" stop-color="#7ef2ff"/><stop offset="1" stop-color="#ffffff"/></radialGradient><radialGradient cx="213.59498" cy="247.71207" r="24.45116" gradientUnits="userSpaceOnUse" id="color-6"><stop offset="0" stop-color="#7ef2ff"/><stop offset="1" stop-color="#ffffff"/></radialGradient><radialGradient cx="277.61273" cy="245.51223" r="24.45116" gradientUnits="userSpaceOnUse" id="color-7"><stop offset="0" stop-color="#7ef2ff"/><stop offset="1" stop-color="#ffffff"/></radialGradient></defs><g transform="translate(-156.81844,-108.10614)"><g data-paper-data="{&quot;isPaintingLayer&quot;:true}" fill-rule="nonzero" stroke-linecap="butt" stroke-linejoin="miter" stroke-miterlimit="10" stroke-dasharray="" stroke-dashoffset="0" style="mix-blend-mode: normal"><path d="M222.26444,129.88247c0,9.95566 -7.68014,18.02632 -17.15408,18.02632c-9.47394,0 -17.15408,-8.07066 -17.15408,-18.02632c0,-9.95566 7.68014,-18.02632 17.15408,-18.02632c9.47394,0 17.15408,8.07066 17.15408,18.02632z" fill="url(#color-1)" stroke="#00a4ff" stroke-width="7.5"/><path d="M290.64731,130.81201c0,9.95566 -7.68014,18.02632 -17.15408,18.02632c-9.47394,0 -17.15408,-8.07066 -17.15408,-18.02632c0,-9.95566 7.68014,-18.02632 17.15408,-18.02632c9.47394,0 17.15408,8.07066 17.15408,18.02632z" fill="url(#color-2)" stroke="#00a4ff" stroke-width="7.5"/><path d="M227.83333,146.27083c0,9.57294 -7.3873,17.33333 -16.5,17.33333c-9.1127,0 -16.5,-7.7604 -16.5,-17.33333c0,-9.57294 7.3873,-17.33333 16.5,-17.33333c9.1127,0 16.5,7.7604 16.5,17.33333z" fill="#171717" stroke="#000000" stroke-width="3"/><path d="M212.91667,138.18194c0,-2.32486 1.90279,-4.20952 4.25,-4.20952c2.34721,0 4.25,1.88467 4.25,4.20952c0,2.32486 -1.90279,4.20952 -4.25,4.20952c-2.34721,0 -4.25,-1.88467 -4.25,-4.20952z" fill="#ffffff" stroke="none" stroke-width="0.5"/><path d="M288.5,147.60417c0,9.57294 -7.3873,17.33333 -16.5,17.33333c-9.1127,0 -16.5,-7.76039 -16.5,-17.33333c0,-9.57294 7.3873,-17.33334 16.5,-17.33334c9.1127,0 16.5,7.7604 16.5,17.33334z" fill="#171717" stroke="#000000" stroke-width="3"/><path d="M273.58333,139.51528c0,-2.32486 1.90279,-4.20953 4.25,-4.20953c2.34721,0 4.25,1.88467 4.25,4.20953c0,2.32486 -1.90279,4.20952 -4.25,4.20952c-2.34721,0 -4.25,-1.88467 -4.25,-4.20952z" fill="#ffffff" stroke="none" stroke-width="0.5"/><path d="M286.67815,175.79996c6.06864,-4.33143 17.66407,1.51058 25.89912,13.0485c8.23504,11.5379 9.99126,24.40255 3.92262,28.73397c-6.06864,4.33142 -17.66406,-1.5106 -25.89912,-13.04851c-8.23504,-11.5379 -9.99126,-24.40254 -3.92262,-28.73397z" data-paper-data="{&quot;index&quot;:null}" fill="#6693ff" stroke="#000000" stroke-width="3"/><path d="M192.37101,197.28919c-6.29038,12.70318 -16.80618,20.319 -23.48772,17.01043c-6.68155,-3.30858 -6.99863,-16.28866 -0.70826,-28.99183c6.29038,-12.70318 16.80618,-20.319 23.48772,-17.01043c6.68155,3.30858 6.99863,16.28866 0.70826,28.99183z" fill="#6693ff" stroke="#000000" stroke-width="3"/><path d="M296.21429,190.35296c0,27.43336 -25.16799,49.67249 -56.21429,49.67249c-31.04629,0 -56.21429,-22.23913 -56.21429,-49.67249c0,-27.43336 24.2806,-57.65904 55.3269,-57.65904c31.04629,0 57.10168,30.22568 57.10168,57.65904z" fill="#6693ff" stroke="#000000" stroke-width="3"/><path d="M228.56105,229.74978c4.04273,3.34429 0.75634,13.98983 -7.34035,23.77749c-8.0967,9.78766 -17.93763,15.01106 -21.98037,11.66676c-4.04273,-3.34429 -0.75634,-13.98983 7.34035,-23.77749c8.0967,-9.78766 17.93763,-15.01106 21.98037,-11.66676z" fill="#ffd266" stroke="#000000" stroke-width="3"/><path d="M167.05097,220.80863c-7.25836,-2.07245 -8.62807,-19.56315 -3.05933,-39.06655c5.56874,-19.5034 15.96717,-33.63396 23.22554,-31.56151c7.25836,2.07245 8.62808,19.56314 3.05934,39.06654c-5.56874,19.5034 -15.96718,33.63397 -23.22554,31.56152z" fill="url(#color-3)" stroke="#00a4ff" stroke-width="7.5"/><path d="M312.43683,183.89262c11.57372,16.6566 15.93087,33.65119 9.73197,37.95844c-6.19891,4.30726 -20.60647,-5.70385 -32.18019,-22.36045c-11.57372,-16.6566 -15.93088,-33.65118 -9.73197,-37.95844c6.19891,-4.30726 20.60647,5.70385 32.1802,22.36045z" data-paper-data="{&quot;index&quot;:null}" fill="url(#color-4)" stroke="#00a4ff" stroke-width="7.5"/><path d="M227.83333,146.85232c0,9.57294 -7.3873,17.33333 -16.5,17.33333c-9.1127,0 -16.5,-7.7604 -16.5,-17.33333c0,-9.57294 7.3873,-17.33333 16.5,-17.33333c9.1127,0 16.5,7.7604 16.5,17.33333z" fill="#171717" stroke="#000000" stroke-width="3"/><path d="M212.91667,138.76343c0,-2.32486 1.90279,-4.20952 4.25,-4.20952c2.34721,0 4.25,1.88467 4.25,4.20952c0,2.32486 -1.90279,4.20952 -4.25,4.20952c-2.34721,0 -4.25,-1.88467 -4.25,-4.20952z" fill="#ffffff" stroke="none" stroke-width="0.5"/><path d="M288.5,148.18566c0,9.57294 -7.3873,17.33333 -16.5,17.33333c-9.1127,0 -16.5,-7.76039 -16.5,-17.33333c0,-9.57294 7.3873,-17.33334 16.5,-17.33334c9.1127,0 16.5,7.7604 16.5,17.33334z" fill="#171717" stroke="#000000" stroke-width="3"/><path d="M273.58333,140.09677c0,-2.32486 1.90279,-4.20953 4.25,-4.20953c2.34721,0 4.25,1.88467 4.25,4.20953c0,2.32486 -1.90279,4.20952 -4.25,4.20952c-2.34721,0 -4.25,-1.88467 -4.25,-4.20952z" fill="#ffffff" stroke="none" stroke-width="0.5"/><path d="M296.21429,190.93445c0,27.43336 -25.16799,49.67249 -56.21429,49.67249c-31.04629,0 -56.21429,-22.23913 -56.21429,-49.67249c0,-27.43336 24.2806,-57.65904 55.3269,-57.65904c31.04629,0 57.10168,30.22568 57.10168,57.65904z" fill="#6693ff" stroke="#000000" stroke-width="3"/><path d="M227.83333,146.85232c0,9.57294 -7.3873,17.33333 -16.5,17.33333c-9.1127,0 -16.5,-7.7604 -16.5,-17.33333c0,-9.57294 7.3873,-17.33333 16.5,-17.33333c9.1127,0 16.5,7.7604 16.5,17.33333z" fill="#171717" stroke="#000000" stroke-width="3"/><path d="M212.91667,138.76343c0,-2.32486 1.90279,-4.20952 4.25,-4.20952c2.34721,0 4.25,1.88467 4.25,4.20952c0,2.32486 -1.90279,4.20952 -4.25,4.20952c-2.34721,0 -4.25,-1.88467 -4.25,-4.20952z" fill="#ffffff" stroke="none" stroke-width="0.5"/><path d="M288.5,148.18566c0,9.57294 -7.3873,17.33333 -16.5,17.33333c-9.1127,0 -16.5,-7.76039 -16.5,-17.33333c0,-9.57294 7.3873,-17.33334 16.5,-17.33334c9.1127,0 16.5,7.7604 16.5,17.33334z" fill="#171717" stroke="#000000" stroke-width="3"/><path d="M273.58333,140.09677c0,-2.32486 1.90279,-4.20953 4.25,-4.20953c2.34721,0 4.25,1.88467 4.25,4.20953c0,2.32486 -1.90279,4.20952 -4.25,4.20952c-2.34721,0 -4.25,-1.88467 -4.25,-4.20952z" fill="#ffffff" stroke="none" stroke-width="0.5"/><path d="M296.21429,190.93445c0,27.43336 -25.16799,49.67249 -56.21429,49.67249c-31.04629,0 -56.21429,-22.23913 -56.21429,-49.67249c0,-27.43336 24.2806,-57.65904 55.3269,-57.65904c31.04629,0 57.10168,30.22568 57.10168,57.65904z" fill="#6693ff" stroke="#000000" stroke-width="3"/><path d="M229.5231,241.93011c-3.14184,4.202 -13.93585,1.44206 -24.1091,-6.16449c-10.17325,-7.60656 -15.87335,-17.17926 -12.7315,-21.38127c3.14184,-4.202 13.93585,-1.44206 24.1091,6.16449c10.17325,7.60656 15.87335,17.17926 12.7315,21.38127z" fill="#ffd266" stroke="#000000" stroke-width="3"/><path d="M296.21429,180.58149c0,33.15113 -25.16799,60.02542 -56.21429,60.02542c-31.04629,0 -56.21429,-26.8743 -56.21429,-60.02542c0,-33.15113 25.16799,-60.02542 56.21429,-60.02542c31.04629,0 56.21429,26.8743 56.21429,60.02542z" fill="#6693ff" stroke="#000000" stroke-width="3"/><path d="M287.16667,196.10629c0,23.52032 -21.11724,42.5873 -47.16667,42.5873c-26.04943,0 -47.16667,-19.06698 -47.16667,-42.5873c0,-23.52032 21.11724,-42.5873 47.16667,-42.5873c26.04943,0 47.16667,19.06698 47.16667,42.5873z" fill="#ffffff" stroke="#000000" stroke-width="3"/><path d="M304.71284,180.58149c0,33.3031 -28.97293,60.3006 -64.71284,60.3006c-35.73991,0 -64.71284,-26.9975 -64.71284,-60.3006c0,-33.3031 28.97293,-60.3006 64.71284,-60.3006c35.73991,0 64.71284,26.9975 64.71284,60.3006z" fill="url(#color-5)" stroke="#00a4ff" stroke-width="7.5"/><path d="M228.88562,228.63184c3.92171,3.1428 0.25503,14.23305 -8.18976,24.77078c-8.44478,10.53772 -18.46982,16.53249 -22.39153,13.38969c-3.92171,-3.1428 -0.25503,-14.23305 8.18977,-24.77079c8.44478,-10.53772 18.46981,-16.53248 22.39152,-13.38968z" fill="url(#color-6)" stroke="#00a4ff" stroke-width="7.5"/><path d="M293.60929,264.00463c-3.80088,3.2879 -14.04402,-2.32606 -22.87868,-12.53914c-8.83466,-10.21308 -12.91533,-21.15778 -9.11445,-24.44568c3.80088,-3.2879 14.04401,2.32607 22.87868,12.53915c8.83466,10.21308 12.91533,21.15777 9.11445,24.44567z" fill="url(#color-7)" stroke="#00a4ff" stroke-width="7.5"/></g></g></svg>