<svg version="1.1" xmlns="http://www.w3.org/2000/svg" xmlns:xlink="http://www.w3.org/1999/xlink" width="95.46988" height="118.89341" viewBox="0,0,95.46988,118.89341"><g transform="translate(-204.38791,-98.71185)"><g data-paper-data="{&quot;isPaintingLayer&quot;:true}" fill-rule="nonzero" stroke-linejoin="miter" stroke-miterlimit="10" stroke-dasharray="" stroke-dashoffset="0" style="mix-blend-mode: normal"><path d="M298.8578,128.61118c0,9.10844 -12.50058,11.65051 -28.2941,11.65051c-15.79353,0 -27.9915,-2.84468 -27.9915,-11.95312c0,-9.10844 12.80319,-13.76879 28.59672,-13.76879c15.79353,0 27.68889,4.96296 27.68889,14.0714z" fill="#101010" stroke="#000000" stroke-width="2" stroke-linecap="butt"/><path d="M250.13746,131.78859l6.65743,-32.07674h29.35325l4.53916,31.77413c0,0 -12.32701,-4.12424 -19.35908,-4.07176c-6.43072,0.04799 -21.19076,4.37437 -21.19076,4.37437z" fill="#101010" stroke="#000000" stroke-width="2" stroke-linecap="butt"/><path d="M268.31279,150.55046c0,4.34531 -4.00095,7.86788 -8.93636,7.86788c-4.93542,0 -8.93635,-3.52257 -8.93635,-7.86788c0,-4.34531 4.00094,-7.86788 8.93635,-7.86788c4.93541,0 8.93636,3.52257 8.93636,7.86788z" fill="none" stroke="#482f00" stroke-width="5" stroke-linecap="butt"/><path d="M250.74268,155.08962l-9.38093,8.47311" fill="none" stroke="#482f00" stroke-width="5" stroke-linecap="round"/><path d="M225.62599,191.40291v-25.11669h58.40387v25.11669z" fill="#ffffff" stroke="#000000" stroke-width="5" stroke-linecap="butt"/><path d="M206.56151,207.44129c0,0 -1.48553,-2.61431 -0.5005,-8.60515c0.4629,-2.81528 3.82922,-6.37623 3.82922,-10.76193c0,-3.31301 4.89141,-8.22621 9.63619,-12.42092c5.0787,-4.4899 9.12567,-11.48533 9.12567,-11.48533c0,0 18.30236,19.31003 26.53763,19.77794c9.37081,0.53243 27.62969,-13.42312 27.62969,-13.42312c0,0 4.13885,18.03581 -0.7788,26.15822c-3.72306,6.14932 -26.15356,18.32556 -26.15356,18.32556z" fill="#3e3e3e" stroke="#000000" stroke-width="5" stroke-linecap="butt"/><path d="M256.49229,195.63946l15.73576,1.51305" fill="none" stroke="#bfbfbf" stroke-width="5" stroke-linecap="round"/><path d="M233.79648,194.12641l-15.43315,-2.42089" fill="none" stroke="#bfbfbf" stroke-width="5" stroke-linecap="round"/></g></g></svg>