<svg version="1.1" xmlns="http://www.w3.org/2000/svg" xmlns:xlink="http://www.w3.org/1999/xlink" width="113.37657" height="80.67243" viewBox="0,0,113.37657,80.67243"><g transform="translate(-191.6484,-120.36607)"><g data-paper-data="{&quot;isPaintingLayer&quot;:true}" fill-rule="nonzero" stroke-linejoin="miter" stroke-miterlimit="10" stroke-dasharray="" stroke-dashoffset="0" style="mix-blend-mode: normal"><path d="M283.57304,130.06125l10.82396,-5.9032l7.71168,-2.73934l-2.58384,3.26829l4.74942,0.80944l-2.49919,4.96455l2.45285,1.97049l-3.49069,3.44435l1.18059,2.68802l-0.76362,3.04665l-10.84923,-2.46714l-8.12215,-2.86484z" data-paper-data="{&quot;index&quot;:null}" fill="#ce00d2" stroke="#da0091" stroke-width="1" stroke-linecap="round"/><path d="M280.71013,129.64532l7.79658,-3.65923l10.54971,-3.53501l1.06313,2.95549l-0.90711,2.7922l3.81626,3.07971l-2.24448,2.20491l2.98103,4.69108l-4.64524,1.27826l2.89638,2.99481l-7.94609,-1.95798l-11.35789,-4.79627z" data-paper-data="{&quot;index&quot;:null}" fill="#fc00ff" stroke="#ff00a8" stroke-width="1" stroke-linecap="round"/><path d="M268.86228,198.04826l7.11687,-22.52845l4.91153,1.21599l-7.5599,23.28169z" fill="#ffffff" stroke="#c5c5c5" stroke-width="1.5" stroke-linecap="round"/><path d="M289.98249,179.17032c-4.48521,3.91302 -11.44653,3.27356 -15.54855,-1.42828c-4.10201,-4.70184 -3.79137,-11.68557 0.69384,-15.59859c4.48521,-3.91302 11.44653,-3.27356 15.54854,1.42828c4.10201,4.70184 3.79137,11.68557 -0.69384,15.59859z" fill="#ff67d6" stroke="#c200ff" stroke-width="1.5" stroke-linecap="butt"/><path d="M269.18515,168.72198l2.26928,-5.93701l23.87712,9.12647l-2.26928,5.93702z" fill="#ff67d6" stroke="#c200ff" stroke-width="1.5" stroke-linecap="butt"/><path d="M241.16942,153.21336c0,1.21448 -0.10179,2.40675 -0.29783,3.56979c-2.56132,0.05487 -5.14938,0.56251 -7.28037,1.21578c-1.06811,0.32744 -1.97103,1.03299 -2.73028,1.9555c-0.48181,0.32472 -0.93381,0.69029 -1.35103,1.09175c-3.98447,1.60423 -10.2542,7.74302 -11.16907,11.85996c-0.10254,0.46142 0.0613,1.63135 0.36212,3.01187c-0.63321,0.04603 -1.27319,0.06949 -1.91905,0.06949c-13.46775,0 -24.38551,-10.19633 -24.38551,-22.77413c0,-12.57781 10.91776,-22.77413 24.38551,-22.77413c13.46775,0 24.38551,10.19633 24.38551,22.77414z" fill="#ffca66" stroke="#cea252" stroke-width="1.5" stroke-linecap="butt"/><path d="M222.68427,165.83968l1.04515,6.66284l-3.00481,4.96446" fill="none" stroke="#000000" stroke-width="1.5" stroke-linecap="round"/><path d="M223.46813,186.08946l0.65322,-13.71759l3.52738,4.96446l7.18541,0.26128l-4.44189,5.74833l9.01442,1.82901" fill="none" stroke="#000000" stroke-width="1.5" stroke-linecap="round"/><path d="M231.82933,159.0462l5.22575,8.49185l10.32086,0.52257l3.78867,-3.65803l2.0903,7.70798l4.83382,-1.69837l0.26129,13.7176" fill="none" stroke="#000000" stroke-width="1.5" stroke-linecap="round"/><path d="M240.9744,177.46697l-4.1806,-9.92892l15.02403,12.28051l-2.87416,7.70798" fill="none" stroke="#000000" stroke-width="1.5" stroke-linecap="round"/><path d="M234.44221,147.15762c0,2.30888 -1.90096,4.1806 -4.24592,4.1806c-2.34496,0 -4.24592,-1.87172 -4.24592,-4.1806c0,-2.30888 1.90097,-4.1806 4.24593,-4.1806c2.34496,0 4.24592,1.87172 4.24592,4.1806z" fill="#463000" stroke="#6d4a00" stroke-width="1" stroke-linecap="butt"/><path d="M205.9974,145.88672c0,2.30888 -1.90096,4.1806 -4.24592,4.1806c-2.34496,0 -4.24592,-1.87172 -4.24592,-4.1806c0,-2.30888 1.90097,-4.1806 4.24593,-4.1806c2.34496,0 4.24592,1.87172 4.24592,4.1806z" fill="#463000" stroke="#6d4a00" stroke-width="1" stroke-linecap="butt"/><path d="M217.79088,166.0414c0,2.30888 -1.90096,4.1806 -4.24592,4.1806c-2.34496,0 -4.24592,-1.87172 -4.24592,-4.1806c0,-2.30888 1.90097,-4.1806 4.24593,-4.1806c2.34496,0 4.24592,1.87172 4.24592,4.1806z" fill="#463000" stroke="#6d4a00" stroke-width="1" stroke-linecap="butt"/><path d="M221.3538,161.5044c0,-2.30888 1.90097,-4.1806 4.24593,-4.1806c1.92791,0 3.55571,1.26515 4.07373,2.99826c-2.90299,0.22519 -5.34243,2.10316 -6.37844,4.69404c-1.16821,-0.74481 -1.94121,-2.03937 -1.94121,-3.5117z" fill="#463000" stroke="#6d4a00" stroke-width="1" stroke-linecap="butt"/><path d="M219.67946,149.50921c0,1.87597 -1.57926,3.39674 -3.52738,3.39674c-1.94812,0 -3.52738,-1.52077 -3.52738,-3.39674c0,-1.87597 1.57926,-3.39674 3.52738,-3.39674c1.94812,0 3.52738,1.52077 3.52738,3.39674z" fill="#463000" stroke="#6d4a00" stroke-width="1" stroke-linecap="butt"/><path d="M224.64393,135.26904c0,1.94812 -1.63775,3.52739 -3.65803,3.52739c-2.02027,0 -3.65802,-1.57927 -3.65802,-3.52739c0,-1.94812 1.63775,-3.52738 3.65802,-3.52738c2.02027,0 3.65803,1.57926 3.65803,3.52738z" fill="#463000" stroke="#6d4a00" stroke-width="1" stroke-linecap="butt"/><path d="M255.07999,138.38029l-7.79658,3.65923l-10.54971,3.53501l-1.06313,-2.9555l0.90711,-2.7922l-3.81626,-3.07971l2.24448,-2.2049l-2.98103,-4.69108l4.64524,-1.27826l-2.89639,-2.99482l7.9461,1.95798l11.35788,4.79627z" data-paper-data="{&quot;index&quot;:null}" fill="#ce00d2" stroke="#da0091" stroke-width="1" stroke-linecap="round"/><path d="M255.88498,131.63342l-8.12215,-2.86484l-10.84923,-2.46714l-0.76361,3.04666l1.18059,2.68802l-3.4907,3.44435l2.45285,1.97049l-2.49919,4.96455l4.74942,0.80944l-2.58383,3.26829l7.71168,-2.73935l10.82396,-5.9032z" fill="#fc00ff" stroke="#ff00a8" stroke-width="1" stroke-linecap="round"/><path d="M255.25135,139.90584c0,0 -1.00482,-1.78703 -1.06964,-3.08598c-0.04438,-0.88927 -0.32233,-2.5045 -0.18725,-4.00713c0.15758,-1.75285 0.73598,-3.34541 0.73598,-3.34541c0,0 2.95269,-0.93219 4.78874,-1.02382c1.3721,-0.06847 5.6368,-0.98832 8.5657,-1.02786c3.01916,-0.04076 6.6148,-0.81919 8.92448,-0.63161c2.56594,0.2084 3.68687,1.38752 3.68687,1.38752c0,0 1.92471,1.87193 1.98953,3.17087c0.04156,0.83277 0.46427,3.05379 0.1457,4.45534c-0.41845,1.84097 -1.61432,2.8123 -1.61432,2.8123c0,0 -17.88533,1.93898 -21.99927,2.14428c-1.5235,0.07602 -3.96653,-0.84851 -3.96653,-0.84851z" fill="#fc00ff" stroke="#ff00a8" stroke-width="1" stroke-linecap="butt"/></g></g></svg>