<svg version="1.1" xmlns="http://www.w3.org/2000/svg" xmlns:xlink="http://www.w3.org/1999/xlink" width="134.7935" height="109.89244" viewBox="0,0,134.7935,109.89244"><g transform="translate(-158.20923,-127.43412)"><g data-paper-data="{&quot;isPaintingLayer&quot;:true}" fill-rule="nonzero" stroke-linecap="butt" stroke-linejoin="miter" stroke-miterlimit="10" stroke-dasharray="" stroke-dashoffset="0" style="mix-blend-mode: normal"><path d="M160.5289,188.24682c0,0 -4.07199,-14.07367 0.90109,-16.88972c12.61178,-7.14154 76.89311,-22.37885 76.89311,-22.37885l4.648,15.77494l-46.29421,71.26857z" fill="#ff3e3e" stroke="#a00000" stroke-width="1.5"/><text transform="translate(177.05773,203.98878) rotate(-34.41376) scale(0.35639,0.35639)" font-size="40" xml:space="preserve" fill="#942222" fill-rule="nonzero" stroke="none" stroke-width="1" stroke-linecap="butt" stroke-linejoin="miter" stroke-miterlimit="10" stroke-dasharray="" stroke-dashoffset="0" font-family="Sans Serif" font-weight="normal" text-anchor="start" style="mix-blend-mode: normal"><tspan x="0" dy="0">Super bird</tspan></text><path d="M291.33935,148.67047c3.00828,13.61685 -4.49875,26.85272 -16.76739,29.56314c-12.26864,2.71042 -24.65303,-6.13098 -27.66131,-19.74783c-3.00827,-13.61685 4.49875,-26.85272 16.76739,-29.56314c12.26864,-2.71043 24.65303,6.13098 27.66131,19.74783zM272.8509,156.34586c-1.50434,1.14132 -2.4759,2.94834 -2.4759,4.98227c0,2.29389 1.23579,4.29915 3.07792,5.38635c0.77623,1.3584 2.08979,1.58151 3.51141,1.16208c2.54336,1.35362 4.27652,1.38585 7.41693,-1.1974c0.49005,-0.40311 1.41696,-0.44376 1.58392,-1.05595c1.05814,-3.87984 -0.39513,-6.69894 -3.21526,-8.66222c-0.04593,-0.05393 -0.09351,-0.10622 -0.14264,-0.15697c-1.14132,-1.50434 -2.94833,-2.4759 -4.98226,-2.4759c-1.54538,0 -2.95976,0.56088 -4.05068,1.49017c-0.02486,0.0135 -0.04962,0.02719 -0.07432,0.04108c-0.24214,0.13621 -0.45668,0.30021 -0.6491,0.48648zM260.60149,158.78953c2.59929,-0.57424 4.10279,-3.77209 3.35817,-7.1426c-0.74462,-3.37051 -3.4554,-5.63733 -6.05469,-5.06309c-2.59929,0.57424 -4.10279,3.7721 -3.35817,7.14261c0.74462,3.37051 3.4554,5.63733 6.05469,5.06309zM289.375,147.32813l-1.4,-3.8c-0.45925,-0.34443 -0.91849,-0.68887 -1.37774,-1.0333c-0.46917,-0.72303 -1.98167,-2.57511 -4.53751,-1.29719c-2.94521,1.4726 -1.73408,4.33065 -1.5804,4.66382c0.04882,0.13428 0.1052,0.26223 0.16655,0.38338c0.2089,0.69634 0.4178,1.39268 0.62671,2.08902c0,0 0.92372,3.07906 3.95149,2.45018c0.20227,0.02872 0.41889,0.0441 0.6509,0.0441c3.5,0 3.5,-3.5 3.5,-3.5z" fill="#00fffe" stroke="#00c1c1" stroke-width="2"/><path d="M239.16608,211.71852c0,0 -9.52615,-3.43947 -11.04714,-5.82267c-2.87347,-4.50236 -2.30438,-12.35319 -2.30438,-12.35319l50.98442,-2.36409l0.35587,1.22407c0,0 -3.35724,16.20182 -7.44693,17.7011c-8.95958,3.28458 -30.54184,1.61478 -30.54184,1.61478z" fill="#00ffff" stroke="#00c1c1" stroke-width="2.5"/></g></g></svg>