<svg version="1.1" xmlns="http://www.w3.org/2000/svg" xmlns:xlink="http://www.w3.org/1999/xlink" width="122.25187" height="132.64443" viewBox="0,0,122.25187,132.64443"><g transform="translate(-191.90406,-91.75521)"><g data-paper-data="{&quot;isPaintingLayer&quot;:true}" fill-rule="nonzero" stroke-linecap="butt" stroke-linejoin="miter" stroke-miterlimit="10" stroke-dasharray="" stroke-dashoffset="0" style="mix-blend-mode: normal"><path d="M194.40406,221.89964v-127.64443h117.25187v127.64443z" fill="#ffffff" stroke="#000000" stroke-width="5"/><path d="M207.98989,164.79943c0,0 -2.85769,-9.8768 0.63238,-11.85309c8.85086,-5.01188 53.96305,-15.70532 53.96305,-15.70532l3.26193,11.07074l-32.48896,50.01579z" fill="#ff3e3e" stroke="#a00000" stroke-width="1.5"/><text transform="translate(219.58971,175.84702) rotate(-34.41376) scale(0.25011,0.25011)" font-size="40" xml:space="preserve" fill="#942222" fill-rule="nonzero" stroke="none" stroke-width="1" stroke-linecap="butt" stroke-linejoin="miter" stroke-miterlimit="10" stroke-dasharray="" stroke-dashoffset="0" font-family="Sans Serif" font-weight="normal" text-anchor="start" style="mix-blend-mode: normal"><tspan x="0" dy="0">Super bird</tspan></text><path d="M299.79176,137.02502c2.11119,9.55621 -3.15719,18.84505 -11.76724,20.74721c-8.61005,1.90215 -17.30133,-4.30268 -19.41252,-13.85889c-2.11118,-9.55621 3.15719,-18.84505 11.76724,-20.74721c8.61005,-1.90216 17.30133,4.30268 19.41252,13.85889zM286.81669,142.41155c-1.05574,0.80097 -1.73757,2.06912 -1.73757,3.49652c0,1.60984 0.86727,3.01711 2.16006,3.7801c0.54475,0.95332 1.4666,1.10989 2.46428,0.81554c1.78491,0.94996 3.00123,0.97258 5.20515,-0.84033c0.34391,-0.2829 0.99441,-0.31143 1.11158,-0.74106c0.7426,-2.72284 -0.2773,-4.70127 -2.25645,-6.07909c-0.03223,-0.03785 -0.06562,-0.07454 -0.1001,-0.11016c-0.80097,-1.05574 -2.06912,-1.73757 -3.49652,-1.73757c-1.08454,0 -2.07714,0.39362 -2.84274,1.04579c-0.01745,0.00947 -0.03482,0.01908 -0.05216,0.02883c-0.16993,0.09559 -0.32049,0.21069 -0.45553,0.34141zM278.22014,144.1265c1.82416,-0.403 2.87931,-2.64723 2.35674,-5.01263c-0.52257,-2.3654 -2.42498,-3.95624 -4.24914,-3.55324c-1.82416,0.403 -2.87931,2.64723 -2.35674,5.01263c0.52257,2.3654 2.42498,3.95624 4.24914,3.55324zM298.41319,136.08297l-0.98251,-2.66681c-0.3223,-0.24172 -0.64459,-0.48344 -0.96689,-0.72516c-0.32926,-0.50742 -1.39072,-1.80719 -3.18439,-0.91036c-2.06693,1.03346 -1.21697,3.03922 -1.10911,3.27304c0.03426,0.09424 0.07383,0.18403 0.11688,0.26905c0.1466,0.48869 0.29321,0.97737 0.43982,1.46606c0,0 0.64826,2.16086 2.77313,1.71952c0.14195,0.02016 0.29397,0.03095 0.4568,0.03095c2.45628,0 2.45628,-2.45628 2.45628,-2.45628z" fill="#00fffe" stroke="#00c1c1" stroke-width="2"/><path d="M263.17692,181.2717c0,0 -6.68539,-2.4138 -7.75281,-4.08631c-2.01658,-3.15973 -1.6172,-8.66938 -1.6172,-8.66938l35.78051,-1.6591l0.24975,0.85904c0,0 -2.35609,11.37033 -5.2262,12.42251c-6.28777,2.3051 -21.43405,1.13324 -21.43405,1.13324z" fill="#00ffff" stroke="#00c1c1" stroke-width="2.5"/></g></g></svg>