<svg version="1.1" xmlns="http://www.w3.org/2000/svg" xmlns:xlink="http://www.w3.org/1999/xlink" width="122.25187" height="132.64443" viewBox="0,0,122.25187,132.64443"><g transform="translate(-191.4048,-91.75521)"><g data-paper-data="{&quot;isPaintingLayer&quot;:true}" fill-rule="nonzero" stroke-linejoin="miter" stroke-miterlimit="10" stroke-dasharray="" stroke-dashoffset="0" style="mix-blend-mode: normal"><path d="M193.9048,221.89964v-127.64443h117.25187v127.64443z" fill="#ffffff" stroke="#000000" stroke-width="5" stroke-linecap="butt"/><path d="M284.44914,136.95368l10.06766,-5.49073l7.17285,-2.54794l-2.4033,3.03993l4.41757,0.75288l-2.32457,4.61767l2.28146,1.83281l-3.24679,3.20369l1.0981,2.5002l-0.71026,2.83378l-10.09117,-2.29476l-7.55464,-2.66467z" data-paper-data="{&quot;index&quot;:null}" fill="#ce00d2" stroke="#da0091" stroke-width="1" stroke-linecap="round"/><path d="M281.78627,136.56681l7.25182,-3.40355l9.81258,-3.28801l0.98885,2.74899l-0.84373,2.5971l3.54961,2.86452l-2.08766,2.05085l2.77274,4.3633l-4.32066,1.18895l2.694,2.78556l-7.39088,-1.82117l-10.56428,-4.46114z" data-paper-data="{&quot;index&quot;:null}" fill="#fc00ff" stroke="#ff00a8" stroke-width="1" stroke-linecap="round"/><path d="M270.76625,200.19028l6.61959,-20.95433l4.56836,1.13103l-7.03168,21.65495z" fill="#ffffff" stroke="#c5c5c5" stroke-width="1.5" stroke-linecap="round"/><path d="M290.41075,182.63139c-4.17182,3.63961 -10.64674,3.04483 -14.46214,-1.32848c-3.8154,-4.37331 -3.52646,-10.86907 0.64536,-14.50868c4.17182,-3.63961 10.64674,-3.04483 14.46213,1.32848c3.8154,4.37331 3.52646,10.86907 -0.64536,14.50868z" fill="#ff67d6" stroke="#c200ff" stroke-width="1.5" stroke-linecap="butt"/><path d="M271.06656,172.9131l2.11073,-5.52218l22.20877,8.48878l-2.11072,5.52218z" fill="#ff67d6" stroke="#c200ff" stroke-width="1.5" stroke-linecap="butt"/><path d="M245.00836,158.4881c0,1.12962 -0.09468,2.23859 -0.27702,3.32036c-2.38235,0.05103 -4.78958,0.52321 -6.77167,1.13083c-0.99347,0.30456 -1.83331,0.96081 -2.5395,1.81887c-0.44814,0.30203 -0.86856,0.64206 -1.25663,1.01547c-3.70607,1.49214 -9.53772,7.202 -10.38867,11.03127c-0.09538,0.42918 0.05702,1.51737 0.33682,2.80142c-0.58896,0.04282 -1.18423,0.06463 -1.78496,0.06463c-12.52672,0 -22.68164,-9.48389 -22.68164,-21.18286c0,-11.69897 10.15492,-21.18286 22.68164,-21.18286c12.52672,0 22.68164,9.48389 22.68164,21.18286z" fill="#ffca66" stroke="#cea252" stroke-width="1.5" stroke-linecap="butt"/><path d="M227.8148,170.23219l0.97212,6.19729l-2.79486,4.61758" fill="none" stroke="#000000" stroke-width="1.5" stroke-linecap="round"/><path d="M228.54389,189.06708l0.60758,-12.75912l3.28091,4.61759l6.68335,0.24303l-4.13153,5.34668l8.38456,1.70122" fill="none" stroke="#000000" stroke-width="1.5" stroke-linecap="round"/><path d="M236.32088,163.91339l4.86062,7.8985l9.59972,0.48606l3.52395,-3.40243l1.94425,7.16941l4.49607,-1.5797l0.24303,12.75912" fill="none" stroke="#000000" stroke-width="1.5" stroke-linecap="round"/><path d="M244.82696,181.04706l-3.88849,-9.23517l13.97427,11.42245l-2.67334,7.16941" fill="none" stroke="#000000" stroke-width="1.5" stroke-linecap="round"/><path d="M238.75119,152.85549c0,2.14755 -1.76814,3.88849 -3.94925,3.88849c-2.18111,0 -3.94925,-1.74094 -3.94925,-3.88849c0,-2.14755 1.76814,-3.88849 3.94925,-3.88849c2.18111,0 3.94925,1.74094 3.94925,3.88849z" fill="#463000" stroke="#6d4a00" stroke-width="1" stroke-linecap="butt"/><path d="M212.29388,151.67339c0,2.14755 -1.76814,3.88849 -3.94925,3.88849c-2.18111,0 -3.94925,-1.74094 -3.94925,-3.88849c0,-2.14755 1.76814,-3.88849 3.94925,-3.88849c2.18111,0 3.94925,1.74094 3.94925,3.88849z" fill="#463000" stroke="#6d4a00" stroke-width="1" stroke-linecap="butt"/><path d="M223.26333,170.41981c0,2.14755 -1.76814,3.88849 -3.94925,3.88849c-2.18111,0 -3.94925,-1.74094 -3.94925,-3.88849c0,-2.14755 1.76814,-3.88849 3.94925,-3.88849c2.18111,0 3.94925,1.74094 3.94925,3.88849z" fill="#463000" stroke="#6d4a00" stroke-width="1" stroke-linecap="butt"/><path d="M226.57729,166.19983c0,-2.14755 1.76814,-3.88849 3.94925,-3.88849c1.7932,0 3.30726,1.17676 3.78909,2.78876c-2.70015,0.20946 -4.96915,1.95621 -5.93277,4.36606c-1.08658,-0.69277 -1.80557,-1.89687 -1.80557,-3.26633z" fill="#463000" stroke="#6d4a00" stroke-width="1" stroke-linecap="butt"/><path d="M225.01995,155.04276c0,1.74489 -1.46891,3.1594 -3.28091,3.1594c-1.812,0 -3.28091,-1.41452 -3.28091,-3.1594c0,-1.74489 1.46891,-3.1594 3.28091,-3.1594c1.812,0 3.28091,1.41451 3.28091,3.1594z" fill="#463000" stroke="#6d4a00" stroke-width="1" stroke-linecap="butt"/><path d="M229.63753,141.79759c0,1.812 -1.52332,3.28092 -3.40243,3.28092c-1.87911,0 -3.40243,-1.46892 -3.40243,-3.28092c0,-1.812 1.52332,-3.28091 3.40243,-3.28091c1.87911,0 3.40243,1.46891 3.40243,3.28091z" fill="#463000" stroke="#6d4a00" stroke-width="1" stroke-linecap="butt"/><path d="M257.94696,144.69145l-7.25182,3.40355l-9.81258,3.28801l-0.98885,-2.74899l0.84373,-2.5971l-3.54961,-2.86453l2.08766,-2.05084l-2.77274,-4.3633l4.32067,-1.18895l-2.69401,-2.78556l7.39088,1.82117l10.56428,4.46114z" data-paper-data="{&quot;index&quot;:null}" fill="#ce00d2" stroke="#da0091" stroke-width="1" stroke-linecap="round"/><path d="M257.40262,144.19886l-10.06766,5.49073l-7.17285,2.54794l2.4033,-3.03993l-4.41757,-0.75288l2.32457,-4.61767l-2.28146,-1.83281l3.24679,-3.20369l-1.0981,-2.5002l0.71025,-2.83378l10.09117,2.29476l7.55464,2.66467z" fill="#fc00ff" stroke="#ff00a8" stroke-width="1" stroke-linecap="round"/><path d="M258.10635,146.11041c0,0 -0.93462,-1.66217 -0.99491,-2.87035c-0.04127,-0.82714 -0.2998,-2.32951 -0.17416,-3.72714c0.14656,-1.63037 0.68456,-3.11166 0.68456,-3.11166c0,0 2.74637,-0.86706 4.45414,-0.95228c1.27623,-0.06369 5.24294,-0.91926 7.9672,-0.95605c2.80821,-0.03792 6.1526,-0.76196 8.3009,-0.58748c2.38666,0.19384 3.42926,1.29057 3.42926,1.29057c0,0 1.79023,1.74113 1.85052,2.94932c0.03866,0.77459 0.43184,2.84041 0.13552,4.14403c-0.38921,1.71233 -1.50152,2.6158 -1.50152,2.6158c0,0 -16.63564,1.8035 -20.46213,1.99445c-1.41705,0.07071 -3.68938,-0.78922 -3.68938,-0.78922z" fill="#fc00ff" stroke="#ff00a8" stroke-width="1" stroke-linecap="butt"/></g></g></svg>