<svg version="1.1" xmlns="http://www.w3.org/2000/svg" xmlns:xlink="http://www.w3.org/1999/xlink" width="134.0044" height="114.68261" viewBox="0,0,134.0044,114.68261"><g transform="translate(-175.30247,-104.0493)"><g data-paper-data="{&quot;isPaintingLayer&quot;:true}" fill-rule="nonzero" stroke-linejoin="miter" stroke-miterlimit="10" stroke-dasharray="" stroke-dashoffset="0" style="mix-blend-mode: normal"><path d="M219.58866,210.94241c-2.23492,4.72862 -4.74097,8.33948 -8.43959,6.59137c-3.69862,-1.7481 -2.75184,-6.57185 -0.51692,-11.30047c2.23492,-4.72862 4.91165,-7.57147 8.61027,-5.82336c3.69862,1.7481 2.58116,5.80384 0.34624,10.53246z" fill="#ffffff" stroke="#c9c9c9" stroke-width="1.5" stroke-linecap="butt"/><path d="M296.87071,144.26071c0,15.0691 -13.01352,27.28502 -29.06652,27.28502c-16.05299,0 -29.06652,-12.21592 -29.06652,-27.28502c0,-15.0691 13.01352,-27.28502 29.06652,-27.28502c16.05299,0 29.06652,12.21592 29.06652,27.28502z" fill="#ffffff" stroke="#c9c9c9" stroke-width="1.5" stroke-linecap="butt"/><path d="M289.77164,175.89594c0,21.48562 -28.87567,36.62296 -51.76414,36.62296c-22.88846,0 -30.28224,-9.13681 -30.28224,-30.62243c0,-21.48562 18.19473,-36.62296 41.08319,-36.62296c22.88846,0 40.96318,9.13681 40.96318,30.62243z" fill="#ffffff" stroke="#c9c9c9" stroke-width="1.5" stroke-linecap="butt"/><path d="M264.37991,133.79237c0,-2.84989 2.3103,-5.16019 5.16019,-5.16019c2.84989,0 5.16019,2.3103 5.16019,5.16019c0,2.84989 -2.3103,5.16019 -5.16019,5.16019c-2.84989,0 -5.16019,-2.3103 -5.16019,-5.16019z" fill="#000000" stroke="none" stroke-width="0.5" stroke-linecap="butt"/><path d="M288.50205,149.75378c0,-1.65685 1.34315,-3 3,-3c1.65685,0 3,1.34315 3,3c0,1.65685 -1.34315,3 -3,3c-1.65685,0 -3,-1.34315 -3,-3z" fill="#000000" stroke="none" stroke-width="0.5" stroke-linecap="butt"/><path d="M282.02147,147.47358c0,-1.65685 1.34315,-3 3,-3c1.65685,0 3,1.34315 3,3c0,1.65685 -1.34315,3 -3,3c-1.65685,0 -3,-1.34315 -3,-3z" fill="#000000" stroke="none" stroke-width="0.5" stroke-linecap="butt"/><path d="M234.82975,166.78734l7.21119,-23.84873l5.63488,2.43118l-6.12017,22.34858z" fill="#006aa2" stroke="#030058" stroke-width="1.5" stroke-linecap="butt"/><path d="M275.5409,144.59332c0,-1.65685 1.34315,-3 3,-3c1.65685,0 3,1.34315 3,3c0,1.65685 -1.34315,3 -3,3c-1.65685,0 -3,-1.34315 -3,-3z" fill="#000000" stroke="none" stroke-width="0.5" stroke-linecap="butt"/><path d="M292.58214,136.79263l13.08116,4.44039l-13.44119,3.12028z" fill="#ffab00" stroke="#ff9900" stroke-width="2" stroke-linecap="round"/><path d="M235.18542,143.96479l2.80907,-4.95476l57.91584,21.38572l-2.37613,4.72164z" fill="#006aa2" stroke="#030058" stroke-width="1.5" stroke-linecap="butt"/><path d="M295.81125,123.86806c-0.49879,6.80148 -9.38088,1.27918 -23.04742,0.27694c-13.66654,-1.00225 -24.45468,0.53181 -23.95589,-6.26968c0.49879,-6.80148 12.85833,-13.98415 26.52486,-12.98191c13.66654,1.00225 20.97725,12.17315 20.47845,18.97464z" fill="#ff1818" stroke="#800000" stroke-width="1.5" stroke-linecap="butt"/><path d="M247.13084,123.90481l0.22941,-3.12828l49.5084,3.63073l-0.22941,3.12828z" fill="#ff1818" stroke="#800000" stroke-width="1.5" stroke-linecap="butt"/><path d="M249.599,123.81233l0.19949,-2.72024" fill="none" stroke="#800000" stroke-width="1.5" stroke-linecap="round"/><path d="M252.7708,121.58356l-0.16957,2.3122" fill="none" stroke="#800000" stroke-width="1.5" stroke-linecap="round"/><path d="M255.62705,121.79304l-0.13964,1.90417" fill="none" stroke="#800000" stroke-width="1.5" stroke-linecap="round"/><path d="M258.35727,121.85649l-0.15959,2.1762" fill="none" stroke="#800000" stroke-width="1.5" stroke-linecap="round"/><path d="M261.28607,124.80615l0.48148,-2.8363" fill="none" stroke="#800000" stroke-width="1.5" stroke-linecap="round"/><path d="M264.87225,124.38545l0.13964,-1.90417" fill="none" stroke="#800000" stroke-width="1.5" stroke-linecap="round"/><path d="M268.52463,124.92676l0.16957,-2.3122" fill="none" stroke="#800000" stroke-width="1.5" stroke-linecap="round"/><path d="M271.76896,125.4382l0.20947,-2.85626" fill="none" stroke="#800000" stroke-width="1.5" stroke-linecap="round"/><path d="M275.42134,125.97951l0.20947,-2.85625" fill="none" stroke="#800000" stroke-width="1.5" stroke-linecap="round"/><path d="M278.57954,125.8009l0.16957,-2.3122" fill="none" stroke="#800000" stroke-width="1.5" stroke-linecap="round"/><path d="M281.59177,125.74832l0.45156,-2.42828" fill="none" stroke="#800000" stroke-width="1.5" stroke-linecap="round"/><path d="M285.01564,123.81151l-0.34548,2.84627" fill="none" stroke="#800000" stroke-width="1.5" stroke-linecap="round"/><path d="M288.68797,124.08082l-0.20947,2.85625" fill="none" stroke="#800000" stroke-width="1.5" stroke-linecap="round"/><path d="M293.18634,124.27397l-0.49147,2.97231" fill="none" stroke="#800000" stroke-width="1.5" stroke-linecap="round"/><path d="M294.77495,126.85186l0.42165,-2.02023" fill="none" stroke="#800000" stroke-width="1.5" stroke-linecap="round"/><path d="M229.91561,151.77927l-38.13271,11.20908l-13.44921,-8.54314" fill="none" stroke="#211500" stroke-width="1.5" stroke-linecap="round"/><path d="M176.05247,168.89637l15.72296,-5.50556l-4.87339,15.28875" fill="none" stroke="#211500" stroke-width="1.5" stroke-linecap="round"/><path d="M199.70694,161.20297l-4.14971,-2.00949" fill="none" stroke="#211500" stroke-width="1.5" stroke-linecap="round"/><path d="M203.50928,164.57484l0.82453,-5.3795" fill="none" stroke="#211500" stroke-width="1.5" stroke-linecap="round"/><path d="M211.66305,159.08983l-0.11766,-2.33725" fill="none" stroke="#211500" stroke-width="1.5" stroke-linecap="round"/><path d="M215.20432,210.36753c-0.23234,-0.21886 -1.27812,0.25725 -1.70723,-0.09485c-3.35297,-2.75119 -0.58736,-11.13601 4.04661,-7.16403c0.04799,-0.00287 0.09635,-0.00433 0.14506,-0.00433c1.32007,0 2.3902,1.07013 2.3902,2.3902c0,0.23555 -0.03407,0.46314 -0.09756,0.67811c-0.06309,0.21364 -0.15523,0.41481 -0.27184,0.59895c-0.0178,2.0614 -1.36536,6.55361 -4.50523,3.59595z" fill="#ffffff" stroke="none" stroke-width="0.5" stroke-linecap="butt"/></g></g></svg>