<svg version="1.1" xmlns="http://www.w3.org/2000/svg" xmlns:xlink="http://www.w3.org/1999/xlink" width="122.25187" height="132.64443" viewBox="0,0,122.25187,132.64443"><g transform="translate(-191.90406,-91.75522)"><g data-paper-data="{&quot;isPaintingLayer&quot;:true}" fill-rule="nonzero" stroke-linecap="butt" stroke-linejoin="miter" stroke-miterlimit="10" stroke-dasharray="" stroke-dashoffset="0" style="mix-blend-mode: normal"><path d="M194.40406,221.89966v-127.64443h117.25187v127.64443z" fill="#ffffff" stroke="#000000" stroke-width="5"/><path d="M293.11801,164.93634c0,21.41542 -17.14563,38.77604 -38.29585,38.77604c-21.15021,0 -38.29585,-17.36063 -38.29585,-38.77604c0,-21.41542 17.14563,-38.77604 38.29585,-38.77604c21.15021,0 38.29585,17.36063 38.29585,38.77604z" fill="#ffffff" stroke="#9c9c9c" stroke-width="3"/><path d="M246.56313,158.888c0,3.84904 -2.91225,6.9693 -6.50468,6.9693c-3.59243,0 -6.50468,-3.12026 -6.50468,-6.9693c0,-3.84904 2.91225,-6.9693 6.50468,-6.9693c3.59243,0 6.50468,3.12026 6.50468,6.9693z" fill="#000000" stroke="#000000" stroke-width="2"/><path d="M276.3925,158.61001c0,3.84904 -2.91224,6.9693 -6.50468,6.9693c-3.59243,0 -6.50468,-3.12026 -6.50468,-6.9693c0,-3.84904 2.91225,-6.9693 6.50468,-6.9693c3.59243,0 6.50468,3.12026 6.50468,6.9693z" fill="#000000" stroke="#000000" stroke-width="2"/><path d="M227.51293,177.37988c0,-2.20721 1.7893,-3.99651 3.99651,-3.99651c2.20721,0 3.99651,1.7893 3.99651,3.99651c0,2.20721 -1.7893,3.99651 -3.99651,3.99651c-2.20721,0 -3.99651,-1.7893 -3.99651,-3.99651z" fill="#000000" stroke="none" stroke-width="0.5"/><path d="M235.1327,181.65438c0,-2.20721 1.7893,-3.99651 3.99651,-3.99651c2.20721,0 3.99651,1.7893 3.99651,3.99651c0,2.20721 -1.7893,3.99651 -3.99651,3.99651c-2.20721,0 -3.99651,-1.7893 -3.99651,-3.99651z" fill="#000000" stroke="none" stroke-width="0.5"/><path d="M244.23925,184.8138c0,-2.20721 1.7893,-3.99651 3.99651,-3.99651c2.20721,0 3.99651,1.7893 3.99651,3.99651c0,2.20721 -1.7893,3.99651 -3.99651,3.99651c-2.20721,0 -3.99651,-1.7893 -3.99651,-3.99651z" fill="#000000" stroke="none" stroke-width="0.5"/><path d="M252.78826,185.18549c0,-2.20721 1.7893,-3.99651 3.99651,-3.99651c2.20721,0 3.99651,1.7893 3.99651,3.99651c0,2.20721 -1.7893,3.99651 -3.99651,3.99651c-2.20721,0 -3.99651,-1.7893 -3.99651,-3.99651z" fill="#000000" stroke="none" stroke-width="0.5"/><path d="M262.6382,182.95532c0,-2.20721 1.7893,-3.99651 3.99651,-3.99651c2.20721,0 3.99651,1.7893 3.99651,3.99651c0,2.20721 -1.7893,3.99651 -3.99651,3.99651c-2.20721,0 -3.99651,-1.7893 -3.99651,-3.99651z" fill="#000000" stroke="none" stroke-width="0.5"/><path d="M272.30229,176.26479c0,-2.20721 1.7893,-3.99651 3.99651,-3.99651c2.20721,0 3.99651,1.7893 3.99651,3.99651c0,2.20721 -1.7893,3.99651 -3.99651,3.99651c-2.20721,0 -3.99651,-1.7893 -3.99651,-3.99651z" fill="#000000" stroke="none" stroke-width="0.5"/><path d="M267.56395,172.54783c0,2.05282 -4.90921,3.71696 -10.96503,3.71696c-6.05582,0 -10.96503,-1.66414 -10.96503,-3.71696c0,-2.05282 4.90921,-3.71696 10.96503,-3.71696c6.05582,0 10.96503,1.66414 10.96503,3.71696z" fill="#ffb900" stroke="#906200" stroke-width="2"/></g></g></svg>