<svg version="1.1" xmlns="http://www.w3.org/2000/svg" xmlns:xlink="http://www.w3.org/1999/xlink" width="87.63466" height="81.42046" viewBox="0,0,87.63466,81.42046"><defs><linearGradient x1="291.87513" y1="145.88857" x2="290.29074" y2="134.29589" gradientUnits="userSpaceOnUse" id="color-1"><stop offset="0" stop-color="#cb9400"/><stop offset="1" stop-color="#cb9400" stop-opacity="0"/></linearGradient><linearGradient x1="259.75393" y1="148.05412" x2="258.16953" y2="136.46144" gradientUnits="userSpaceOnUse" id="color-2"><stop offset="0" stop-color="#cb9400"/><stop offset="1" stop-color="#cb9400" stop-opacity="0"/></linearGradient></defs><g transform="translate(-212.61772,-132.7434)"><g data-paper-data="{&quot;isPaintingLayer&quot;:true}" fill-rule="nonzero" stroke-linejoin="miter" stroke-miterlimit="10" stroke-dasharray="" stroke-dashoffset="0" style="mix-blend-mode: normal"><path d="M219.08431,158.07148c0,0 -1.17883,-5.39375 -0.92717,-7.82165c0.1078,-1.04003 1.74717,-3.15876 3.34809,-4.62404c1.49851,-1.37156 4.86207,-2.71163 4.86207,-2.71163" fill="none" stroke="#a8a8a8" stroke-width="1.5" stroke-linecap="round"/><path d="M213.77555,192.48497l18.66685,-33.85343c0,0 21.85191,13.86677 31.37293,17.25931c8.7672,3.12394 23.67845,2.3567 23.67845,2.3567c0,0 -11.49333,25.67716 -20.436,30.30631c-3.82325,1.9791 -11.51022,4.64677 -19.74885,4.60961c-11.12448,-0.05018 -22.77621,-3.2772 -22.77621,-3.2772z" fill="#ffffff" stroke="#000000" stroke-width="2" stroke-linecap="butt"/><path d="M220.65086,192.59303l-6.59069,-35.27615l11.19829,-2.09219l6.59069,35.27615z" fill="#ff1c1c" stroke="#a91313" stroke-width="1" stroke-linecap="butt"/><text transform="translate(227.01094,186.01748) rotate(-100.72318) scale(0.1399,0.1399)" font-size="40" xml:space="preserve" fill="#cb9400" fill-rule="nonzero" stroke="none" stroke-width="1" stroke-linecap="butt" stroke-linejoin="miter" stroke-miterlimit="10" stroke-dasharray="" stroke-dashoffset="0" font-family="Sans Serif" font-weight="normal" text-anchor="start" style="mix-blend-mode: normal"><tspan x="0" dy="0">NEW YEAR</tspan></text><text transform="translate(236.29523,193.25051) rotate(19.09707) scale(0.34603,0.34603)" font-size="40" xml:space="preserve" fill="#ff8800" fill-rule="nonzero" stroke="none" stroke-width="1" stroke-linecap="butt" stroke-linejoin="miter" stroke-miterlimit="10" stroke-dasharray="" stroke-dashoffset="0" font-family="Sans Serif" font-weight="normal" text-anchor="start" style="mix-blend-mode: normal"><tspan x="0" dy="0">2025</tspan></text><text transform="translate(244.80605,185.3825) rotate(16.26299) scale(0.13146,0.13146)" font-size="40" xml:space="preserve" fill="#ff8800" fill-rule="nonzero" stroke="none" stroke-width="1" stroke-linecap="butt" stroke-linejoin="miter" stroke-miterlimit="10" stroke-dasharray="" stroke-dashoffset="0" font-family="Sans Serif" font-weight="normal" text-anchor="start" style="mix-blend-mode: normal"><tspan x="0" dy="0">welcome</tspan></text><path d="M287.11621,135.77878c0,0 0.17485,0.49385 0.6985,3.13023c0.43458,2.18796 1.52937,5.79797 1.52937,5.79797l-0.19019,0.81953l-3.43108,1.25117c0,0 -1.35525,-0.68943 -1.42611,-1.03924c-0.13632,-0.67303 -1.47864,-2.87309 -1.47864,-2.87309l-0.41789,-5.34151l2.71678,-3.3709z" fill="url(#color-1)" stroke="#8c4400" stroke-width="2" stroke-linecap="butt"/><path d="M267.73124,141.15323l14.52631,-1.49836" fill="none" stroke="#8c4400" stroke-width="2" stroke-linecap="round"/><path d="M251.26857,149.21383l-1.56805,-11.47317l6.91538,-1.06688l7.54559,-0.90952l3.06511,3.7204l0.41789,5.34152l-1.91495,2.41125z" data-paper-data="{&quot;index&quot;:null}" fill="url(#color-2)" stroke="#8c4400" stroke-width="2" stroke-linecap="butt"/><path d="M291.09659,169.07128c0,0 -0.76854,-5.46732 -0.33442,-7.86931c0.18596,-1.02893 1.98051,-3.01793 3.68742,-4.35826c1.59772,-1.2546 5.05279,-2.33709 5.05279,-2.33709" data-paper-data="{&quot;index&quot;:null}" fill="none" stroke="#a8a8a8" stroke-width="1.5" stroke-linecap="round"/><path d="M270.83455,197.63591l15.02924,-32.58782l10.34489,4.77098l-15.02924,32.58782z" data-paper-data="{&quot;index&quot;:null}" fill="#ff1c1c" stroke="#a91313" stroke-width="1" stroke-linecap="butt"/><text transform="translate(278.82176,196.63601) rotate(-63.7093) scale(0.1399,0.1399)" font-size="40" xml:space="preserve" data-paper-data="{&quot;index&quot;:null}" fill="#cb9400" fill-rule="nonzero" stroke="none" stroke-width="1" stroke-linecap="butt" stroke-linejoin="miter" stroke-miterlimit="10" stroke-dasharray="" stroke-dashoffset="0" font-family="Sans Serif" font-weight="normal" text-anchor="start" style="mix-blend-mode: normal"><tspan x="0" dy="0">NEW YEAR</tspan></text></g></g></svg>