<svg version="1.1" xmlns="http://www.w3.org/2000/svg" xmlns:xlink="http://www.w3.org/1999/xlink" width="80.26173" height="111.48535" viewBox="0,0,80.26173,111.48535"><g transform="translate(-210.88063,-124.85696)"><g data-paper-data="{&quot;isPaintingLayer&quot;:true}" fill-rule="nonzero" stroke-linejoin="miter" stroke-miterlimit="10" stroke-dasharray="" stroke-dashoffset="0" style="mix-blend-mode: normal"><path d="M289.29836,143.03301c0,6.81975 -9.2622,1.96187 -22.96544,1.96187c-13.70324,0 -24.35029,2.31898 -24.35029,-4.50077c0,-6.81975 11.8011,-14.88715 25.50433,-14.88715c13.70324,0 21.8114,10.60629 21.8114,17.42604z" fill="#ff1818" stroke="#800000" stroke-width="1.5" stroke-linecap="butt"/><path d="M240.75101,146.63011v-3.13668h49.64135v3.13668z" fill="#ff1818" stroke="#800000" stroke-width="1.5" stroke-linecap="butt"/><path d="M243.2058,143.62982v2.72755" fill="none" stroke="#800000" stroke-width="1.5" stroke-linecap="round"/><path d="M246.2061,143.90258v2.31841" fill="none" stroke="#800000" stroke-width="1.5" stroke-linecap="round"/><path d="M249.07002,143.9026v1.90928" fill="none" stroke="#800000" stroke-width="1.5" stroke-linecap="round"/><path d="M251.79757,145.94824v-2.18204" fill="none" stroke="#800000" stroke-width="1.5" stroke-linecap="round"/><path d="M255.207,143.62982l-0.27275,2.86392" fill="none" stroke="#800000" stroke-width="1.5" stroke-linecap="round"/><path d="M258.48006,143.9026v1.90928" fill="none" stroke="#800000" stroke-width="1.5" stroke-linecap="round"/><path d="M262.16225,143.76619v2.31841" fill="none" stroke="#800000" stroke-width="1.5" stroke-linecap="round"/><path d="M265.4353,146.35739v-2.86393" fill="none" stroke="#800000" stroke-width="1.5" stroke-linecap="round"/><path d="M269.11749,143.76619v2.86392" fill="none" stroke="#800000" stroke-width="1.5" stroke-linecap="round"/><path d="M272.25417,146.221v-2.31841" fill="none" stroke="#800000" stroke-width="1.5" stroke-linecap="round"/><path d="M275.52723,143.49345l-0.27275,2.4548" fill="none" stroke="#800000" stroke-width="1.5" stroke-linecap="round"/><path d="M278.52753,143.76619l-0.13638,2.86392" fill="none" stroke="#800000" stroke-width="1.5" stroke-linecap="round"/><path d="M282.20972,143.76619v2.86392" fill="none" stroke="#800000" stroke-width="1.5" stroke-linecap="round"/><path d="M261.846,206.75595l11.20273,-6.26325c0,0 9.36877,3.03401 13.23384,4.28569c3.01338,0.97586 3.13324,13.3428 3.13324,13.3428l-2.38016,9.12037c0,0 -3.88438,-3.23372 -6.56357,-5.04478c-4.81556,-3.25518 -18.62606,-15.44083 -18.62606,-15.44083z" fill="#f8ff00" stroke="#9b9100" stroke-width="1.5" stroke-linecap="butt"/><path d="M286.71017,143.62982l-0.27276,3.0003" fill="none" stroke="#800000" stroke-width="1.5" stroke-linecap="round"/><path d="M288.48307,146.08461l0.27276,-2.04566" fill="none" stroke="#800000" stroke-width="1.5" stroke-linecap="round"/><path d="M211.70263,202.95398c0,0 2.16818,-15.95185 5.54693,-23.2049c3.43905,-7.3825 14.90967,-20.7086 14.90967,-20.7086l53.45992,16.77441c0,0 0.30092,5.17447 -2.48626,10.88818c-4.0362,8.2742 -12.30416,18.42732 -18.5798,21.88826c-8.98536,4.95532 -38.53084,0.0905 -38.53084,0.0905z" fill="#001b35" stroke="#000000" stroke-width="1.5" stroke-linecap="butt"/><path d="M277.70926,174.04197l-24.00241,36.00362" fill="none" stroke="#000000" stroke-width="0.5" stroke-linecap="round"/><path d="M276.34549,181.13361v-6.68249h2.96156v6.68249z" fill="none" stroke="#797979" stroke-width="1.5" stroke-linecap="butt"/><path d="M279.07923,178.47578h-2.58187" fill="none" stroke="#797979" stroke-width="1.5" stroke-linecap="round"/><path d="M227.5091,184.06887l7.21119,-23.84873l5.63488,2.43118l-6.12017,22.34858z" fill="#006aa2" stroke="#030058" stroke-width="1.5" stroke-linecap="butt"/><path d="M276.5733,177.94424h2.35406" fill="none" stroke="#797979" stroke-width="1.5" stroke-linecap="round"/><path d="M227.48019,163.05494l2.33127,-5.1967l59.66847,15.85141l-1.92214,4.92395z" fill="#006aa2" stroke="#030058" stroke-width="1.5" stroke-linecap="butt"/><path d="M231.2139,211.51173l11.89398,-4.82315c0,0 8.91933,4.17429 12.59898,5.89638c2.86882,1.34262 1.45155,13.62867 1.45155,13.62867l-3.49465,8.75408c0,0 -3.45262,-3.69119 -5.88609,-5.82103c-4.37391,-3.82816 -16.56376,-17.63495 -16.56376,-17.63495z" fill="#f8ff00" stroke="#9b9100" stroke-width="1.5" stroke-linecap="butt"/></g></g></svg>