<svg version="1.1" xmlns="http://www.w3.org/2000/svg" xmlns:xlink="http://www.w3.org/1999/xlink" width="140.48351" height="92.14812" viewBox="0,0,140.48351,92.14812"><g transform="translate(-158.79564,-152.83464)"><g data-paper-data="{&quot;isPaintingLayer&quot;:true}" fill-rule="nonzero" stroke-linejoin="miter" stroke-miterlimit="10" stroke-dasharray="" stroke-dashoffset="0" style="mix-blend-mode: normal"><path d="M159.43176,205.92285l75.80543,-51.06148l50.11479,27.63255l-107.72423,61.7862z" fill="#ff0000" stroke="#790000" stroke-width="1" stroke-linecap="butt"/><path d="M285.61601,181.15867c0,13.96159 -23.77687,32.17415 -38.30256,32.17415c-3.57637,0 -10.56703,-3.9336 -19.67744,-2.66452c-5.80615,0.8088 -8.42855,6.12886 -10.18758,4.35904c-2.31931,-2.33353 -11.77998,-7.03759 -8.143,-13.81845c6.85565,-12.78183 7.36598,-14.09468 7.36598,-19.53952c0,-7.7572 9.06873,-28.52711 23.47841,-27.9799c11.52519,0.43767 31.60596,20.57474 38.06103,20.57474c14.52569,0 7.40516,-7.06713 7.40516,6.89446z" fill="#006aff" stroke="#004ed4" stroke-width="1" stroke-linecap="butt"/><path d="M223.23585,213.0093c0,0 -7.15222,-3.51343 -9.10731,-5.85157c-1.9007,-2.27308 -2.46467,-7.9876 -2.46467,-7.9876l2.28415,-6.8826c0,0 4.61971,5.09287 7.17931,8.02412c2.64254,3.02623 8.43503,9.8574 8.43503,9.8574z" fill="#ff0000" stroke="#790000" stroke-width="1" stroke-linecap="butt"/><path d="M229.69137,210.09239l-15.90819,-18.82414l1.03607,-4.194l21.08745,23.62443z" fill="#dbff66" stroke="#9fb300" stroke-width="1" stroke-linecap="butt"/><path d="M214.69578,194.26911l3.22845,-3.39095l3.06161,2.78388l-3.22845,3.39095z" fill="#ff0000" stroke="#8a0000" stroke-width="1" stroke-linecap="butt"/><path d="M223.99077,203.94308l3.22845,-3.39095l3.06161,2.78387l-3.22845,3.39095z" fill="#ff0000" stroke="#8a0000" stroke-width="1" stroke-linecap="butt"/><path d="M234.89429,153.54457l7.425,-0.19778l0.42786,4.12926l-7.42499,0.19778z" fill="#ff0000" stroke="#8a0000" stroke-width="1" stroke-linecap="butt"/><path d="M280.69677,171.93486l7.425,-0.19778l0.42785,4.12926l-7.42499,0.19779z" fill="#ff0000" stroke="#8a0000" stroke-width="1" stroke-linecap="butt"/><path d="M262.65863,202.87861l-2.66807,-24.6016l20.47902,7.95068l-10.40013,9.9272z" fill="#e8ff00" stroke="#ff0000" stroke-width="2" stroke-linecap="butt"/><text transform="translate(260.05259,194.03097) rotate(24.68295) scale(0.53606,0.53606)" font-size="40" xml:space="preserve" fill="#ff0000" fill-rule="nonzero" stroke="#ff0000" stroke-width="2" stroke-linecap="butt" stroke-linejoin="miter" stroke-miterlimit="10" stroke-dasharray="" stroke-dashoffset="0" font-family="Serif" font-weight="normal" text-anchor="start" style="mix-blend-mode: normal"><tspan x="0" dy="0">S</tspan></text><path d="M230.17241,225.80088l8.6801,-11.20796c0,0 -0.46371,-2.88821 1.50238,-3.46779c2.06137,-0.60766 6.57416,1.09598 7.35058,1.27765c1.7233,0.40321 0.94691,4.48313 0.94691,4.48313c0,0 7.16527,1.44376 9.19507,4.02473c1.88133,2.39218 4.44974,13.50166 4.44974,13.50166c0,0 -0.97483,5.18651 -2.13568,5.40331c-1.44202,0.26931 -12.08652,-5.23678 -16.49836,-5.23693c-7.55306,-0.00027 -13.49074,-8.7778 -13.49074,-8.7778z" fill="#ff0000" stroke="#790000" stroke-width="1" stroke-linecap="butt"/><path d="M263.11821,233.43619c0,6.56378 -3.59128,9.76249 -11.88477,3.39565c-2.79367,-2.14468 -7.18968,-1.29609 -10.75605,-2.1659c-5.6913,-1.38806 -10.25453,-4.19809 -10.25453,-8.23328c0,-6.56378 7.19916,-3.18342 16.34156,-3.18342c9.1424,0 16.55379,3.62317 16.55379,10.18695z" fill="#790000" stroke="#790000" stroke-width="1" stroke-linecap="butt"/><path d="M234.46743,224.31038l-0.84891,5.51793" fill="none" stroke="#5f0000" stroke-width="1" stroke-linecap="round"/><path d="M239.5609,224.73484l-1.69782,6.7913" fill="none" stroke="#5f0000" stroke-width="1" stroke-linecap="round"/><path d="M244.22992,224.52261l-1.4856,8.27689" fill="none" stroke="#5f0000" stroke-width="1" stroke-linecap="round"/><path d="M247.83779,224.94707l-1.27337,9.12581" fill="none" stroke="#5f0000" stroke-width="1" stroke-linecap="round"/><path d="M253.14349,226.22043l-1.27337,8.06467" fill="none" stroke="#5f0000" stroke-width="1" stroke-linecap="round"/><path d="M256.53914,227.28158l-1.69782,8.27689" fill="none" stroke="#5f0000" stroke-width="1" stroke-linecap="round"/><path d="M258.66142,228.9794l-1.91005,7.21575" fill="none" stroke="#5f0000" stroke-width="1" stroke-linecap="round"/><path d="M259.93479,237.25629l1.4856,-6.15461" fill="none" stroke="#5f0000" stroke-width="1" stroke-linecap="round"/><path d="M269.27511,225.24484l-3.76645,-13.66661c0,0 -2.58961,-1.36042 -1.87476,-3.28147c0.7495,-2.01414 4.81854,-4.60461 5.42942,-5.11711c1.35587,-1.13752 4.1558,1.92987 4.1558,1.92987c0,0 5.45127,-4.86921 8.73388,-4.94642c3.0425,-0.07156 13.47388,4.53317 13.47388,4.53317c0,0 3.56664,3.88964 3.04419,4.94871c-0.64898,1.31559 -11.43744,6.53397 -14.08257,10.06493c-4.52845,6.04499 -15.11339,5.53492 -15.11339,5.53492z" fill="#ff0000" stroke="#790000" stroke-width="1" stroke-linecap="butt"/><path d="M295.13786,203.45397c5.25337,3.93514 5.66042,8.72715 -4.40747,11.54784c-3.39138,0.95015 -5.34771,4.97728 -8.18199,7.31018c-4.52301,3.7229 -9.5078,5.69044 -12.73739,3.27125c-5.25337,-3.93514 1.76818,-7.67043 7.24926,-14.98763c5.48108,-7.31719 12.82421,-11.07678 18.07758,-7.14164z" fill="#790000" stroke="#790000" stroke-width="1" stroke-linecap="butt"/><path d="M278.4681,222.52199l-4.41758,-5.43041" fill="none" stroke="#5f0000" stroke-width="1" stroke-linecap="round"/><path d="M276.67984,213.22746l5.73383,6.1512" fill="none" stroke="#5f0000" stroke-width="1" stroke-linecap="round"/><path d="M279.18256,210.59434l6.5405,6.49028" fill="none" stroke="#5f0000" stroke-width="1" stroke-linecap="round"/><path d="M283.3826,207.11129l5.6912,5.8541" fill="none" stroke="#5f0000" stroke-width="1" stroke-linecap="round"/><path d="M286.26766,205.02974l5.60659,6.32106" fill="none" stroke="#5f0000" stroke-width="1" stroke-linecap="round"/><path d="M288.89889,204.34904l4.63006,5.85474" fill="none" stroke="#5f0000" stroke-width="1" stroke-linecap="round"/><path d="M292.25153,203.41324l4.03524,4.87884" fill="none" stroke="#5f0000" stroke-width="1" stroke-linecap="round"/></g></g></svg>