<svg version="1.1" xmlns="http://www.w3.org/2000/svg" xmlns:xlink="http://www.w3.org/1999/xlink" width="51.1727" height="50.56348" viewBox="0,0,51.1727,50.56348"><defs><linearGradient x1="215.91365" y1="179.54564" x2="267.08635" y2="179.54564" gradientUnits="userSpaceOnUse" id="color-1"><stop offset="0" stop-color="#c6a41a"/><stop offset="1" stop-color="#9d7d14"/></linearGradient><linearGradient x1="217.95376" y1="179.54564" x2="265.04624" y2="179.54564" gradientUnits="userSpaceOnUse" id="color-2"><stop offset="0" stop-color="#ffd322"/><stop offset="1" stop-color="#d2a61b"/></linearGradient></defs><g transform="translate(-215.91365,-154.2639)"><g data-paper-data="{&quot;isPaintingLayer&quot;:true}" fill-rule="nonzero" stroke-linejoin="miter" stroke-miterlimit="10" stroke-dasharray="" stroke-dashoffset="0" style="mix-blend-mode: normal"><path d="M267.08635,179.54564c0,13.96272 -11.4554,25.28174 -25.58635,25.28174c-14.13095,0 -25.58635,-11.31902 -25.58635,-25.28174c0,-13.96272 11.4554,-25.28174 25.58635,-25.28174c14.13095,0 25.58635,11.31902 25.58635,25.28174z" fill="url(#color-1)" stroke="none" stroke-width="0" stroke-linecap="butt"/><path d="M265.04624,179.54564c0,12.84942 -10.54201,23.26592 -23.54624,23.26592c-13.00423,0 -23.54624,-10.41651 -23.54624,-23.26592c0,-12.84942 10.54201,-23.26592 23.54624,-23.26592c13.00423,0 23.54624,10.41651 23.54624,23.26592z" fill="url(#color-2)" stroke="none" stroke-width="0" stroke-linecap="butt"/><text transform="translate(236.48473,170.7527) scale(0.34572,0.34572)" font-size="40" xml:space="preserve" fill="#8a7012" fill-rule="nonzero" stroke="none" stroke-width="1" stroke-linecap="butt" stroke-linejoin="miter" stroke-miterlimit="10" stroke-dasharray="" stroke-dashoffset="0" font-family="Sans Serif" font-weight="normal" text-anchor="start" style="mix-blend-mode: normal"><tspan x="0" dy="0">B</tspan></text><path d="M237.83248,172.78356c0.42683,0.00578 0.86167,0.05028 1.28282,0.02855c1.6576,0.35879 3.51082,0.73443 5.1077,1.30863c2.31737,0.83327 3.62604,2.22658 5.17709,4.01534c0.45574,0.52559 1.09849,0.92638 1.38703,1.55938c0.91184,2.0004 0.13794,4.6593 -0.12436,6.73333c-0.23972,1.89542 -0.5867,3.72941 -0.84952,5.60604c-0.09736,0.69517 0.195,2.131 0.18436,2.66541c-0.00198,0.0997 -0.08132,0.18832 -0.14419,0.27689l0.32781,0.27317c0.51243,0.42093 0.83928,1.05948 0.83928,1.77438c0,1.26756 -1.02756,2.29512 -2.29512,2.29512h-1.53008v-0.12295l-0.28043,0.10575c-2.99427,-0.72495 -5.92142,-1.85066 -8.966,-2.39912c-0.97312,-0.1753 -2.00503,0.07016 -2.96063,-0.18382c-2.34328,-0.6228 -2.43966,-1.11864 -4.06764,-2.7221c-0.82192,-1.41273 -2.05339,-2.30393 -2.89341,-3.6625c-0.231,-0.3736 -0.10596,-0.88784 -0.29515,-1.28426c-0.27387,-0.57384 -1.30989,-0.34568 -1.71449,-0.83618c-0.88473,-1.07257 -2.20026,-2.18712 -2.14645,-3.57645c0.0359,-0.92687 2.07267,-1.41122 2.72271,-2.33092c0.33391,-0.47244 0.08422,-0.75882 0.11893,-1.39034c0.05407,-0.98363 0.32369,-3.00987 0.70548,-3.86797c1.52357,-3.42434 4.97124,-4.22024 8.27639,-4.88601c0,0 1.31735,-0.26347 2.13787,0.62062z" fill="#c3a21a" stroke="none" stroke-width="0.5" stroke-linecap="butt"/><path d="M246.97568,188.91733l1.49925,-2.42647l3.76016,9.21163l-7.43679,-5.42034z" fill="#9a7a15" stroke="#997a14" stroke-width="0.5" stroke-linecap="round"/><path d="M244.13514,184.61403c0,1.78397 -1.37008,3.23017 -3.06016,3.23017c-1.69008,0 -3.06016,-1.4462 -3.06016,-3.23017c0,-1.78397 1.37008,-3.23017 3.06016,-3.23017c1.69008,0 3.06016,1.4462 3.06016,3.23017z" fill="#9a7a15" stroke="#997a14" stroke-width="0.5" stroke-linecap="butt"/></g></g></svg>