<svg version="1.1" xmlns="http://www.w3.org/2000/svg" xmlns:xlink="http://www.w3.org/1999/xlink" width="122.25187" height="132.64443" viewBox="0,0,122.25187,132.64443"><g transform="translate(-191.90406,-91.75521)"><g data-paper-data="{&quot;isPaintingLayer&quot;:true}" fill-rule="nonzero" stroke-linejoin="miter" stroke-miterlimit="10" stroke-dasharray="" stroke-dashoffset="0" style="mix-blend-mode: normal"><path d="M194.40406,221.89964v-127.64443h117.25187v127.64443z" fill="#ffffff" stroke="#000000" stroke-width="5" stroke-linecap="butt"/><path d="M290.66292,123.79673c0,6.81975 -9.2622,1.96187 -22.96544,1.96187c-13.70324,0 -24.35029,2.31898 -24.35029,-4.50077c0,-6.81975 11.8011,-14.88715 25.50433,-14.88715c13.70324,0 21.8114,10.60629 21.8114,17.42604z" fill="#ff1818" stroke="#800000" stroke-width="1.5" stroke-linecap="butt"/><path d="M242.11557,127.39383v-3.13668h49.64135v3.13668z" fill="#ff1818" stroke="#800000" stroke-width="1.5" stroke-linecap="butt"/><path d="M244.57036,124.39354v2.72755" fill="none" stroke="#800000" stroke-width="1.5" stroke-linecap="round"/><path d="M247.57066,124.6663v2.31841" fill="none" stroke="#800000" stroke-width="1.5" stroke-linecap="round"/><path d="M250.43458,124.66631v1.90928" fill="none" stroke="#800000" stroke-width="1.5" stroke-linecap="round"/><path d="M253.16213,126.71195v-2.18204" fill="none" stroke="#800000" stroke-width="1.5" stroke-linecap="round"/><path d="M256.57156,124.39354l-0.27275,2.86392" fill="none" stroke="#800000" stroke-width="1.5" stroke-linecap="round"/><path d="M259.84462,126.57559v-1.90928" fill="none" stroke="#800000" stroke-width="1.5" stroke-linecap="round"/><path d="M263.52681,126.84832v-2.31841" fill="none" stroke="#800000" stroke-width="1.5" stroke-linecap="round"/><path d="M266.79986,124.25717v2.86393" fill="none" stroke="#800000" stroke-width="1.5" stroke-linecap="round"/><path d="M270.48205,124.52991v2.86392" fill="none" stroke="#800000" stroke-width="1.5" stroke-linecap="round"/><path d="M273.61873,124.6663v2.31841" fill="none" stroke="#800000" stroke-width="1.5" stroke-linecap="round"/><path d="M276.89179,124.25716l-0.27275,2.4548" fill="none" stroke="#800000" stroke-width="1.5" stroke-linecap="round"/><path d="M279.75571,127.39383l0.13638,-2.86392" fill="none" stroke="#800000" stroke-width="1.5" stroke-linecap="round"/><path d="M283.57428,124.52991v2.86392" fill="none" stroke="#800000" stroke-width="1.5" stroke-linecap="round"/><path d="M262.11707,192.12711l8.72815,-9.41004c0,0 9.8478,0 13.91049,0c3.16745,0 7.09162,11.72845 7.09162,11.72845l0.54551,9.41003c0,0 -4.69171,-1.87968 -7.79855,-2.77721c-5.58421,-1.61321 -22.47721,-8.95124 -22.47721,-8.95124z" fill="#f8ff00" stroke="#9b9100" stroke-width="1.5" stroke-linecap="butt"/><path d="M288.07473,124.39354l-0.27276,3.0003" fill="none" stroke="#800000" stroke-width="1.5" stroke-linecap="round"/><path d="M289.84763,126.84833l0.27276,-2.04566" fill="none" stroke="#800000" stroke-width="1.5" stroke-linecap="round"/><path d="M213.06719,183.71769c0,0 2.16818,-15.95185 5.54693,-23.2049c3.43905,-7.3825 14.90967,-20.7086 14.90967,-20.7086l53.45992,16.77441c0,0 0.30092,5.17447 -2.48626,10.88818c-4.0362,8.2742 -12.30416,18.42732 -18.5798,21.88826c-8.98536,4.95532 -38.53084,0.0905 -38.53084,0.0905z" fill="#001b35" stroke="#000000" stroke-width="1.5" stroke-linecap="butt"/><path d="M279.07382,154.80569l-24.00241,36.00362" fill="none" stroke="#000000" stroke-width="0.5" stroke-linecap="round"/><path d="M277.71005,161.89732v-6.68249h2.96156v6.68249z" fill="none" stroke="#797979" stroke-width="1.5" stroke-linecap="butt"/><path d="M277.86192,159.2395h2.58187" fill="none" stroke="#797979" stroke-width="1.5" stroke-linecap="round"/><path d="M228.87366,164.83258l7.21119,-23.84873l5.63488,2.43118l-6.12017,22.34858z" fill="#006aa2" stroke="#030058" stroke-width="1.5" stroke-linecap="butt"/><path d="M280.29192,158.70795h-2.35406" fill="none" stroke="#797979" stroke-width="1.5" stroke-linecap="round"/><path d="M228.84475,143.81866l2.33127,-5.1967l59.66847,15.85141l-1.92214,4.92395z" fill="#006aa2" stroke="#030058" stroke-width="1.5" stroke-linecap="butt"/><path d="M230.65987,198.58281l8.72815,-9.41004c0,0 9.8478,0 13.91049,0c3.16745,0 7.09162,11.72845 7.09162,11.72845l0.54551,9.41004c0,0 -4.69172,-1.87968 -7.79856,-2.77721c-5.58421,-1.61322 -22.47721,-8.95124 -22.47721,-8.95124z" fill="#f8ff00" stroke="#9b9100" stroke-width="1.5" stroke-linecap="butt"/></g></g></svg>