<svg version="1.1" xmlns="http://www.w3.org/2000/svg" xmlns:xlink="http://www.w3.org/1999/xlink" width="93.14151" height="119.71559" viewBox="0,0,93.14151,119.71559"><g transform="translate(-206.71631,-98.71185)"><g data-paper-data="{&quot;isPaintingLayer&quot;:true}" fill-rule="nonzero" stroke-linecap="butt" stroke-linejoin="miter" stroke-miterlimit="10" stroke-dasharray="" stroke-dashoffset="0" style="mix-blend-mode: normal"><path d="M298.85781,128.61118c0,9.10844 -12.50058,11.65051 -28.2941,11.65051c-15.79353,0 -27.9915,-2.84468 -27.9915,-11.95312c0,-9.10844 12.80319,-13.76879 28.59672,-13.76879c15.79353,0 27.68889,4.96296 27.68889,14.0714z" fill="#101010" stroke="#000000" stroke-width="2"/><path d="M250.13747,131.78859l6.65743,-32.07674h29.35325l4.53916,31.77413c0,0 -12.32701,-4.12424 -19.35908,-4.07176c-6.43072,0.04799 -21.19076,4.37437 -21.19076,4.37437z" fill="#101010" stroke="#000000" stroke-width="2"/><path d="M209.46568,196.16514c0,0 3.70261,-23.23596 8.70317,-29.48665c3.76631,-4.70789 19.20837,-14.29615 19.20837,-14.29615c0,0 14.9076,10.54468 22.81181,12.07312c8.55415,1.65411 26.71749,-2.49562 26.71749,-2.49562c0,0 -1.68427,33.71102 -9.45986,42.82882c-7.54122,8.84297 -31.03923,11.07875 -31.03923,11.07875z" fill="#ffffff" stroke="#bfbfbf" stroke-width="5"/><path d="M248.32292,201.22752c0,0.98234 -1.16388,1.77868 -2.5996,1.77868c-1.43572,0 -2.5996,-0.79634 -2.5996,-1.77868c0,-0.98234 1.16388,-1.77868 2.5996,-1.77868c1.43572,0 2.5996,0.79634 2.5996,1.77868z" fill="#ababab" stroke="#bfbfbf" stroke-width="5"/><path d="M253.24848,182.07254c0,0.83121 -1.22514,1.50503 -2.73643,1.50503c-1.51129,0 -2.73643,-0.67383 -2.73643,-1.50503c0,-0.83121 1.22514,-1.50503 2.73643,-1.50503c1.51129,0 2.73643,0.67383 2.73643,1.50503z" fill="#ababab" stroke="#bfbfbf" stroke-width="5"/><path d="M241.93152,164.86233l3.52826,-10.42941l11.98628,8.47132l-0.7326,1.32127z" fill="#000000" stroke="#bfbfbf" stroke-width="0"/><path d="M264.46782,162.78075c0,3.02257 -2.14399,5.47285 -4.78874,5.47285c-2.64475,0 -4.78874,-2.45028 -4.78874,-5.47285c0,-3.02257 2.14399,-5.47285 4.78874,-5.47285c2.64475,0 4.78874,2.45028 4.78874,5.47285z" fill="#000000" stroke="none" stroke-width="0"/><path d="M262.70495,165.39111l-0.42625,-1.44941l13.54747,-5.64804l1.16452,10.94829z" data-paper-data="{&quot;index&quot;:null}" fill="#000000" stroke="#bfbfbf" stroke-width="0"/></g></g></svg>