<svg version="1.1" xmlns="http://www.w3.org/2000/svg" xmlns:xlink="http://www.w3.org/1999/xlink" width="134.59143" height="126.1691" viewBox="0,0,134.59143,126.1691"><defs><linearGradient x1="209.05834" y1="101.85544" x2="227.95232" y2="181.75686" gradientUnits="userSpaceOnUse" id="color-1"><stop offset="0" stop-color="#ffffff"/><stop offset="1" stop-color="#d1d1d1"/></linearGradient><linearGradient x1="195.98844" y1="129.90266" x2="239.50082" y2="199.52948" gradientUnits="userSpaceOnUse" id="color-2"><stop offset="0" stop-color="#ffffff"/><stop offset="1" stop-color="#d1d1d1"/></linearGradient></defs><g transform="translate(-166.43188,-78.18281)"><g data-paper-data="{&quot;isPaintingLayer&quot;:true}" fill-rule="nonzero" stroke-width="6" stroke-linecap="round" stroke-linejoin="miter" stroke-miterlimit="10" stroke-dasharray="" stroke-dashoffset="0" style="mix-blend-mode: normal"><path d="M213.49317,185.17596l-40.83776,-49.86755l-0.21215,-7.19627l3.06297,-2.79469l10.22228,-0.86442l9.26545,4.53787l-9.01394,-9.77337l0.71516,-3.27473l2.12582,-3.60829l6.7055,-3.13843l8.33813,0.61632l8.42454,10.43035l-5.47748,-13.71524l5.53652,-4.93242l9.75862,-2.82519l5.51684,1.28347l2.96457,28.28472l1.02571,-27.15788l5.77819,-7.05997c0,0 11.04052,-14.26807 17.07322,-12.83649c6.0327,1.43159 -1.35378,19.47142 -1.35378,19.47142l-5.2675,31.26653l-7.95684,29.02367z" data-paper-data="{&quot;index&quot;:null}" fill="url(#color-1)" stroke="#000000"/><path d="M214.90099,200.40358l-42.66933,-27.14321l-2.508,-6.74842l2.00534,-3.62915l9.40561,-4.09596l10.2312,1.32793l-11.67142,-6.36772l-0.37243,-3.33116l0.85682,-4.09936l5.34542,-5.1225l8.09562,-2.08934l11.32374,7.17898l-9.58535,-11.23529l3.663,-6.44703l8.33782,-5.8046l5.63712,-0.55293l11.8759,25.84139l-7.73499,-26.05326l3.20984,-8.53977c0,0 5.88357,-17.05445 12.0568,-17.63246c6.17324,-0.578 4.96003,18.87768 4.96003,18.87768l5.0343,31.30493l0.76786,27.04263l-15.94321,12.50989z" data-paper-data="{&quot;index&quot;:null}" fill="url(#color-2)" stroke="#000000"/><path d="M226.5,122.8125l15,-6l53,6l-5,5l-51,-1z" fill="none" stroke="#ffc500"/></g></g></svg>