<svg version="1.1" xmlns="http://www.w3.org/2000/svg" xmlns:xlink="http://www.w3.org/1999/xlink" width="122.25187" height="132.64443" viewBox="0,0,122.25187,132.64443"><g transform="translate(-191.90406,-91.75521)"><g data-paper-data="{&quot;isPaintingLayer&quot;:true}" fill-rule="nonzero" stroke="#000000" stroke-linecap="butt" stroke-linejoin="miter" stroke-miterlimit="10" stroke-dasharray="" stroke-dashoffset="0" style="mix-blend-mode: normal"><path d="M194.40406,221.89964v-127.64443h117.25187v127.64443z" fill="#66ff76" stroke-width="5"/><path d="M297.82648,162.73577c11.16472,22.95162 -12.25435,12.03177 -44.12646,12.03177c-31.87211,0 -60.53115,7.07581 -42.78276,-11.26601c20.69267,-21.38455 13.88169,-18.6234 45.7538,-18.6234c31.8721,0 28.73982,-7.66544 41.15542,17.85765z" fill="#ffffff" stroke-width="4.5"/><path d="M266.73329,146.20551c0,2.35972 -3.98028,4.27265 -8.89019,4.27265c-4.90991,0 -8.89018,-1.91292 -8.89018,-4.27265c0,-2.35972 3.98027,-4.27266 8.89018,-4.27266c4.90991,0 8.89019,1.91293 8.89019,4.27266z" fill="#e5e5e5" stroke-width="3"/></g></g></svg>