<svg version="1.1" xmlns="http://www.w3.org/2000/svg" xmlns:xlink="http://www.w3.org/1999/xlink" width="130.30696" height="93.17205" viewBox="0,0,130.30696,93.17205"><g transform="translate(-158.79563,-152.83463)"><g data-paper-data="{&quot;isPaintingLayer&quot;:true}" fill-rule="nonzero" stroke-linejoin="miter" stroke-miterlimit="10" stroke-dasharray="" stroke-dashoffset="0" style="mix-blend-mode: normal"><path d="M159.43176,205.92285l75.80543,-51.06148l50.11479,27.63255l-107.72423,61.7862z" fill="#ff0000" stroke="#790000" stroke-width="1" stroke-linecap="butt"/><path d="M285.616,181.15867c0,13.96159 -23.77687,32.17415 -38.30256,32.17415c-3.57637,0 -10.56703,-3.9336 -19.67744,-2.66452c-5.80615,0.8088 -8.42855,6.12886 -10.18758,4.35904c-2.31931,-2.33353 -11.77998,-7.03759 -8.143,-13.81845c6.85565,-12.78183 7.36598,-14.09468 7.36598,-19.53952c0,-7.7572 9.06873,-28.52711 23.47841,-27.9799c11.52519,0.43767 31.60596,20.57474 38.06103,20.57474c14.52569,0 7.40516,-7.06713 7.40516,6.89446z" fill="#006aff" stroke="#004ed4" stroke-width="1" stroke-linecap="butt"/><path d="M223.23585,213.0093c0,0 -7.15222,-3.51343 -9.10731,-5.85157c-1.9007,-2.27308 -2.46467,-7.9876 -2.46467,-7.9876l2.28415,-6.8826c0,0 4.61971,5.09287 7.17931,8.02412c2.64254,3.02623 8.43503,9.8574 8.43503,9.8574z" fill="#ff0000" stroke="#790000" stroke-width="1" stroke-linecap="butt"/><path d="M229.69137,210.09239l-15.90819,-18.82414l1.03607,-4.194l21.08745,23.62443z" fill="#dbff66" stroke="#9fb300" stroke-width="1" stroke-linecap="butt"/><path d="M214.69578,194.26911l3.22845,-3.39095l3.06161,2.78388l-3.22845,3.39095z" fill="#ff0000" stroke="#8a0000" stroke-width="1" stroke-linecap="butt"/><path d="M223.99077,203.94308l3.22845,-3.39095l3.06161,2.78387l-3.22845,3.39095z" fill="#ff0000" stroke="#8a0000" stroke-width="1" stroke-linecap="butt"/><path d="M234.89429,153.54457l7.425,-0.19778l0.42786,4.12926l-7.42499,0.19778z" fill="#ff0000" stroke="#8a0000" stroke-width="1" stroke-linecap="butt"/><path d="M280.69677,171.93486l7.425,-0.19778l0.42785,4.12926l-7.42499,0.19779z" fill="#ff0000" stroke="#8a0000" stroke-width="1" stroke-linecap="butt"/><path d="M262.65862,202.87861l-2.66807,-24.6016l20.47902,7.95068l-10.40013,9.9272z" fill="#e8ff00" stroke="#ff0000" stroke-width="2" stroke-linecap="butt"/><text transform="translate(260.05259,194.03097) rotate(24.68283) scale(0.53606,0.53606)" font-size="40" xml:space="preserve" fill="#ff0000" fill-rule="nonzero" stroke="#ff0000" stroke-width="2" stroke-linecap="butt" stroke-linejoin="miter" stroke-miterlimit="10" stroke-dasharray="" stroke-dashoffset="0" font-family="Serif" font-weight="normal" text-anchor="start" style="mix-blend-mode: normal"><tspan x="0" dy="0">S</tspan></text><path d="M234.22305,212.19363l14.16224,0.62745c0,0 2.09209,-2.04449 3.69944,-0.77255c1.68524,1.33359 2.89603,6.00282 3.19538,6.74188c0.66445,1.64038 -3.11639,3.35904 -3.11639,3.35904c0,0 2.95281,6.68629 2.0149,9.833c-0.8693,2.91654 -8.46395,11.42176 -8.46395,11.42176c0,0 -4.79931,2.19473 -5.6459,1.3714c-1.05164,-1.02275 -2.69224,-12.89417 -5.23648,-16.4985c-4.35571,-6.17062 -0.60923,-16.08349 -0.60923,-16.08349z" fill="#ff0000" stroke="#790000" stroke-width="1" stroke-linecap="butt"/><path d="M246.98558,243.51202c-5.36227,3.7854 -10.04659,2.69624 -9.62814,-7.75094c0.14095,-3.51915 -3.08752,-6.62107 -4.4337,-10.03624c-2.14826,-5.45001 -2.48427,-10.79851 0.81227,-13.12565c5.36227,-3.7854 6.75252,4.04543 12.02503,11.51431c5.27252,7.46888 6.5868,15.61311 1.22452,19.39852z" fill="#790000" stroke="#790000" stroke-width="1" stroke-linecap="butt"/><path d="M237.91769,214.84286l-4.99744,2.48873" fill="none" stroke="#5f0000" stroke-width="1" stroke-linecap="round"/><path d="M233.9811,221.77834l6.52729,-2.52958" fill="none" stroke="#5f0000" stroke-width="1" stroke-linecap="round"/><path d="M243.37444,222.94071l-7.61856,3.5597" fill="none" stroke="#5f0000" stroke-width="1" stroke-linecap="round"/><path d="M236.91869,230.35561l8.18968,-4.22268" fill="none" stroke="#5f0000" stroke-width="1" stroke-linecap="round"/><path d="M247.12796,231.20178l-7.32279,3.6107" fill="none" stroke="#5f0000" stroke-width="1" stroke-linecap="round"/><path d="M240.47842,237.97417l7.74095,-3.38634" fill="none" stroke="#5f0000" stroke-width="1" stroke-linecap="round"/><path d="M241.05983,239.90176l6.99644,-2.60098" fill="none" stroke="#5f0000" stroke-width="1" stroke-linecap="round"/><path d="M247.91361,240.77866l-5.88476,2.33577" fill="none" stroke="#5f0000" stroke-width="1" stroke-linecap="round"/><path d="M261.84318,203.69346l13.89652,-2.80159c0,0 1.53817,-2.48815 3.40453,-1.64071c1.9568,0.88851 4.2564,5.12872 4.72493,5.77394c1.03992,1.43209 -2.21574,4.01068 -2.21574,4.01068c0,0 4.47611,5.77841 4.32359,9.05838c-0.14136,3.04005 -5.46423,13.12392 -5.46423,13.12392c0,0 -4.12951,3.28593 -5.14946,2.6907c-1.26699,-0.73938 -5.71822,-11.86633 -9.05557,-14.75189c-5.71354,-4.94006 -4.46457,-15.46342 -4.46457,-15.46342z" fill="#ff0000" stroke="#790000" stroke-width="1" stroke-linecap="butt"/><path d="M281.77226,231.01664c-4.29285,4.96535 -9.1016,5.03632 -11.21139,-5.20416c-0.71068,-3.44951 -4.59116,-5.68265 -6.72016,-8.67313c-3.39752,-4.77226 -5.01168,-9.88243 -2.37258,-12.93495c4.29285,-4.96535 7.52802,2.3002 14.44404,8.27953c6.91601,5.97932 10.15293,13.56736 5.86008,18.53271z" fill="#790000" stroke="#790000" stroke-width="1" stroke-linecap="butt"/><path d="M269.64257,209.02729l-5.72602,4.02705" fill="none" stroke="#5f0000" stroke-width="1" stroke-linecap="round"/><path d="M273.31338,211.92038l-6.53708,5.28967" fill="none" stroke="#5f0000" stroke-width="1" stroke-linecap="round"/><path d="M275.76504,214.60109l-6.93173,6.07066" fill="none" stroke="#5f0000" stroke-width="1" stroke-linecap="round"/><path d="M272.70816,224.30233l6.23772,-5.26792" fill="none" stroke="#5f0000" stroke-width="1" stroke-linecap="round"/><path d="M274.12297,227.20882l6.69763,-5.15086" fill="none" stroke="#5f0000" stroke-width="1" stroke-linecap="round"/><path d="M281.31565,224.73035l-6.16417,4.20934" fill="none" stroke="#5f0000" stroke-width="1" stroke-linecap="round"/><path d="M282.01472,228.14022l-5.14906,3.68421" fill="none" stroke="#5f0000" stroke-width="1" stroke-linecap="round"/></g></g></svg>