<svg version="1.1" xmlns="http://www.w3.org/2000/svg" xmlns:xlink="http://www.w3.org/1999/xlink" width="122.25187" height="132.64443" viewBox="0,0,122.25187,132.64443"><g transform="translate(-191.90406,-91.75521)"><g data-paper-data="{&quot;isPaintingLayer&quot;:true}" fill-rule="nonzero" stroke-linejoin="miter" stroke-miterlimit="10" stroke-dasharray="" stroke-dashoffset="0" style="mix-blend-mode: normal"><path d="M194.40406,221.89964v-127.64443h117.25187v127.64443z" fill="#66ff76" stroke="#000000" stroke-width="5" stroke-linecap="butt"/><path d="M305.15011,161.87205c0,25.85959 -22.35573,46.82292 -49.93292,46.82292c-27.57719,0 -49.93293,-20.96333 -49.93293,-46.82292c0,-25.85959 22.35574,-46.82292 49.93293,-46.82292c27.57719,0 49.93292,20.96334 49.93292,46.82292z" fill="#ffc98c" stroke="#d8984f" stroke-width="7" stroke-linecap="butt"/><path d="M233.96545,127.83472l62.8913,27.29897" fill="none" stroke="#744918" stroke-width="3" stroke-linecap="round"/><path d="M221.87097,135.43696l76.02245,33.86455" fill="none" stroke="#744918" stroke-width="3" stroke-linecap="round"/><path d="M214.95984,144.42144l76.36801,38.70234" fill="none" stroke="#744918" stroke-width="3" stroke-linecap="round"/><path d="M212.19538,157.20703l67.03798,35.93788" fill="none" stroke="#744918" stroke-width="3" stroke-linecap="round"/><path d="M213.92317,174.13931l47.68682,26.95342" fill="none" stroke="#744918" stroke-width="3" stroke-linecap="round"/><path d="M247.0966,121.26914l44.23125,17.27784" fill="none" stroke="#744918" stroke-width="3" stroke-linecap="round"/><path d="M257.4633,119.54137l-47.34126,50.45126" fill="none" stroke="#744918" stroke-width="3" stroke-linecap="round"/><path d="M274.74113,123.34249l-54.59794,63.58241" fill="none" stroke="#744918" stroke-width="3" stroke-linecap="round"/><path d="M284.76227,132.67251l-52.87016,62.20019" fill="none" stroke="#744918" stroke-width="3" stroke-linecap="round"/><path d="M294.09229,133.70919l-50.1057,68.07465" fill="none" stroke="#744918" stroke-width="3" stroke-linecap="round"/><path d="M298.58453,147.87701l-43.54013,54.9435" fill="none" stroke="#744918" stroke-width="3" stroke-linecap="round"/><path d="M298.93009,161.35371l-28.68121,39.39345" fill="none" stroke="#744918" stroke-width="3" stroke-linecap="round"/><path d="M247.0966,117.46803l-40.08456,40.77567" fill="none" stroke="#744918" stroke-width="3" stroke-linecap="round"/></g></g></svg>