<svg version="1.1" xmlns="http://www.w3.org/2000/svg" xmlns:xlink="http://www.w3.org/1999/xlink" width="81.46032" height="116.41961" viewBox="0,0,81.46032,116.41961"><defs><radialGradient cx="222.42604" cy="172.00471" r="12.7712" gradientUnits="userSpaceOnUse" id="color-1"><stop offset="0" stop-color="#ffd153"/><stop offset="1" stop-color="#ffd153" stop-opacity="0"/></radialGradient><radialGradient cx="224.456" cy="204.13113" r="12.7712" gradientUnits="userSpaceOnUse" id="color-2"><stop offset="0" stop-color="#ffd153"/><stop offset="1" stop-color="#ffd153" stop-opacity="0"/></radialGradient><radialGradient cx="261.7305" cy="195.66692" r="12.7712" gradientUnits="userSpaceOnUse" id="color-3"><stop offset="0" stop-color="#ffd153"/><stop offset="1" stop-color="#ffd153" stop-opacity="0"/></radialGradient><radialGradient cx="256.03833" cy="168.39242" r="12.77119" gradientUnits="userSpaceOnUse" id="color-4"><stop offset="0" stop-color="#ffd153"/><stop offset="1" stop-color="#ffd153" stop-opacity="0"/></radialGradient><radialGradient cx="242.03004" cy="114.1895" r="12.7712" gradientUnits="userSpaceOnUse" id="color-5"><stop offset="0" stop-color="#ffd153"/><stop offset="1" stop-color="#ffd153" stop-opacity="0"/></radialGradient><radialGradient cx="241.08995" cy="129.68366" r="12.7712" gradientUnits="userSpaceOnUse" id="color-6"><stop offset="0" stop-color="#ffd153"/><stop offset="1" stop-color="#ffd153" stop-opacity="0"/></radialGradient><radialGradient cx="249.654" cy="139.83174" r="12.77119" gradientUnits="userSpaceOnUse" id="color-7"><stop offset="0" stop-color="#ffd153"/><stop offset="1" stop-color="#ffd153" stop-opacity="0"/></radialGradient><radialGradient cx="259.01007" cy="138.69365" r="12.7712" gradientUnits="userSpaceOnUse" id="color-8"><stop offset="0" stop-color="#ffd153"/><stop offset="1" stop-color="#ffd153" stop-opacity="0"/></radialGradient></defs><g transform="translate(-206.05642,-102.50732)"><g data-paper-data="{&quot;isPaintingLayer&quot;:true}" fill-rule="nonzero" stroke-linejoin="miter" stroke-miterlimit="10" stroke-dasharray="" stroke-dashoffset="0" style="mix-blend-mode: normal"><path d="M245.16872,107.47799c5.75223,-3.48442 -11.68887,8.79267 -2.907,23.29016c8.78187,14.49749 30.9126,0.02593 25.16037,3.51035c-5.75223,3.48442 -22.91171,15.87063 -31.69358,1.37314c-8.78187,-14.49749 3.68798,-24.68923 9.44021,-28.17365z" fill="#ffd153" stroke="#f3a400" stroke-width="1" stroke-linecap="butt"/><path d="M211.04087,202.29917c0,0 3.8308,-19.3769 6.93458,-24.74779c4.16801,-7.21248 17.6178,-22.37694 17.6178,-22.37694l51.28279,22.96836c0,0 -9.98386,25.26838 -19.78999,31.23107c-7.69567,4.67942 -43.17498,0.25142 -43.17498,0.25142c0,0 -9.61068,10.02228 -11.97317,8.67748c-0.61798,-0.35177 -5.26384,-0.73294 -5.38148,-3.3611c-0.08484,-1.89541 2.41339,-3.72971 3.29701,-5.9506c1.30277,-3.27438 1.18744,-6.69189 1.18744,-6.69189z" fill="#014c76" stroke="#013c5f" stroke-width="1" stroke-linecap="butt"/><path d="M219.47684,169.4873l4.05953,-6.90646l1.6376,7.35442l5.7923,-1.37506l-4.19408,3.71659l3.52297,5.43131l-7.35934,-1.97562l-6.278,3.26371l1.68518,-5.50351l-5.0818,-2.75996z" fill="#ffd153" stroke="#f3a400" stroke-width="1" stroke-linecap="round"/><path d="M260.28496,192.73133l5.52556,-5.80062l-0.08011,7.5341l5.95324,-0.01996l-4.9302,2.66391l2.19364,6.09084l-6.71612,-3.59951l-6.85625,1.7484l2.89411,-4.97519l-4.31983,-3.84463z" fill="#ffd153" stroke="#f3a400" stroke-width="1" stroke-linecap="round"/><path d="M252.44519,165.62709l4.05954,-6.90645l1.63759,7.35441l5.7923,-1.37505l-4.19408,3.71658l3.52296,5.43131l-7.35934,-1.97562l-6.278,3.26371l1.68518,-5.5035l-5.0818,-2.75996z" fill="#ffd153" stroke="#f3a400" stroke-width="1" stroke-linecap="round"/><path d="M221.21063,200.92156l4.05954,-6.90645l1.6376,7.35441l5.7923,-1.37505l-4.19409,3.71658l3.52296,5.43131l-7.35933,-1.97562l-6.278,3.26371l1.68518,-5.5035l-5.0818,-2.75996z" fill="#ffd153" stroke="#f3a400" stroke-width="1" stroke-linecap="round"/><text transform="translate(259.07954,182.95993) rotate(21.70352) scale(0.20873,0.20873)" font-size="40" xml:space="preserve" fill="#ffd153" fill-rule="nonzero" stroke="none" stroke-width="1" stroke-linecap="butt" stroke-linejoin="miter" stroke-miterlimit="10" stroke-dasharray="" stroke-dashoffset="0" font-family="Sans Serif" font-weight="normal" text-anchor="start" style="mix-blend-mode: normal"><tspan x="0" dy="0">RAMA</tspan></text><path d="M235.19724,172.00471c0,6.45189 -5.71786,11.68218 -12.7712,11.68218c-7.05334,0 -12.7712,-5.23029 -12.7712,-11.68218c0,-6.45189 5.71786,-11.68218 12.7712,-11.68218c7.05334,0 12.7712,5.23029 12.7712,11.68218z" fill="url(#color-1)" stroke="none" stroke-width="0" stroke-linecap="butt"/><path d="M237.22719,204.13113c0,6.45189 -5.71786,11.68218 -12.7712,11.68218c-7.05334,0 -12.7712,-5.23029 -12.7712,-11.68218c0,-6.45189 5.71786,-11.68218 12.7712,-11.68218c7.05334,0 12.7712,5.23029 12.7712,11.68218z" fill="url(#color-2)" stroke="none" stroke-width="0" stroke-linecap="butt"/><path d="M274.50169,195.66692c0,6.45189 -5.71786,11.68218 -12.7712,11.68218c-7.05334,0 -12.7712,-5.23029 -12.7712,-11.68218c0,-6.45189 5.71786,-11.68218 12.7712,-11.68218c7.05334,0 12.7712,5.23029 12.7712,11.68218z" fill="url(#color-3)" stroke="none" stroke-width="0" stroke-linecap="butt"/><path d="M268.80953,168.39242c0,6.45189 -5.71785,11.68218 -12.77119,11.68218c-7.05334,0 -12.7712,-5.23029 -12.7712,-11.68218c0,-6.45189 5.71786,-11.68218 12.7712,-11.68218c7.05334,0 12.77119,5.23029 12.77119,11.68218z" fill="url(#color-4)" stroke="none" stroke-width="0" stroke-linecap="butt"/><path d="M254.80123,114.1895c0,6.45189 -5.71786,11.68218 -12.7712,11.68218c-7.05334,0 -12.7712,-5.23029 -12.7712,-11.68218c0,-6.45189 5.71786,-11.68218 12.7712,-11.68218c7.05334,0 12.7712,5.23029 12.7712,11.68218z" fill="url(#color-5)" stroke="none" stroke-width="0" stroke-linecap="butt"/><path d="M253.86114,129.68366c0,6.45189 -5.71786,11.68218 -12.7712,11.68218c-7.05334,0 -12.7712,-5.23029 -12.7712,-11.68218c0,-6.45189 5.71786,-11.68218 12.7712,-11.68218c7.05334,0 12.7712,5.23029 12.7712,11.68218z" fill="url(#color-6)" stroke="none" stroke-width="0" stroke-linecap="butt"/><path d="M262.4252,139.83174c0,6.45189 -5.71785,11.68218 -12.77119,11.68218c-7.05334,0 -12.7712,-5.23029 -12.7712,-11.68218c0,-6.45189 5.71786,-11.68218 12.7712,-11.68218c7.05334,0 12.77119,5.23029 12.77119,11.68218z" fill="url(#color-7)" stroke="none" stroke-width="0" stroke-linecap="butt"/><path d="M271.78127,138.69365c0,6.45189 -5.71785,11.68218 -12.7712,11.68218c-7.05334,0 -12.7712,-5.23029 -12.7712,-11.68218c0,-6.45189 5.71786,-11.68218 12.7712,-11.68218c7.05334,0 12.7712,5.23029 12.7712,11.68218z" fill="url(#color-8)" stroke="none" stroke-width="0" stroke-linecap="butt"/></g></g></svg>