<svg version="1.1" xmlns="http://www.w3.org/2000/svg" xmlns:xlink="http://www.w3.org/1999/xlink" width="130.30696" height="92.14812" viewBox="0,0,130.30696,92.14812"><g transform="translate(-158.79564,-152.83464)"><g data-paper-data="{&quot;isPaintingLayer&quot;:true}" fill-rule="nonzero" stroke-linejoin="miter" stroke-miterlimit="10" stroke-dasharray="" stroke-dashoffset="0" style="mix-blend-mode: normal"><path d="M159.43176,205.92285l75.80543,-51.06148l50.11479,27.63255l-107.72423,61.7862z" fill="#ff0000" stroke="#790000" stroke-width="1" stroke-linecap="butt"/><path d="M285.616,181.15867c0,13.96159 -23.77687,32.17415 -38.30256,32.17415c-3.57637,0 -10.56703,-3.9336 -19.67744,-2.66452c-5.80615,0.8088 -8.42855,6.12886 -10.18758,4.35904c-2.31931,-2.33353 -11.77998,-7.03759 -8.143,-13.81845c6.85565,-12.78183 7.36598,-14.09468 7.36598,-19.53952c0,-7.7572 9.06873,-28.52711 23.47841,-27.9799c11.52519,0.43767 31.60596,20.57474 38.06103,20.57474c14.52569,0 7.40516,-7.06713 7.40516,6.89446z" fill="#006aff" stroke="#004ed4" stroke-width="1" stroke-linecap="butt"/><path d="M223.23585,213.0093c0,0 -7.15222,-3.51343 -9.10731,-5.85157c-1.9007,-2.27308 -2.46467,-7.9876 -2.46467,-7.9876l2.28415,-6.8826c0,0 4.61971,5.09287 7.17931,8.02412c2.64254,3.02623 8.43503,9.8574 8.43503,9.8574z" fill="#ff0000" stroke="#790000" stroke-width="1" stroke-linecap="butt"/><path d="M229.69137,210.09239l-15.90819,-18.82414l1.03607,-4.194l21.08745,23.62443z" fill="#dbff66" stroke="#9fb300" stroke-width="1" stroke-linecap="butt"/><path d="M214.69578,194.26911l3.22845,-3.39095l3.06161,2.78388l-3.22845,3.39095z" fill="#ff0000" stroke="#8a0000" stroke-width="1" stroke-linecap="butt"/><path d="M223.99077,203.94308l3.22845,-3.39095l3.06161,2.78387l-3.22845,3.39095z" fill="#ff0000" stroke="#8a0000" stroke-width="1" stroke-linecap="butt"/><path d="M234.89429,153.54457l7.425,-0.19778l0.42786,4.12926l-7.42499,0.19778z" fill="#ff0000" stroke="#8a0000" stroke-width="1" stroke-linecap="butt"/><path d="M280.69677,171.93486l7.425,-0.19778l0.42785,4.12926l-7.42499,0.19779z" fill="#ff0000" stroke="#8a0000" stroke-width="1" stroke-linecap="butt"/><path d="M262.65862,202.87861l-2.66807,-24.6016l20.47902,7.95068l-10.40013,9.9272z" fill="#e8ff00" stroke="#ff0000" stroke-width="2" stroke-linecap="butt"/><text transform="translate(260.05259,194.03097) rotate(24.68283) scale(0.53606,0.53606)" font-size="40" xml:space="preserve" fill="#ff0000" fill-rule="nonzero" stroke="#ff0000" stroke-width="2" stroke-linecap="butt" stroke-linejoin="miter" stroke-miterlimit="10" stroke-dasharray="" stroke-dashoffset="0" font-family="Serif" font-weight="normal" text-anchor="start" style="mix-blend-mode: normal"><tspan x="0" dy="0">S</tspan></text><path d="M236.22525,201.66316l9.65703,10.37808c0,0 2.92518,0.00937 3.17925,2.0433c0.26637,2.1325 -2.14452,6.31046 -2.44933,7.04728c-0.67653,1.63543 -4.57724,0.20959 -4.57724,0.20959c0,0 -2.5833,6.83755 -5.45849,8.42334c-2.66488,1.46979 -14.04347,2.20815 -14.04347,2.20815c0,0 -4.96065,-1.8006 -4.9869,-2.98123c-0.0326,-1.4666 7.12211,-11.08076 7.83559,-15.43453c1.2215,-7.45364 10.84359,-11.89397 10.84359,-11.89397z" fill="#ff0000" stroke="#790000" stroke-width="1" stroke-linecap="butt"/><path d="M223.36349,232.94093c-6.47741,-1.06128 -9.05338,-5.1225 -1.42935,-12.27742c2.56816,-2.41015 2.44152,-6.88552 3.87652,-10.26433c2.29001,-5.39198 5.80088,-9.44083 9.78298,-8.78839c6.47741,1.06128 1.97752,7.61915 0.4993,16.64126c-1.47821,9.02211 -6.25203,15.75015 -12.72946,14.68887z" fill="#790000" stroke="#790000" stroke-width="1" stroke-linecap="butt"/><path d="M237.00168,206.14266l-5.30807,-1.72992" fill="none" stroke="#5f0000" stroke-width="1" stroke-linecap="round"/><path d="M229.33184,208.32695l6.42742,2.77355" fill="none" stroke="#5f0000" stroke-width="1" stroke-linecap="round"/><path d="M227.286,212.93806l7.92778,2.80433" fill="none" stroke="#5f0000" stroke-width="1" stroke-linecap="round"/><path d="M234.21156,219.23414l-8.79985,-2.73213" fill="none" stroke="#5f0000" stroke-width="1" stroke-linecap="round"/><path d="M232.09709,224.26415l-7.75267,-2.56057" fill="none" stroke="#5f0000" stroke-width="1" stroke-linecap="round"/><path d="M222.6074,224.4298l7.89347,3.01375" fill="none" stroke="#5f0000" stroke-width="1" stroke-linecap="round"/><path d="M221.67027,226.21178l6.81197,3.05161" fill="none" stroke="#5f0000" stroke-width="1" stroke-linecap="round"/><path d="M225.9418,231.64292l-5.83343,-2.46117" fill="none" stroke="#5f0000" stroke-width="1" stroke-linecap="round"/><path d="M265.20382,195.34009l12.80584,6.08052c0,0 2.72208,-1.07105 3.70897,0.72548c1.03471,1.88359 0.33627,6.6564 0.32497,7.45371c-0.02509,1.76966 -4.17663,1.88436 -4.17663,1.88436c0,0 0.12305,7.30824 -1.96376,9.84334c-1.93416,2.34966 -12.23663,7.23601 -12.23663,7.23601c0,0 -5.27497,0.15768 -5.73516,-0.92989c-0.57167,-1.35098 2.52894,-12.92719 1.58497,-17.23686c-1.61609,-7.37814 5.68744,-15.05665 5.68744,-15.05665z" fill="#ff0000" stroke="#790000" stroke-width="1" stroke-linecap="butt"/><path d="M264.79576,229.15663c-6.41173,1.40465 -10.30487,-1.41893 -5.86033,-10.88279c1.49715,-3.1879 -0.27253,-7.30048 -0.18607,-10.97037c0.13796,-5.8565 1.90637,-10.91536 5.84808,-11.77888c6.41173,-1.40465 4.6503,6.35112 6.60676,15.28174c1.95646,8.93061 0.00327,16.94566 -6.40846,18.3503z" fill="#790000" stroke="#790000" stroke-width="1" stroke-linecap="butt"/><path d="M261.25699,204.0778l6.99731,0.20516" fill="none" stroke="#5f0000" stroke-width="1" stroke-linecap="round"/><path d="M269.46078,208.7984l-8.40307,0.32007" fill="none" stroke="#5f0000" stroke-width="1" stroke-linecap="round"/><path d="M269.81823,212.41352l-9.18689,0.70906" fill="none" stroke="#5f0000" stroke-width="1" stroke-linecap="round"/><path d="M261.55946,218.35078l8.15033,-0.48197" fill="none" stroke="#5f0000" stroke-width="1" stroke-linecap="round"/><path d="M269.39989,221.41288l-8.44848,0.11275" fill="none" stroke="#5f0000" stroke-width="1" stroke-linecap="round"/><path d="M268.19557,223.84934l-7.45735,-0.32164" fill="none" stroke="#5f0000" stroke-width="1" stroke-linecap="round"/><path d="M266.71286,226.99855l-6.32995,-0.1341" fill="none" stroke="#5f0000" stroke-width="1" stroke-linecap="round"/></g></g></svg>