<svg version="1.1" xmlns="http://www.w3.org/2000/svg" xmlns:xlink="http://www.w3.org/1999/xlink" width="139.30604" height="92.14812" viewBox="0,0,139.30604,92.14812"><g transform="translate(-158.79564,-152.83464)"><g data-paper-data="{&quot;isPaintingLayer&quot;:true}" fill-rule="nonzero" stroke-linejoin="miter" stroke-miterlimit="10" stroke-dasharray="" stroke-dashoffset="0" style="mix-blend-mode: normal"><path d="M159.43176,205.92285l75.80543,-51.06148l50.11479,27.63255l-107.72423,61.7862z" fill="#ff0000" stroke="#790000" stroke-width="1" stroke-linecap="butt"/><path d="M285.61601,181.15867c0,13.96159 -23.77687,32.17415 -38.30256,32.17415c-3.57637,0 -10.56703,-3.9336 -19.67744,-2.66452c-5.80615,0.8088 -8.42855,6.12886 -10.18758,4.35904c-2.31931,-2.33353 -11.77998,-7.03759 -8.143,-13.81845c6.85565,-12.78183 7.36598,-14.09468 7.36598,-19.53952c0,-7.7572 9.06873,-28.52711 23.47841,-27.9799c11.52519,0.43767 31.60596,20.57474 38.06103,20.57474c14.52569,0 7.40516,-7.06713 7.40516,6.89446z" fill="#006aff" stroke="#004ed4" stroke-width="1" stroke-linecap="butt"/><path d="M223.23585,213.0093c0,0 -7.15222,-3.51343 -9.10731,-5.85157c-1.9007,-2.27308 -2.46467,-7.9876 -2.46467,-7.9876l2.28415,-6.8826c0,0 4.61971,5.09287 7.17931,8.02412c2.64254,3.02623 8.43503,9.8574 8.43503,9.8574z" fill="#ff0000" stroke="#790000" stroke-width="1" stroke-linecap="butt"/><path d="M229.69137,210.09239l-15.90819,-18.82414l1.03607,-4.194l21.08745,23.62443z" fill="#dbff66" stroke="#9fb300" stroke-width="1" stroke-linecap="butt"/><path d="M214.69578,194.26911l3.22845,-3.39095l3.06161,2.78388l-3.22845,3.39095z" fill="#ff0000" stroke="#8a0000" stroke-width="1" stroke-linecap="butt"/><path d="M223.99077,203.94308l3.22845,-3.39095l3.06161,2.78387l-3.22845,3.39095z" fill="#ff0000" stroke="#8a0000" stroke-width="1" stroke-linecap="butt"/><path d="M234.89429,153.54457l7.425,-0.19778l0.42786,4.12926l-7.42499,0.19778z" fill="#ff0000" stroke="#8a0000" stroke-width="1" stroke-linecap="butt"/><path d="M280.69677,171.93486l7.425,-0.19778l0.42785,4.12926l-7.42499,0.19779z" fill="#ff0000" stroke="#8a0000" stroke-width="1" stroke-linecap="butt"/><path d="M262.65863,202.87861l-2.66807,-24.6016l20.47902,7.95068l-10.40013,9.9272z" fill="#e8ff00" stroke="#ff0000" stroke-width="2" stroke-linecap="butt"/><text transform="translate(260.05259,194.03097) rotate(24.68283) scale(0.53606,0.53606)" font-size="40" xml:space="preserve" fill="#ff0000" fill-rule="nonzero" stroke="#ff0000" stroke-width="2" stroke-linecap="butt" stroke-linejoin="miter" stroke-miterlimit="10" stroke-dasharray="" stroke-dashoffset="0" font-family="Serif" font-weight="normal" text-anchor="start" style="mix-blend-mode: normal"><tspan x="0" dy="0">S</tspan></text><path d="M231.20681,219.89302l12.11722,-7.35769c0,0 0.60099,-2.86279 2.64426,-2.70011c2.14229,0.17058 5.74609,3.37687 6.40601,3.82445c1.46474,0.99342 -0.72079,4.52499 -0.72079,4.52499c0,0 6.17352,3.91321 7.14481,7.04978c0.90025,2.90714 -0.67872,14.1998 -0.67872,14.1998c0,0 -2.76697,4.49378 -3.9285,4.28063c-1.44286,-0.26478 -9.41071,-9.21663 -13.5301,-10.79619c-7.05237,-2.70422 -9.45419,-13.02567 -9.45419,-13.02567z" fill="#ff0000" stroke="#790000" stroke-width="1" stroke-linecap="butt"/><path d="M259.23565,238.81676c-2.34981,6.12875 -6.8482,7.8298 -12.31271,-1.08411c-1.84073,-3.00266 -6.24917,-3.78407 -9.26779,-5.87298c-4.81718,-3.33353 -8.07199,-7.59094 -6.62741,-11.35869c2.34981,-6.12875 7.86167,-0.39516 16.39814,2.87779c8.53647,3.27295 14.15957,9.30923 11.80976,15.43799z" fill="#790000" stroke="#790000" stroke-width="1" stroke-linecap="butt"/><path d="M235.75076,220.03891l-2.76805,4.84831" fill="none" stroke="#5f0000" stroke-width="1" stroke-linecap="round"/><path d="M240.3547,222.25868l-4.01655,5.73338" fill="none" stroke="#5f0000" stroke-width="1" stroke-linecap="round"/><path d="M244.79025,223.73201l-4.35024,7.19648" fill="none" stroke="#5f0000" stroke-width="1" stroke-linecap="round"/><path d="M243.55106,233.48506l4.45598,-8.06512" fill="none" stroke="#5f0000" stroke-width="1" stroke-linecap="round"/><path d="M248.42914,235.58263l4.0761,-7.07431" fill="none" stroke="#5f0000" stroke-width="1" stroke-linecap="round"/><path d="M250.74756,237.83529l4.54839,-7.12051" fill="none" stroke="#5f0000" stroke-width="1" stroke-linecap="round"/><path d="M252.30309,239.11356l4.36667,-6.05372" fill="none" stroke="#5f0000" stroke-width="1" stroke-linecap="round"/><path d="M254.89564,241.24402l3.59047,-5.21486" fill="none" stroke="#5f0000" stroke-width="1" stroke-linecap="round"/><path d="M263.31935,218.0981l5.46677,-13.07963c0,0 -1.19885,-2.66826 0.54888,-3.73918c1.83243,-1.12282 6.63298,-0.65136 7.42993,-0.67786c1.76886,-0.05881 2.08019,4.08263 2.08019,4.08263c0,0 7.2942,-0.46927 9.92535,1.49504c2.43869,1.82063 7.80782,11.87994 7.80782,11.87994c0,0 0.4075,5.26157 -0.65704,5.77279c-1.32237,0.63505 -13.03252,-1.91344 -17.29261,-0.76627c-7.29326,1.96395 -15.30928,-4.96746 -15.30928,-4.96746z" fill="#ff0000" stroke="#790000" stroke-width="1" stroke-linecap="butt"/><path d="M297.11722,216.90301c1.70694,6.33795 -0.92895,10.36053 -10.59282,6.36951c-3.25528,-1.34438 -7.27936,0.61822 -10.94923,0.70578c-5.85646,0.13975 -10.99345,-1.38691 -12.04281,-5.28326c-1.70694,-6.33795 6.12359,-4.94607 14.95145,-7.3236c8.82785,-2.37752 16.92646,-0.80638 18.6334,5.53157z" fill="#790000" stroke="#790000" stroke-width="1" stroke-linecap="butt"/><path d="M272.23429,221.62639l-0.1267,-6.99917" fill="none" stroke="#5f0000" stroke-width="1" stroke-linecap="round"/><path d="M276.56078,213.20809l0.71796,8.37846" fill="none" stroke="#5f0000" stroke-width="1" stroke-linecap="round"/><path d="M281.29856,221.82267l-1.14366,-9.14297" fill="none" stroke="#5f0000" stroke-width="1" stroke-linecap="round"/><path d="M286.4769,220.64781l-0.8677,-8.11833" fill="none" stroke="#5f0000" stroke-width="1" stroke-linecap="round"/><path d="M289.16397,212.67106l0.51303,8.43365" fill="none" stroke="#5f0000" stroke-width="1" stroke-linecap="round"/><path d="M291.65477,213.75856l0.03215,7.46421" fill="none" stroke="#5f0000" stroke-width="1" stroke-linecap="round"/><path d="M294.87071,215.09034l0.16605,6.32919" fill="none" stroke="#5f0000" stroke-width="1" stroke-linecap="round"/></g></g></svg>