<svg version="1.1" xmlns="http://www.w3.org/2000/svg" xmlns:xlink="http://www.w3.org/1999/xlink" width="90.09325" height="97.22391" viewBox="0,0,90.09325,97.22391"><g transform="translate(-199.82674,-127.23792)"><g data-paper-data="{&quot;isPaintingLayer&quot;:true}" fill-rule="nonzero" stroke="#000000" stroke-linejoin="miter" stroke-miterlimit="10" stroke-dasharray="" stroke-dashoffset="0" style="mix-blend-mode: normal"><path d="M286.1,140.6625c4.85595,9.9825 -4.03765,1.5 -17.9,1.5c-13.86235,0 -27.61942,3.07753 -19.9,-4.9c9,-9.30093 6.03766,-8.1 19.9,-8.1c13.86235,0 12.5,0.39907 17.9,11.5z" fill="#ffffff" stroke-width="1.5" stroke-linecap="butt"/><path d="M272.28927,129.59625c0,1.02633 -1.73117,1.85833 -3.86667,1.85833c-2.1355,0 -3.86667,-0.832 -3.86667,-1.85833c0,-1.02633 1.73117,-1.85833 3.86667,-1.85833c2.1355,0 3.86667,0.832 3.86667,1.85833z" fill="#e5e5e5" stroke-width="1" stroke-linecap="butt"/><path d="M201.01706,215.09c0,0 7.14164,-6.10851 9.4641,-18.02864c1.14476,-5.87549 6.89706,-18.08661 13.1929,-27.82387c6.28827,-9.72556 13.12077,-16.98082 13.12077,-16.98082c0,0 13.77194,12.72686 22.45755,16.85748c8.35729,3.97448 28.70912,7.47585 28.70912,7.47585c0,0 -2.28409,13.58668 -11.43295,23.57543c-2.78824,3.04421 -11.43883,6.20206 -22.41629,9.93332c-9.032,3.06999 -22.73104,-2.80168 -30.80508,-0.70092c-8.29615,2.15856 -11.73457,13.80328 -11.73457,13.80328z" fill="#ffffff" stroke-width="1.5" stroke-linecap="butt"/><path d="M286.17658,181.94841c-0.13848,0.66709 -0.89968,1.07315 -1.70019,0.90697c-0.8005,-0.16618 -1.33718,-0.84168 -1.19869,-1.50876c0.13848,-0.66709 0.89968,-1.07315 1.70019,-0.90697c0.8005,0.16618 1.33718,0.84168 1.19869,1.50876z" fill="#e5e5e5" stroke-width="0.5" stroke-linecap="butt"/><path d="M285.23527,185.0971c-0.1518,0.73125 -0.98622,1.17637 -1.86371,0.9942c-0.8775,-0.18216 -1.46578,-0.92263 -1.31398,-1.65388c0.1518,-0.73125 0.98622,-1.17637 1.86371,-0.9942c0.8775,0.18216 1.46578,0.92263 1.31398,1.65388z" fill="#e5e5e5" stroke-width="0.5" stroke-linecap="butt"/><path d="M284.04462,188.32952c-0.14276,0.6877 -0.92749,1.10631 -1.75273,0.935c-0.82524,-0.17131 -1.3785,-0.86769 -1.23573,-1.55539c0.14276,-0.6877 0.92749,-1.10631 1.75273,-0.935c0.82524,0.17131 1.3785,0.86769 1.23573,1.55539z" fill="#e5e5e5" stroke-width="0.5" stroke-linecap="butt"/><path d="M232.24168,154.74426l3.20795,-5.33152c0,0 19.93985,12.90652 27.72702,16.97657c5.10322,2.66726 13.89356,6.06726 13.89356,6.06726l11.90951,3.02629l-1.47066,4.97362l-11.53569,-3.66839c0,0 -9.93705,-3.33326 -15.17439,-5.97324c-8.07366,-4.06969 -28.55731,-16.07059 -28.55731,-16.07059z" fill="#ffffff" stroke-width="1.5" stroke-linecap="butt"/><path d="M283.54483,179.10042l-4.22222,11.22222" fill="none" stroke-width="0.5" stroke-linecap="round"/></g></g></svg>