<svg version="1.1" xmlns="http://www.w3.org/2000/svg" xmlns:xlink="http://www.w3.org/1999/xlink" width="78.35051" height="73.90653" viewBox="0,0,78.35051,73.90653"><g transform="translate(-225.14453,-116.37352)"><g data-paper-data="{&quot;isPaintingLayer&quot;:true}" fill-rule="nonzero" stroke-linejoin="miter" stroke-miterlimit="10" stroke-dasharray="" stroke-dashoffset="0" style="mix-blend-mode: normal"><path d="M299.99503,153.32678c0,18.47573 -15.97235,33.45327 -35.67525,33.45327c-19.7029,0 -35.67525,-14.97754 -35.67525,-33.45327c0,-18.47573 15.97235,-33.45326 35.67525,-33.45326c19.7029,0 35.67525,14.97753 35.67525,33.45326zM287.08017,166.24165c0,-3.16195 2.91424,-9.32311 0.26091,-11.85058c-7.22985,-6.8869 -14.4265,-5.69055 -18.0637,3.50492c-0.63805,1.61309 -1.59453,3.66424 -1.59453,5.4344c0,7.34867 2.74054,17.34986 12.48146,14.91463c3.92194,-0.98048 6.2242,-8.7227 6.94389,-11.96132zM261.34784,158.19711c6.22228,-0.34945 10.36549,-10.28169 7.70954,-15.72822v-0.1286l-0.5625,-2.25l-0.45503,-0.26002l-0.10278,-0.51391l-1.88449,-1.19922l-0.46094,-0.53776l-0.1148,-0.00638c-0.65482,-0.65425 -1.38361,-1.14704 -2.22947,-1.2892l-0.11822,-0.05911l-0.02508,-0.04389l-0.12539,-0.03135l-0.11215,-0.05608l-0.24314,-0.05403l-0.0823,-0.04938l-0.06282,0.01713l-0.62109,-0.13802l-1.00311,-0.25078h-0.12539l-0.12617,-0.02804l-0.04206,0.02804l-0.94082,0l-2.25,0.5625l-0.66607,1.16562l-0.04191,-0.02794l-0.13305,0.02957c-0.03938,-0.00102 -0.07888,-0.00153 -0.1185,-0.00153c-0.75581,0 -1.4681,0.18633 -2.09343,0.51556l-0.90658,0.45329l-0.27896,0.2391l-0.22416,0.01245l-0.58052,0.67727l-0.67727,0.58052l-0.01011,0.18198l-0.13917,0.13917l-0.22416,0.3736l-0.07756,0.05171l-1.2687,1.39557l-0.17265,0.09866l-0.03147,0.12587l-0.08728,0.096l0.01368,0.19838l-0.45744,1.82974v5.18464l0.21532,0.86126l-0.09054,0.33198l0.29749,0.49581l0.14024,0.56095l0.29876,0.17072l0.45675,0.76126l0.49378,0.49378l0.3736,0.22416l0.05171,0.07756l0.31654,0.28776l0.048,0.24001l0.64641,0.41135c1.42024,2.76711 3.90297,4.06143 8.90547,3.78049z" fill="#ffc98c" stroke="#d8984f" stroke-width="7" stroke-linecap="butt"/><path d="M249.1362,129.00836l44.93354,19.50412" fill="none" stroke="#744918" stroke-width="3" stroke-linecap="round"/><path d="M240.49513,134.43988l11.47356,5.11095" fill="none" stroke="#744918" stroke-width="3" stroke-linecap="round"/><path d="M269.82232,147.50381l6.31259,2.81197" fill="none" stroke="#744918" stroke-width="3" stroke-linecap="round"/><path d="M288.16034,155.67257l6.65005,2.9623" fill="none" stroke="#744918" stroke-width="3" stroke-linecap="round"/><path d="M235.55738,140.85896l13.63695,6.91103" fill="none" stroke="#744918" stroke-width="3" stroke-linecap="round"/><path d="M265.76353,156.16705l3.49675,1.77211" fill="none" stroke="#744918" stroke-width="3" stroke-linecap="round"/><path d="M286.9622,166.91027l3.15733,1.6001" fill="none" stroke="#744918" stroke-width="3" stroke-linecap="round"/><path d="M233.58228,149.9938l34.56572,18.53008" fill="none" stroke="#744918" stroke-width="3" stroke-linecap="round"/><path d="M234.81672,162.09129l34.07048,19.25723" fill="none" stroke="#744918" stroke-width="3" stroke-linecap="round"/><path d="M258.51792,124.31749l31.60161,12.34438" fill="none" stroke="#744918" stroke-width="3" stroke-linecap="round"/><path d="M265.92455,123.08306l-33.82359,36.04558" fill="none" stroke="#744918" stroke-width="3" stroke-linecap="round"/><path d="M278.26893,125.79882l-11.15672,12.99263" fill="none" stroke="#744918" stroke-width="3" stroke-linecap="round"/><path d="M252.95391,155.2796l-13.69322,15.94653" fill="none" stroke="#744918" stroke-width="3" stroke-linecap="round"/><path d="M285.42867,132.46478l-17.00172,20.00202" fill="none" stroke="#744918" stroke-width="3" stroke-linecap="round"/><path d="M264.39442,157.21096l-16.73954,19.69358" fill="none" stroke="#744918" stroke-width="3" stroke-linecap="round"/><path d="M292.09463,133.20545l-12.42458,16.88029" fill="none" stroke="#744918" stroke-width="3" stroke-linecap="round"/><path d="M267.82006,166.18538l-11.52413,15.65692" fill="none" stroke="#744918" stroke-width="3" stroke-linecap="round"/><path d="M295.30417,143.32784l-8.42621,10.63307" fill="none" stroke="#744918" stroke-width="3" stroke-linecap="round"/><path d="M270.43236,174.71369l-6.23602,7.86927" fill="none" stroke="#744918" stroke-width="3" stroke-linecap="round"/><path d="M295.55106,152.95645l-8.23412,11.30952" fill="none" stroke="#744918" stroke-width="3" stroke-linecap="round"/><path d="M276.87562,178.60705l-1.81623,2.49458" fill="none" stroke="#744918" stroke-width="3" stroke-linecap="round"/><path d="M258.51792,121.60173l-28.63895,29.13273" fill="none" stroke="#744918" stroke-width="3" stroke-linecap="round"/></g></g></svg>