<svg version="1.1" xmlns="http://www.w3.org/2000/svg" xmlns:xlink="http://www.w3.org/1999/xlink" width="81.70672" height="88.30981" viewBox="0,0,81.70672,88.30981"><g transform="translate(-208.74163,-129.32563)"><g data-paper-data="{&quot;isPaintingLayer&quot;:true}" fill-rule="nonzero" stroke-linecap="butt" stroke-linejoin="miter" stroke-miterlimit="10" stroke-dasharray="" stroke-dashoffset="0" style="mix-blend-mode: normal"><path d="M209.82275,207.95521c0,0 3.98548,-19.29723 7.69618,-26.03422c4.61783,-8.38395 16.32765,-25.49325 16.32765,-25.49325l48.17949,23.3452l-20.90049,30.44489c0,0 -9.73107,1.08604 -22.29701,3.15652c-11.42514,1.88252 -25.66749,4.84954 -27.96959,3.35378c-2.87963,-1.871 -1.03624,-8.77293 -1.03624,-8.77293z" fill="#0084ff" stroke="#0052ff" stroke-width="1"/><path d="M249.87094,201.27381l19.13063,-24.99633l14.59977,4.9637c0,0 -3.56155,11.38828 -6.03559,15.26211c-1.28733,2.01568 -4.81989,7.45481 -10.22328,10.69416c-6.76547,4.05591 -9.04917,5.21748 -9.04917,5.21748z" fill="#ff0000" stroke="#8c0000" stroke-width="2.5"/><path d="M288.21673,153.49097c0,8.72248 4.51261,25.21818 -3.73773,26.91398c-5.6112,1.15335 -23.59406,-7.67973 -28.55335,-7.67973c-6.94414,0 -18.19842,-11.57981 -20.07745,-15.52326c-1.43602,-3.01372 3.79153,-2.41706 3.79153,-8.76525c0,-14.65479 14.14335,-18.11108 26.39444,-18.11108c12.25109,0 22.18257,8.51055 22.18257,23.16534z" fill="#ff0000" stroke="#8c0000" stroke-width="2"/><path d="M271.78192,160.76077l-17.63618,-1.37754l1.04955,-13.43708l16.30668,14.79277z" data-paper-data="{&quot;index&quot;:null}" fill="#ffffff" stroke="#000000" stroke-width="2"/><path d="M282.64528,161.81603l4.91993,-17.95655l1.51305,12.89603l-6.53674,5.14214z" data-paper-data="{&quot;index&quot;:null}" fill="#ffffff" stroke="#000000" stroke-width="2"/><path d="M276.91131,177.76672c0.58603,0.16155 0.98305,0.65906 1.37752,1.16111c0.0308,-0.44642 0.08423,-0.862 0.17215,-1.19151c-0.48064,-0.04183 -1.05386,0.08492 -1.51785,-0.01802l-0.24178,0.01606l0.00795,0.05567c0.05725,-0.03429 0.12349,-0.04496 0.20201,-0.02331zM277.75372,182.78281c-0.69036,0 -1.25,-0.55964 -1.25,-1.25v-0.71057l-0.21521,-0.2152c-0.22458,0.1724 -0.51708,0.39244 -0.8824,0.65475c-0.09857,0.22469 -0.20508,0.45935 -0.31663,0.68977c-0.14489,0.55284 -0.39485,1.01837 -0.79468,1.32693c-0.12021,0.14052 -0.23894,0.24452 -0.35325,0.29756c-0.21173,0.09825 -0.47723,0.1267 -0.77542,0.09984c-0.08582,0.00576 -0.17489,0.00781 -0.26735,0.00598c-0.55106,-0.01092 -0.97751,-0.19015 -1.30471,-0.48892c-1.29877,-0.61522 -2.59019,-1.68013 -2.78776,-2.44725c-0.32332,-1.25537 0.66222,-3.02427 1.76209,-4.51377l-0.22616,-0.11307l0.88695,-1.7739c0.20043,-0.42281 0.63114,-0.7152 1.13014,-0.7152c0.69036,0 1.25,0.55964 1.25,1.25c0,0.00287 -0.00001,0.00573 -0.00003,0.0086c0.92393,0.07644 1.06634,1.07332 1.06634,1.07332c0.02133,0.15079 0.05362,0.33526 0.09226,0.54628c0.14479,-0.08799 0.30886,-0.14739 0.4844,-0.17037c0.10213,-1.08952 1.24271,-1.08952 1.24271,-1.08952l0.99041,0.02976c0.69269,0.15417 3.08074,0.59459 3.5479,1.11789c0.19871,0.22259 0.37145,0.58859 0.50162,1.02219c0.05707,-0.00797 0.11536,-0.0121 0.17463,-0.0121c0.63664,0 1.16211,0.47594 1.24004,1.09142l0.17721,1.24049l-0.44907,0.06415c0.08511,0.64299 0.0522,1.28127 -0.17888,1.86371l-0.52809,1.2322c-0.18411,0.45807 -0.63161,0.78192 -1.15503,0.78407l-0.0239,0.16728c-0.07792,0.61548 -0.6034,1.09141 -1.24004,1.09141c-0.69036,0 -1.25,-0.55964 -1.25,-1.25v-1.03401c-0.1655,0.08087 -0.35151,0.12627 -0.54812,0.12627z" fill="#ff0000" stroke="none" stroke-width="0.5"/><path d="M265.2199,197.76035l-5.85062,-10.98692l2.42871,-4.44292l5.3077,14.02871z" fill="#ffffff" stroke="none" stroke-width="0"/><path d="M264.36533,200.41463l-9.942,-5.66536l1.30345,-4.4886l10.29308,8.22512z" fill="#ffffff" stroke="none" stroke-width="0"/><path d="M269.00158,193.58193l-5.3364,-12.36859l2.53705,-3.60801l4.69604,15.16427z" fill="#ffffff" stroke="none" stroke-width="0"/><path d="M262.80623,203.38167c-1.48052,-1.03447 -3.05633,-4.79465 -2.46894,-6.61389c0.44056,-1.36447 3.79241,-1.63718 4.75534,-3.01529c1.25319,-1.79352 5.14348,-6.24734 7.97527,-5.80389c1.41624,0.22178 -1.81637,1.53324 -0.67057,2.33384c0.39574,0.27652 2.6749,1.79772 2.6749,1.79772c0,0 1.84499,-2.42202 2.19466,-1.75659c0.99565,1.89475 -3.13672,6.82779 -4.51094,8.79454c-1.28102,1.83337 -1.56253,4.3077 -3.4124,4.85099c-1.3946,0.40958 -5.42364,0.19072 -6.53732,-0.58744z" fill="#ffffff" stroke="none" stroke-width="0"/></g></g></svg>