<svg version="1.1" xmlns="http://www.w3.org/2000/svg" xmlns:xlink="http://www.w3.org/1999/xlink" width="122.25187" height="132.64443" viewBox="0,0,122.25187,132.64443"><defs><linearGradient x1="280.13622" y1="162.60034" x2="279.68147" y2="152.82425" gradientUnits="userSpaceOnUse" id="color-1"><stop offset="0" stop-color="#232323"/><stop offset="1" stop-color="#232323" stop-opacity="0"/></linearGradient><linearGradient x1="253.2145" y1="162.00714" x2="252.75975" y2="152.23105" gradientUnits="userSpaceOnUse" id="color-2"><stop offset="0" stop-color="#232323"/><stop offset="1" stop-color="#232323" stop-opacity="0"/></linearGradient></defs><g transform="translate(-191.4048,-91.75521)"><g data-paper-data="{&quot;isPaintingLayer&quot;:true}" fill-rule="nonzero" stroke-linejoin="miter" stroke-miterlimit="10" stroke-dasharray="" stroke-dashoffset="0" style="mix-blend-mode: normal"><path d="M193.9048,221.89964v-127.64443h117.25187v127.64443z" fill="#66ff76" stroke="#000000" stroke-width="5" stroke-linecap="butt"/><path d="M231.57604,207.176l-33.10502,-38.21995l19.56715,-16.9485l33.10501,38.21995z" fill="#49d000" stroke="#23a900" stroke-width="2" stroke-linecap="butt"/><path d="M235.52932,207.69602l-33.10501,-38.21995l19.56715,-16.9485l33.10501,38.21995z" fill="#5aff00" stroke="#00cc28" stroke-width="2" stroke-linecap="butt"/><path d="M235.9871,209.98486l-33.10502,-38.21995l19.56715,-16.9485l33.10501,38.21995z" fill="#49d000" stroke="#23a900" stroke-width="2" stroke-linecap="butt"/><text transform="translate(227.47872,193.99117) rotate(-40.43475) scale(0.73331,0.73331)" font-size="40" xml:space="preserve" fill="#ffffff" fill-rule="nonzero" stroke="none" stroke-width="1" stroke-linecap="butt" stroke-linejoin="miter" stroke-miterlimit="10" stroke-dasharray="" stroke-dashoffset="0" font-family="Sans Serif" font-weight="normal" text-anchor="start" style="mix-blend-mode: normal"><tspan x="0" dy="0">S</tspan></text><path d="M215.2613,170.21601l22.20174,21.37946" fill="none" stroke="#ffffff" stroke-width="2.5" stroke-linecap="round"/><path d="M239.06523,189.20489l-19.9129,-20.58791" fill="none" stroke="#ffffff" stroke-width="2.5" stroke-linecap="round"/><path d="M221.2594,195.12586l-5.46801,-5.83255l21.42479,-20.42907l4.55248,6.5192z" fill="#c5c5c5" stroke="#ffffff" stroke-width="0" stroke-linecap="butt"/><path d="M293.42231,182.80763c-1.95125,0.75183 -2.70309,-1.19942 -2.70309,-1.19942l-0.57605,-1.49505c-1.13776,-2.95286 -1.87458,-6.92825 -4.65148,-8.84769c-1.35013,-0.93323 -3.0148,-0.02154 -4.19208,0.72689c-1.10274,0.70104 -3.90586,2.64831 -4.87649,3.79739c-2.0546,2.43233 -0.9328,6.73093 -0.45534,9.48893c0,0 0.35456,2.06081 -1.70624,2.41537c-2.06081,0.35456 -2.41537,-1.70625 -2.41537,-1.70625c-0.53748,-3.14183 -1.31539,-6.91538 -0.18065,-10.0192c1.89082,-5.17189 10.40874,-11.60822 15.97677,-8.28998c3.85245,2.29584 4.91234,7.06113 6.40338,10.93086l0.57606,1.49505c0,0 0.75183,1.95125 -1.19942,2.70308z" fill="#ffd06f" stroke="#c19d55" stroke-width="1" stroke-linecap="butt"/><path d="M274.97073,205.58217l-6.83036,-17.72699l29.04663,-11.19191l6.83036,17.72699z" fill="#ffd06f" stroke="#c19d55" stroke-width="1" stroke-linecap="butt"/><path d="M290.65414,188.99189c1.04534,2.71299 -0.40218,5.79656 -3.23313,6.88734c-2.83094,1.09079 -5.97329,-0.22427 -7.01863,-2.93726c-1.04534,-2.71299 0.40218,-5.79656 3.23313,-6.88734c2.83094,-1.09079 5.97329,0.22427 7.01863,2.93726z" fill="#ffffff" stroke="#c19d55" stroke-width="1" stroke-linecap="butt"/><text transform="translate(283.86271,194.92006) rotate(-21.07177) scale(0.20991,0.20991)" font-size="40" xml:space="preserve" fill="#000000" fill-rule="nonzero" stroke="none" stroke-width="1" stroke-linecap="butt" stroke-linejoin="miter" stroke-miterlimit="10" stroke-dasharray="" stroke-dashoffset="0" font-family="Serif" font-weight="normal" text-anchor="start" style="mix-blend-mode: normal"><tspan x="0" dy="0">G</tspan></text><path d="M276.92611,153.82273c0,0 0.10882,0.42447 0.3483,2.65991c0.19875,1.85522 0.8414,4.94442 0.8414,4.94442l-0.21961,0.66855l-2.9518,0.78628c0,0 -1.0776,-0.67552 -1.11052,-0.97222c-0.06333,-0.57088 -1.01742,-2.50392 -1.01742,-2.50392l0.05051,-4.48119l2.51492,-2.60552z" fill="url(#color-1)" stroke="#000000" stroke-width="2" stroke-linecap="butt"/><path d="M260.37542,156.85339l12.21366,-0.16413" fill="none" stroke="#000000" stroke-width="2" stroke-linecap="round"/><path d="M246.05881,162.34l-0.45006,-9.6753l5.84081,-0.3727l6.3541,-0.19457l2.27587,3.32822l-0.05051,4.48119l-1.77529,1.86589z" data-paper-data="{&quot;index&quot;:null}" fill="url(#color-2)" stroke="#000000" stroke-width="2" stroke-linecap="butt"/><path d="M288.3949,139.72194c0,0.82905 -2.68781,0.81078 -2.65849,1.84476c0.05099,1.79818 2.6299,4.68251 0.97809,5.68035c-0.74264,0.44862 -4.62565,-1.85637 -5.39501,-1.24494c-1.18523,0.94193 -0.00229,5.13908 -1.83931,5.69288c-1.26794,0.38224 -5.28635,-2.64734 -6.72153,-2.27801c-0.7574,0.19491 -1.38992,3.62297 -2.19233,3.77312c-0.67276,0.12589 -3.27676,-2.8595 -3.96439,-2.74322c-2.40694,0.40702 -3.19321,3.02556 -5.87303,3.08617c-0.58613,0.01326 -2.06428,-1.90306 -2.65887,-1.90306c-1.28564,0 -1.96858,2.29658 -3.23053,2.07996c-1.72753,-0.29653 -4.02299,-3.10491 -5.69861,-2.832c-2.51396,0.40945 -4.96459,2.53498 -7.33718,2.41622c-0.74606,-0.03734 -1.48441,-3.30606 -2.21458,-3.28989c-2.16823,0.04803 -4.89813,2.90011 -6.61834,2.51545c-0.77163,-0.17255 -0.90618,-3.02338 -1.58096,-3.22838c-1.33981,-0.40703 -2.75853,0.66963 -3.61058,-0.06757c-0.99797,-0.86345 0.47405,-3.30415 0.77258,-5.55329c0.21963,-1.65462 -0.80665,-3.20556 -0.80665,-3.94857c0,-6.57664 13.5769,-11.90806 30.32486,-11.90806c16.74796,0 30.32486,5.33142 30.32486,11.90806z" fill="#feffce" stroke="#fffeb9" stroke-width="2" stroke-linecap="butt"/><path d="M244.31291,139.7959v-16.56773h25.29537v16.56773z" fill="#feffce" stroke="#fffeb9" stroke-width="2" stroke-linecap="butt"/><path d="M243.27742,142.16272v-5.17742h30.32486v5.17742z" fill="#ff5050" stroke="none" stroke-width="0" stroke-linecap="butt"/><path d="M272.86266,138.9823c0,0.81742 2.82501,3.05022 1.93218,3.69408c-0.75024,0.54103 -4.62083,-0.51811 -4.89247,0.22532c-0.42575,1.16522 1.72944,3.41073 0.7337,3.66917c-0.4465,0.11589 -2.24619,-2.04134 -2.72895,-2.04134c-0.87325,0 -3.15589,1.84439 -3.87364,1.62399c-0.80494,-0.24717 0.0152,-2.6338 0.23729,-4.11595c0.10702,-0.71423 -3.76652,0.81372 -3.94257,0.15414c-0.12212,-0.45751 2.03168,-2.71341 2.03168,-3.20941c0,-0.50918 -1.76469,0.04579 -2.06146,-0.76279c-0.2237,-0.60948 2.13686,-0.5364 2.38848,-1.41556c0.25026,-0.87444 -1.6096,-2.702 -1.39314,-2.98254c0.25072,-0.32494 2.10177,1.06587 2.73773,0.73433c0.92515,-0.48231 0.76499,-2.62809 1.71196,-2.54191c1.03573,0.09426 2.3477,2.9005 3.05123,2.9005c0.84759,0 3.19527,-1.98405 3.99906,-1.25533c0.42442,0.38478 -0.89591,1.75357 -1.27634,2.32583c-0.71524,1.0759 3.363,-0.48473 3.65831,0.37647c0.22922,0.66846 -2.31306,1.84816 -2.31306,2.621z" fill="#ed00ff" stroke="none" stroke-width="0" stroke-linecap="butt"/><path d="M270.79169,139.13023c0,2.00159 -1.58949,3.62419 -3.55023,3.62419c-1.96074,0 -3.55023,-1.6226 -3.55023,-3.62419c0,-2.00159 1.58949,-3.62419 3.55023,-3.62419c1.96074,0 3.55023,1.6226 3.55023,3.62419z" fill="#fff600" stroke="none" stroke-width="0" stroke-linecap="butt"/></g></g></svg>