<svg version="1.1" xmlns="http://www.w3.org/2000/svg" xmlns:xlink="http://www.w3.org/1999/xlink" width="91.22768" height="104.08731" viewBox="0,0,91.22768,104.08731"><g transform="translate(-211.14732,-109.96608)"><g data-paper-data="{&quot;isPaintingLayer&quot;:true}" fill-rule="nonzero" stroke="#000000" stroke-linecap="butt" stroke-linejoin="miter" stroke-miterlimit="10" stroke-dasharray="" stroke-dashoffset="0" style="mix-blend-mode: normal"><path d="M301.375,166.99479c0,5.45381 -5.14873,9.875 -11.5,9.875c-6.35127,0 -2.75,-3.67119 -2.75,-9.125c0,-5.45381 -3.60127,-10.625 2.75,-10.625c6.35127,0 11.5,4.42119 11.5,9.875z" fill="#0c0c0c" stroke-width="2"/><path d="M289.125,147.11979c0,8.69646 1.93576,23.48319 -3.28927,28.71076c-1.9534,1.95434 -8.12556,29.4719 -22.87144,35.38529c-4.5637,1.83014 -9.75821,2.13681 -14.98779,1.59959c-14.48088,-1.48756 -29.23076,-9.44564 -31.60151,-9.44564c-13.39291,0 8.37626,-47.3859 19,-59c11.5,-12.57205 9.57799,-10.47773 13.08133,-12.78719c2.9337,-1.93394 9.24007,-18.51982 9.24007,-18.51982l4.17859,13.80702c0,0 6.95716,-0.88218 11.06155,0.28322c3.42097,0.97134 5.92418,3.83294 5.92418,3.83294l16.04918,-9.90703c0,0 -5.78492,19.14158 -5.78492,26.04087zM278.125,168.86979c5.52284,0 10,0.52284 10,-5c0,-5.52284 -4.47716,-5.75 -10,-5.75c-5.52284,0 -10,0.22716 -10,5.75c0,5.52284 4.47716,5 10,5zM260.875,155.11979c2.34721,0 4.25,-1.90279 4.25,-4.25c0,-2.34721 -1.90279,-4.25 -4.25,-4.25c-2.34721,0 -4.25,1.90279 -4.25,4.25c0,2.34721 1.90279,4.25 4.25,4.25z" fill="#1f1f1f" stroke-width="2"/><path d="M278.375,155.36979c0,1.933 -1.7349,3.5 -3.875,3.5c-2.1401,0 -3.875,-1.567 -3.875,-3.5c0,-1.933 1.7349,-3.5 3.875,-3.5c2.1401,0 3.875,1.567 3.875,3.5z" fill="#1f1f1f" stroke-width="2"/><path d="M284.625,154.61979c0,1.933 -1.73489,3.5 -3.875,3.5c-2.14011,0 -3.875,-1.567 -3.875,-3.5c0,-1.933 1.73489,-3.5 3.875,-3.5c2.14011,0 3.875,1.567 3.875,3.5z" fill="#1f1f1f" stroke-width="2"/><path d="M214.67451,178.85013l1.85559,-6.2295c0,0 44.55905,13.6092 55.58117,16.97557c4.66684,1.42534 9.96422,3.04326 9.96422,3.04326l-4.35559,6.47951z" fill="#ffe145" stroke-width="1"/><path d="M220.05419,183.37409l4.44266,-12.21731l4.69897,1.70871l-4.44266,12.21732z" fill="#ffe145" stroke-width="1"/><path d="M236.05419,189.62409l4.44266,-12.21731l4.69897,1.70871l-4.44266,12.21732z" fill="#ffe145" stroke-width="1"/><path d="M266.55419,198.87409l4.44266,-12.21731l4.69897,1.70871l-4.44266,12.21732z" fill="#ffe145" stroke-width="1"/><path d="M264.80294,191.75458c-1.46306,3.87515 -6.36646,5.61308 -10.95204,3.88179c-4.58559,-1.73129 -7.11689,-6.27621 -5.65382,-10.15135c1.46307,-3.87515 6.36646,-5.61307 10.95204,-3.88178c4.58558,1.73129 7.11689,6.2762 5.65382,10.15135z" fill="#ffe145" stroke-width="1"/><path d="M258.81146,190.21751c-0.31781,1.11035 -1.76286,1.36944 -3.3259,0.92207c-1.16511,-0.33347 -2.02263,-1.12003 -2.25212,-1.9588c-0.03373,-0.12327 -2.8784,1.9347 -3.16532,1.36283c-0.3799,-0.75718 2.22567,-5.73186 2.27177,-5.89291c0.11055,-0.38622 1.25809,2.96524 1.6115,2.73498c0.27236,-0.17745 0.94771,-1.97816 1.31259,-2.04475c0.52284,-0.09542 0.77209,1.60585 1.37246,1.77768c0.51412,0.14715 1.70707,-1.14619 2.07387,-0.85703c0.44867,0.35369 0.50101,1.33734 0.42501,2.22902c-0.01776,0.20829 2.57593,-1.87483 3.33411,-1.2146c0.36087,0.31424 -1.38343,5.1208 -1.4048,5.22649c-0.06212,0.3072 -2.21186,-2.42935 -2.25317,-2.28498z" fill="#000000" stroke-width="1"/><path d="M242.125,157.74479c0,5.45381 -5.14873,9.875 -11.5,9.875c-6.35127,0 -11.5,-4.42119 -11.5,-9.875c0,-5.45381 5.14873,-9.875 11.5,-9.875c6.35127,0 11.5,4.42119 11.5,9.875z" fill="#0c0c0c" stroke-width="2"/></g></g></svg>