<svg version="1.1" xmlns="http://www.w3.org/2000/svg" xmlns:xlink="http://www.w3.org/1999/xlink" width="82.74401" height="103.8071" viewBox="0,0,82.74401,103.8071"><defs><linearGradient x1="224.77433" y1="159.88663" x2="252.01812" y2="177.12753" gradientUnits="userSpaceOnUse" id="color-1"><stop offset="0" stop-color="#ffad66"/><stop offset="1" stop-color="#ff9966"/></linearGradient><linearGradient x1="247.50126" y1="174.74103" x2="275.74253" y2="190.29428" gradientUnits="userSpaceOnUse" id="color-2"><stop offset="0" stop-color="#ffad66"/><stop offset="1" stop-color="#ff9966"/></linearGradient></defs><g transform="translate(-208.84516,-121.25434)"><g data-paper-data="{&quot;isPaintingLayer&quot;:true}" fill-rule="nonzero" stroke-linecap="butt" stroke-linejoin="miter" stroke-miterlimit="10" stroke-dasharray="" stroke-dashoffset="0" style="mix-blend-mode: normal"><path d="M252.01812,177.12753c-14.90381,23.55079 -31.5574,35.91429 -39.08056,31.15335c-7.52317,-4.76094 -3.06705,-24.84345 11.83677,-48.39424c14.90381,-23.55079 35.01556,-42.14458 42.53873,-37.38364c3.74432,2.36954 3.66462,10.07768 0.80244,20.12687c-0.7301,-0.37393 -1.5184,-0.66345 -2.35522,-0.85314c-5.38619,-1.221 -10.74237,2.15555 -11.96337,7.54174c-1.18615,5.23245 1.96654,10.43658 7.08549,11.8488c-2.54122,5.27663 -5.52758,10.68767 -8.86427,15.96026z" fill="url(#color-1)" stroke="#b77c49" stroke-width="1"/><path d="M275.74253,190.29428c-13.44494,24.41305 -29.31633,37.76584 -37.11494,33.47093c-7.79862,-4.29491 -4.57127,-24.61112 8.87367,-49.02417c3.01332,-5.47152 6.30289,-10.71041 9.68131,-15.49775c1.16885,0.96629 2.57599,1.68035 4.15607,2.03854c5.38619,1.221 10.74237,-2.15555 11.96337,-7.54174c0.8625,-3.80475 -0.56911,-7.59452 -3.38266,-9.92234c7.30939,-7.32406 13.90704,-11.10401 17.76996,-8.97659c7.79862,4.29491 1.49815,31.04007 -11.94679,55.45312z" fill="url(#color-2)" stroke="#b77c49" stroke-width="1"/><path d="M263.24021,177.47687c-15.40983,26.53359 -28.00183,49.60502 -39.70782,42.80656c-11.706,-6.79846 1.50693,-28.15953 16.91675,-54.69312c15.40983,-26.53359 27.18118,-48.19198 38.88718,-41.39353c11.706,6.79846 -0.68628,26.74649 -16.09611,53.28008zM261.33864,161.28183c5.38619,1.221 10.74237,-2.15555 11.96337,-7.54174c1.221,-5.38619 -2.15555,-10.74237 -7.54174,-11.96337c-5.38619,-1.221 -10.74237,2.15555 -11.96337,7.54174c-1.221,5.38619 2.15555,10.74237 7.54174,11.96337z" fill="#4e241f" stroke="#26110f" stroke-width="1.5"/><path d="M265.7481,139.22994c0.16176,0.321 0.26302,0.72288 0.26302,1.22602c0,2.5 -2.5,2.5 -2.5,2.5l-2.0012,-0.73223c-0.67769,-0.68343 -1.57862,-1.20187 -2.03308,-2.05029c-0.80974,-1.51167 -2.45888,-3.34214 -1.67145,-4.86555c1.08231,-2.0939 8.79805,-1.25264 10.83242,-1.07682c0.50907,0.044 2.32917,0.06285 3.75648,0.30839c-0.15495,-0.11114 -0.30731,-0.22573 -0.45725,-0.34279c-0.69452,-0.54225 -1.26398,-1.23516 -1.96905,-1.76363c-1.63456,-1.22514 -2.33946,-1.30542 -4.27654,-1.99974c0,0 -2.34948,-0.85436 -1.49513,-3.20384c0.85436,-2.34948 3.20384,-1.49513 3.20384,-1.49513c4.05241,1.49134 14.67048,6.70776 10.63106,12.82774c-0.82833,1.25498 -2.88271,0.89525 -4.36904,1.1232c-2.49312,0.38235 -5.37962,-0.31993 -7.91408,-0.45534z" fill="#ff0000" stroke="none" stroke-width="0.5"/><path d="M271.74921,155.86278c0,-1.38071 0.65241,-2.5 2.03313,-2.5c1.38071,0 2.5,1.11929 2.5,2.5c0,1.38071 -1.11929,2.5 -2.5,2.5c-1.38071,0 -2.03313,-1.11929 -2.03313,-2.5z" fill="#ff0000" stroke="none" stroke-width="0.5"/><path d="M230.83,222.09096c-2.5,0 -2.5,-2.5 -2.5,-2.5l0.01027,-0.24053c-0.13355,-1.46902 0.29634,-3.0626 -0.29112,-4.41565c-1.67691,-3.86226 -7.69268,-3.89461 -9.68622,-7.68808c-0.99811,-1.8993 -1.31361,-9.9523 0.5882,-11.51329c1.21855,-1.00018 3.1469,-0.19463 4.72035,-0.29194c4.51878,1.63403 8.76041,5.65068 13.55043,5.7774c1.42889,0.0378 3.26331,0.96679 4.28807,-0.02972c0.3147,-0.30603 -0.33614,-0.83805 -0.32249,-1.27681c0.09617,-3.09093 0.36301,-4.41466 -0.41071,-7.49399c-0.927,-3.68939 -2.00386,-6.98734 -4.10083,-10.20739c-0.71151,-1.09258 -3.24218,-3.74104 -3.36456,-4.94793c-0.17999,-1.77503 -0.30522,-4.00887 0.96143,-5.26534c2.70096,-2.67923 7.83095,0.48209 10.28078,1.70457c1.63346,0.81707 3.32822,1.51006 4.94639,2.35703c1.63897,0.85786 3.89175,2.92794 5.97452,2.57971c3.33953,-0.55836 0.84794,-6.9575 0.65727,-8.66634c-0.06818,-0.61109 0.25554,-1.29496 -0.02024,-1.84453c-0.82124,-1.63649 -2.8774,-2.32823 -3.96599,-3.80047c-1.07929,-1.45967 -1.51945,-3.34414 -2.67645,-4.74302c-0.74248,-0.8977 -2.10824,-1.35963 -2.47822,-2.46428c-1.58539,-4.73357 0.24303,-4.89228 3.18131,-7.27408c0,0 2.04808,-1.43366 3.48174,0.61442c1.43366,2.04808 -0.61442,3.48174 -0.61442,3.48174c-0.51686,0.24683 -1.09444,0.39408 -1.55057,0.7405c-0.64739,0.49167 1.25723,1.04306 1.7868,1.65984c1.26947,1.47854 1.77337,3.49001 2.92603,5.06132c1.34422,1.83245 3.35544,2.43446 4.43773,4.60325c0.79483,1.59275 1.25851,6.65717 1.39311,8.53928c0.57154,7.99212 -6.01357,10.66245 -12.52274,7.34009c-2.40172,-1.22587 -4.77108,-2.50219 -7.19231,-3.71232c-0.69293,-0.34721 -2.5489,-0.92217 -3.72426,-1.63998c0.19202,0.24544 0.37565,0.49811 0.56761,0.74337c1.20825,1.54372 2.2638,3.21174 3.20131,4.93338c2.95485,5.42629 4.89168,12.13981 3.78833,18.30795c-0.23118,1.29239 0.13591,2.92735 -0.78936,3.8588c-1.21586,1.22398 -3.16235,1.44298 -4.84696,1.8152c-7.07843,1.564 -11.87133,-3.64864 -17.9325,-5.87185c-0.02224,-0.04064 -0.05223,-0.09396 -0.08624,-0.15385c0.88385,2.11939 -0.93012,4.09033 1.63176,5.72777c3.19072,2.03937 6.81858,3.42474 8.54987,7.14701c0.17266,0.37121 0.57588,5.12143 0.64262,5.85556l0.01027,0.69321c0,0 0,2.5 -2.5,2.5z" fill="#ff0000" stroke="none" stroke-width="0.5"/></g></g></svg>