<svg version="1.1" xmlns="http://www.w3.org/2000/svg" xmlns:xlink="http://www.w3.org/1999/xlink" width="128.243" height="106.13268" viewBox="0,0,128.243,106.13268"><defs><linearGradient x1="292.77349" y1="156.96967" x2="292.22981" y2="145.28186" gradientUnits="userSpaceOnUse" id="color-1"><stop offset="0" stop-color="#232323"/><stop offset="1" stop-color="#232323" stop-opacity="0"/></linearGradient><linearGradient x1="260.58718" y1="156.26047" x2="260.0435" y2="144.57265" gradientUnits="userSpaceOnUse" id="color-2"><stop offset="0" stop-color="#232323"/><stop offset="1" stop-color="#232323" stop-opacity="0"/></linearGradient></defs><g transform="translate(-193.72794,-108.89821)"><g data-paper-data="{&quot;isPaintingLayer&quot;:true}" fill-rule="nonzero" stroke-linejoin="miter" stroke-miterlimit="10" stroke-dasharray="" stroke-dashoffset="0" style="mix-blend-mode: normal"><path d="M234.71729,210.26216l-39.57875,-45.69391l23.39354,-20.2628l39.57875,45.69392z" fill="#49d000" stroke="#23a900" stroke-width="2" stroke-linecap="butt"/><path d="M239.44364,210.88388l-39.57874,-45.69392l23.39354,-20.26281l39.57875,45.69392z" fill="#5aff00" stroke="#00cc28" stroke-width="2" stroke-linecap="butt"/><path d="M239.99093,213.62031l-39.57875,-45.69391l23.39354,-20.2628l39.57874,45.69391z" fill="#49d000" stroke="#23a900" stroke-width="2" stroke-linecap="butt"/><text transform="translate(229.81873,194.49903) rotate(-40.43475) scale(0.87671,0.87671)" font-size="40" xml:space="preserve" fill="#ffffff" fill-rule="nonzero" stroke="none" stroke-width="1" stroke-linecap="butt" stroke-linejoin="miter" stroke-miterlimit="10" stroke-dasharray="" stroke-dashoffset="0" font-family="Sans Serif" font-weight="normal" text-anchor="start" style="mix-blend-mode: normal"><tspan x="0" dy="0">S</tspan></text><path d="M215.21218,166.07459l26.54332,25.56024" fill="none" stroke="#ffffff" stroke-width="2.5" stroke-linecap="round"/><path d="M219.8641,164.16288l23.8069,24.61391" fill="none" stroke="#ffffff" stroke-width="2.5" stroke-linecap="round"/><path d="M222.38321,195.85561l-6.53729,-6.97312l25.61444,-24.424l5.44272,7.79405z" fill="#c5c5c5" stroke="#ffffff" stroke-width="0" stroke-linecap="butt"/><path d="M308.65769,181.12853c-2.33282,0.89885 -3.23168,-1.43397 -3.23168,-1.43397l-0.6887,-1.78741c-1.36025,-3.53029 -2.24116,-8.28307 -5.56108,-10.57787c-1.61415,-1.11573 -3.60435,-0.02575 -5.01185,0.86903c-1.31838,0.83812 -4.66966,3.16619 -5.8301,4.53997c-2.45639,2.90798 -1.11521,8.04717 -0.54438,11.3445c0,0 0.4239,2.46381 -2.0399,2.8877c-2.4638,0.42389 -2.8877,-2.03991 -2.8877,-2.03991c-0.64258,-3.75622 -1.57262,-8.26769 -0.21598,-11.97846c2.26058,-6.18327 12.44418,-13.87823 19.10105,-9.9111c4.6058,2.7448 5.87295,8.44195 7.65557,13.06841l0.68871,1.78741c0,0 0.89886,2.33282 -1.43397,3.23168z" fill="#ffd06f" stroke="#c19d55" stroke-width="1" stroke-linecap="butt"/><path d="M286.59787,208.35666l-8.16604,-21.19352l34.72674,-13.38051l8.16604,21.19352z" fill="#ffd06f" stroke="#c19d55" stroke-width="1" stroke-linecap="butt"/><path d="M305.34819,188.52213c1.24975,3.24352 -0.48083,6.93008 -3.86537,8.23417c-3.38454,1.30409 -7.14137,-0.26812 -8.39113,-3.51164c-1.24975,-3.24352 0.48083,-6.93008 3.86537,-8.23417c3.38454,-1.30409 7.14137,0.26812 8.39113,3.51164z" fill="#ffffff" stroke="#c19d55" stroke-width="1" stroke-linecap="butt"/><text transform="translate(297.22869,195.60956) rotate(-21.07177) scale(0.25096,0.25096)" font-size="40" xml:space="preserve" fill="#000000" fill-rule="nonzero" stroke="none" stroke-width="1" stroke-linecap="butt" stroke-linejoin="miter" stroke-miterlimit="10" stroke-dasharray="" stroke-dashoffset="0" font-family="Serif" font-weight="normal" text-anchor="start" style="mix-blend-mode: normal"><tspan x="0" dy="0">G</tspan></text><path d="M288.93563,146.47558c0,0 0.13009,0.50748 0.41641,3.18007c0.23762,2.21801 1.00593,5.91131 1.00593,5.91131l-0.26256,0.79929l-3.52903,0.94003c0,0 -1.28833,-0.80761 -1.32769,-1.16234c-0.07572,-0.68251 -1.21638,-2.99357 -1.21638,-2.99357l0.06039,-5.35749l3.00672,-3.11504z" fill="url(#color-1)" stroke="#000000" stroke-width="2" stroke-linecap="butt"/><path d="M283.75049,149.90267l-14.60206,0.19623" fill="none" stroke="#000000" stroke-width="2" stroke-linecap="round"/><path d="M252.03219,156.65842l-0.53807,-11.56732l6.98299,-0.44558l7.59665,-0.23261l2.72092,3.97905l-0.06039,5.3575l-2.12246,2.23076z" data-paper-data="{&quot;index&quot;:null}" fill="url(#color-2)" stroke="#000000" stroke-width="2" stroke-linecap="butt"/><path d="M302.64716,129.61736c0,0.99117 -3.21342,0.96934 -3.17836,2.20551c0.06097,2.14982 3.14419,5.59818 1.16936,6.79115c-0.88786,0.53634 -5.53021,-2.21938 -6.45001,-1.48839c-1.417,1.12612 -0.00273,6.14404 -2.19898,6.80614c-1.51589,0.45699 -6.32011,-3.16504 -8.03594,-2.72348c-0.90551,0.23303 -1.66172,4.33145 -2.62104,4.51097c-0.80432,0.15051 -3.91753,-3.41869 -4.73963,-3.27967c-2.87761,0.48662 -3.81765,3.61721 -7.02151,3.68968c-0.70075,0.01585 -2.46796,-2.27521 -3.17882,-2.27521c-1.53704,0 -2.35353,2.74568 -3.86226,2.48671c-2.06536,-0.35452 -4.8097,-3.71208 -6.81299,-3.3858c-3.00557,0.48952 -5.93542,3.0307 -8.77198,2.88872c-0.89196,-0.04465 -1.77469,-3.95257 -2.64765,-3.93323c-2.59223,0.05742 -5.85597,3.46723 -7.91257,3.00735c-0.92252,-0.20629 -1.08338,-3.6146 -1.89013,-3.85969c-1.60181,-0.48663 -3.29796,0.80058 -4.31664,-0.08078c-1.19312,-1.0323 0.56674,-3.95028 0.92366,-6.63924c0.26257,-1.97819 -0.96439,-3.83242 -0.96439,-4.72072c0,-7.86271 16.23189,-14.23669 36.25493,-14.23669c20.02305,0 36.25493,6.37398 36.25493,14.23669z" fill="#feffce" stroke="#fffeb9" stroke-width="2" stroke-linecap="butt"/><path d="M249.94487,129.70578v-19.80757h30.24192v19.80757z" fill="#feffce" stroke="#fffeb9" stroke-width="2" stroke-linecap="butt"/><path d="M248.70689,132.53544v-6.18987h36.25493v6.18987z" fill="#ff5050" stroke="none" stroke-width="0" stroke-linecap="butt"/><path d="M284.07756,128.73309c0,0.97727 3.37745,3.64669 2.31003,4.41646c-0.89696,0.64684 -5.52444,-0.61942 -5.8492,0.26939c-0.509,1.39308 2.06763,4.07771 0.87718,4.38668c-0.53382,0.13855 -2.68543,-2.44053 -3.26259,-2.44053c-1.04402,0 -3.77303,2.20506 -4.63113,1.94156c-0.96235,-0.29551 0.01818,-3.14884 0.2837,-4.92083c0.12795,-0.8539 -4.50307,0.97285 -4.71354,0.18429c-0.14599,-0.54698 2.42898,-3.24403 2.42898,-3.83701c0,-0.60874 -2.10978,0.05474 -2.46458,-0.91195c-0.26744,-0.72867 2.55473,-0.6413 2.85554,-1.69237c0.2992,-1.04544 -1.92436,-3.23039 -1.66557,-3.56578c0.29975,-0.38848 2.51277,1.2743 3.27309,0.87792c1.10607,-0.57663 0.91459,-3.14202 2.04674,-3.03898c1.23827,0.11269 2.80679,3.4677 3.6479,3.4677c1.01334,0 3.82011,-2.37203 4.78108,-1.50081c0.50741,0.46002 -1.0711,2.09648 -1.52593,2.78065c-0.85511,1.28629 4.02064,-0.57952 4.3737,0.45009c0.27405,0.79917 -2.76538,2.20957 -2.76538,3.13354z" fill="#ed00ff" stroke="none" stroke-width="0" stroke-linecap="butt"/><path d="M281.60161,128.90994c0,2.393 -1.90032,4.33291 -4.24448,4.33291c-2.34416,0 -4.24448,-1.93991 -4.24448,-4.33291c0,-2.393 1.90032,-4.33291 4.24448,-4.33291c2.34416,0 4.24448,1.93991 4.24448,4.33291z" fill="#fff600" stroke="none" stroke-width="0" stroke-linecap="butt"/></g></g></svg>